<svg width="117" height="40" viewBox="0 0 117 40" fill="none" xmlns="http://www.w3.org/2000/svg">
<path d="M2.47925 26.2917H4.57651V28.4137H2.47925V26.2917Z" fill="#7A8096"/>
<path d="M17.1847 11.5863V28.4137H15.0875V11.5863H17.1847ZM12.9902 11.5863V28.4137H10.893V11.5863H12.9902ZM21.4039 18.4209V21.5791H19.3067V18.4209H21.4039ZM8.77102 11.5863V28.4137H6.67376V11.5863H8.77102ZM4.57651 11.5863V26.3165H2.47925V11.5863H4.57651Z" fill="#7A8096"/>
<path d="M102.506 17.2612C103.049 17.2612 103.592 17.3105 104.11 17.4092C104.48 17.4832 104.85 17.6066 105.195 17.7547L104.825 19.013C104.529 18.865 104.233 18.7416 103.912 18.6429C103.468 18.4949 103 18.4208 102.555 18.4455C102.062 18.4208 101.593 18.5195 101.149 18.7169C100.779 18.9143 100.581 19.2844 100.631 19.7039C100.631 19.9013 100.68 20.0986 100.804 20.2467C100.927 20.3947 101.075 20.5428 101.248 20.6415C101.445 20.7648 101.667 20.8635 101.889 20.9375L102.654 21.1596L103.69 21.505C104.011 21.6284 104.332 21.8011 104.628 21.9985C105.245 22.4426 105.59 23.1582 105.541 23.8984C105.566 24.3425 105.467 24.7866 105.245 25.1567C105.047 25.5022 104.776 25.7736 104.455 25.9956C104.11 26.2177 103.74 26.3904 103.345 26.4891C102.901 26.5385 102.457 26.5631 102.013 26.5138C101.618 26.5385 101.248 26.5385 100.853 26.5138C100.557 26.4644 100.285 26.4151 99.9893 26.3411C99.7673 26.2917 99.5452 26.2177 99.3231 26.119C99.1504 26.045 98.9777 25.9463 98.805 25.8476L99.2985 24.5892C99.4218 24.6879 99.5205 24.762 99.6686 24.836C99.866 24.9347 100.039 25.0334 100.261 25.1074C100.507 25.2061 100.779 25.2801 101.05 25.3294C101.371 25.3788 101.692 25.4281 102.013 25.4281C102.531 25.4528 103.049 25.3294 103.493 25.058C103.814 24.8113 104.011 24.4165 103.986 23.9971C104.011 23.6516 103.838 23.3062 103.567 23.0841C103.123 22.7881 102.654 22.566 102.136 22.4426L101.026 22.0725C100.68 21.9492 100.384 21.8011 100.088 21.5791C99.8166 21.3817 99.5946 21.1349 99.4218 20.8389C99.2491 20.4934 99.1504 20.0986 99.1751 19.7285C99.1258 18.9883 99.4712 18.2975 100.063 17.8533C100.804 17.4339 101.642 17.2118 102.506 17.2612ZM91.1562 17.3845V23.4049C91.1562 23.701 91.1809 23.9971 91.2795 24.2932C91.3536 24.5152 91.4769 24.7126 91.6497 24.8607C91.7977 25.0087 91.9951 25.1074 92.1925 25.1567C92.4145 25.2061 92.6366 25.2554 92.8587 25.2554C93.4508 25.2801 94.0183 25.1074 94.4871 24.762C94.9312 24.4165 95.3013 23.9971 95.5481 23.5036V17.3845H97.0778V26.267H95.7208L95.5728 24.6633C95.326 25.2061 94.9066 25.6502 94.3884 25.9956C93.7962 26.3657 93.1054 26.5385 92.3899 26.5138C91.625 26.5385 90.9094 26.267 90.3419 25.7489C89.7744 25.1074 89.503 24.2685 89.5771 23.4049V17.3845H91.1562ZM37.7378 14.0289C38.2806 14.177 38.7988 14.3744 39.2922 14.6211L38.8234 16.0522C38.3793 15.7561 37.9105 15.534 37.417 15.3366C36.8249 15.1392 36.208 15.0406 35.5665 15.0652C34.4069 15.0652 33.2965 15.534 32.5317 16.4223C32.1122 16.8911 31.8161 17.4339 31.5941 18.0261C31.3473 18.7416 31.224 19.4818 31.2486 20.222C31.2486 20.9375 31.3473 21.6778 31.5694 22.3686C31.7668 22.9608 32.0629 23.4789 32.4576 23.9477C32.8277 24.3672 33.2965 24.7126 33.8147 24.9347C34.3822 25.1567 34.9744 25.2801 35.5912 25.2801C36.1587 25.2801 36.7015 25.2061 37.2197 25.0334C37.7131 24.8607 38.2066 24.6386 38.6754 24.3672L39.1195 25.4528C38.6754 25.7736 38.2066 26.0203 37.6638 26.193C36.9729 26.4398 36.2327 26.5385 35.4925 26.5385C34.6536 26.5385 33.8394 26.4151 33.0745 26.119C32.3589 25.8229 31.6928 25.4035 31.1746 24.8607C30.6071 24.2932 30.163 23.627 29.8916 22.8868C29.2747 21.1596 29.2747 19.2597 29.8916 17.5326C30.4591 16.0275 31.6928 14.8432 33.2225 14.2757C34.0121 13.9796 34.851 13.8315 35.7146 13.8562C36.4054 13.7822 37.0716 13.8562 37.7378 14.0289ZM53.4055 17.2118C53.899 17.2118 54.3925 17.2612 54.8613 17.3845C55.2561 17.4586 55.6015 17.6313 55.9469 17.8287L55.4535 19.161C55.1327 18.9143 54.7873 18.7169 54.4418 18.5689C54.0717 18.4208 53.6523 18.3468 53.2575 18.3715C52.8627 18.3715 52.4926 18.4455 52.1225 18.5936C51.7524 18.7416 51.4317 18.9637 51.1849 19.2597C50.9135 19.5805 50.6914 19.9506 50.5434 20.3454C50.3707 20.8389 50.2967 21.357 50.2967 21.8751C50.2226 22.7881 50.5434 23.701 51.1356 24.4165C51.7524 25.0087 52.5913 25.3048 53.4549 25.2554C54.1951 25.2308 54.9353 25.0087 55.5521 24.5892L55.8976 25.6996C55.5521 25.9463 55.1574 26.1437 54.7626 26.267C54.2691 26.4398 53.7756 26.5138 53.2575 26.5385C52.6653 26.5385 52.0485 26.4398 51.481 26.2177C50.9382 26.0203 50.4447 25.6996 50.0499 25.3048C49.6305 24.8853 49.3097 24.3919 49.0877 23.849C48.6189 22.5907 48.6189 21.209 49.0877 19.9506C49.3097 19.4078 49.6305 18.9143 50.0746 18.4949C50.4941 18.0754 51.0122 17.7546 51.5797 17.5573C52.1719 17.3105 52.7887 17.2118 53.4055 17.2118ZM83.2359 17.2118C83.8034 17.2118 84.3956 17.3105 84.9137 17.5326C85.4319 17.73 85.9254 18.0507 86.3201 18.4455C86.7396 18.865 87.0604 19.3584 87.2824 19.9013C87.7512 21.1843 87.7512 22.5907 87.2824 23.8737C87.085 24.4165 86.7643 24.91 86.3695 25.3294C85.9747 25.7242 85.4812 26.0203 84.9631 26.2424C84.3956 26.4644 83.8034 26.5631 83.2113 26.5631C82.6438 26.5631 82.0763 26.4644 81.5335 26.2424C81.0153 26.045 80.5465 25.7242 80.1517 25.3294C79.7323 24.91 79.4115 24.4165 79.2141 23.8737C78.7453 22.5907 78.7453 21.1843 79.2141 19.9013C79.4362 19.3584 79.757 18.865 80.1517 18.4455C80.5465 18.0507 81.0153 17.7546 81.5335 17.5326C82.101 17.3105 82.6685 17.2118 83.2359 17.2118ZM111.068 17.1625C111.635 17.1625 112.203 17.2612 112.721 17.4832C113.19 17.6806 113.609 18.0014 113.93 18.4208C114.275 18.865 114.497 19.3831 114.571 19.9506C114.695 20.6415 114.695 21.357 114.571 22.0479H108.428C108.502 24.1698 109.513 25.2308 111.487 25.2308C111.956 25.2308 112.425 25.1567 112.869 25.0087C113.264 24.8607 113.659 24.6879 114.004 24.4412L114.448 25.5515C114.078 25.8476 113.634 26.0943 113.165 26.2177C112.598 26.4151 112.005 26.4891 111.389 26.4891C110.155 26.5631 108.946 26.0943 108.058 25.2308C107.243 24.2685 106.824 23.0348 106.898 21.8011C106.898 21.1349 106.997 20.4934 107.219 19.8519C107.416 19.3091 107.712 18.8156 108.107 18.3962C108.477 18.0014 108.897 17.6806 109.39 17.4832C109.933 17.2612 110.5 17.1625 111.068 17.1625ZM42.6725 13.4368V26.3164H41.1428V13.4368H42.6725ZM59.3272 13.4368V26.3164H57.7728V13.4368H59.3272ZM64.8788 17.3845L61.1777 21.3817L65.1255 26.3411H63.3243L59.5246 21.5791L63.275 17.4092H64.8788V17.3845ZM68.5798 13.9796V19.6052H75.0196V13.9796H76.6728V26.3411H75.0196V20.8635H68.5798V26.3164H66.9267V13.9796H68.5798ZM46.7437 17.3845V26.267H45.2139V17.3845H46.7437ZM83.2359 18.3715C82.8905 18.3715 82.5451 18.4455 82.1996 18.5689C81.8542 18.6922 81.5581 18.9143 81.3114 19.1857C81.04 19.5065 80.8179 19.8766 80.6699 20.2714C80.4972 20.7895 80.4231 21.3323 80.4478 21.8751C80.4231 22.418 80.5218 22.9608 80.6699 23.4789C80.7933 23.8737 81.0153 24.2438 81.3114 24.5646C81.5581 24.836 81.8542 25.0334 82.1996 25.1814C82.5204 25.3048 82.8905 25.3788 83.2359 25.3788C83.606 25.3788 83.9515 25.3048 84.2969 25.1814C84.6423 25.058 84.9631 24.836 85.2098 24.5646C85.5059 24.2438 85.728 23.8737 85.8513 23.4789C86.0241 22.9608 86.0981 22.418 86.0981 21.8751C86.1228 21.3323 86.0241 20.7895 85.8513 20.2714C85.7033 19.8766 85.4812 19.5065 85.2098 19.1857C84.9631 18.9143 84.6423 18.6922 84.2969 18.5689C83.9515 18.4208 83.606 18.3715 83.2359 18.3715ZM111.117 18.2728C110.5 18.2728 109.883 18.5195 109.464 18.9637C108.946 19.5311 108.65 20.2467 108.576 21.0116H113.19C113.313 20.296 113.14 19.5312 112.721 18.939C112.301 18.4949 111.709 18.2481 111.117 18.2728ZM46.6696 14.399C46.8424 14.5964 46.9411 14.8432 46.9411 15.0899C46.9411 15.3366 46.8424 15.5834 46.6696 15.7561C46.4723 15.9288 46.2255 16.0275 45.9788 16.0275C45.7074 16.0522 45.4606 15.9535 45.2632 15.7808C45.0659 15.608 44.9672 15.3613 44.9918 15.0899C44.9918 14.8432 45.0659 14.5718 45.2386 14.399C45.658 14.0289 46.2749 14.0289 46.6696 14.399Z" fill="#7A8096"/>
</svg>
