<svg width="116" height="40" viewBox="0 0 116 40" fill="none" xmlns="http://www.w3.org/2000/svg">
<path d="M26.0957 12.222C24.0258 10.4248 21.3332 9.51195 18.5971 9.67989C15.8611 9.84783 13.3003 11.0831 11.4657 13.12C9.633 15.1583 8.67365 17.8347 8.79409 20.5731C8.91453 23.3116 10.1051 25.8934 12.1097 27.763C13.0847 28.639 13.9117 29.065 14.6467 29.065C16.0597 29.065 17.1167 27.485 18.4797 25.491C19.2995 24.218 20.2091 23.0053 21.2017 21.862C22.2337 20.758 23.3417 19.727 24.5157 18.776C26.2687 17.301 27.6457 16.141 27.6697 14.838C27.6817 14.038 27.1637 13.191 26.0957 12.222ZM21.5407 18.487C20.8678 19.0116 20.2362 19.5873 19.6517 20.209C19.0868 20.8697 18.5711 21.5709 18.1087 22.307C17.4117 23.362 16.9087 24.122 16.2567 24.122C16.0237 24.1091 15.8037 24.01 15.6397 23.844C14.6767 22.911 14.113 21.641 14.0671 20.301C14.0211 18.961 14.4966 17.6554 15.3934 16.6587C16.2903 15.662 17.5386 15.0519 18.876 14.9567C20.2134 14.8614 21.5357 15.2884 22.5647 16.148C22.674 16.2304 22.763 16.3366 22.8251 16.4586C22.8871 16.5806 22.9205 16.7151 22.9227 16.852C22.8857 17.382 22.3297 17.846 21.5397 18.488L21.5407 18.487ZM19.1007 5.26697C10.9637 5.26397 4.36572 11.867 4.36072 19.993C4.36336 23.899 5.91525 27.6445 8.67593 30.4079C11.4366 33.1712 15.1807 34.7266 19.0867 34.733C22.9928 34.7303 26.7383 33.1784 29.5016 30.4178C32.2649 27.6571 33.8204 23.913 33.8267 20.007C33.8279 16.0997 32.2777 12.3518 29.5167 9.58697C26.7567 6.82197 23.0087 5.26897 19.1007 5.26697ZM28.4007 28.367C26.1811 30.828 23.0758 32.3077 19.7663 32.4813C16.4568 32.6549 13.2136 31.5082 10.7487 29.293C5.56572 24.693 5.07272 16.773 9.64572 11.566C14.2187 6.35897 22.1387 5.82797 27.3677 10.374C32.5967 14.92 33.1677 22.838 28.6477 28.089L28.4007 28.367ZM39.7507 14.425C39.7446 13.407 40.1398 12.4276 40.8507 11.699C41.5587 10.973 42.5457 10.565 43.5657 10.562H43.6727C44.7477 10.504 45.8027 10.862 46.6067 11.586L45.5717 12.834C45.3118 12.5797 45.004 12.3794 44.6662 12.2449C44.3284 12.1103 43.9673 12.044 43.6037 12.05C42.3757 12.11 41.4237 13.147 41.4697 14.376C41.4517 14.6689 41.4917 14.9626 41.5875 15.24C41.6832 15.5175 41.8328 15.7733 42.0276 15.9929C42.2224 16.2124 42.4587 16.3913 42.7228 16.5193C42.9869 16.6474 43.2737 16.722 43.5667 16.739H43.7317C44.2816 16.7558 44.8229 16.599 45.2787 16.291V15.251H43.6247V13.839H46.8677V17.082C45.9789 17.8506 44.8418 18.2713 43.6667 18.266C42.6763 18.316 41.7066 17.9707 40.9707 17.306C40.6064 16.9766 40.3108 16.5785 40.1007 16.1345C39.8907 15.6906 39.7704 15.2095 39.7467 14.719C39.7401 14.6214 39.7384 14.5237 39.7417 14.426L39.7507 14.425ZM48.9377 10.669H52.3517C52.7467 10.6444 53.1427 10.6988 53.5165 10.8289C53.8903 10.9591 54.2344 11.1624 54.5287 11.427C54.7442 11.653 54.9123 11.9198 55.0231 12.2118C55.1339 12.5037 55.1851 12.8149 55.1737 13.127C55.2277 14.173 54.5707 15.124 53.5737 15.442L55.4017 18.099H53.4817L51.8817 15.699H50.5797V18.099H48.9367L48.9377 10.669ZM52.2447 14.297C53.0447 14.297 53.5047 13.87 53.5047 13.23C53.5047 12.526 53.0047 12.163 52.2047 12.163H50.5817V14.297H52.2447ZM57.1017 10.669H62.7347V12.131H58.7347V13.651H62.2547V15.113H58.7347V16.681H62.7887V18.143H57.1017V10.669ZM64.7517 10.669H70.3847V12.131H66.3847V13.651H69.9047V15.113H66.3847V16.681H70.4387V18.143H64.7417L64.7517 10.669ZM72.3817 10.669H73.8967L77.4127 15.251V10.669H79.0127V18.137H77.6147L73.9817 13.399V18.147H72.3817V10.669ZM81.2797 10.669H84.3297C86.1117 10.669 87.1897 11.736 87.1897 13.251C87.1897 14.979 85.8457 15.876 84.1697 15.876H82.9217V18.116H81.2787L81.2797 10.669ZM84.2247 14.435C84.3755 14.4547 84.5286 14.4443 84.6753 14.4045C84.8221 14.3646 84.9594 14.2961 85.0795 14.2028C85.1995 14.1095 85.2999 13.9934 85.3748 13.8611C85.4497 13.7288 85.4976 13.5829 85.5157 13.432C85.5187 13.3894 85.5187 13.3466 85.5157 13.304C85.5157 12.568 84.9827 12.174 84.1817 12.174H82.9017V14.457L84.2247 14.435ZM88.8017 10.669H90.4447V16.644H94.1787V18.138H88.8017V10.669ZM95.4967 14.937V10.669H97.1397V14.894C97.1397 16.11 97.7477 16.74 98.7397 16.74C99.7317 16.74 100.34 16.132 100.34 14.948V10.678H101.983V14.892C101.983 17.154 100.713 18.262 98.7077 18.262C96.7027 18.262 95.5077 17.132 95.5077 14.932L95.4967 14.937ZM104.167 10.669H105.937L107.9 13.827L109.863 10.669H111.639V18.137H110.002V13.261L107.9 16.461H107.857L105.777 13.303V18.147H104.177L104.167 10.669ZM40.0817 21.872H42.9947C45.3417 21.872 46.9647 23.472 46.9647 25.606C46.9647 27.708 45.3647 29.34 42.9947 29.34H40.0817V21.872ZM41.7247 23.355V27.857H42.9947C43.2746 27.8729 43.5549 27.8334 43.8195 27.7407C44.0842 27.648 44.3279 27.504 44.5367 27.317C44.9587 26.939 45.2137 26.41 45.2367 25.845C45.2421 25.7721 45.2421 25.6989 45.2367 25.626C45.2526 25.3461 45.2131 25.0657 45.1204 24.8011C45.0278 24.5365 44.8838 24.2928 44.6967 24.084C44.3187 23.662 43.7897 23.407 43.2247 23.384C43.1448 23.379 43.0646 23.379 42.9847 23.384L41.7247 23.355ZM50.7877 21.819H52.3017L55.5017 29.341H53.7837L53.1007 27.666H49.9407L49.2577 29.341H47.5817L50.7877 21.819ZM52.5157 26.215L51.5237 23.788L50.5097 26.215H52.5157ZM57.7317 23.387H55.4617V21.872H61.6497V23.387H59.3767V29.34H57.7317V23.387ZM64.7957 21.819H66.3017L69.5017 29.341H67.7837L67.1007 27.666H63.9407L63.2577 29.341H61.5817L64.7957 21.819ZM66.5137 26.215L65.5317 23.788L64.5397 26.21L66.5137 26.215ZM70.8887 21.872H74.3557C75.0687 21.825 75.7707 22.072 76.3077 22.532C76.6547 22.862 76.8477 23.332 76.8407 23.802C76.8557 24.482 76.4707 25.108 75.8587 25.402C76.7227 25.732 77.2567 26.234 77.2567 27.237C77.2567 28.603 76.1567 29.285 74.4617 29.285H70.8877L70.8887 21.872ZM75.1887 24.072C75.1887 23.572 74.8047 23.304 74.1217 23.304H72.5217V24.904H73.9837C74.7097 24.904 75.1677 24.669 75.1677 24.104L75.1887 24.072ZM74.3887 26.249H72.4887V27.889H74.4407C75.1667 27.889 75.6037 27.633 75.6037 27.089C75.5837 26.566 75.2307 26.257 74.3877 26.257L74.3887 26.249ZM81.2957 21.819H82.8107L86.0017 29.339H84.2837L83.6007 27.664H80.4407L79.7577 29.339H78.0817L81.2957 21.819ZM83.0507 26.215L82.0307 23.788L81.0387 26.21L83.0507 26.215ZM86.6507 28.252L87.6207 27.089C88.2301 27.6508 89.0222 27.973 89.8507 27.996C90.5227 27.996 90.9177 27.729 90.9177 27.292C90.9177 26.876 90.6617 26.662 89.4137 26.342C87.9097 25.958 86.9387 25.542 86.9387 24.059C86.9387 22.704 88.0057 21.809 89.5527 21.809C90.5599 21.7926 91.5411 22.1286 92.3267 22.759L91.4727 23.997C90.9155 23.5587 90.2383 23.2999 89.5307 23.255C88.9007 23.255 88.5707 23.543 88.5707 23.905C88.5707 24.405 88.8907 24.555 90.1707 24.887C91.6857 25.282 92.5407 25.827 92.5407 27.127C92.5407 28.61 91.4107 29.442 89.7987 29.442C88.6398 29.4416 87.5199 29.0185 86.6507 28.252ZM94.3077 21.872H99.9407V23.334H95.9407V24.854H99.4607V26.316H95.9407V27.884H99.9947V29.346H94.3077V21.872Z" fill="#7A8096"/>
</svg>
