<svg width="117" height="40" viewBox="0 0 117 40" fill="none" xmlns="http://www.w3.org/2000/svg">
<g clip-path="url(#clip0_856_15193)">
<path fill-rule="evenodd" clip-rule="evenodd" d="M96.1903 33.5801H102.87C103.145 32.3263 103.42 31.0724 103.7 29.8186C105.606 29.8186 107.575 29.8301 109.482 29.8301C110.409 29.8301 111.239 29.5381 111.966 29.0457C112.847 28.4503 113.511 27.5343 113.757 26.4007C114.175 24.4942 114.599 22.582 115.022 20.6755C115.263 19.5877 115.578 18.3568 114.793 17.3721C114.072 16.4675 113.122 16.393 112.075 16.393C104.536 16.3988 96.9917 16.393 89.4531 16.393C88.6918 16.393 88.0565 16.6392 87.3868 16.9827C86.7628 16.5419 86.2019 16.393 85.4349 16.393H75.0858C75.3663 15.1221 75.6525 13.8453 75.9329 12.5743H69.2415C68.9668 13.8167 68.692 15.0591 68.4116 16.2957H62.5272C61.7144 16.2957 60.936 16.5476 60.2548 16.9885C59.5965 16.582 59.0871 16.3988 58.3029 16.3988H38.887C39.1846 15.1106 39.4823 13.8224 39.7742 12.5285C37.5475 12.5285 35.3209 12.5228 33.0942 12.5171C31.812 18.2595 30.5299 24.0018 29.2419 29.7442C31.4629 29.7442 33.6895 29.7442 35.9162 29.7442C36.5859 26.8072 37.2556 23.8644 37.9253 20.9274H40.1806C40.4496 20.9274 40.3981 21.082 40.3523 21.2824C39.7169 24.1049 39.0873 26.9217 38.4519 29.7442H82.6873C83.4372 29.7442 84.0267 29.5896 84.7022 29.2461C85.3662 29.6927 85.9557 29.8415 86.7686 29.8301L97.0146 29.7442C96.7398 31.0209 96.4651 32.2976 96.1903 33.5686M67.3011 20.9503H65.332C64.9886 20.9503 64.8913 21.1106 64.8283 21.4198C64.5822 22.5247 64.336 23.6297 64.0899 24.7346C64.0212 25.0495 64.1815 25.1068 64.4562 25.1068H66.3738C66.6829 23.7213 66.992 22.3358 67.3011 20.9503ZM78.5946 21.0304H80.7011C81.1075 21.0304 81.0846 21.2423 81.0102 21.5686C80.7698 22.6507 80.5294 23.7385 80.2889 24.8205C80.2031 25.1984 79.9684 25.1927 79.6421 25.1927H77.5013C77.1865 25.1927 77.1865 25.0095 77.238 24.7518C77.4784 23.6698 77.7188 22.5877 77.9593 21.5056C78.0508 21.1049 78.2054 21.0304 78.5946 21.0304ZM92.4411 21.0304H94.5418C94.9482 21.0304 94.9253 21.2423 94.8509 21.5686C94.6105 22.6507 94.3701 23.7385 94.1297 24.8205C94.0438 25.1984 93.8091 25.1927 93.4886 25.1927H91.3478C91.033 25.1927 91.033 25.0095 91.0845 24.7518C91.3249 23.6698 91.5653 22.5877 91.8057 21.5056C91.8973 21.1049 92.0518 21.0304 92.4411 21.0304ZM104.788 25.227H106.757C107.1 25.227 107.198 25.0667 107.266 24.7575C107.512 23.6526 107.759 22.5476 108.005 21.4427C108.073 21.1278 107.913 21.0763 107.638 21.0763H105.721C105.412 22.4617 105.103 23.8472 104.794 25.2327L104.788 25.227Z" fill="#7A8096"/>
<path fill-rule="evenodd" clip-rule="evenodd" d="M77.0548 17.3606H85.4405C86.7513 17.3606 87.5813 18.4312 87.2951 19.7423L85.8011 26.4923C85.5092 27.8033 84.2041 28.874 82.8933 28.874H74.5019C73.1911 28.874 72.3611 27.8033 72.6473 26.4923L74.1413 19.7423C74.4332 18.4312 75.7383 17.3606 77.0491 17.3606M78.5774 20.0743H82.7273C83.4199 20.0743 83.8607 20.6411 83.7061 21.3339L82.9162 24.9064C82.7617 25.5991 82.0748 26.1659 81.3764 26.1659H77.2265C76.5339 26.1659 76.0932 25.5991 76.2477 24.9064L77.0376 21.3339C77.1922 20.6411 77.8848 20.0743 78.5774 20.0743Z" fill="#28211C"/>
<path fill-rule="evenodd" clip-rule="evenodd" d="M90.8841 17.3606H99.2698C100.581 17.3606 101.411 18.4312 101.124 19.7423L99.6305 26.4923C99.3385 27.8033 98.0335 28.874 96.7227 28.874H88.3312C87.0204 28.874 86.1904 27.8033 86.4766 26.4923L87.9706 19.7423C88.2625 18.4312 89.5676 17.3606 90.8784 17.3606M92.4067 20.0743H96.5567C97.2493 20.0743 97.69 20.6411 97.5355 21.3339L96.7456 24.9064C96.591 25.5991 95.8984 26.1659 95.2058 26.1659H91.0559C90.3632 26.1659 89.9225 25.5991 90.077 24.9064L90.867 21.3339C91.0215 20.6411 91.7141 20.0743 92.4067 20.0743Z" fill="#28211C"/>
<path fill-rule="evenodd" clip-rule="evenodd" d="M102.338 17.3606H112.407C113.717 17.3606 114.547 18.4312 114.261 19.7423L112.767 26.4923C112.475 27.8033 111.17 28.874 109.859 28.874H99.7908L102.338 17.3663V17.3606ZM104.971 20.0743H109.688C110.38 20.0743 110.821 20.6411 110.666 21.3339L109.877 24.9064C109.722 25.5991 109.029 26.1659 108.337 26.1659H103.614L104.965 20.0743H104.971Z" fill="#28211C"/>
<path fill-rule="evenodd" clip-rule="evenodd" d="M98.938 32.7213L100.243 26.8358H103.471L102.166 32.7213H98.938Z" fill="#28211C"/>
<path fill-rule="evenodd" clip-rule="evenodd" d="M71.4396 28.7824H61.371C60.0602 28.7824 59.2302 27.7118 59.5164 26.4007L61.0104 19.6507C61.3023 18.3397 62.6074 17.269 63.9182 17.269H73.9868L71.4396 28.7767V28.7824ZM68.8065 26.0744H64.0899C63.3973 26.0744 62.9566 25.5076 63.1111 24.8148L63.901 21.2423C64.0556 20.5496 64.7482 19.9828 65.4408 19.9828H70.1631L68.8123 26.0744H68.8065Z" fill="#28211C"/>
<path fill-rule="evenodd" clip-rule="evenodd" d="M74.8396 13.4216L73.5345 19.3071H70.3062L71.6112 13.4216H74.8396Z" fill="#28211C"/>
<path fill-rule="evenodd" clip-rule="evenodd" d="M36.958 17.3606H44.6512C45.962 17.3606 46.7919 18.4312 46.5057 19.7423L45.4124 24.6774H42.1726L42.911 21.3339C43.0656 20.6411 42.6248 20.0743 41.9322 20.0743H37.1641C36.4715 20.0743 37.0897 20.6411 36.9409 21.3339L36.2082 24.6316H32.9684L34.0502 19.7423C34.3422 18.4312 35.6472 17.3606 36.958 17.3606Z" fill="#28211C"/>
<path fill-rule="evenodd" clip-rule="evenodd" d="M32.0525 28.7824L34.262 18.8206H37.4961L35.2808 28.7824H32.0525Z" fill="#28211C"/>
<path fill-rule="evenodd" clip-rule="evenodd" d="M34.1475 19.3071L35.4525 13.4216H38.6809L37.3758 19.3071H34.1475Z" fill="#28211C"/>
<path fill-rule="evenodd" clip-rule="evenodd" d="M41.2682 28.7823L42.5733 22.8969H45.8074L44.4965 28.7823H41.2682Z" fill="#28211C"/>
<path fill-rule="evenodd" clip-rule="evenodd" d="M58.303 28.7824H47.5418C46.231 28.7824 45.401 27.7118 45.6872 26.4007L46.1222 24.4427L46.2081 24.0648C46.5 22.7538 47.8051 21.6832 49.1159 21.6832H56.6487L56.7575 21.1851C56.8777 20.5324 56.4656 20.0057 55.8187 19.9771H47.101L47.7021 17.269H58.5205C59.8027 17.2977 60.6155 18.3568 60.3293 19.6507L60.1232 20.5668L59.8771 21.6832L58.6064 27.4141L58.303 28.7767V28.7824ZM49.9344 26.0744H55.6699L56.042 24.3969H50.4038C50.4038 24.3969 50.3466 24.3969 50.3237 24.3969C49.86 24.3969 49.4021 24.7748 49.2991 25.2385C49.196 25.6908 49.4822 26.0687 49.9344 26.0744Z" fill="#28211C"/>
<path fill-rule="evenodd" clip-rule="evenodd" d="M77.0548 17.3606H85.4405C86.7513 17.3606 87.5813 18.4312 87.2951 19.7423L85.8011 26.4923C85.5092 27.8033 84.2041 28.874 82.8933 28.874H74.5019C73.1911 28.874 72.3611 27.8033 72.6473 26.4923L74.1413 19.7423C74.4332 18.4312 75.7383 17.3606 77.0491 17.3606M78.5774 20.0743H82.7273C83.4199 20.0743 83.8607 20.6411 83.7061 21.3339L82.9162 24.9064C82.7617 25.5991 82.0748 26.1659 81.3764 26.1659H77.2265C76.5339 26.1659 76.0932 25.5991 76.2477 24.9064L77.0376 21.3339C77.1922 20.6411 77.8848 20.0743 78.5774 20.0743Z" fill="#DADDE3"/>
<path fill-rule="evenodd" clip-rule="evenodd" d="M90.8841 17.3606H99.2698C100.581 17.3606 101.411 18.4312 101.124 19.7423L99.6305 26.4923C99.3385 27.8033 98.0335 28.874 96.7227 28.874H88.3312C87.0204 28.874 86.1904 27.8033 86.4766 26.4923L87.9706 19.7423C88.2625 18.4312 89.5676 17.3606 90.8784 17.3606M92.4067 20.0743H96.5567C97.2493 20.0743 97.69 20.6411 97.5355 21.3339L96.7456 24.9064C96.591 25.5991 95.8984 26.1659 95.2058 26.1659H91.0559C90.3632 26.1659 89.9225 25.5991 90.077 24.9064L90.867 21.3339C91.0215 20.6411 91.7141 20.0743 92.4067 20.0743Z" fill="#DADDE3"/>
<path fill-rule="evenodd" clip-rule="evenodd" d="M102.338 17.3606H112.407C113.717 17.3606 114.547 18.4312 114.261 19.7423L112.767 26.4923C112.475 27.8033 111.17 28.874 109.859 28.874H99.7908L102.338 17.3663V17.3606ZM104.971 20.0743H109.688C110.38 20.0743 110.821 20.6411 110.666 21.3339L109.877 24.9064C109.722 25.5991 109.029 26.1659 108.337 26.1659H103.614L104.965 20.0743H104.971Z" fill="#DADDE3"/>
<path fill-rule="evenodd" clip-rule="evenodd" d="M98.938 32.7213L100.243 26.8358H103.471L102.166 32.7213H98.938Z" fill="#DADDE3"/>
<path fill-rule="evenodd" clip-rule="evenodd" d="M71.4396 28.7824H61.371C60.0602 28.7824 59.2302 27.7118 59.5164 26.4007L61.0104 19.6507C61.3023 18.3397 62.6074 17.269 63.9182 17.269H73.9868L71.4396 28.7767V28.7824ZM68.8065 26.0744H64.0899C63.3973 26.0744 62.9566 25.5076 63.1111 24.8148L63.901 21.2423C64.0556 20.5496 64.7482 19.9828 65.4408 19.9828H70.1631L68.8123 26.0744H68.8065Z" fill="#DADDE3"/>
<path fill-rule="evenodd" clip-rule="evenodd" d="M74.8396 13.4216L73.5345 19.3071H70.3062L71.6112 13.4216H74.8396Z" fill="#DADDE3"/>
<path fill-rule="evenodd" clip-rule="evenodd" d="M36.958 17.3606H44.6512C45.962 17.3606 46.7919 18.4312 46.5057 19.7423L45.4124 24.6774H42.1726L42.911 21.3339C43.0656 20.6411 42.6248 20.0743 41.9322 20.0743H37.1641C36.4715 20.0743 37.0897 20.6411 36.9409 21.3339L36.2082 24.6316H32.9684L34.0502 19.7423C34.3422 18.4312 35.6472 17.3606 36.958 17.3606Z" fill="#DADDE3"/>
<path fill-rule="evenodd" clip-rule="evenodd" d="M32.0525 28.7824L34.262 18.8206H37.4961L35.2808 28.7824H32.0525Z" fill="#DADDE3"/>
<path fill-rule="evenodd" clip-rule="evenodd" d="M34.1475 19.3071L35.4525 13.4216H38.6809L37.3758 19.3071H34.1475Z" fill="#DADDE3"/>
<path fill-rule="evenodd" clip-rule="evenodd" d="M41.2682 28.7823L42.5733 22.8969H45.8074L44.4965 28.7823H41.2682Z" fill="#DADDE3"/>
<path fill-rule="evenodd" clip-rule="evenodd" d="M58.303 28.7824H47.5418C46.231 28.7824 45.401 27.7118 45.6872 26.4007L46.1222 24.4427L46.2081 24.0648C46.5 22.7538 47.8051 21.6832 49.1159 21.6832H56.6487L56.7575 21.1851C56.8777 20.5324 56.4656 20.0057 55.8187 19.9771H47.101L47.7021 17.269H58.5205C59.8027 17.2977 60.6155 18.3568 60.3293 19.6507L60.1232 20.5668L59.8771 21.6832L58.6064 27.4141L58.303 28.7767V28.7824ZM49.9344 26.0744H55.6699L56.042 24.3969H50.4038C50.4038 24.3969 50.3466 24.3969 50.3237 24.3969C49.86 24.3969 49.4021 24.7748 49.2991 25.2385C49.196 25.6908 49.4822 26.0687 49.9344 26.0744Z" fill="#DADDE3"/>
<g clip-path="url(#clip1_856_15193)">
<path d="M15.4092 11.9228L13.422 12.2442L11.6092 13.0358L10.0694 14.0002L8.60412 15.7807L7.77642 16.6538L6.9758 16.9477L6.76416 16.4323L7.13435 15.9003L7.21755 15.15L7.46541 15.16L7.73634 15.4061L7.66322 14.6418L7.36287 14.4411L7.37224 14.1498L6.6608 14.5505L6.01662 15.3074L5.8822 15.9838L6.15783 16.5255L6.4147 17.4456L6.93724 17.6919L7.48685 17.6651L8.0081 17.3635L7.66041 19.1194L8.0081 21.0731L7.62537 21.9751L6.37169 23.3203L6.59458 24.1238L7.18849 25.0549L8.30822 25.8394L8.90212 25.9205L9.56248 25.9427L9.15044 27.6269L10.6654 28.2451L12.5529 28.4924L13.1986 28.0721L13.2483 26.9344L13.9686 25.7472L14.0183 24.8075L15.7568 24.9312L17.371 24.7829L15.7568 25.7472L16.0301 26.9097L17.0482 28.4924L18.0416 28.9128L18.8363 28.5913L19.1591 27.9483L20.8231 26.6871L21.146 26.959L23.7538 27.0581L24.2752 26.6377L24.3248 25.8956L24.1511 25.5743L24.0268 23.571L23.1576 21.8399L23.3067 21.0732L23.8282 21.3453L25.2935 22.7054L26.0137 22.755L26.8084 22.4334L27.6033 21.8399L28.0005 20.5539L30.3351 20.7022L31.7508 20.1583L32.8931 19.0948L33.7127 17.5615L33.9112 15.7562L33.7374 13.654L33.2905 11.7746L32.8434 11.1811L32.2227 10.9832L31.1298 12.1702L30.1364 12.5165L29.2671 11.0821L28.3979 10.2908L27.926 9.99403L26.0385 8.43594L24.5236 7.61979L23.0086 7.49622L21.2454 7.79297L19.7055 8.36161L18.6376 9.22724L17.7933 10.2413L16.9241 10.4887L15.409 11.923" fill="#DADDE3"/>
<path d="M9.64678 16.3863C7.94498 18.3629 8.32303 20.76 8.79471 23.1089C8.54305 22.4757 8.29133 21.8424 8.03955 21.2092L7.76123 19.4673C7.78771 18.8736 7.81408 18.2798 7.8408 17.6862L8.55611 15.9842L9.62932 14.401L11.2988 13.0158L13.1271 12.2637L15.2737 11.9867L13.2862 14.2427C11.6903 14.758 10.7494 15.1053 9.64666 16.3863" fill="#DADDE3"/>
<path d="M17.6585 10.3637C16.4755 11.5131 15.8292 12.3801 15.0761 13.726C14.5376 14.6887 13.9335 15.616 13.3672 16.5653C13.0809 17.0459 13.0538 17.4487 12.9681 18.0029L12.1334 17.0133C12.2661 16.6175 12.3985 16.2217 12.5309 15.826L13.8824 13.4116L16.7444 10.6013C17.0491 10.522 17.3538 10.443 17.6585 10.3637ZM23.5015 7.51404C22.5539 7.86773 20.9803 7.98431 20.871 9.06722C20.7933 9.83646 20.9293 10.2229 21.3949 11.0368C20.2449 9.85175 19.9605 10.0351 17.738 10.4034L18.6919 9.05765L20.3614 8.02842L22.5079 7.55348L23.5015 7.51404Z" fill="#DADDE3"/>
<path d="M26.1164 22.1637C26.4319 22.3576 26.4251 22.4981 26.3723 22.631C26.6211 22.5318 26.87 22.4326 27.1188 22.3338L27.6026 21.687L27.9615 20.7656L27.5027 20.4221L25.4976 20.677C25.4482 20.8114 25.3983 20.946 25.3485 21.0806C25.3626 21.2717 25.377 21.4629 25.3911 21.654C25.4551 21.7674 25.5192 21.8806 25.5833 21.9939C25.6828 22.0434 25.7822 22.0931 25.8818 22.1425C25.9602 22.1495 26.0382 22.1568 26.1164 22.1637ZM25.9298 18.7493C24.9247 19.0382 24.9326 19.1177 24.6358 20.1107C25.0276 19.4847 25.3176 19.1689 25.9298 18.7493ZM32.6123 11.3194C32.4337 11.4017 32.2596 11.4411 32.148 11.6039C31.9076 11.9542 31.7015 12.2488 31.3039 12.4947C31.1036 12.6186 30.8966 12.6989 30.6842 12.7649C30.5081 12.8194 30.4022 12.7706 30.2523 12.8781C30.3413 12.8932 30.4303 12.9089 30.5192 12.9244H31.1075L31.8328 12.4785L32.2594 12.0324L32.6123 11.3194ZM16.6031 13.5403C16.2078 14.6177 15.8622 15.5412 15.2634 16.5165C16.0308 15.6932 16.4961 14.9932 16.9357 14.0624C17.1065 13.7006 17.1388 13.2763 17.6144 13.4341C17.6358 13.7954 17.7124 14.1562 17.7337 14.5172C17.9907 12.6831 18.7154 11.9158 20.4 11.2039L18.9709 11.3739L17.627 11.6712L16.9658 12.6269L16.6031 13.5403ZM19.8667 13.4978C20.2299 15.2004 20.7531 16.8345 20.9803 18.5642C21.1278 19.688 21.1439 20.228 20.5761 21.1977C19.9555 21.1577 19.5702 21.2273 18.9698 21.4233C16.58 22.2033 15.2093 23.3504 13.5991 21.0392L15.1413 21.7629C15.5078 21.6912 15.8742 21.6196 16.2405 21.5476C16.8876 21.1726 17.5346 20.7973 18.1817 20.4221L19.696 20.1246L20.1867 18.0858L19.824 15.3882C19.8099 14.9635 19.7956 14.5387 19.7813 14.1139C19.8099 13.9086 19.8384 13.7031 19.8667 13.4978ZM23.9833 24.0329C23.7826 25.4161 24.4456 26.1597 24.1711 26.5418C24.0934 26.6498 23.988 26.8386 23.8705 26.8904C23.4504 27.0752 22.8728 26.8558 22.8316 26.964H21.4452L20.8906 26.7303L21.7438 25.732C22.021 25.1304 22.2984 24.5285 22.5756 23.9265L23.1088 22.1001H23.3862L23.9833 24.0329Z" fill="#DADDE3"/>
<path d="M21.653 20.0115C21.7656 20.6395 21.9612 20.7888 22.2579 21.3968C22.0605 22.3887 21.7432 23.5681 21.3615 24.4433C21.2004 24.8124 21.0706 25.0159 20.7865 25.3011C20.3072 25.783 19.8229 26.2027 19.2795 26.6204C18.8881 26.9207 18.615 26.7701 18.1323 26.7021C17.927 27.0726 17.8704 27.2786 17.4925 27.4667C16.9115 27.7558 16.3915 27.1326 15.9354 26.7657C16.2647 27.278 16.594 27.7899 16.9231 28.3021C17.1507 28.5145 17.3782 28.7267 17.6057 28.9392L18.1817 29.0243L18.9494 28.5568C19.0846 28.3021 19.2196 28.0471 19.3547 27.7924C19.6391 27.58 19.9237 27.3676 20.2079 27.155C20.5564 26.8578 20.9048 26.5603 21.2532 26.263L21.9143 25.3284L22.5114 24.224C22.7676 23.4594 23.0235 22.6947 23.2796 21.9302C23.3008 21.6398 23.322 21.3496 23.3434 21.0592C23.0235 20.9177 22.7036 20.776 22.3836 20.6344C22.149 20.415 21.8876 20.231 21.653 20.0115ZM14.0009 24.4364C15.0774 24.4364 16.2143 24.3769 17.2005 23.9266C17.4794 23.51 17.7549 23.1695 18.0963 22.8011C17.7856 23.3855 17.6881 23.7157 17.6057 24.3727L17.2858 24.84C16.4752 24.8612 15.6647 24.8824 14.8541 24.9037C14.5909 24.8753 14.328 24.847 14.0649 24.8188C14.0364 24.7902 14.0081 24.762 13.9796 24.7337C13.9868 24.6345 13.9939 24.5355 14.0009 24.4364ZM13.8517 23.6931L13.7681 22.9388C13.5842 24.0413 13.6284 24.7802 13.1188 25.7677C12.7382 26.2067 12.2696 26.6063 11.7329 26.8202C11.7782 27.0909 11.7918 27.2601 11.7654 27.4586C11.6709 28.1728 10.2365 27.8572 9.64633 27.8288L12.4865 28.5569L13.1263 28.3021C13.1976 27.8916 13.2687 27.4807 13.3397 27.0702L13.9369 25.9658L14.0436 25.286L13.8516 23.6932M12.2518 17.4697C12.2221 18.0059 12.1873 18.2294 12.4247 18.7027C12.7265 19.3043 13.097 19.8698 13.4249 20.4645L13.5316 19.2751C13.1051 18.6732 12.6784 18.0715 12.2519 17.4698M7.87329 21.5191C7.78082 21.7146 7.68872 21.9105 7.59625 22.1061C7.85032 22.9586 8.07637 23.4985 8.56024 24.2431C8.47586 24.5448 8.41282 24.6768 8.21899 24.9226C7.79313 24.8575 7.41497 24.8386 6.98336 24.84C7.45973 25.208 7.9361 25.5764 8.41247 25.9445C8.64707 25.9018 8.8818 25.8593 9.11641 25.817L9.82036 25.1161L8.81782 23.5655C8.50282 22.8834 8.18805 22.2011 7.87329 21.5191ZM32.6153 11.0375C32.9055 12.3371 33.2798 13.5366 33.245 14.8678C33.2023 16.5009 32.8827 18.5639 31.3631 19.5487C29.6613 20.6517 27.6634 20.1299 25.7963 19.6573L28.0786 20.5919C28.7896 20.6274 29.5007 20.6629 30.2117 20.6981C30.6952 20.5566 31.1787 20.415 31.662 20.2734C32.0389 19.9618 32.4157 19.6505 32.7926 19.3388L33.6457 17.5548L33.9657 15.4944C33.8805 14.8217 33.7949 14.1492 33.7097 13.4766L33.2405 11.4801C33.0322 11.3325 32.8238 11.1848 32.6153 11.0375ZM7.21868 14.9112C6.44618 15.4119 6.14266 15.6318 6.22739 16.5598L6.45825 17.3936L6.78555 17.6142L7.18985 17.7484L7.92133 17.5758C8.04661 17.1892 8.17165 16.8027 8.29668 16.4161L7.25723 16.9242H7.01665C6.92684 16.7867 6.837 16.6494 6.74711 16.512L7.07442 16.0327L7.24762 15.1222C7.32145 15.1445 7.39528 15.167 7.46899 15.1892C7.55887 15.2596 7.64864 15.3299 7.73852 15.4L7.69997 14.9209L7.51715 14.6142C7.45622 14.5629 7.39528 14.512 7.33434 14.4608L7.21868 14.9112ZM24.5519 7.59863C25.2377 8.23274 26.0792 8.78377 26.6276 9.55861C26.8398 9.85851 27.0756 10.012 26.6241 10.4357C27.1012 10.3 27.2786 10.3147 27.6606 10.3608C28.3556 10.4445 29.0069 11.4283 29.0484 12.1331C29.0402 12.199 28.8554 12.3487 28.3181 12.4965C28.3075 12.517 28.0148 12.4566 28.022 12.4764C28.0779 12.6285 28.1525 12.6518 28.2665 12.7229C28.2911 12.8921 28.307 13.1531 28.4228 13.3382C28.7609 13.3321 29.0914 13.3689 29.4224 13.4341C29.5338 13.6181 29.5171 13.8022 29.5077 13.9863L29.8916 13.9227C29.8563 13.6324 29.8206 13.3421 29.7851 13.0518C29.8988 12.8607 30.0125 12.6694 30.1264 12.4785L29.6357 11.3739C29.3229 11.0766 29.0102 10.7791 28.6972 10.4818L28.6069 10.4773C28.2551 10.2623 27.9032 10.0473 27.5514 9.83225L25.8299 8.42984L24.5519 7.59863ZM25.707 12.832C25.6708 12.895 25.6162 12.9956 25.5462 13.0654C25.8318 13.3343 25.9728 13.5145 26.0746 13.895C25.7516 14.0546 25.4289 14.2143 25.1061 14.3737L24.2865 15.1561C23.9268 14.9634 23.8373 14.8154 23.6632 14.4478C23.4605 14.5014 23.2687 14.5528 23.1013 14.4916C23.2075 14.4924 23.2727 14.466 23.3788 14.4007L23.9003 13.8612C24.2073 13.6297 24.5144 13.3979 24.8214 13.1665L25.4243 12.9708C25.5011 12.9394 25.6302 12.8635 25.707 12.832Z" fill="#DADDE3"/>
<path d="M26.5982 13.7914C25.571 14.3422 24.5873 14.896 24.0621 15.9419C24.0621 14.6143 25.4007 14.0299 26.5981 13.7913M23.8582 11.1797C23.0954 11.6976 22.5561 12.7427 22.6238 13.7612C22.3754 12.8792 22.4634 12.0459 23.2262 11.4368C23.3551 11.3746 23.4836 11.3121 23.6124 11.2499C23.6943 11.2266 23.7761 11.2033 23.8582 11.1797Z" fill="#C1C7CF"/>
<path d="M34.1223 13.5843C33.984 12.7157 33.7547 11.8726 33.4364 11.2664C33.3977 11.1923 33.3389 11.1172 33.266 11.0455C33.1079 10.8903 32.8739 10.7433 32.6322 10.6605C32.376 10.5728 32.1059 10.5549 31.8914 10.6665C31.8357 10.6957 31.784 10.733 31.7379 10.7797C31.599 10.9197 31.4818 11.0901 31.3645 11.2606C31.2341 11.4505 31.1029 11.6415 30.9458 11.7748C30.7638 11.9298 30.5361 12.0239 30.3213 12.1097C30.2309 11.8914 30.1222 11.6809 29.9964 11.4807C29.8495 11.2475 29.6823 11.0292 29.4983 10.8108C29.3637 10.65 29.2112 10.505 29.0435 10.3787C28.8849 10.2582 28.7224 10.1567 28.5333 10.0388C28.0262 9.72256 27.5944 9.34541 27.154 8.96055C26.9538 8.78575 26.7517 8.60931 26.554 8.44699C25.5052 7.58579 24.5269 7.16815 23.4806 7.10268C22.4415 7.03757 21.3443 7.32183 20.0488 7.86492C19.4235 8.1269 18.9592 8.4366 18.5547 8.80897C18.1683 9.16488 17.8403 9.57471 17.4797 10.0533C17.2699 10.0681 17.0841 10.099 16.8943 10.1746C16.6853 10.2579 16.4748 10.3928 16.2226 10.6144C16.0471 10.7687 15.8752 10.9269 15.707 11.089C15.5529 11.2379 15.4016 11.3895 15.253 11.5438C14.0736 11.7325 13.1127 11.9408 12.2521 12.2727C11.372 12.6122 10.5962 13.0792 9.79946 13.7827C9.48574 14.0586 9.19974 14.3644 8.94552 14.6955C8.70317 15.0117 8.49575 15.344 8.31376 15.6944C8.15438 15.8701 7.99466 16.0473 7.82181 16.2024C7.65329 16.3535 7.47364 16.4808 7.27231 16.558L7.27243 16.5581C7.15536 16.603 7.10696 16.6293 7.10169 16.6275C7.09583 16.6243 7.09255 16.6067 7.08434 16.5745C7.37345 16.2998 7.41891 15.8962 7.44563 15.4955C7.48032 15.5368 7.5136 15.5877 7.54817 15.6409C7.58638 15.6996 7.62552 15.7601 7.67239 15.8191L7.86868 16.0656L7.93759 15.758C7.99548 15.5003 8.03884 15.1571 7.97134 14.8595C7.92774 14.6664 7.83774 14.4943 7.68095 14.3723C7.69595 14.3333 7.71013 14.2974 7.72407 14.2619C7.77329 14.1365 7.82403 14.0078 7.86704 13.8862L7.95212 13.6452L7.69899 13.6888C7.3622 13.7472 6.63845 14.1432 6.12868 14.6699C5.93942 14.8656 5.77665 15.0818 5.66989 15.3087C5.5588 15.5447 5.50899 15.7918 5.55212 16.0389C5.58962 16.255 5.69825 16.4672 5.89548 16.6672C5.93145 16.8115 5.96462 16.9368 6.00013 17.0497C6.04079 17.1782 6.0845 17.2931 6.13923 17.4063C6.28759 17.7135 6.52407 17.9011 6.79782 17.9886C7.01778 18.059 7.26106 18.0625 7.49966 18.0104C7.45121 18.2935 7.42201 18.5794 7.41224 18.8664C7.39712 19.2672 7.41188 19.7101 7.45618 20.224C7.46591 20.3368 7.48056 20.4609 7.49942 20.5958C7.51583 20.7108 7.53528 20.8238 7.55626 20.9359C7.51173 21.0571 7.46684 21.1784 7.42208 21.2996L7.21384 21.864L6.75563 22.3162C6.61302 22.4566 6.4704 22.5973 6.3279 22.7379C6.31618 22.7496 6.26802 22.7956 6.22442 22.8375C5.93556 23.1143 5.87837 23.1692 5.9604 23.6563C6.01295 23.968 6.11513 24.2694 6.26309 24.549C6.40489 24.818 6.5952 25.0798 6.83942 25.3237C7.14411 25.6278 7.64356 26.0057 8.16645 26.2036C8.46528 26.3165 8.77325 26.3719 9.06235 26.3256C9.04759 26.37 9.03329 26.4141 9.017 26.4587C8.97125 26.585 8.92042 26.7095 8.86466 26.8319C8.50993 27.6061 8.87403 28.0105 9.44075 28.2678C9.72376 28.3961 10.0602 28.4834 10.3727 28.5646C10.4367 28.581 10.5007 28.5978 10.5813 28.6195C10.9516 28.7191 11.5916 28.9022 12.1761 28.939C12.8141 28.9791 13.3895 28.848 13.5437 28.2778C13.6047 28.0518 13.6402 27.8787 13.6546 27.7092C13.6678 27.5519 13.6628 27.3929 13.6443 27.1962C13.8261 26.7948 13.9033 26.6819 14.0363 26.4883C14.0623 26.45 14.0938 26.4043 14.1033 26.3898C14.2459 26.1794 14.3127 26.0301 14.337 25.8619C14.3604 25.6996 14.3405 25.5379 14.3111 25.2907C14.3083 25.2672 14.304 25.2329 14.2978 25.1875C14.6652 25.235 15.0351 25.2603 15.4055 25.2632C15.5913 25.2643 15.7771 25.2588 15.9628 25.2492C15.9154 25.2733 15.8688 25.2973 15.818 25.3234L15.7488 25.3587C15.2562 25.611 15.2357 26.0889 15.3899 26.5805C15.5289 27.0238 15.815 27.4765 15.9946 27.7518C16.3719 28.3309 16.732 28.8211 17.1687 29.0875C17.6263 29.3668 18.1492 29.3997 18.8241 29.036C19.1674 28.8509 19.2757 28.6622 19.4215 28.4078C19.4661 28.3302 19.5154 28.2456 19.5702 28.1622C19.712 28.0686 20.0651 27.7786 20.4116 27.4933C20.5296 27.3962 20.6475 27.2996 20.7805 27.1916C20.8722 27.2587 20.9828 27.3053 21.1165 27.337C21.2902 27.3785 21.497 27.3971 21.7449 27.4149C21.9304 27.4284 22.5353 27.4279 22.9261 27.4278C23.0468 27.4278 23.147 27.4278 23.2071 27.4282C23.6106 27.4306 23.9363 27.4095 24.1824 27.2706C24.4446 27.1225 24.6001 26.8603 24.6341 26.3901C24.6489 26.1812 24.6517 26.0523 24.6225 25.9208C24.5953 25.7976 24.5422 25.6859 24.4511 25.5226C24.4455 25.3193 24.4401 25.1161 24.4347 24.9128C24.429 24.6973 24.4229 24.4815 24.4173 24.266C24.4104 24.0119 24.3823 23.8053 24.3305 23.6021C24.2791 23.4004 24.2058 23.2063 24.1076 22.9734C24.0465 22.8267 23.9888 22.6786 23.9344 22.5293L23.7928 22.5808L23.8146 22.5729L23.9344 22.5293V22.5287C23.85 22.3021 23.7668 22.0814 23.6503 21.8453C23.6578 21.7998 23.6654 21.7508 23.6728 21.6985L23.8978 21.9144L24.2295 22.2326C24.4824 22.4752 24.7136 22.6959 24.9852 22.8553C25.2661 23.0204 25.5819 23.1162 25.9909 23.0969C26.4191 23.0768 26.8773 22.8972 27.2545 22.6201C27.6195 22.3518 27.9123 21.99 28.0345 21.5897L28.1405 21.2424L28.2251 20.9652C28.8256 21.0665 29.4701 21.0992 30.0926 21.0343C30.6933 20.9714 31.2736 20.8191 31.7741 20.5533C32.5098 20.1624 33.0614 19.5866 33.4579 18.9029H33.4581C33.9011 18.1388 34.1491 17.2384 34.2434 16.3119C34.319 15.5688 34.2777 14.5586 34.1223 13.5843ZM26.3426 19.8295C25.9965 19.7135 25.7559 19.5443 25.452 19.3535C25.5347 19.7249 25.5723 20.1177 25.4622 20.4884C25.2873 21.0768 25.0049 22.0393 25.807 22.2169C26.1123 22.2843 26.2508 22.2746 26.6817 22.0532C26.333 22.1318 26.1571 22.1127 25.9173 22.0683C25.7 22.0285 25.5849 21.8912 25.5241 21.7291C25.6001 21.7836 25.7238 21.8132 25.9355 21.864C26.5301 22.0068 27.0967 21.7216 27.2075 21.3111C27.272 21.0712 27.2611 20.9452 27.3981 20.6182C27.5211 20.6561 27.6483 20.6905 27.7788 20.722L27.5578 21.4396C27.3668 22.0604 26.6221 22.561 25.9647 22.5495C25.3569 22.5388 24.9715 22.1597 24.5518 21.788C24.2629 21.5318 23.9847 21.2868 23.709 21.0441C22.9526 20.8064 22.3463 20.5287 21.6442 20.0112C22.1439 20.5958 22.4827 20.9195 23.1795 21.2104C23.0782 22.2396 22.7189 22.9902 22.4127 23.9752C22.274 24.4205 21.1798 26.2053 20.8765 26.3793C20.6603 26.5034 19.3058 27.6393 19.0512 27.7892C18.8613 28.0401 18.6948 28.3869 18.4095 28.537C17.5402 28.9948 16.9815 28.1183 16.5137 27.3781C16.3008 27.0409 15.7092 26.0695 16.2249 25.7974C16.7124 25.5403 16.9854 25.3566 17.4829 25.0313C17.556 25.164 17.6813 25.2921 17.7629 25.4245L17.7088 24.9897C17.676 24.7272 17.6774 24.514 17.6983 24.2498C17.7186 23.994 17.7388 23.7382 17.759 23.4823C17.6841 23.7424 17.5345 24.0024 17.4599 24.2623C17.43 24.3664 17.4053 24.4504 17.391 24.5283C16.2749 24.7554 15.1669 24.7695 14.0506 24.5713C13.9793 24.1597 13.8926 23.7309 13.8198 23.4234C13.7978 23.7676 13.812 24.7196 13.8102 25.2527C13.8088 25.6655 13.7915 25.8069 13.5775 26.1582C13.3773 26.487 13.2926 26.5617 13.0122 27.1174C13.0356 27.4681 13.0359 27.6997 12.9424 28.0325C12.7869 28.5858 11.2174 28.1571 10.8035 28.0442C10.2936 27.9053 9.23966 27.6988 9.50473 27.022C9.73794 26.4264 9.88583 25.7983 9.99985 24.9649C9.06575 23.6249 8.19716 21.7887 8.0304 20.1618C7.90091 18.8986 7.9786 18.1211 8.25306 17.3483C8.68806 16.124 9.29673 15.0642 10.2731 14.2108C11.5903 13.0599 12.8215 12.5978 14.7495 12.3054C14.2859 12.8224 13.8272 13.3687 13.3273 13.9547C12.8211 14.5478 12.5206 15.1469 12.1991 15.7958C11.7552 16.6919 11.7648 17.0329 12.3532 17.8197C12.8603 18.4976 13.134 18.8028 13.3555 19.4662C13.1727 19.8415 13.1061 20.1588 13.0447 20.6712C13.6656 21.3472 14.1271 21.8102 14.7299 21.9528C15.3213 22.0928 15.815 22.0658 16.3443 21.7964C17.5193 21.1983 18.6066 20.4258 19.9321 20.3938C20.5453 18.8926 20.4833 17.6382 20.189 16.1857C19.9879 15.1937 19.9071 14.2544 19.8447 13.2432C19.5961 14.2847 19.5493 15.2005 19.7338 16.238C19.9562 17.4881 20.1291 18.8694 19.5106 19.9682C18.3118 20.0596 17.2847 20.7858 16.2045 21.3429C15.7702 21.5669 15.3181 21.5887 14.8375 21.4573C14.3913 21.3353 14.0903 21.0413 13.6097 20.4894C13.6021 19.9352 13.7277 19.6795 13.9833 19.1775C14.3939 18.3715 14.8471 17.6213 15.3444 16.8283C14.7355 17.5602 14.1585 18.1718 13.6792 18.9078C13.4959 18.3881 13.2339 18.1241 12.7999 17.5388C12.3761 16.9671 12.3318 16.7169 12.6488 16.0553C12.9674 15.3905 13.2376 14.8062 13.7801 14.2229C14.7172 13.2151 15.5759 12.0934 16.6008 11.1008C17.1573 10.5619 17.3833 10.5805 18.1214 10.4692C18.7887 10.3683 19.44 10.2413 20.1204 10.084C19.4624 10.145 18.8263 10.1674 18.1856 10.1831L18.1657 10.1837C18.7962 9.38216 19.1619 8.93546 20.1856 8.4925C22.706 7.40258 24.3075 7.28472 26.2874 8.94188C26.8006 9.37155 27.2487 9.78849 27.7689 10.159C27.5802 10.1751 27.4177 10.2088 27.2026 10.2928C27.4643 10.2431 27.7665 10.2924 28.0382 10.3418C28.1143 10.3911 28.1929 10.4392 28.2729 10.4862C28.6403 10.7017 28.8488 10.8208 29.0972 11.1654C29.3597 11.5295 29.5786 11.8935 29.7714 12.2947C29.645 12.2497 29.539 12.2117 29.4445 12.1838C29.3392 12.1358 29.2236 12.1143 29.1079 12.1215C28.9923 12.1286 28.8802 12.164 28.7816 12.2247L28.7664 12.2317C28.5632 12.3303 28.2484 12.4426 28.0378 12.4766C28.1453 12.5135 28.3829 12.5274 28.495 12.4832C28.51 12.4773 28.5252 12.4727 28.5409 12.469C28.4889 12.5571 28.4569 12.6554 28.4472 12.757C28.434 12.8913 28.4601 13.0264 28.5223 13.1462L28.5229 13.1475C28.5418 13.1921 28.5683 13.233 28.5974 13.2627C28.5012 13.298 28.4029 13.3384 28.3015 13.3822C28.7713 13.311 29.1948 13.2987 29.6531 13.3588C29.6834 13.5027 29.7138 13.6552 29.7422 13.8103L29.5718 13.8236C29.5672 13.824 29.5627 13.8243 29.5581 13.8248C29.3412 13.6522 29.0995 13.6813 28.7694 13.7563C27.7654 13.9842 28.0013 14.5451 27.5395 15.3905C28.0191 14.8068 27.9834 14.196 28.765 14.0116C28.9471 13.9688 29.0711 13.915 29.1943 13.9334C28.9725 14.0445 28.7807 14.2288 28.7045 14.4427C28.49 15.0459 28.6232 15.5541 28.3875 16.1175C28.6793 15.6138 28.697 15.1223 28.9581 14.5923C29.0518 14.4021 29.3997 14.0975 29.6132 14.0928L29.789 14.089C29.8405 14.4241 29.8718 14.757 29.8519 15.0331C29.8154 15.537 29.684 16.2849 29.6053 16.5712C29.8697 16.2326 29.9902 15.5158 30.1063 15.011C30.2272 14.4856 30.1966 13.8551 30.0908 13.2906C29.9455 12.5161 30.7466 12.6421 31.2116 12.2771C31.5534 12.0087 31.7889 11.5803 32.1022 11.2767C32.4131 10.9756 32.9026 11.418 33.0249 11.7122C33.555 12.9896 33.7965 14.9992 33.6566 16.2869C33.4993 17.7318 32.7986 19.3091 31.5188 20.0205C29.8873 20.9272 27.9636 20.3733 26.3426 19.8295ZM24.0244 26.2469C23.9712 26.8431 23.7716 26.8824 23.2459 26.8733C23.0071 26.8691 22.056 26.8648 21.8146 26.8441C21.4736 26.8148 21.2821 26.7845 21.1779 26.707C21.7137 26.3154 22.624 24.6985 22.8015 24.1417C22.9893 23.5536 23.1947 23.0404 23.3475 22.4968C23.4178 22.724 23.4732 22.9491 23.5756 23.1905C23.7463 23.5937 23.8299 23.8429 23.842 24.2755L23.8807 25.6446C24.0275 25.9004 24.0504 25.955 24.0244 26.2468V26.2469ZM7.9002 21.7306C8.2404 22.9026 8.82001 24.0542 9.46255 25.0224V25.0393C9.42212 25.2059 9.37559 25.3678 9.27798 25.4979C8.8186 26.1099 7.65048 25.2117 7.31227 24.8681C6.94266 24.4922 6.69528 24.0472 6.63634 23.6297C6.59345 23.3253 6.63516 23.3179 6.84845 23.1025L7.71118 22.2328L7.9002 21.7306ZM7.2504 14.3603C7.16321 14.5466 7.10134 14.688 7.05927 14.8334C6.8761 15.4633 7.14212 16.0255 6.56778 16.4821C6.83766 17.0243 6.82524 17.2406 7.45302 16.9901C7.69513 16.8932 7.89481 16.7579 8.07317 16.5975C7.98683 16.8209 7.90746 17.0468 7.83516 17.275C7.82274 17.3136 7.81091 17.3524 7.79954 17.3909C7.35059 17.5807 6.76009 17.7012 6.53415 17.2314C6.42446 17.0033 6.36247 16.7795 6.28243 16.4912C5.54309 15.7285 6.64829 14.7215 7.2504 14.3603ZM7.6138 15.1683C7.52251 15.0773 7.4495 15.0158 7.33149 15.0291C7.34145 14.952 7.3547 14.8777 7.37333 14.8079C7.3827 14.772 7.39278 14.7367 7.40356 14.7014C7.55661 14.7902 7.59692 14.9512 7.6138 15.1683ZM29.7831 12.3193C29.811 12.3779 29.8384 12.4375 29.8654 12.4979C29.8431 12.5142 29.8219 12.5314 29.8021 12.5494C29.7657 12.4648 29.7131 12.388 29.6473 12.3233C29.6913 12.3217 29.7366 12.3203 29.7832 12.3193H29.7831ZM23.4934 21.8679H23.4936L23.4935 21.868L23.4934 21.8679ZM4.71798 16.5149C4.83563 15.1885 5.09462 14.6157 6.04102 13.6174C4.85391 14.4504 4.55766 14.829 4.71798 16.5149Z" fill="#7A8096"/>
<path d="M4.41169 15.4314C4.54235 14.8344 4.66423 14.6091 5.03395 14.1191C4.43407 14.5363 4.35603 14.7076 4.41157 15.4314M18.3394 7.10901C17.6282 7.27973 17.4926 7.41066 17.2793 8.10487C17.6197 7.59655 17.8156 7.4312 18.3394 7.10901Z" fill="#7A8096"/>
<path d="M19.461 7.00793C18.0504 7.35217 17.6359 7.597 17.1674 9.22498C17.763 8.03261 18.2139 7.59361 19.461 7.00781M22.499 12.9425C22.6493 12.2792 22.9165 11.6401 23.9509 11.1455C22.5798 11.4874 22.3227 12.0609 22.499 12.9425ZM31.2234 12.9883C32.0354 12.7001 32.4268 12.05 32.6212 11.2852C32.3034 11.9262 31.8129 12.4623 31.1467 12.7907C30.7892 12.9669 30.5608 12.9054 30.1615 12.8677C30.5676 12.9838 30.8248 13.1298 31.2234 12.9883ZM25.6919 13.6383C25.5878 13.4209 25.402 13.2529 25.1747 13.1705C25.374 13.0646 25.5695 12.9534 25.7221 12.8152C25.275 13.0212 24.7546 12.9709 24.3709 13.229C24.0331 13.4563 23.5667 14.1765 23.2233 14.4819C23.472 14.3857 23.7116 14.2194 23.9323 14.0443C23.9335 14.2107 23.9802 14.3736 24.0674 14.5155C24.1546 14.6574 24.279 14.773 24.4272 14.8498C24.3002 15.0154 24.1992 15.1991 24.1274 15.3948C24.7812 14.6232 25.7291 14.0404 26.6205 13.7913C26.3713 13.7878 26.0764 13.8341 25.7759 13.9325C25.7647 13.8304 25.7363 13.731 25.6919 13.6383ZM24.7512 19.4685C24.7195 19.6683 24.6759 19.9166 24.6441 20.1165C24.7291 19.8904 24.8313 19.6276 24.93 19.4119C25.0348 19.1837 25.0938 19.1622 25.3161 19.0418C25.4737 18.9564 25.7598 18.839 25.9175 18.7536C25.7553 18.7807 25.4647 18.8401 25.3025 18.8673C24.8693 18.9401 24.8184 19.0438 24.7512 19.4685ZM17.3522 11.7548C16.8495 12.2495 16.3612 13.9474 16.2052 14.6268C16.4509 14.0625 17.0659 12.4839 17.5377 12.0823C17.6681 11.9714 17.7591 11.9032 17.857 11.8536C17.5192 12.4176 17.5441 12.5579 17.6625 13.3134C17.7632 12.5452 18.0299 12.2485 18.4676 11.6754C18.9474 11.5556 19.3965 11.4119 19.8886 11.2208C19.3343 11.2832 18.7794 11.3405 18.224 11.3928C17.7578 11.4368 17.6828 11.4293 17.3522 11.7548Z" fill="#7A8096"/>
<path d="M24.2006 14.645C24.1567 14.553 24.1512 14.4475 24.1854 14.3515C24.2196 14.2556 24.2906 14.177 24.3829 14.1332C24.4333 14.1094 24.4881 14.0968 24.5438 14.0961C24.5995 14.0953 24.6547 14.1066 24.7056 14.129C24.7565 14.1515 24.802 14.1846 24.8389 14.2262C24.8758 14.2677 24.9033 14.3167 24.9194 14.3697C24.7359 14.5054 24.5677 14.6651 24.4266 14.8501C24.3317 14.8121 24.2476 14.743 24.2005 14.645M28.4935 12.9912C28.509 12.8331 28.6443 12.7165 28.8031 12.7318C28.8795 12.7393 28.9498 12.7766 28.9987 12.8356C29.0475 12.8946 29.0709 12.9704 29.0638 13.0465C29.0605 13.0792 29.0516 13.111 29.0376 13.1407C28.8923 13.1656 28.747 13.2078 28.5972 13.2627C28.5347 13.1988 28.4847 13.0824 28.4935 12.9912Z" fill="#C1C7CF"/>
</g>
</g>
<defs>
<clipPath id="clip0_856_15193">
<rect width="114" height="27" fill="white" transform="translate(1.28577 6.58008)"/>
</clipPath>
<clipPath id="clip1_856_15193">
<rect width="30" height="22.4051" fill="white" transform="translate(4.28577 7)"/>
</clipPath>
</defs>
</svg>
