<svg width="117" height="40" viewBox="0 0 117 40" fill="none" xmlns="http://www.w3.org/2000/svg">
<path d="M28.6509 6.13494C28.2777 5.76037 27.7601 5.52961 27.183 5.52961C26.6074 5.52961 26.0937 5.76037 25.7253 6.13494H25.7159C25.3438 6.50698 25.1131 7.02609 25.1131 7.59954C25.1131 8.17624 25.3438 8.69209 25.7159 9.06051L25.7253 9.07065C26.0937 9.44196 26.6074 9.66946 27.183 9.66946C27.7601 9.66946 28.2777 9.44196 28.6509 9.07065L28.6552 9.06051C29.0287 8.69209 29.2565 8.17624 29.2565 7.59954C29.2565 7.02609 29.0287 6.50698 28.6552 6.13494H28.6509ZM27.183 34.4705C27.7601 34.4705 28.2777 34.2354 28.6509 33.8677L28.6552 33.8568C29.0287 33.4899 29.2565 32.9707 29.2565 32.4002C29.2565 31.8235 29.0287 31.3069 28.6552 30.9331H28.6509C28.2777 30.5549 27.7601 30.3263 27.183 30.3263C26.6074 30.3263 26.0937 30.5549 25.7253 30.9331H25.7159C25.3438 31.3069 25.1131 31.8235 25.1131 32.4002C25.1131 32.9707 25.3438 33.4899 25.7159 33.8568L25.7253 33.8677C26.0937 34.2354 26.6074 34.4705 27.183 34.4705ZM38.4611 28.1988C38.9737 28.064 39.4377 27.7351 39.7213 27.2373L39.7594 27.1645C40.0115 26.6932 40.0575 26.1484 39.9228 25.6648C39.7869 25.1486 39.4544 24.6907 38.9577 24.4056L38.9284 24.386C38.4444 24.1201 37.8938 24.0622 37.3873 24.2002C36.8726 24.3288 36.41 24.6715 36.1281 25.1649C35.8427 25.6554 35.7833 26.219 35.9199 26.7378C36.0608 27.2482 36.3908 27.7094 36.8845 27.9977H36.8874C37.3823 28.2821 37.9416 28.3332 38.4611 28.1988ZM29.3062 17.8789C28.7628 17.3369 28.0129 16.9971 27.183 16.9971C26.3542 16.9971 25.6065 17.3369 25.0642 17.8789C24.5237 18.4201 24.1904 19.1667 24.1904 19.9966C24.1904 20.8265 24.5237 21.5764 25.0642 22.1238C25.6065 22.6624 26.3542 22.999 27.183 22.999C28.0129 22.999 28.7628 22.6624 29.3062 22.1238C29.8481 21.5764 30.1814 20.8265 30.1814 19.9966C30.1814 19.1667 29.8481 18.4201 29.3062 17.8789ZM28.1122 14.3509C29.317 14.5494 30.3987 15.1265 31.2258 15.9593H31.2319C31.3634 16.0904 31.4913 16.235 31.6105 16.3791L33.6771 15.1837C33.3993 14.344 33.3862 13.4662 33.6098 12.6428C33.9043 11.5405 34.619 10.5537 35.6905 9.93535L35.7253 9.91325C36.7853 9.31372 37.9898 9.18875 39.0769 9.48326C40.1782 9.7785 41.1715 10.4965 41.7898 11.5662V11.5695C42.4053 12.6334 42.5299 13.8542 42.2365 14.9533C41.9434 16.0553 41.2262 17.0489 40.1557 17.6637L39.8735 17.8303H39.8449C38.8548 18.3016 37.7663 18.3755 36.7664 18.1122C35.9456 17.8948 35.1928 17.4362 34.6031 16.7859L32.5393 17.9781C32.7766 18.6055 32.9077 19.2819 32.9077 19.9966C32.9077 20.7077 32.7766 21.3938 32.5393 22.0245L34.6031 23.2134C35.1928 22.553 35.9456 22.1049 36.7664 21.8869C37.8681 21.5858 39.0889 21.7137 40.1557 22.3357L40.2242 22.3676V22.3708C41.2548 22.9957 41.9467 23.96 42.2365 25.0493C42.5299 26.1419 42.4053 27.3634 41.7898 28.4295L41.7525 28.5038L41.7482 28.4976C41.1302 29.5253 40.1557 30.2216 39.0802 30.5161C37.9771 30.807 36.7559 30.6827 35.6905 30.0698V30.0615C34.619 29.442 33.9043 28.4531 33.6098 27.3529C33.3862 26.5331 33.3993 25.6554 33.6771 24.816L31.6105 23.6235C31.4913 23.7677 31.3634 23.9057 31.2319 24.0368L31.2258 24.0434C30.3987 24.8733 29.317 25.45 28.1122 25.642V28.03C28.9707 28.2093 29.7394 28.6385 30.3415 29.241L30.3448 29.2471C31.1519 30.0506 31.6518 31.17 31.6518 32.4002C31.6518 33.6268 31.1519 34.7396 30.3448 35.5471L30.3415 35.5598C29.5286 36.3669 28.4136 36.8668 27.183 36.8668C25.9589 36.8668 24.841 36.3669 24.0299 35.5598H24.0267V35.5471C23.2188 34.7396 22.7179 33.6268 22.7179 32.4002C22.7179 31.17 23.2188 30.0506 24.0267 29.2471V29.241H24.0299C24.6316 28.6385 25.4018 28.2093 26.2571 28.03V25.642C25.0526 25.45 23.9727 24.8733 23.1471 24.0434L23.1384 24.0368C22.1075 23.0022 21.4619 21.5764 21.4619 19.9966C21.4619 18.4201 22.1075 16.9942 23.1384 15.9593H23.1471C23.9727 15.1265 25.0526 14.5494 26.2571 14.3509V11.973C25.4018 11.7876 24.6316 11.3583 24.0299 10.7591H24.0267V10.7526C23.2188 9.94187 22.7179 8.83011 22.7179 7.59954C22.7179 6.37548 23.2188 5.25394 24.0267 4.44647L24.0299 4.44321C24.841 3.63285 25.9589 3.1333 27.183 3.1333C28.4136 3.1333 29.5286 3.63285 30.3415 4.44321V4.44647H30.3448C31.1519 5.25394 31.6518 6.37548 31.6518 7.59954C31.6518 8.83011 31.1519 9.94187 30.3448 10.7526L30.3415 10.7591C29.7394 11.3583 28.9707 11.7876 28.1122 11.973V14.3509ZM39.7213 12.7649L39.7036 12.7388C39.4189 12.2585 38.9639 11.9383 38.4611 11.8002C37.9416 11.6622 37.3823 11.7202 36.8845 12.0056H36.8874C36.3908 12.2875 36.0586 12.7483 35.9199 13.2648C35.7833 13.7774 35.8427 14.344 36.1281 14.8377L36.1379 14.8504C36.4237 15.3377 36.8791 15.6644 37.3873 15.7959C37.8981 15.9404 38.4672 15.8792 38.9577 15.5938L38.9842 15.5811C39.467 15.2927 39.7887 14.8377 39.9228 14.3378C40.0597 13.822 40.005 13.2583 39.7213 12.7649Z" fill="#7A8096"/>
<path d="M48.8914 13.4634H51.1975V20.5027L54.523 16.8244H57.2881L53.2732 21.0859L57.3047 26.4879H54.6642L51.1975 21.6626V26.4879H48.8914V13.4634ZM59.9669 21.6978C59.9669 22.8965 60.8291 24.6393 62.9063 24.6393C64.1915 24.6393 65.0374 23.9695 65.4761 23.0917C65.7058 22.6657 65.8115 22.2104 65.847 21.7365C65.863 21.2779 65.7764 20.8012 65.5815 20.3777C65.1772 19.4648 64.2799 18.6733 62.8892 18.6733C61.0243 18.6733 59.9669 20.1854 59.9669 21.6818V21.6978ZM68.1347 26.4879H65.8275V25.0975C65.2135 26.222 63.9278 26.7864 62.5719 26.7864C59.4735 26.7864 57.6612 24.3734 57.6612 21.6467C57.6612 18.6027 59.8611 16.5262 62.5719 16.5262C64.3321 16.5262 65.4055 17.459 65.8275 18.2343V16.8244H68.1347V26.4879ZM70.7458 18.6027H69.5507V16.8244H70.7458V16.2799C70.7458 13.4087 72.9291 13.2355 74.5846 13.2163V14.9914C74.0025 14.9914 73.053 14.9914 73.053 16.3498V16.8244H74.5846V18.6027H73.053V26.4879H70.7458V18.6027ZM76.1528 13.4634H78.4582V20.5027L81.7844 16.8244H84.5495L80.5346 21.0859L84.5654 26.4879H81.925L78.4582 21.6626V26.4879H76.1528V13.4634ZM87.2284 21.6978C87.2284 22.8965 88.0902 24.6393 90.1677 24.6393C91.4512 24.6393 92.297 23.9695 92.7365 23.0917C92.9669 22.6657 93.073 22.2104 93.1078 21.7365C93.1237 21.2779 93.0371 20.8012 92.8419 20.3777C92.4383 19.4648 91.541 18.6733 90.1507 18.6733C88.2854 18.6733 87.2284 20.1854 87.2284 21.6818V21.6978ZM95.3954 26.4879H93.0889V25.0975C92.4731 26.222 91.1885 26.7864 89.8334 26.7864C86.735 26.7864 84.9241 24.3734 84.9241 21.6467C84.9241 18.6027 87.1233 16.5262 89.8334 16.5262C91.5925 16.5262 92.6669 17.459 93.0889 18.2343V16.8244H95.3954V26.4879Z" fill="#7A8096"/>
</svg>
