<svg width="117" height="40" viewBox="0 0 117 40" fill="none" xmlns="http://www.w3.org/2000/svg">
<path d="M28.0153 14.528V16.5089H28.0771C28.4787 15.7319 29.1027 15.0921 29.8693 14.6711C30.6467 14.2723 31.5106 14.0719 32.3842 14.0877C33.7668 14.0877 34.8302 14.465 35.5746 15.2197C36.3185 15.9745 36.6904 17.2004 36.6904 18.8977V31.4334H32.351V19.7705C32.351 18.8905 32.2039 18.2779 31.9098 17.9327C31.7273 17.7468 31.5057 17.6038 31.261 17.5142C31.0163 17.4245 30.7548 17.3904 30.4953 17.4143C28.9652 17.4143 28.2002 18.347 28.2002 20.2124V31.4327H23.8638V14.5194L28.0153 14.528ZM39.607 8.74292H43.9458V12.4526H39.607V8.74292ZM39.607 14.528H43.9458V31.4334H39.607V14.528Z" fill="#7A8096"/>
<path d="M24.9567 9.1477L25.7305 12.1006H25.1099L24.9737 11.4769H24.186L24.0498 12.1006H23.4307L24.2045 9.1477H24.9567ZM24.8793 10.9878L24.593 9.65996H24.5852L24.2989 10.9878H24.8793ZM27.1233 9.1477C27.2549 9.1436 27.3857 9.16981 27.5056 9.22431C27.6037 9.2709 27.6896 9.33979 27.7563 9.42548C27.8205 9.50969 27.8667 9.60604 27.8925 9.7087C27.9199 9.81484 27.9337 9.92407 27.9335 10.0337C27.9365 10.1692 27.9135 10.304 27.8654 10.4307C27.8248 10.5367 27.7594 10.6317 27.675 10.7077C27.5891 10.7821 27.4884 10.8372 27.3795 10.8694C27.2547 10.9064 27.1251 10.9244 26.9949 10.9228H26.676V12.1021H26.0803V9.1477H27.1233ZM26.9414 10.4833C26.9941 10.4854 27.0466 10.477 27.0959 10.4585C27.1452 10.4401 27.1903 10.4119 27.2286 10.3757C27.3091 10.2829 27.3485 10.1629 27.3385 10.0407C27.3466 9.92012 27.3129 9.80043 27.2432 9.70173C27.2014 9.66136 27.1516 9.63021 27.0969 9.61022C27.0423 9.59024 26.9841 9.58186 26.926 9.58566H26.6784V10.4833H26.9414ZM29.4084 9.1477L30.1822 12.1006H29.5608L29.4246 11.4769H28.6369L28.5007 12.1006H27.8817L28.6555 9.1477H29.4084ZM29.331 10.9878L29.0447 9.65996H29.0369L28.7506 10.9878H29.331ZM31.6524 9.67389C31.6254 9.6247 31.5845 9.58453 31.5348 9.55839C31.4852 9.53225 31.429 9.52129 31.3731 9.52686C31.3065 9.52429 31.2411 9.54571 31.1889 9.58722C31.1334 9.63961 31.094 9.70671 31.0752 9.78068C31.0433 9.89535 31.0239 10.0131 31.0172 10.132C31.0058 10.2764 31.0007 10.4536 31.0017 10.6636C30.9994 10.8447 31.0071 11.0257 31.0249 11.2053C31.0334 11.3147 31.0568 11.4225 31.0946 11.5256C31.116 11.5888 31.1583 11.6429 31.2145 11.6788C31.2662 11.7059 31.324 11.7192 31.3824 11.7175C31.4326 11.7178 31.4826 11.7086 31.5294 11.6904C31.5797 11.6688 31.6207 11.6309 31.647 11.5821C31.6862 11.5114 31.7129 11.4344 31.7259 11.3546C31.7476 11.2269 31.7569 11.0977 31.7554 10.9677H32.3512C32.352 11.1201 32.3396 11.2726 32.314 11.4227C32.2931 11.5558 32.246 11.6843 32.1748 11.7988C32.1052 11.908 32.0062 11.9955 31.8892 12.051C31.7392 12.1175 31.5758 12.1485 31.4118 12.1416C31.228 12.15 31.0448 12.113 30.8786 12.034C30.7471 11.9566 30.6419 11.856 30.5746 11.7245C30.4995 11.5728 30.453 11.4088 30.4383 11.2409C30.4167 11.0347 30.4063 10.8275 30.4074 10.6203C30.4065 10.4138 30.4168 10.2073 30.4383 10.002C30.4541 9.83311 30.5003 9.66849 30.5746 9.51602C30.6426 9.38293 30.7486 9.27305 30.8786 9.2065C31.0434 9.12293 31.2269 9.08424 31.4203 9.09275C31.594 9.08459 31.7669 9.12025 31.9232 9.19644C32.0374 9.25696 32.1328 9.3477 32.1988 9.45876C32.2592 9.56454 32.2979 9.68136 32.3125 9.80233C32.328 9.91672 32.3358 10.032 32.3358 10.1475H31.7399C31.7496 9.9874 31.7235 9.82716 31.6633 9.67852L31.6524 9.67389ZM33.4276 9.1477V10.2775H34.1225V9.1477H34.7183V12.1006H34.1225V10.7882H33.4276V12.1006H32.8318V9.1477H33.4276ZM36.919 9.63518H35.8643V10.3301H36.8572V10.8176H35.8643V11.6115H36.96V12.099H35.2684V9.1477H36.919V9.63518ZM46.0501 17.4817V14.5257H48.2508V12.6082C48.2338 11.9551 48.3398 11.3043 48.565 10.6907C48.7499 10.2011 49.0586 9.76783 49.461 9.43323C49.8809 9.10339 50.3697 8.87225 50.891 8.75692C51.5101 8.61531 52.1423 8.54644 52.7768 8.55263C53.5517 8.55263 54.327 8.5841 55.1029 8.64704V11.7268C54.9574 11.702 54.8103 11.6912 54.6618 11.6943H54.2532C53.8005 11.6525 53.3478 11.7717 52.964 12.0085C52.6878 12.2793 52.5492 12.6608 52.5864 13.0454V14.5218H55.1013V17.4778H52.5864V31.4374H48.2484V17.4817H46.0501ZM57.6835 8.74299H62.0216V12.4527H57.6835V8.74299ZM57.6835 14.5272H62.0216V31.4405H57.6835V14.5272Z" fill="#7A8096"/>
<path d="M81.7585 35.5146C78.77 35.5146 75.9047 34.3276 73.7922 32.2143C71.6796 30.101 70.4934 27.2356 70.4927 24.2479C70.4927 18.8931 74.6891 13.755 77.5607 10.0097C79.1125 7.99574 80.4788 5.84559 81.6433 3.5855C81.6641 3.5414 81.7115 3.51355 81.7594 3.51355C81.8074 3.51355 81.8545 3.5414 81.8754 3.5855C83.04 5.84504 84.4057 7.99625 85.958 10.0113C88.8288 13.7581 93.026 18.8915 93.026 24.2494H86.1499C86.0044 24.2494 85.8852 24.3678 85.8852 24.5141V28.3785H82.0224C81.8769 28.3785 81.7577 28.4969 81.7577 28.6431V35.5169L81.7585 35.5146ZM86.1732 32.7799V29.1004H82.7575C82.6801 29.1004 82.6198 29.1283 82.5718 29.1778C82.5238 29.2274 82.4945 29.2939 82.4945 29.3636V32.7776L86.1732 32.7799ZM82.4821 36.4447C83.7401 36.4214 84.9848 36.1819 86.1616 35.7367V33.8834H82.7467C82.6694 33.8834 82.609 33.9112 82.561 33.9608C82.5131 34.0103 82.4836 34.0769 82.4836 34.1465L82.4821 36.4447ZM90.2899 28.6509V24.9714H86.8758C86.7303 24.9714 86.6111 25.0898 86.6111 25.236V28.6501H90.2907L90.2899 28.6509ZM90.731 33.2241L90.7348 33.2202C90.878 33.0748 90.9568 32.8782 90.9553 32.6739V29.7667H87.2759V33.4462H90.1832C90.3874 33.4477 90.5854 33.3688 90.7301 33.2241H90.731ZM87.5251 36.4865C88.5089 36.0649 89.4255 35.5013 90.2457 34.8135H87.5251V36.4865ZM93.2552 28.6516C93.7009 27.4754 93.94 26.2311 93.9748 24.9722H91.4157V28.6516H93.2552ZM92.3265 32.7374C93.0151 31.9171 93.5763 31.0002 93.998 30.0167H92.3265V32.7374Z" fill="#7A8096"/>
<path d="M79.2807 8.96743L78.6586 9.83797L76.6234 12.5277C76.8968 12.5649 77.1644 12.6061 77.4259 12.6515L79.1158 9.7923L79.5679 8.97824C79.6871 8.76545 79.41 8.78634 79.2815 8.96818L79.2807 8.96743ZM76.5941 14.0715L76.8988 13.5453L75.9718 13.3812C75.0068 14.6715 74.128 16.0239 73.3409 17.4299C71.9249 19.9989 70.942 22.8698 71.3932 25.8311C71.7773 28.2941 73.0221 30.5412 74.9063 32.1733C75.3087 32.5171 75.7348 32.8321 76.1815 33.1158C76.2403 33.1514 76.3171 33.139 76.3597 33.0849C76.4022 33.0307 76.3967 32.9518 76.3472 32.9046C74.8888 31.4963 73.8363 29.7215 73.2999 27.7664C72.458 24.6557 73.156 21.4692 74.3569 18.5526C75.0065 17.0132 75.7523 15.5163 76.5902 14.0707L76.5941 14.0715Z" fill="#DADDE3"/>
</svg>
