<svg width="116" height="40" viewBox="0 0 116 40" fill="none" xmlns="http://www.w3.org/2000/svg">
<path d="M18.8569 11.0602H18.8564V29.4207H18.8569C18.9133 33.018 24.7726 35.9256 31.9922 35.9256C39.2118 35.9256 45.0711 33.018 45.1276 29.4207H45.128V11.0602H45.1276C45.0711 14.6575 39.2118 17.5651 31.9922 17.5651C24.7726 17.5651 18.9133 14.6575 18.8569 11.0602Z" fill="#7A8096"/>
<path fill-rule="evenodd" clip-rule="evenodd" d="M31.9922 17.5651C39.2469 17.5651 45.128 14.6293 45.128 11.0078C45.128 7.38626 39.2469 4.45044 31.9922 4.45044C24.7375 4.45044 18.8564 7.38626 18.8564 11.0078C18.8564 14.6293 24.7375 17.5651 31.9922 17.5651ZM32.0448 14.3651C35.6721 14.3651 38.6126 12.8972 38.6126 11.0865C38.6126 9.27569 35.6721 7.80779 32.0448 7.80779C28.4174 7.80779 25.4769 9.27569 25.4769 11.0865C25.4769 12.8972 28.4174 14.3651 32.0448 14.3651Z" fill="#7A8096"/>
<path d="M27.7889 26.6784V31.4411C27.7889 31.7096 27.4983 31.878 27.2648 31.7447L23.5518 29.6264C23.4426 29.5641 23.3752 29.4482 23.3752 29.3227V19.026C23.3752 18.7534 23.6739 18.5856 23.9074 18.7271L31.7601 23.4889C31.8707 23.556 32.0093 23.5567 32.1206 23.4909L40.1855 18.7175C40.4191 18.5793 40.7144 18.7473 40.7144 19.0183V29.5239C40.7144 29.654 40.6421 29.7734 40.5267 29.8337L36.8137 31.7755C36.5804 31.8975 36.3008 31.7286 36.3008 31.4657V26.6634C36.3008 26.3954 36.0115 26.227 35.778 26.3591L32.1167 28.4289C32.0073 28.4908 31.8731 28.4894 31.765 28.4252L28.3182 26.3779C28.0847 26.2392 27.7889 26.4072 27.7889 26.6784Z" fill="white"/>
<path d="M52.4854 17.8085C51.8446 17.8085 51.2561 17.6583 50.7199 17.358C50.1838 17.0577 49.7588 16.6432 49.4449 16.1144C49.131 15.5791 48.9741 14.9753 48.9741 14.3029C48.9741 13.637 49.131 13.0396 49.4449 12.5109C49.7588 11.9755 50.1838 11.5578 50.7199 11.2575C51.2561 10.9571 51.8446 10.807 52.4854 10.807C53.1327 10.807 53.7212 10.9571 54.2508 11.2575C54.7871 11.5578 55.2089 11.9755 55.5161 12.5109C55.8299 13.0396 55.9869 13.637 55.9869 14.3029C55.9869 14.9753 55.8299 15.5791 55.5161 16.1144C55.2089 16.6432 54.7871 17.0577 54.2508 17.358C53.7147 17.6583 53.1262 17.8085 52.4854 17.8085ZM52.4854 16.5845C52.8973 16.5845 53.2602 16.4931 53.5741 16.3103C53.8879 16.121 54.1331 15.8533 54.3097 15.5073C54.4862 15.1613 54.5745 14.7598 54.5745 14.3029C54.5745 13.8459 54.4862 13.4477 54.3097 13.1082C54.1331 12.7622 53.8879 12.4978 53.5741 12.315C53.2602 12.1322 52.8973 12.0408 52.4854 12.0408C52.0735 12.0408 51.7073 12.1322 51.3869 12.315C51.073 12.4978 50.8278 12.7622 50.6513 13.1082C50.4747 13.4477 50.3865 13.8459 50.3865 14.3029C50.3865 14.7598 50.4747 15.1613 50.6513 15.5073C50.8278 15.8533 51.073 16.121 51.3869 16.3103C51.7073 16.4931 52.0735 16.5845 52.4854 16.5845ZM58.3814 13.0984C58.558 12.8503 58.8 12.6447 59.1072 12.4815C59.4211 12.3118 59.7777 12.2269 60.1763 12.2269C60.6408 12.2269 61.059 12.3411 61.4317 12.5696C61.8111 12.7981 62.1085 13.1245 62.3243 13.5488C62.5467 13.9667 62.6577 14.453 62.6577 15.0079C62.6577 15.5628 62.5467 16.0557 62.3243 16.4865C62.1085 16.9108 61.8111 17.2405 61.4317 17.4755C61.059 17.7106 60.6408 17.8281 60.1763 17.8281C59.7777 17.8281 59.4246 17.7465 59.117 17.5833C58.8165 17.42 58.5713 17.2144 58.3814 16.9663V20.3251H57.0083V12.315H58.3814V13.0984ZM61.2552 15.0079C61.2552 14.6815 61.1865 14.4008 61.0492 14.1658C60.9186 13.9242 60.742 13.7414 60.5196 13.6174C60.3038 13.4933 60.0684 13.4313 59.8134 13.4313C59.565 13.4313 59.3297 13.4966 59.1072 13.6272C58.8914 13.7512 58.7149 13.934 58.5776 14.1756C58.4469 14.4171 58.3814 14.7011 58.3814 15.0275C58.3814 15.3539 58.4469 15.6379 58.5776 15.8794C58.7149 16.121 58.8914 16.307 59.1072 16.4376C59.3297 16.5616 59.565 16.6236 59.8134 16.6236C60.0684 16.6236 60.3038 16.5583 60.5196 16.4278C60.742 16.2972 60.9186 16.1112 61.0492 15.8696C61.1865 15.6281 61.2552 15.3408 61.2552 15.0079ZM68.7068 14.91C68.7068 15.1058 68.6939 15.2821 68.6676 15.4388H64.6953C64.7279 15.8304 64.8652 16.1373 65.1073 16.3592C65.3493 16.5812 65.6467 16.6922 65.9998 16.6922C66.5098 16.6922 66.8727 16.4735 67.0885 16.0361H68.5695C68.4126 16.5583 68.1117 16.9892 67.6672 17.3287C67.2227 17.6616 66.6766 17.8281 66.0292 17.8281C65.5063 17.8281 65.0355 17.7138 64.6169 17.4853C64.2049 17.2503 63.8813 16.9206 63.6459 16.4963C63.4172 16.072 63.3026 15.5824 63.3026 15.0275C63.3026 14.4661 63.4172 13.9732 63.6459 13.5488C63.8746 13.1245 64.1951 12.7981 64.6071 12.5696C65.019 12.3411 65.493 12.2269 66.0292 12.2269C66.5459 12.2269 67.0069 12.3379 67.4122 12.5598C67.8241 12.7818 68.1411 13.0984 68.3636 13.5097C68.5923 13.9144 68.7068 14.3812 68.7068 14.91ZM67.2847 14.5183C67.278 14.1658 67.1505 13.885 66.9022 13.6761C66.6538 13.4607 66.3498 13.353 65.99 13.353C65.6499 13.353 65.3623 13.4575 65.1269 13.6664C64.8982 13.8687 64.7574 14.1527 64.7052 14.5183H67.2847ZM72.7201 12.2367C73.3674 12.2367 73.8907 12.4423 74.2894 12.8536C74.6883 13.2583 74.8876 13.8263 74.8876 14.5574V17.7399H73.5145V14.7435C73.5145 14.3126 73.4066 13.983 73.1909 13.7545C72.9751 13.5195 72.6808 13.402 72.3081 13.402C71.9291 13.402 71.6282 13.5195 71.4058 13.7545C71.19 13.983 71.0821 14.3126 71.0821 14.7435V17.7399H69.709V12.315H71.0821V12.9907C71.2653 12.7557 71.4976 12.5729 71.7785 12.4423C72.0664 12.3052 72.3803 12.2367 72.7201 12.2367Z" fill="#7A8096"/>
<path d="M56.7715 23.495V30.33H55.3984V25.8843L53.5643 30.33H52.5247L50.6807 25.8843V30.33H49.3076V23.495H50.8671L53.0445 28.5772L55.2219 23.495H56.7715ZM63.1804 27.5001C63.1804 27.6959 63.1671 27.8722 63.1412 28.0288H59.1689C59.2015 28.4205 59.3388 28.7273 59.5808 28.9493C59.8225 29.1713 60.1203 29.2823 60.4734 29.2823C60.9834 29.2823 61.3463 29.0636 61.5621 28.6262H63.0431C62.8861 29.1484 62.5852 29.5793 62.1407 29.9188C61.6959 30.2517 61.1501 30.4182 60.5028 30.4182C59.9795 30.4182 59.5087 30.3039 59.0904 30.0754C58.6785 29.8404 58.3548 29.5107 58.1194 29.0864C57.8903 28.6621 57.7762 28.1725 57.7762 27.6176C57.7762 27.0562 57.8903 26.5633 58.1194 26.1389C58.3482 25.7146 58.6687 25.3882 59.0806 25.1597C59.4926 24.9312 59.9665 24.817 60.5028 24.817C61.0191 24.817 61.4801 24.9279 61.8857 25.1499C62.2977 25.3719 62.6147 25.6885 62.8371 26.0998C63.0658 26.5045 63.1804 26.9713 63.1804 27.5001ZM61.7582 27.1084C61.7516 26.7558 61.6241 26.4751 61.3757 26.2662C61.127 26.0508 60.823 25.9431 60.4636 25.9431C60.1234 25.9431 59.8358 26.0475 59.6005 26.2564C59.3714 26.4588 59.2309 26.7428 59.1787 27.1084H61.7582ZM65.7813 26.0312V28.6555C65.7813 28.8383 65.8236 28.9722 65.9088 29.057C66.0002 29.1354 66.1508 29.1745 66.3599 29.1745H66.9975V30.33H66.1343C64.977 30.33 64.3983 29.7686 64.3983 28.6458V26.0312H63.751V24.9051H64.3983V23.5636H65.7813V24.9051H66.9975V26.0312H65.7813ZM67.6318 27.598C67.6318 27.0496 67.7397 26.5633 67.9555 26.1389C68.1779 25.7146 68.4753 25.3882 68.848 25.1597C69.2274 24.9312 69.6491 24.817 70.1133 24.817C70.5189 24.817 70.872 24.8986 71.1725 25.0618C71.4801 25.225 71.7253 25.4306 71.9081 25.6787V24.9051H73.2911V30.33H71.9081V29.5369C71.7316 29.7915 71.4864 30.0036 71.1725 30.1734C70.8653 30.3366 70.5091 30.4182 70.1035 30.4182C69.646 30.4182 69.2274 30.3007 68.848 30.0656C68.4753 29.8306 68.1779 29.5009 67.9555 29.0766C67.7397 28.6458 67.6318 28.1529 67.6318 27.598ZM71.9081 27.6176C71.9081 27.2846 71.843 27.0007 71.712 26.7656C71.5813 26.5241 71.4048 26.3413 71.1823 26.2173C70.9603 26.0867 70.7214 26.0214 70.4664 26.0214C70.2113 26.0214 69.976 26.0834 69.7602 26.2075C69.5444 26.3315 69.3679 26.5143 69.2305 26.7558C69.0999 26.9909 69.0344 27.2716 69.0344 27.598C69.0344 27.9244 69.0999 28.2116 69.2305 28.4597C69.3679 28.7013 69.5444 28.8873 69.7602 29.0179C69.9826 29.1484 70.218 29.2137 70.4664 29.2137C70.7214 29.2137 70.9603 29.1517 71.1823 29.0277C71.4048 28.8971 71.5813 28.7143 71.712 28.4793C71.843 28.2377 71.9081 27.9505 71.9081 27.6176ZM74.2792 27.598C74.2792 27.0496 74.3871 26.5633 74.6029 26.1389C74.8253 25.7146 75.1259 25.3882 75.5052 25.1597C75.8846 24.9312 76.3063 24.817 76.7705 24.817C77.1236 24.817 77.4602 24.8953 77.7807 25.052C78.1012 25.2021 78.3562 25.4045 78.5457 25.6591V23.0837H79.9385V30.33H78.5457V29.5271C78.3758 29.7947 78.1369 30.0101 77.8297 30.1734C77.5225 30.3366 77.1659 30.4182 76.7607 30.4182C76.3028 30.4182 75.8846 30.3007 75.5052 30.0656C75.1259 29.8306 74.8253 29.5009 74.6029 29.0766C74.3871 28.6458 74.2792 28.1529 74.2792 27.598ZM78.5555 27.6176C78.5555 27.2846 78.49 27.0007 78.3594 26.7656C78.2287 26.5241 78.0522 26.3413 77.8297 26.2173C77.6073 26.0867 77.3688 26.0214 77.1137 26.0214C76.8587 26.0214 76.6233 26.0834 76.4076 26.2075C76.1918 26.3315 76.0152 26.5143 75.8779 26.7558C75.7473 26.9909 75.6818 27.2716 75.6818 27.598C75.6818 27.9244 75.7473 28.2116 75.8779 28.4597C76.0152 28.7013 76.1918 28.8873 76.4076 29.0179C76.63 29.1484 76.8654 29.2137 77.1137 29.2137C77.3688 29.2137 77.6073 29.1517 77.8297 29.0277C78.0522 28.8971 78.2287 28.7143 78.3594 28.4793C78.49 28.2377 78.5555 27.9505 78.5555 27.6176ZM80.9263 27.598C80.9263 27.0496 81.0342 26.5633 81.2499 26.1389C81.4724 25.7146 81.7698 25.3882 82.1425 25.1597C82.5218 24.9312 82.9436 24.817 83.4077 24.817C83.8133 24.817 84.1664 24.8986 84.467 25.0618C84.7745 25.225 85.0197 25.4306 85.2026 25.6787V24.9051H86.5855V30.33H85.2026V29.5369C85.026 29.7915 84.7808 30.0036 84.467 30.1734C84.1598 30.3366 83.8035 30.4182 83.3979 30.4182C82.9404 30.4182 82.5218 30.3007 82.1425 30.0656C81.7698 29.8306 81.4724 29.5009 81.2499 29.0766C81.0342 28.6458 80.9263 28.1529 80.9263 27.598ZM85.2026 27.6176C85.2026 27.2846 85.1374 27.0007 85.0064 26.7656C84.8758 26.5241 84.6992 26.3413 84.4768 26.2173C84.2547 26.0867 84.0158 26.0214 83.7608 26.0214C83.5058 26.0214 83.2704 26.0834 83.0546 26.2075C82.8388 26.3315 82.6623 26.5143 82.525 26.7558C82.3943 26.9909 82.3288 27.2716 82.3288 27.598C82.3288 27.9244 82.3943 28.2116 82.525 28.4597C82.6623 28.7013 82.8388 28.8873 83.0546 29.0179C83.277 29.1484 83.5124 29.2137 83.7608 29.2137C84.0158 29.2137 84.2547 29.1517 84.4768 29.0277C84.6992 28.8971 84.8758 28.7143 85.0064 28.4793C85.1374 28.2377 85.2026 27.9505 85.2026 27.6176ZM89.5255 26.0312V28.6555C89.5255 28.8383 89.5678 28.9722 89.653 29.057C89.7444 29.1354 89.895 29.1745 90.1041 29.1745H90.7417V30.33H89.8786C88.7212 30.33 88.1425 29.7686 88.1425 28.6458V26.0312H87.4952V24.9051H88.1425V23.5636H89.5255V24.9051H90.7417V26.0312H89.5255ZM91.376 27.598C91.376 27.0496 91.4839 26.5633 91.6997 26.1389C91.9221 25.7146 92.2195 25.3882 92.5922 25.1597C92.9716 24.9312 93.3933 24.817 93.8575 24.817C94.2631 24.817 94.6162 24.8986 94.9167 25.0618C95.2243 25.225 95.4695 25.4306 95.6523 25.6787V24.9051H97.0353V30.33H95.6523V29.5369C95.4758 29.7915 95.2306 30.0036 94.9167 30.1734C94.6095 30.3366 94.2533 30.4182 93.8477 30.4182C93.3902 30.4182 92.9716 30.3007 92.5922 30.0656C92.2195 29.8306 91.9221 29.5009 91.6997 29.0766C91.4839 28.6458 91.376 28.1529 91.376 27.598ZM95.6523 27.6176C95.6523 27.2846 95.5872 27.0007 95.4562 26.7656C95.3255 26.5241 95.149 26.3413 94.9265 26.2173C94.7045 26.0867 94.4656 26.0214 94.2106 26.0214C93.9555 26.0214 93.7201 26.0834 93.5044 26.2075C93.2886 26.3315 93.1121 26.5143 92.9747 26.7558C92.8441 26.9909 92.7786 27.2716 92.7786 27.598C92.7786 27.9244 92.8441 28.2116 92.9747 28.4597C93.1121 28.7013 93.2886 28.8873 93.5044 29.0179C93.7268 29.1484 93.9622 29.2137 94.2106 29.2137C94.4656 29.2137 94.7045 29.1517 94.9265 29.0277C95.149 28.8971 95.3255 28.7143 95.4562 28.4793C95.5872 28.2377 95.6523 27.9505 95.6523 27.6176Z" fill="#7A8096"/>
</svg>
