<svg width="117" height="40" viewBox="0 0 117 40" fill="none" xmlns="http://www.w3.org/2000/svg">
<path d="M6.78589 13.3822V8.96847C8.02886 2.28837 14.5999 2.22892 19.7444 3.97101C19.7716 3.98012 19.8003 3.98355 19.8288 3.98107C19.8573 3.97859 19.8849 3.97026 19.9099 3.95659C22.0379 2.791 24.4051 2.73335 26.7543 3.2612C26.8132 3.27416 26.8742 3.27105 26.9306 3.25219C31.2891 1.80556 36.1458 2.41268 39.3459 5.86802C42.5747 9.354 38.0579 19.3831 36.0253 22.7502C35.9126 22.9376 35.9653 23.0325 36.1836 23.0349C37.1166 23.0469 38.0166 22.9742 38.8836 22.8169C39.693 22.6691 40.4198 22.7718 40.6518 23.6204C40.909 24.5572 39.7794 26.0308 39.0887 26.5803C37.6766 27.7062 35.3831 27.9188 33.6221 27.7116C33.6104 27.7101 33.5985 27.711 33.5871 27.7142C33.5757 27.7174 33.5651 27.7229 33.5559 27.7303C33.5466 27.7377 33.539 27.7469 33.5334 27.7573C33.5278 27.7677 33.5243 27.7791 33.5232 27.7909C33.2785 30.3107 33.0303 32.2077 32.7785 33.482C32.1957 36.4293 29.9238 37.5462 27.0835 37.7426C25.4304 37.8561 23.8529 37.1931 23.0614 35.7105C22.7784 35.182 22.5715 34.3317 22.4408 33.1595C22.2741 31.6642 22.1932 30.1629 22.198 28.6556C22.1982 28.6465 22.1959 28.6374 22.1915 28.6294C22.1871 28.6213 22.1806 28.6146 22.1728 28.6098C22.165 28.6051 22.156 28.6025 22.1468 28.6023C22.1377 28.6021 22.1286 28.6044 22.1206 28.6088C20.4909 29.4555 18.6238 29.0754 16.9635 28.5548C16.5941 28.4383 16.2889 28.2347 16.0479 27.944C16.0322 27.9261 16.0103 27.9149 15.987 27.9129C15.9637 27.9108 15.941 27.9182 15.9238 27.9332C10.6029 32.6695 7.214 15.7711 6.78589 13.3822ZM34.7679 23.4384C36.8348 19.8479 38.3943 16.5385 39.2236 12.4418C39.5653 10.7466 39.8801 8.09652 38.6731 6.70394C35.7699 3.35488 30.9761 2.99818 26.9756 4.24484C26.919 4.26255 26.8588 4.26503 26.8011 4.25205C25.0455 3.83769 23.3102 3.87432 21.5954 4.36194C21.1349 4.49345 20.7104 4.85196 20.2643 5.08255C20.2392 5.09513 20.2119 5.10256 20.1838 5.10442C20.1557 5.10627 20.1274 5.10252 20.1006 5.09336C17.5463 4.21602 14.8859 3.76383 12.2021 4.33311C9.3114 4.94564 8.16916 6.87868 7.73745 9.67106C7.56597 10.788 7.54138 11.8377 7.6637 12.8202C7.92632 14.9135 10.7163 29.8284 15.1773 27.6216C15.5502 27.4378 16.1426 26.8763 16.9545 25.9371C17.5901 25.2021 18.2406 24.4761 18.9062 23.7591C18.9298 23.7339 18.9577 23.7153 18.9857 23.7062C19.0137 23.6971 19.0401 23.6979 19.0609 23.7086C19.5993 23.9849 20.1701 24.147 20.7733 24.195C20.7829 24.1955 20.7919 24.1989 20.7994 24.2049C20.8069 24.2108 20.8126 24.2191 20.8161 24.229C20.8196 24.2388 20.8206 24.2498 20.8191 24.261C20.8176 24.2721 20.8136 24.2829 20.8075 24.2923C19.9225 25.7227 18.6993 25.4201 17.5355 25.9587C16.3591 26.5028 17.0084 27.5729 17.8809 27.9134C19.724 28.6328 21.4359 28.4166 23.0164 27.2649C23.0644 27.23 23.0884 27.2426 23.0884 27.3027C23.086 28.9997 23.1423 30.695 23.2575 32.3884C23.4913 35.8312 25.2901 37.5624 28.8679 36.5356C31.1829 35.8708 31.7801 34.5016 32.1669 32.1506C32.4499 30.426 32.6753 28.6959 32.8432 26.9604C32.8456 26.9369 32.8528 26.9142 32.8643 26.8936C32.8758 26.873 32.8913 26.855 32.91 26.8406C32.9287 26.8263 32.9502 26.8159 32.973 26.8102C32.9959 26.8045 33.0197 26.8035 33.0429 26.8073C34.5491 27.0391 36.0073 26.8769 37.4176 26.3209C38.0957 26.0524 39.7884 25.0472 39.6661 24.1626C39.5635 23.4294 38.9376 23.4096 38.2936 23.5213C37.1891 23.7122 35.8814 23.9464 34.8057 23.5483C34.7955 23.5444 34.7863 23.5383 34.7788 23.5304C34.7712 23.5226 34.7654 23.5131 34.7618 23.5026C34.7582 23.4922 34.7569 23.4811 34.758 23.47C34.759 23.4589 34.7624 23.4481 34.7679 23.4384Z" fill="#7A8096"/>
<path d="M37.1055 6.71648C38.0553 7.51996 38.487 8.18112 38.4816 9.49264C38.4636 13.8632 36.4993 18.6192 34.2094 22.307C33.9558 22.7123 33.9019 22.334 33.999 22.1574C34.7887 20.7288 34.7491 19.2408 34.5656 17.6536C34.4001 16.2178 34.4307 15.2071 34.6322 13.9136C34.7275 13.3029 34.8228 12.2598 34.6196 11.6851C33.5523 8.65493 31.5892 6.394 28.7303 4.90233C28.6776 4.87471 28.6806 4.85429 28.7393 4.84108C31.7217 4.19252 34.6879 4.66993 37.1055 6.71648Z" fill="#7A8096"/>
<path d="M33.3662 23.1862C33.3926 23.2042 33.4124 23.2288 33.4255 23.2601C33.4299 23.2699 33.4318 23.2808 33.431 23.2918C33.4303 23.3029 33.4269 23.3139 33.4211 23.3243C33.4154 23.3346 33.4074 23.344 33.3976 23.3519C33.3878 23.3598 33.3765 23.3659 33.3644 23.37C32.3373 23.7177 32.0998 24.404 32.0009 25.485C31.7922 27.7945 31.5092 30.0957 31.1519 32.3885C30.9738 33.536 30.5888 34.68 29.4952 35.2349C27.0254 36.4833 24.5809 35.9735 24.3003 32.8587C24.0976 30.62 24.0406 28.3758 24.1294 26.1263C24.1869 24.6779 23.739 23.4294 22.0554 23.352C22.0451 23.3517 22.0351 23.349 22.0261 23.344C22.017 23.3391 22.0093 23.3321 22.0034 23.3236C21.9974 23.315 21.9935 23.3052 21.9919 23.2948C21.9904 23.2844 21.9911 23.2738 21.9942 23.2637C22.5734 21.4297 23.6149 19.6552 23.6509 17.8086C23.7408 13.294 22.6508 10.5412 17.6231 12.7697C17.6148 12.7736 17.6055 12.7752 17.5963 12.7745C17.5871 12.7738 17.5783 12.7707 17.5708 12.7656C17.5633 12.7604 17.5574 12.7534 17.5536 12.7453C17.5498 12.7372 17.5484 12.7282 17.5494 12.7193C17.8498 9.17567 19.4777 5.31498 23.5735 5.01412C28.2072 4.67363 31.902 7.43899 33.5784 11.6294C33.5868 11.6503 33.5895 11.6731 33.5863 11.6954C33.5831 11.7178 33.5742 11.7389 33.5604 11.7567C33.5466 11.7746 33.5284 11.7885 33.5076 11.7971C33.4868 11.8057 33.4641 11.8088 33.4417 11.8059C30.5421 11.4222 28.9124 13.0724 29.7092 15.9711C30.2759 18.0284 31.3425 19.8498 32.3481 21.7108C32.6071 22.1888 32.9009 22.6463 33.2295 23.0835C33.2403 23.0979 33.2858 23.1322 33.3662 23.1862Z" fill="#7A8096"/>
<path d="M18.0569 23.0402C18.0683 23.0518 18.0746 23.0674 18.0746 23.0838C18.0746 23.1003 18.0683 23.1162 18.0569 23.1285C17.1288 24.1517 16.2096 25.1894 15.2994 26.2415C12.5418 29.4302 9.67275 17.9238 9.41193 16.7816C8.8543 14.3388 8.46216 12.539 8.65104 10.343C9.16549 4.32582 14.9018 4.38527 19.1956 5.83731C19.205 5.84054 19.2134 5.84601 19.2202 5.85325C19.227 5.86048 19.232 5.86927 19.2346 5.87884C19.2373 5.88842 19.2376 5.8985 19.2355 5.90821C19.2334 5.91793 19.2289 5.92698 19.2226 5.9346C17.3842 8.10004 16.519 10.869 16.5424 13.6199C16.5603 15.4917 16.6251 16.7564 16.4326 18.2985C16.2072 20.0893 16.7486 21.6698 18.0569 23.0402ZM33.6723 12.8453C33.6992 12.8485 33.7238 12.8622 33.7406 12.8834C33.7575 12.9047 33.7653 12.9318 33.7622 12.9588C33.6453 14.0703 33.424 15.2215 33.4636 16.306C33.5248 18.0265 33.9853 19.6389 33.3143 21.3125C33.2915 21.3702 33.2657 21.3726 33.237 21.3197C32.0749 19.1921 30.8626 17.1888 30.5208 15.0287C30.1574 12.7444 32.0624 12.6417 33.6723 12.8453ZM32.6434 13.3047C32.2212 13.1786 31.8153 13.2218 31.4256 13.4344C31.115 13.6049 31.0808 13.7779 31.323 13.9532C31.9119 14.3784 32.3939 14.2919 32.7693 13.6938C32.791 13.659 32.8051 13.6199 32.8104 13.5794C32.8158 13.5389 32.8122 13.4983 32.8 13.4606C32.7878 13.4229 32.7673 13.3893 32.7402 13.3622C32.713 13.3352 32.6799 13.3155 32.6434 13.3047Z" fill="#7A8096"/>
<path d="M17.6051 13.9532C18.7402 13.2326 21.7711 11.9751 22.2802 14.146C22.7839 16.2934 22.8738 18.3003 22.0374 20.3523C21.686 21.217 21.3382 22.1232 20.9941 23.0708C20.982 23.1042 20.9587 23.1323 20.9282 23.1504C20.8976 23.1684 20.8618 23.1753 20.8268 23.1699C19.0496 22.887 17.8156 21.8169 17.4558 20.055C17.3779 19.6743 17.3755 19.0467 17.4486 18.1724C17.5578 16.8801 17.5685 15.556 17.481 14.2C17.4778 14.1514 17.4876 14.1028 17.5094 14.0594C17.5313 14.0159 17.5643 13.9793 17.6051 13.9532ZM21.6038 13.6902C21.1266 13.4223 20.6487 13.4025 20.1702 13.6307C20.1399 13.6452 20.1137 13.6671 20.0933 13.6949C20.0729 13.7228 20.0586 13.756 20.0515 13.7925C20.0444 13.8289 20.0446 13.8678 20.052 13.9067C20.0594 13.9455 20.074 13.9834 20.0947 14.0181C20.4676 14.6486 20.9737 14.7825 21.6128 14.4198C22.041 14.1784 22.038 13.9352 21.6038 13.6902Z" fill="#7A8096"/>
<path d="M32.6436 13.3047C32.6801 13.3155 32.7132 13.3352 32.7404 13.3622C32.7676 13.3893 32.788 13.4229 32.8002 13.4606C32.8124 13.4983 32.816 13.539 32.8107 13.5794C32.8053 13.6199 32.7913 13.659 32.7695 13.6938C32.3942 14.2919 31.9121 14.3784 31.3233 13.9532C31.081 13.7779 31.1152 13.6049 31.4258 13.4344C31.8155 13.2218 32.2215 13.1786 32.6436 13.3047Z" fill="white"/>
<path d="M84.4399 14.6396C84.615 14.3345 84.8645 14.1123 85.1882 13.973C87.3828 13.0254 92.0632 13.0524 91.9463 16.56C91.9454 16.5827 91.9332 16.6041 91.9125 16.6199C91.8917 16.6356 91.8639 16.6445 91.8348 16.6447H91.0037C90.9742 16.6446 90.9459 16.6361 90.9248 16.621C90.9037 16.6059 90.8914 16.5854 90.8904 16.5636C90.8023 14.2108 88.1994 13.9856 86.4708 14.4342C84.6288 14.9116 84.5011 17.4482 86.3844 17.9004C87.6088 18.1946 88.8386 18.4744 90.0738 18.7399C91.1872 18.9813 92.0345 19.5974 92.1856 20.7864C92.5579 23.7319 90.2914 24.4796 87.8828 24.3805C85.5732 24.285 83.7762 23.6058 83.6737 20.8711C83.6732 20.8534 83.6754 20.8357 83.6802 20.8192C83.685 20.8027 83.6923 20.7876 83.7017 20.7749C83.7111 20.7621 83.7223 20.752 83.7348 20.745C83.7473 20.738 83.7608 20.7343 83.7744 20.7342H84.6738C84.6934 20.7344 84.7124 20.7451 84.7271 20.7641C84.7418 20.7832 84.751 20.8092 84.7529 20.8369C84.8597 22.4354 85.7165 23.3314 87.3234 23.5248C88.7337 23.6959 90.9444 23.5536 91.1405 21.7592C91.2688 20.5931 90.7705 19.8911 89.6457 19.6533C87.7449 19.2533 86.3413 18.9128 85.4347 18.6318C83.7762 18.1201 83.7096 15.9025 84.4399 14.6396ZM101.739 23.1446L103.171 24.3228C103.18 24.3301 103.187 24.3392 103.192 24.3494C103.197 24.3596 103.2 24.3708 103.2 24.3823C103.201 24.3938 103.199 24.4054 103.195 24.4162C103.19 24.427 103.184 24.437 103.176 24.4453L102.631 25.0272C102.612 25.0472 102.585 25.0581 102.555 25.0578C102.525 25.0575 102.494 25.0459 102.469 25.0254L101.025 23.8166C101.003 23.7981 100.977 23.7858 100.95 23.781C100.923 23.7763 100.896 23.7792 100.872 23.7896C96.8732 25.5839 92.2809 23.5248 92.4752 18.7201C92.5795 16.1421 93.8818 14.1225 96.5476 13.5641C99.7045 12.9011 102.752 14.4324 103.254 17.8067C103.543 19.7433 103.165 21.6349 101.739 23.0131C101.73 23.0219 101.722 23.0325 101.717 23.0441C101.712 23.0558 101.709 23.0683 101.709 23.0807C101.709 23.0932 101.712 23.1053 101.717 23.1163C101.722 23.1274 101.73 23.137 101.739 23.1446ZM102.211 18.2241C102.21 17.7072 102.106 17.1956 101.907 16.7188C101.708 16.2419 101.417 15.8089 101.051 15.4447C100.684 15.0804 100.25 14.792 99.7726 14.5958C99.295 14.3997 98.7836 14.2996 98.2675 14.3014L97.5335 14.304C97.0174 14.3057 96.5067 14.4093 96.0305 14.6088C95.5543 14.8083 95.1221 15.0998 94.7584 15.4666C94.3947 15.8334 94.1067 16.2683 93.9108 16.7466C93.7149 17.2248 93.6151 17.7371 93.6169 18.254L93.6215 19.5763C93.6233 20.0933 93.7268 20.6048 93.9259 21.0817C94.1251 21.5586 94.4161 21.9915 94.7824 22.3557C95.1486 22.72 95.5829 23.0084 96.0604 23.2046C96.538 23.4008 97.0494 23.5008 97.5656 23.499L98.2995 23.4965C98.8156 23.4947 99.3264 23.3911 99.8025 23.1916C100.279 22.9921 100.711 22.7007 101.075 22.3339C101.438 21.9671 101.726 21.5321 101.922 21.0538C102.118 20.5756 102.218 20.0634 102.216 19.5464L102.211 18.2241Z" fill="#7A8096"/>
<path d="M111.116 23.305V24.1229L104.241 24.168C104.217 24.1682 104.193 24.1634 104.171 24.154C104.148 24.1445 104.128 24.1304 104.111 24.1127C104.093 24.0949 104.08 24.0738 104.07 24.0505C104.061 24.0272 104.056 24.0022 104.056 23.977V13.7983C104.056 13.7744 104.066 13.7515 104.082 13.7346C104.099 13.7177 104.122 13.7083 104.146 13.7083H105.001C105.024 13.7083 105.047 13.7177 105.064 13.7346C105.081 13.7515 105.09 13.7744 105.09 13.7983V23.1663C105.09 23.1779 105.093 23.1894 105.097 23.2001C105.101 23.2108 105.108 23.2205 105.116 23.2287C105.124 23.2369 105.133 23.2434 105.144 23.2479C105.154 23.2523 105.165 23.2546 105.177 23.2546L111.116 23.305Z" fill="#7A8096"/>
<path d="M43.5372 14.9748C45.0386 14.9664 46.4735 14.9652 47.8417 14.9712C50.8493 14.982 50.9788 19.6497 47.9299 19.9182C47.2607 19.977 46.0945 19.995 44.4312 19.9722C44.4188 19.972 44.4064 19.974 44.3948 19.9783C44.3833 19.9825 44.3727 19.9888 44.3639 19.9969C44.355 20.005 44.3479 20.0146 44.3431 20.0252C44.3383 20.0358 44.3359 20.0472 44.3359 20.0587V23.5267C44.336 23.5509 44.3278 23.5746 44.3125 23.5938C44.2971 23.6131 44.2756 23.6269 44.2514 23.6329C44.0319 23.6894 43.7621 23.684 43.4419 23.6167C43.5582 20.7391 43.59 17.8584 43.5372 14.9748ZM48.5721 15.9476C48.3862 15.777 48.2039 15.6906 48.0252 15.6882L44.4258 15.6287C44.4141 15.6285 44.4025 15.6311 44.3916 15.6363C44.3807 15.6415 44.3708 15.6493 44.3624 15.6592C44.3541 15.6691 44.3474 15.6809 44.3429 15.6939C44.3383 15.7069 44.3359 15.7209 44.3359 15.735V19.1579C44.3359 19.1799 44.3459 19.201 44.3638 19.2165C44.3817 19.2321 44.4059 19.2408 44.4312 19.2408C45.6526 19.257 48.6062 19.6624 49.1045 18.3238C49.4547 17.3834 49.2772 16.5913 48.5721 15.9476Z" fill="#7A8096"/>
<path d="M63.9871 18.5273L63.2676 18.5255C63.2313 18.5255 63.1965 18.5164 63.1709 18.5002C63.1453 18.484 63.1309 18.462 63.1309 18.439L63.1327 18.0751C63.1329 18.052 63.1472 18.0299 63.1724 18.0134C63.1977 17.9968 63.2318 17.9873 63.2676 17.9868H63.9871C64.0109 17.9868 64.0338 17.9726 64.0507 17.9473C64.0676 17.9219 64.077 17.8876 64.077 17.8517V16.2304C64.077 16.2111 64.0809 16.1921 64.0883 16.1744C64.0958 16.1566 64.1067 16.1406 64.1204 16.1271C64.1342 16.1137 64.1505 16.1032 64.1684 16.0961C64.1862 16.0891 64.2053 16.0857 64.2245 16.0862L64.7066 16.0988C64.7306 16.0993 64.7535 16.1086 64.7703 16.1248C64.7871 16.141 64.7965 16.1627 64.7965 16.1853V17.8517C64.7965 17.8876 64.806 17.9219 64.8229 17.9473C64.8398 17.9726 64.8626 17.9868 64.8865 17.9868H65.9658C66.002 17.9868 66.0368 17.9963 66.0624 18.0132C66.0881 18.0301 66.1025 18.053 66.1025 18.0769L66.1007 18.4372C66.1007 18.4611 66.0865 18.484 66.0612 18.5009C66.0359 18.5178 66.0015 18.5273 65.9658 18.5273H64.8865C64.8636 18.5273 64.8416 18.5376 64.8254 18.5558C64.8092 18.574 64.8001 18.5988 64.8001 18.6246C64.7977 19.7223 64.7959 20.8177 64.7947 21.9106C64.7929 22.7213 64.9512 23.3392 65.9388 23.0744C65.9585 23.0691 65.9789 23.0661 65.9985 23.0656C66.0182 23.065 66.0365 23.067 66.0522 23.0713C66.0679 23.0756 66.0806 23.0822 66.0893 23.0905C66.098 23.0989 66.1025 23.1087 66.1025 23.1194L66.1007 23.5734C66.1004 23.5951 66.0861 23.6173 66.0603 23.6362C66.0346 23.655 65.9992 23.6692 65.9604 23.6761C65.1725 23.8202 64.0824 23.6671 64.0824 22.615C64.0824 21.2867 64.077 19.9583 64.0662 18.63C64.0662 18.6028 64.0579 18.5766 64.0431 18.5574C64.0282 18.5381 64.0081 18.5273 63.9871 18.5273Z" fill="#7A8096"/>
<path d="M56.4622 21.0558C56.4723 21.7781 56.1954 22.4749 55.6925 22.9928C55.1897 23.5108 54.502 23.8074 53.7807 23.8175L53.1763 23.826C52.8192 23.831 52.4645 23.7655 52.1327 23.6332C51.8008 23.501 51.4982 23.3045 51.2421 23.0551C50.9861 22.8057 50.7816 22.5083 50.6403 22.1797C50.499 21.8512 50.4237 21.498 50.4188 21.1403L50.4107 20.5494C50.4006 19.827 50.6775 19.1303 51.1804 18.6124C51.6832 18.0945 52.3709 17.7979 53.0921 17.7878L53.6965 17.7793C54.0537 17.7743 54.4083 17.8398 54.7402 17.9721C55.072 18.1043 55.3746 18.3008 55.6307 18.5502C55.8868 18.7996 56.0913 19.097 56.2326 19.4256C56.3738 19.7542 56.4491 20.1074 56.4541 20.465L56.4622 21.0558ZM55.6939 20.4414C55.6925 20.1727 55.6383 19.9068 55.5343 19.659C55.4303 19.4113 55.2786 19.1864 55.0878 18.9974C54.8971 18.8083 54.671 18.6587 54.4225 18.5572C54.1741 18.4556 53.908 18.4041 53.6397 18.4055L53.2152 18.4077C52.9468 18.4091 52.6814 18.4634 52.434 18.5676C52.1866 18.6718 51.9621 18.8237 51.7734 19.0147C51.5846 19.2058 51.4353 19.4322 51.3339 19.681C51.2326 19.9299 51.1811 20.1963 51.1825 20.465L51.1861 21.164C51.1875 21.4328 51.2418 21.6986 51.3458 21.9464C51.4498 22.1942 51.6015 22.419 51.7923 22.608C51.983 22.797 52.2091 22.9466 52.4575 23.0481C52.706 23.1497 52.972 23.2012 53.2403 23.1998L53.6649 23.1976C53.9332 23.1962 54.1987 23.1419 54.446 23.0377C54.6934 22.9335 54.9179 22.7816 55.1066 22.5906C55.2954 22.3995 55.4447 22.1731 55.5461 21.9243C55.6475 21.6754 55.6989 21.409 55.6975 21.1403L55.6939 20.4413V20.4414ZM71.4424 22.5592C71.4376 22.4847 71.4118 22.4763 71.365 22.5339C70.534 23.5842 69.0338 23.7338 67.8879 23.3446C66.5748 22.8996 66.1431 21.853 66.1953 20.5054C66.2624 18.7723 67.1858 17.8668 68.9654 17.7887C69.953 17.7454 70.721 17.9905 71.2823 18.7885C71.3986 18.9543 71.4561 18.9429 71.4549 18.7543L71.4531 18.0751C71.4529 18.0636 71.4551 18.0522 71.4595 18.0415C71.4639 18.0308 71.4705 18.0211 71.4788 18.0128C71.4872 18.0046 71.4972 17.9981 71.5082 17.9936C71.5193 17.9892 71.5311 17.9869 71.5431 17.9869H72.0827C72.0941 17.9869 72.1053 17.9895 72.1158 17.9945C72.1262 17.9996 72.1358 18.007 72.1438 18.0164C72.1518 18.0258 72.1582 18.0369 72.1625 18.0491C72.1668 18.0614 72.1691 18.0745 72.1691 18.0877C72.1775 19.9157 72.1757 21.7431 72.1637 23.5698C72.1493 25.8758 70.0681 26.2685 68.2171 25.9569C67.199 25.7851 66.6114 25.2332 66.4543 24.3012C66.4526 24.2901 66.4538 24.2786 66.4578 24.2675C66.4619 24.2565 66.4686 24.2461 66.4777 24.237C66.4868 24.2279 66.4981 24.2202 66.5107 24.2146C66.5234 24.2089 66.5373 24.2053 66.5514 24.204L67.136 24.1463C67.1544 24.1447 67.1736 24.1561 67.1896 24.1782C67.2057 24.2003 67.2174 24.2315 67.2224 24.2652C67.4886 25.9785 70.5502 25.8235 71.1779 24.6093C71.4711 24.0472 71.4855 23.1753 71.4424 22.5592ZM71.4028 20.4182C71.4065 19.8888 71.2 19.3797 70.8289 19.0027C70.4578 18.6258 69.9523 18.4119 69.4237 18.4082L68.974 18.4052C68.4455 18.4015 67.9371 18.6082 67.5607 18.9799C67.1844 19.3516 66.9708 19.8579 66.9671 20.3872L66.9634 20.9169C66.9597 21.4462 67.1661 21.9554 67.5372 22.3323C67.9084 22.7093 68.4138 22.9231 68.9424 22.9268L69.3921 22.9299C69.9207 22.9336 70.429 22.7269 70.8054 22.3552C71.1818 21.9834 71.3953 21.4772 71.399 20.9479L71.4028 20.4182Z" fill="#7A8096"/>
<path d="M57.3231 19.0911C57.53 18.2822 58.0642 17.9525 58.8629 17.8571C60.2318 17.6967 62.241 17.7003 62.322 19.5469C62.3227 19.5607 62.321 19.5744 62.3169 19.5873C62.3128 19.6003 62.3064 19.6121 62.2982 19.622C62.2899 19.632 62.2799 19.6399 62.2689 19.6453C62.2578 19.6506 62.2459 19.6533 62.2339 19.6532H61.6942C61.6666 19.653 61.6395 19.6407 61.6181 19.6185C61.5966 19.5964 61.5821 19.5658 61.5773 19.5325C61.383 18.2282 60.0051 18.2426 58.9996 18.3921C57.8736 18.5597 57.5462 19.9937 58.8197 20.2189C59.6268 20.3618 60.4345 20.5029 61.2427 20.6422C62.1691 20.8026 62.7033 21.516 62.5127 22.4474C62.2087 23.939 60.0195 23.9138 58.8485 23.7174C57.8076 23.5409 57.223 22.9794 57.0947 22.033C57.0926 22.018 57.0925 22.0028 57.0943 21.9884C57.0962 21.974 57.1 21.9606 57.1056 21.9492C57.1112 21.9377 57.1183 21.9284 57.1266 21.9217C57.135 21.9151 57.1443 21.9113 57.1541 21.9105L57.7818 21.8529C57.8058 21.8508 57.8302 21.8636 57.8497 21.8886C57.8692 21.9135 57.8823 21.9486 57.8862 21.9862C58.0642 23.7102 61.5539 23.6328 61.7662 22.3357C62.1223 20.1666 56.582 21.9952 57.3231 19.0911Z" fill="#7A8096"/>
<path d="M74.0413 18.8895L74.0719 18.8877C74.0809 18.8875 74.09 18.884 74.098 18.8776C74.106 18.8712 74.1126 18.8621 74.1169 18.8516C74.4874 17.8518 75.3329 17.7779 76.3276 17.8013C76.3484 17.8018 76.369 17.8037 76.3881 17.8071C76.4072 17.8104 76.4246 17.815 76.4391 17.8207C76.4536 17.8264 76.4651 17.8331 76.4728 17.8402C76.4805 17.8474 76.4844 17.855 76.4841 17.8626L76.4913 18.4373C76.4916 18.4509 76.4883 18.4644 76.4815 18.4766C76.4748 18.4888 76.4647 18.4995 76.4522 18.508C76.4396 18.5164 76.4248 18.5224 76.4089 18.5254C76.3929 18.5285 76.3762 18.5285 76.36 18.5255C73.4351 18.0175 73.9658 21.8404 74.0269 23.4852C74.0274 23.5024 74.0253 23.5196 74.0205 23.5357C74.0158 23.5517 74.0086 23.5664 73.9994 23.5788C73.9902 23.5912 73.9791 23.6011 73.9669 23.608C73.9546 23.6148 73.9414 23.6183 73.928 23.6185L73.3866 23.6167C73.3627 23.6167 73.3398 23.6072 73.323 23.5903C73.3061 23.5734 73.2966 23.5505 73.2966 23.5266V18.077C73.2966 18.0531 73.3061 18.0302 73.323 18.0133C73.3398 17.9964 73.3627 17.9869 73.3866 17.9869H73.9262C73.9395 17.9869 73.9527 17.9893 73.9649 17.9939C73.9772 17.9985 73.9882 18.0052 73.9975 18.0136C74.0067 18.022 74.0139 18.032 74.0187 18.0429C74.0234 18.0537 74.0256 18.0653 74.0251 18.077L73.9892 18.7994C73.9887 18.8112 73.9897 18.823 73.9922 18.834C73.9946 18.845 73.9984 18.8551 74.0032 18.8635C74.0081 18.872 74.014 18.8786 74.0206 18.8831C74.0271 18.8875 74.0342 18.8897 74.0413 18.8895Z" fill="#7A8096"/>
<path d="M76.6184 21.4585C75.6579 16.8681 82.7613 16.443 82.5545 20.8694C82.5535 20.8935 82.5442 20.9164 82.5284 20.9331C82.5127 20.9499 82.4917 20.9593 82.4699 20.9594H77.4333C77.4047 20.9594 77.3772 20.9704 77.357 20.99C77.3367 21.0096 77.3254 21.0362 77.3254 21.0639C77.3415 23.5014 80.8186 24.1446 81.6533 21.9251C81.6654 21.8928 81.6855 21.865 81.7109 21.8453C81.7363 21.8257 81.7658 21.8151 81.7954 21.8152H82.38C82.3905 21.8153 82.4008 21.8182 82.41 21.8237C82.4192 21.8293 82.4271 21.8372 82.433 21.847C82.4389 21.8567 82.4427 21.8681 82.4442 21.88C82.4456 21.892 82.4445 21.9043 82.4411 21.9161C82.2325 22.6451 81.8487 23.1477 81.2899 23.4239C79.3526 24.386 77.0951 23.7302 76.6184 21.4585ZM81.8295 20.2694C81.1622 17.7113 77.6941 17.6356 77.3379 20.3325C77.3359 20.3465 77.3365 20.3608 77.3397 20.3744C77.343 20.388 77.3488 20.4006 77.3569 20.4113C77.3649 20.4221 77.3749 20.4307 77.3862 20.4367C77.3975 20.4427 77.4099 20.4459 77.4225 20.446L81.6946 20.4694C81.7167 20.4695 81.7383 20.464 81.7578 20.4533C81.7773 20.4425 81.7943 20.4269 81.8073 20.4076C81.8203 20.3883 81.8291 20.3658 81.833 20.3419C81.8368 20.3179 81.8356 20.2931 81.8295 20.2694Z" fill="#7A8096"/>
<path d="M34.1026 24.294C35.198 24.9318 36.9015 24.8237 38.0114 24.5571C38.4107 24.4622 38.4377 24.5289 38.0923 24.757C36.5897 25.7503 34.936 26.0848 33.1312 25.7605C33.0962 25.7543 33.0643 25.7432 33.0403 25.729C33.0163 25.7147 33.0015 25.6979 32.9981 25.6812C32.8566 24.8765 33.1708 24.3979 33.9407 24.2454C33.9592 24.2421 33.9834 24.2447 34.0114 24.2532C34.0395 24.2616 34.0706 24.2756 34.1026 24.294ZM21.7538 24.6976C22.3295 23.7842 23.853 25.0813 22.5435 26.2469C21.2892 27.3627 19.8153 27.5861 18.1221 26.9171C17.995 26.8666 17.9968 26.8216 18.1275 26.782C19.741 26.2884 20.7339 26.3082 21.7538 24.6976Z" fill="#7A8096"/>
</svg>
