<svg width="117" height="40" viewBox="0 0 117 40" fill="none" xmlns="http://www.w3.org/2000/svg">
<path d="M31.7941 19.8137H29.0962V16.3112H31.7485C33.053 16.3112 33.8623 16.8952 33.8623 18.0408C33.8623 19.1857 33.0978 19.8152 31.7941 19.8152V19.8137ZM33.9745 21.723C35.5826 21.1912 36.5602 19.6697 36.5602 17.9498C36.5602 17.2413 36.3253 16.0345 35.6155 15.2767C35.1324 14.8182 34.5596 14.4639 33.933 14.236C33.3064 14.0081 32.6394 13.9115 31.9736 13.9521H26.4207V26.1018H29.0962V22.172H31.1643L33.8174 26.0578H36.9424L33.9745 21.723ZM46.7101 20.9801L45.0915 17.0287L43.4737 20.9801H46.7101ZM19.6471 21.1151L18.0285 17.163L16.4099 21.1159H19.6471V21.1151ZM76.3581 13.9521V16.3552H72.6489V26.0548H69.9749V16.3552H66.3787V13.9514L76.3581 13.9521ZM46.3945 13.8179L51.6101 26.0548H48.8007L47.6765 23.3385H42.5297L41.4055 26.0548H38.6852L43.9 13.8179H46.3945ZM108.237 13.9521V23.6077L114.194 23.6301V26.1003H105.45V13.9514L108.237 13.9521ZM61.6351 21.4068L61.5678 13.9521H64.1303V26.0548H61.8827L56.038 18.3309V26.1003H53.4082V13.9514H55.881L61.6351 21.4068ZM12.1846 13.9521V16.3552H8.47546V26.1227H5.80073V16.4223H2.09155V13.9514L12.1846 13.9521ZM19.333 13.9521L24.5471 26.1906H21.7377L20.6135 23.4735H15.466L14.3418 26.1906H11.6222L16.837 13.9514H19.3322L19.333 13.9521Z" fill="#7A8096"/>
<path d="M96.9601 23.9947C96.6362 23.9946 96.3135 23.954 95.9997 23.8739C94.1021 23.3928 92.5448 21.9735 91.9756 20.1015V20.012C92.3069 19.2036 92.8011 18.4716 93.4275 17.8613C94.0539 17.251 94.7993 16.7754 95.6175 16.464C96.0474 16.306 96.5019 16.2252 96.9601 16.2253C99.0933 16.2253 100.849 17.9781 100.849 20.1097C100.849 22.2405 99.0933 23.9947 96.9594 23.9947H96.9601ZM88.891 20.1015C88.3226 21.9735 86.7653 23.3928 84.8677 23.8739C84.5536 23.9537 84.2312 23.9947 83.9073 23.9947C81.7741 23.9947 80.0179 22.2405 80.0179 20.1097C80.0179 17.9788 81.7741 16.2253 83.9073 16.2253C84.3651 16.2253 84.8198 16.3059 85.2499 16.464C86.068 16.7754 86.8133 17.251 87.4396 17.8613C88.0659 18.4716 88.5599 19.2036 88.891 20.012V20.1015ZM96.9923 13.3755C96.2245 13.3757 95.4627 13.5092 94.7409 13.77C92.9961 14.3799 91.4886 15.5228 90.4326 17.0361C89.3776 15.5226 87.8708 14.3794 86.1265 13.7693C85.4047 13.5088 84.6428 13.3755 83.8751 13.3755C80.237 13.3755 77.2437 16.3663 77.2437 20C77.2437 23.6337 80.237 26.6245 83.8744 26.6245C84.2603 26.6245 84.6448 26.5902 85.0248 26.5239L85.4967 26.412C87.4977 25.8024 89.2359 24.5413 90.4333 22.8305C91.631 24.5409 93.3691 25.8017 95.3699 26.4112L95.8419 26.5231C96.2217 26.5902 96.6066 26.6241 96.9923 26.6245C100.63 26.6245 103.623 23.6337 103.623 20C103.623 16.3663 100.63 13.3755 96.9923 13.3755Z" fill="#7A8096"/>
</svg>
