<svg width="72" height="72" viewBox="0 0 72 72" fill="none" xmlns="http://www.w3.org/2000/svg">
<rect width="72.0037" height="72" rx="36" fill="#7910FF"/>
<path d="M43.3149 31.0484C41.9158 31.0484 40.7774 29.9091 40.7774 28.5109V23.75H30.8374C28.9037 23.75 27.3374 25.3162 27.3374 27.25V30.4332C27.8974 30.2679 28.4837 30.1813 29.0839 30.1813C30.7193 30.1813 32.2549 30.8165 33.4082 31.9689C35.7925 34.355 35.7934 38.2348 33.4099 40.62C32.2549 41.7741 30.7193 42.4094 29.0839 42.4094C28.488 42.4094 27.9009 42.3219 27.3374 42.1521V44.75C27.3374 46.6838 28.9037 48.25 30.8374 48.25H44.5662C46.4999 48.25 48.0662 46.6838 48.0662 44.75V31.0484H43.3149ZM38.1419 40.4013H35.9019C35.467 40.4013 35.1144 40.0486 35.1144 39.6137C35.1144 39.1789 35.467 38.8263 35.9019 38.8263H38.1419C38.5768 38.8263 38.9294 39.1789 38.9294 39.6137C38.9294 40.0486 38.5768 40.4013 38.1419 40.4013ZM42.7794 37.4359H36.7507C36.3158 37.4359 35.9632 37.0832 35.9632 36.6484C35.9632 36.2135 36.3158 35.8609 36.7507 35.8609H42.7794C43.2143 35.8609 43.5669 36.2135 43.5669 36.6484C43.5669 37.0832 43.2143 37.4359 42.7794 37.4359Z" fill="white"/>
<path d="M29.0839 40.8335C30.2468 40.8335 31.4097 40.3908 32.2952 39.5053C34.0653 37.7343 34.0653 34.8538 32.2952 33.0819C30.5251 31.3135 27.6437 31.3135 25.8727 33.0819C24.2933 34.6621 24.1332 37.1209 25.3722 38.8919L23.3789 40.8851C23.0709 41.1931 23.0709 41.6919 23.3789 41.999C23.5329 42.153 23.7342 42.23 23.9354 42.23C24.1367 42.23 24.3379 42.153 24.4919 41.999L26.4861 40.0049C27.2639 40.5518 28.1713 40.8335 29.0839 40.8335ZM26.9857 34.1966C28.1424 33.0399 30.0246 33.0399 31.1804 34.1966C32.3372 35.3525 32.3372 37.2355 31.1804 38.3914C30.0237 39.5481 28.1416 39.5481 26.9848 38.3914C25.8298 37.2355 25.8298 35.3534 26.9857 34.1966Z" fill="white"/>
<path d="M42.3533 28.51C42.3533 29.0402 42.7846 29.4725 43.3158 29.4725H48.067V29.21C48.067 28.51 47.787 27.845 47.297 27.355L44.462 24.52C43.9711 24.03 43.3061 23.75 42.6061 23.75H42.3533V28.51Z" fill="white"/>
</svg>
