<svg width="72" height="72" viewBox="0 0 72 72" fill="none" xmlns="http://www.w3.org/2000/svg">
<rect width="72.0037" height="72" rx="36" fill="#059B26"/>
<path fill-rule="evenodd" clip-rule="evenodd" d="M48.5416 29C48.5416 27.53 47.9583 26.1206 46.9188 25.0811C45.8792 24.0416 44.4699 23.4583 42.9999 23.4583H28.9999C27.5299 23.4583 26.1206 24.0416 25.0811 25.0811C24.0416 26.1206 23.4583 27.53 23.4583 29V43C23.4583 44.47 24.0416 45.8793 25.0811 46.9188C26.1206 47.9583 27.5299 48.5416 28.9999 48.5416H42.9999C44.4699 48.5416 45.8792 47.9583 46.9188 46.9188C47.9583 45.8793 48.5416 44.47 48.5416 43V29ZM36.5693 31.5235L33.7693 39.9235C33.6176 40.382 33.8649 40.8778 34.3234 41.0306C34.7819 41.1823 35.2778 40.935 35.4306 40.4765L38.2306 32.0765C38.3823 31.618 38.1349 31.1221 37.6764 30.9693C37.2179 30.8176 36.7221 31.065 36.5693 31.5235ZM39.5816 33.8183L41.7621 36L39.5816 38.1816C39.2398 38.5223 39.2398 39.0776 39.5816 39.4183C39.9223 39.7601 40.4776 39.7601 40.8183 39.4183L43.6183 36.6183C43.9601 36.2765 43.9601 35.7235 43.6183 35.3816L40.8183 32.5816C40.4776 32.2398 39.9223 32.2398 39.5816 32.5816C39.2398 32.9223 39.2398 33.4776 39.5816 33.8183ZM31.1816 32.5816L28.3816 35.3816C28.0398 35.7235 28.0398 36.2765 28.3816 36.6183L31.1816 39.4183C31.5223 39.7601 32.0776 39.7601 32.4183 39.4183C32.7601 39.0776 32.7601 38.5223 32.4183 38.1816L30.2378 36L32.4183 33.8183C32.7601 33.4776 32.7601 32.9223 32.4183 32.5816C32.0776 32.2398 31.5223 32.2398 31.1816 32.5816Z" fill="white"/>
</svg>
