<svg width="149" height="22" viewBox="0 0 149 22" fill="none" xmlns="http://www.w3.org/2000/svg">
<path fill-rule="evenodd" clip-rule="evenodd" d="M28.3968 1.96063C28.3968 3.04354 27.5107 3.92127 26.418 3.92127C25.326 3.92127 24.44 3.04354 24.44 1.96063C24.44 0.877732 25.326 0 26.418 0C27.5107 0 28.3968 0.877732 28.3968 1.96063ZM28.0528 21.9309V5.4542H24.784V21.9309H28.0528ZM133.101 5.3144L122.978 13.605L133.136 21.9304H128.04L120.869 16.0782V21.9304H117.6V1.13428H120.869V11.1666L127.969 5.3144H133.101ZM138.699 9.68835C138.672 9.56211 138.672 9.43586 138.699 9.30962C138.787 8.89607 139.123 8.63053 139.551 8.63053C140.387 8.63053 148.992 8.60445 148.992 8.60445V5.25687C148.992 5.25687 140.387 5.28295 139.551 5.28295C137.988 5.28295 136.518 6.23629 135.777 7.57271C135.596 7.89485 135.459 8.2431 135.379 8.60441C135.287 9.02231 135.243 9.45328 135.269 9.87989C135.331 10.8855 135.768 11.6952 136.47 12.4134C136.849 12.7965 137.295 13.1056 137.79 13.3276L145.068 16.5707C145.539 16.7823 145.702 17.2439 145.606 17.7347C145.512 18.2119 145.139 18.608 144.711 18.608H135.244V21.9295C135.244 21.9295 143.873 21.9556 144.711 21.9556C146.273 21.9556 147.743 21.0022 148.485 19.6658C148.666 19.3437 148.803 18.9954 148.882 18.6341C148.975 18.2162 149.019 17.3934 148.992 16.9668C148.931 15.9612 148.494 15.1516 147.792 14.4333C147.412 14.0502 146.966 13.7411 146.472 13.5191L139.193 10.276C138.942 10.1628 138.756 9.95824 138.699 9.68835ZM110.759 8.79544C111.595 8.71607 115.483 8.69812 115.483 8.69812V5.45435H111.13C110.718 5.45435 110.272 5.50538 109.791 5.60743C109.322 5.69815 108.853 5.84556 108.384 6.04967C107.926 6.25377 107.486 6.52025 107.062 6.84909C106.639 7.16659 106.261 7.55779 105.93 8.0227C105.609 8.47628 105.352 9.10019 105.157 9.70117C104.963 10.3022 104.865 10.9825 104.865 11.7422V21.9425H108.134L108.166 11.4999C108.197 10.6778 108.522 10.0793 108.998 9.59486C109.313 9.27453 109.924 8.87482 110.759 8.79544ZM99.4812 13.7092C99.4812 13.0125 99.3406 12.3623 99.0594 11.7585C98.8017 11.1547 98.4385 10.6322 97.9698 10.191C97.5246 9.7265 96.9973 9.36654 96.3881 9.11109C95.7788 8.83242 95.1227 8.69308 94.4197 8.69308C93.7167 8.69308 93.0488 8.83242 92.4161 9.11109C91.8069 9.36654 91.2679 9.7265 90.7993 10.191C90.354 10.6322 90.0025 11.1547 89.7448 11.7585C89.487 12.3623 89.3581 13.0125 89.3581 13.7092C89.3581 14.4059 89.487 15.0678 89.7448 15.6948C90.0025 16.2986 90.354 16.8327 90.7993 17.2972C91.2679 17.7384 91.8069 18.0867 92.4161 18.3422C93.0488 18.5976 93.7167 18.7254 94.4197 18.7254C95.1227 18.7254 95.7788 18.5976 96.3881 18.3422C96.9973 18.0867 97.5246 17.7384 97.9698 17.2972C98.4385 16.8327 98.8017 16.2986 99.0594 15.6948C99.3406 15.0678 99.4812 14.4059 99.4812 13.7092ZM102.75 13.7092C102.75 14.8471 102.528 15.9154 102.082 16.914C101.66 17.9126 101.063 18.795 100.29 19.5614C99.5398 20.3045 98.6611 20.8967 97.6534 21.3379C96.6458 21.7559 95.5679 21.965 94.4197 21.965C93.2714 21.965 92.1935 21.7559 91.1859 21.3379C90.1783 20.8967 89.2878 20.3045 88.5145 19.5614C87.7647 18.795 87.1671 17.9126 86.7219 16.914C86.3001 15.9154 86.0892 14.8471 86.0892 13.7092C86.0892 12.5713 86.3001 11.503 86.7219 10.5045C87.1671 9.50588 87.7647 8.63502 88.5145 7.89189C89.2878 7.12554 90.1783 6.53335 91.1859 6.11534C92.1935 5.67411 93.2714 5.45349 94.4197 5.45349C95.5679 5.45349 96.6458 5.67411 97.6534 6.11534C98.6611 6.53335 99.5398 7.12554 100.29 7.89189C101.063 8.63502 101.66 9.50588 102.082 10.5045C102.528 11.503 102.75 12.5713 102.75 13.7092ZM79.2721 22L85.7396 5.38404H82.2598L77.4443 17.7154L73.8239 5.38404H70.098L66.5128 17.7154L61.6621 5.38404H58.1823L64.685 22H68.6569L71.961 10.644L75.3002 22H79.2721ZM57.8176 13.6746V21.9303H54.5487V20.2234V13.6746C54.5487 12.9779 54.4081 12.3277 54.1269 11.7239C53.8691 11.0969 53.5059 10.5627 53.0373 10.1215C52.592 9.65704 52.0648 9.29709 51.4555 9.04164C50.8463 8.76296 50.1902 8.62363 49.4872 8.62363C48.7842 8.62363 48.1163 8.76296 47.4836 9.04164C46.8744 9.29709 46.3354 9.65704 45.8667 10.1215C45.4215 10.5627 45.07 11.0969 44.8122 11.7239C44.5545 12.3277 44.4256 12.9779 44.4256 13.6746C44.4256 14.3713 44.5545 15.0215 44.8122 15.6253C45.07 16.2291 45.4215 16.7632 45.8667 17.2277C46.3354 17.6689 46.8744 18.0289 47.4836 18.3076C48.1163 18.563 48.7842 18.6907 49.4872 18.6907V21.9303C48.3389 21.9303 47.261 21.7213 46.2534 21.3033C45.2458 20.8621 44.3553 20.2699 43.582 19.5268C42.8322 18.7604 42.2346 17.8779 41.7894 16.8794C41.3676 15.8808 41.1567 14.8125 41.1567 13.6746C41.1567 12.5367 41.3676 11.4684 41.7894 10.4698C42.2346 9.44804 42.8322 8.56557 43.582 7.82244C44.3553 7.07931 45.2458 6.48712 46.2534 6.04589C47.261 5.60465 48.3389 5.38404 49.4872 5.38404C50.6354 5.38404 51.7133 5.60465 52.7209 6.04589C53.7285 6.48712 54.6073 7.07931 55.3571 7.82244C56.1304 8.56557 56.728 9.44804 57.1498 10.4698C57.595 11.4684 57.8176 12.5367 57.8176 13.6746ZM36.0663 8.79551C36.9016 8.71614 40.7898 8.69819 40.7898 8.69819V5.45442H36.4369C36.025 5.45442 35.5787 5.50545 35.0982 5.6075C34.6291 5.69822 34.1599 5.84563 33.6908 6.04973C33.2331 6.25384 32.7926 6.52031 32.3693 6.84915C31.9459 7.16665 31.5683 7.55786 31.2365 8.02277C30.9161 8.47634 30.6587 9.10025 30.4642 9.70124C30.2697 10.3022 30.1724 10.9826 30.1724 11.7423V21.9426H33.4412L33.4727 11.4999C33.5042 10.6778 33.8293 10.0793 34.3051 9.59493C34.6198 9.2746 35.231 8.87489 36.0663 8.79551ZM0 21.9305V11.8285C0 10.9461 0.164032 10.11 0.492095 9.32047C0.843592 8.53089 1.31225 7.84582 1.89808 7.26524C2.48391 6.68467 3.16347 6.23183 3.93676 5.90671C4.73349 5.55836 5.57708 5.38419 6.46754 5.38419C7.45173 5.38419 8.3539 5.58159 9.17406 5.97638C10.0177 6.34794 10.7324 6.87046 11.3182 7.54392C11.9275 6.87046 12.6422 6.34794 13.4623 5.97638C14.2825 5.58159 15.1847 5.38419 16.1688 5.38419C17.0593 5.38419 17.9029 5.55836 18.6996 5.90671C19.4963 6.23183 20.1876 6.68467 20.7735 7.26524C21.3593 7.84582 21.8162 8.53089 22.1443 9.32047C22.4958 10.11 22.6715 10.9461 22.6715 11.8285V21.9305H19.4026V11.8285C19.4026 11.3873 19.3206 10.9693 19.1566 10.5745C18.9925 10.1797 18.7582 9.84298 18.4536 9.56431C18.1724 9.26241 17.8326 9.03018 17.4342 8.86762C17.0359 8.70506 16.6141 8.62378 16.1688 8.62378C15.7236 8.62378 15.3018 8.70506 14.9035 8.86762C14.5285 9.03018 14.1887 9.26241 13.8841 9.56431C13.6029 9.84298 13.3803 10.1797 13.2163 10.5745C13.0522 10.9693 12.9702 11.3873 12.9702 11.8285V21.9305H9.70131V11.8285C9.70131 11.3873 9.61929 10.9693 9.45526 10.5745C9.29123 10.1797 9.0569 9.84298 8.75226 9.56431C8.47107 9.26241 8.13129 9.03018 7.73292 8.86762C7.33456 8.70506 6.91277 8.62378 6.46754 8.62378C6.02231 8.62378 5.60051 8.70506 5.20215 8.86762C4.82722 9.03018 4.48744 9.26241 4.18281 9.56431C3.90161 9.84298 3.679 10.1797 3.51497 10.5745C3.35093 10.9693 3.26892 11.3873 3.26892 11.8285V21.9305H0Z" fill="white"/>
</svg>
