<svg width="72" height="72" viewBox="0 0 72 72" fill="none" xmlns="http://www.w3.org/2000/svg">
<rect width="72.0037" height="72" rx="36" fill="#006BFF"/>
<path d="M46.983 42.1979H45.3879V40.4661C45.3879 40.0886 45.0819 39.7825 44.7043 39.7825H41.0357V38.7344H42.6308C43.0083 38.7344 43.3144 38.4283 43.3144 38.0508V33.9492C43.3144 33.5717 43.0083 33.2656 42.6308 33.2656H41.0357V31.5338C41.0357 31.1563 40.7297 30.8502 40.3521 30.8502H36.6835V29.8021H38.2786C38.6561 29.8021 38.9622 29.496 38.9622 29.1185V25.0169C38.9622 24.6394 38.6561 24.3333 38.2786 24.3333H33.7213C33.3437 24.3333 33.0377 24.6394 33.0377 25.0169V29.1185C33.0377 29.496 33.3437 29.8021 33.7213 29.8021H35.3163V30.8502H31.6477C31.2702 30.8502 30.9641 31.1563 30.9641 31.5338V33.2656H29.3691C28.9915 33.2656 28.6855 33.5717 28.6855 33.9492V38.0508C28.6855 38.4283 28.9915 38.7344 29.3691 38.7344H30.9641V39.7825H27.2955C26.918 39.7825 26.6119 40.0886 26.6119 40.4661V42.1979H25.0168C24.6393 42.1979 24.3333 42.504 24.3333 42.8815V46.9831C24.3333 47.3606 24.6393 47.6666 25.0168 47.6666H29.5741C29.9517 47.6666 30.2577 47.3606 30.2577 46.9831V42.8815C30.2577 42.504 29.9517 42.1979 29.5741 42.1979H27.9791V41.1497H35.3163V42.1979H33.7213C33.3437 42.1979 33.0377 42.504 33.0377 42.8815V46.9831C33.0377 47.3606 33.3437 47.6666 33.7213 47.6666H38.2786C38.6561 47.6666 38.9622 47.3606 38.9622 46.9831V42.8815C38.9622 42.504 38.6561 42.1979 38.2786 42.1979H36.6835V41.1497H44.0208V42.1979H42.4257C42.0482 42.1979 41.7421 42.504 41.7421 42.8815V46.9831C41.7421 47.3606 42.0482 47.6666 42.4257 47.6666H46.983C47.3605 47.6666 47.6666 47.3606 47.6666 46.9831V42.8815C47.6666 42.504 47.3605 42.1979 46.983 42.1979ZM32.3313 38.7344H33.9264C34.3039 38.7344 34.6099 38.4283 34.6099 38.0508V33.9492C34.6099 33.5717 34.3039 33.2656 33.9264 33.2656H32.3313V32.2174H39.6685V33.2656H38.0735C37.696 33.2656 37.3899 33.5717 37.3899 33.9492V38.0508C37.3899 38.4283 37.696 38.7344 38.0735 38.7344H39.6685V39.7825H32.3313V38.7344Z" fill="white"/>
</svg>
