<svg width="32" height="32" viewBox="0 0 32 32" fill="none" xmlns="http://www.w3.org/2000/svg">
<path d="M31.9995 15.9999C31.9995 13.8319 31.0475 11.7865 29.4329 10.5012C29.6195 8.33855 28.8462 6.21988 27.3129 4.68521C25.7795 3.15321 23.6662 2.38121 21.6102 2.61188C18.9249 -0.79612 13.1235 -0.86012 10.5009 2.56521C8.33554 2.37321 6.21954 3.15055 4.68621 4.68521C3.15421 6.21855 2.38087 8.33855 2.61287 10.3879C-0.795127 13.0732 -0.860461 18.8745 2.56621 21.4985C2.37954 23.6612 3.15287 25.7799 4.68621 27.3145C6.21954 28.8465 8.33554 29.6212 10.3889 29.3879C13.0742 32.7959 18.8755 32.8599 21.4982 29.4345C23.6582 29.6159 25.7782 28.8492 27.3129 27.3145C28.8449 25.7812 29.6182 23.6612 29.3862 21.6119C31.0475 20.2145 31.9995 18.1692 31.9995 16.0012V15.9999ZM23.3862 14.0879L17.0675 20.1785C15.5169 21.7265 12.9795 21.7132 11.4289 20.1612L8.42621 17.3719C7.88754 16.8705 7.85554 16.0265 8.35687 15.4879C8.85954 14.9479 9.70487 14.9185 10.2409 15.4185L13.2782 18.2412C13.8355 18.7972 14.6782 18.7959 15.1982 18.2745L21.5342 12.1665C22.0649 11.6572 22.9089 11.6719 23.4195 12.2012C23.9315 12.7305 23.9155 13.5759 23.3862 14.0865V14.0879Z" fill="#111755"/>
</svg>
