<svg width="72" height="72" viewBox="0 0 72 72" fill="none" xmlns="http://www.w3.org/2000/svg">
<rect width="72.0037" height="72" rx="36" fill="#FF8A00"/>
<path d="M41.3845 32.9487H47.6666V30.0321C47.6666 28.1764 46.1569 26.6667 44.3012 26.6667H27.6986C25.8429 26.6667 24.3333 28.1764 24.3333 30.0321V42.5962C24.3333 44.4518 25.8429 45.9615 27.6986 45.9615H44.3012C46.1569 45.9615 47.6666 44.4518 47.6666 42.5962V39.6795H41.3845C39.5289 39.6795 38.0192 38.1698 38.0192 36.3141C38.0192 34.4584 39.5289 32.9487 41.3845 32.9487Z" fill="white"/>
<path d="M41.384 34.2956C40.2706 34.2956 39.3647 35.2014 39.3647 36.3148C39.3647 37.4283 40.2706 38.3341 41.384 38.3341H47.666V34.2956L41.384 34.2956ZM42.2814 36.9879H41.384C41.0123 36.9879 40.7109 36.6865 40.7109 36.3148C40.7109 35.9431 41.0123 35.6418 41.384 35.6418H42.2814C42.6532 35.6418 42.9545 35.9431 42.9545 36.3148C42.9545 36.6865 42.6532 36.9879 42.2814 36.9879Z" fill="white"/>
</svg>
