<svg width="50" height="50" viewBox="0 0 50 50" fill="none" xmlns="http://www.w3.org/2000/svg">
<g filter="url(#filter0_d_836_73)">
<rect x="5" y="5" width="40" height="40" rx="6" fill="#1A237E"/>
<rect x="3" y="3" width="44" height="44" rx="8" stroke="#121654" stroke-width="4"/>
<g clip-path="url(#clip0_836_73)">
<path d="M24.9999 27.762C26.5254 27.762 27.762 26.5254 27.762 24.9999C27.762 23.4744 26.5254 22.2378 24.9999 22.2378C23.4744 22.2378 22.2378 23.4744 22.2378 24.9999C22.2378 26.5254 23.4744 27.762 24.9999 27.762Z" fill="white"/>
<path d="M32.2961 26.0323C32.063 26.141 31.8543 26.296 31.6829 26.4878L28.8215 25.5151C28.7553 26.0106 28.5927 26.4883 28.343 26.9214L31.2055 27.8944C31.2353 28.2985 31.3935 28.6824 31.657 28.9902C31.9206 29.2979 32.2756 29.5133 32.6702 29.605C33.0648 29.6967 33.4784 29.6598 33.8506 29.4997C34.2228 29.3396 34.534 29.0647 34.7389 28.7151C34.9437 28.3656 35.0315 27.9597 34.9893 27.5568C34.9471 27.1538 34.7771 26.7749 34.5043 26.4754C34.2315 26.1759 33.87 25.9715 33.4728 25.892C33.0755 25.8125 32.6632 25.8621 32.2961 26.0335V26.0323Z" fill="white"/>
<path d="M17.704 20.1476C17.7333 20.134 17.7622 20.1195 17.7903 20.1047L21.595 23.1906C21.8305 22.75 22.1488 22.359 22.5325 22.039L18.7251 18.9515C18.8448 18.5347 18.8182 18.0894 18.6497 17.6897C18.4812 17.2901 18.181 16.9601 17.799 16.7548C17.4169 16.5495 16.9761 16.4811 16.5498 16.5611C16.1235 16.6411 15.7375 16.8647 15.4559 17.1945C15.1743 17.5244 15.0141 17.9407 15.002 18.3743C14.9898 18.8078 15.1265 19.2325 15.3892 19.5776C15.6519 19.9227 16.0249 20.1674 16.446 20.2711C16.8671 20.3748 17.3111 20.3313 17.704 20.1476Z" fill="white"/>
<path d="M27.5872 30.3994L26.9028 28.3525C26.4693 28.6 25.9916 28.7601 25.4966 28.824L26.1802 30.8697C26.1411 30.8986 26.1052 30.9283 26.0688 30.9596C25.6609 31.3121 25.3896 31.7966 25.3024 32.3286C25.2151 32.8606 25.3173 33.4064 25.5912 33.8708C25.8651 34.3352 26.2933 34.6887 26.8012 34.8697C27.309 35.0507 27.8643 35.0477 28.3701 34.8612C28.876 34.6747 29.3004 34.3166 29.5692 33.8493C29.8381 33.382 29.9344 32.8351 29.8413 32.304C29.7483 31.773 29.4718 31.2914 29.0601 30.9434C28.6483 30.5953 28.1275 30.4028 27.5884 30.3994H27.5872Z" fill="white"/>
<path d="M28.1996 22.8515L31.7414 19.3097C32.2233 19.5435 32.7725 19.5989 33.2914 19.4663C33.8104 19.3336 34.2655 19.0213 34.5761 18.5849C34.8867 18.1485 35.0326 17.6162 34.988 17.0824C34.9433 16.5487 34.711 16.048 34.3323 15.6692C33.9535 15.2905 33.4528 15.0581 32.9191 15.0135C32.3853 14.9689 31.853 15.1148 31.4166 15.4254C30.9802 15.7359 30.6679 16.1911 30.5352 16.71C30.4025 17.229 30.458 17.7782 30.6918 18.2601L27.1484 21.8003C27.5632 22.0799 27.9201 22.4368 28.1996 22.8515Z" fill="white"/>
<path d="M21.8039 27.155L17.9066 31.0652C17.4645 30.8692 16.9677 30.8342 16.5025 30.9662C16.0373 31.0982 15.6329 31.3889 15.3596 31.7879C15.0863 32.1869 14.9613 32.6689 15.0063 33.1504C15.0513 33.632 15.2634 34.0825 15.6059 34.424C15.9484 34.7654 16.3996 34.9762 16.8812 35.0198C17.3628 35.0633 17.8445 34.9369 18.2427 34.6624C18.6409 34.3879 18.9304 33.9827 19.061 33.5171C19.1916 33.0514 19.1551 32.5548 18.9578 32.1132L22.8555 28.2031C22.4409 27.9245 22.0839 27.5686 21.8039 27.155Z" fill="white"/>
</g>
</g>
<defs>
<filter id="filter0_d_836_73" x="0" y="0" width="50" height="50" filterUnits="userSpaceOnUse" color-interpolation-filters="sRGB">
<feFlood flood-opacity="0" result="BackgroundImageFix"/>
<feColorMatrix in="SourceAlpha" type="matrix" values="0 0 0 0 0 0 0 0 0 0 0 0 0 0 0 0 0 0 127 0" result="hardAlpha"/>
<feMorphology radius="1" operator="dilate" in="SourceAlpha" result="effect1_dropShadow_836_73"/>
<feOffset/>
<feComposite in2="hardAlpha" operator="out"/>
<feColorMatrix type="matrix" values="0 0 0 0 0 0 0 0 0 0.247059 0 0 0 0 0.701961 0 0 0 1 0"/>
<feBlend mode="normal" in2="BackgroundImageFix" result="effect1_dropShadow_836_73"/>
<feBlend mode="normal" in="SourceGraphic" in2="effect1_dropShadow_836_73" result="shape"/>
</filter>
<clipPath id="clip0_836_73">
<rect width="20" height="20" fill="white" transform="translate(15 15)"/>
</clipPath>
</defs>
</svg>
