<svg width="1440" height="989" viewBox="0 0 1440 989" fill="none" xmlns="http://www.w3.org/2000/svg">
<rect x="1380" y="948" width="60" height="60" rx="12" fill="#1A237E" stroke="#1A237E"/>
<rect x="1316" y="948" width="60" height="60" rx="12" fill="#1A237E" stroke="#1A237E"/>
<rect x="1252" y="948" width="60" height="60" rx="12" fill="#1A237E" stroke="#1A237E"/>
<rect x="1188" y="948" width="60" height="60" rx="12" fill="#1A237E" stroke="#1A237E"/>
<rect x="1124" y="948" width="60" height="60" rx="12" fill="#1A237E" stroke="#1A237E"/>
<rect x="1060" y="948" width="60" height="60" rx="12" fill="#0043E6"/>
<rect x="996" y="948" width="60" height="60" rx="12" fill="#1A237E" stroke="#1A237E"/>
<rect x="932" y="948" width="60" height="60" rx="12" fill="#1A237E" stroke="#1A237E"/>
<rect x="868" y="948" width="60" height="60" rx="12" fill="#1A237E" stroke="#1A237E"/>
<rect x="804" y="948" width="60" height="60" rx="12" fill="#1A237E" stroke="#1A237E"/>
<rect x="740" y="948" width="60" height="60" rx="12" fill="#1A237E" stroke="#1A237E"/>
<rect x="676" y="948" width="60" height="60" rx="12" fill="#1A237E" stroke="#1A237E"/>
<rect x="612" y="948" width="60" height="60" rx="12" fill="#1A237E"/>
<rect x="548" y="948" width="60" height="60" rx="12" fill="#1A237E" stroke="#1A237E"/>
<rect x="484" y="948" width="60" height="60" rx="12" fill="#1A237E" stroke="#1A237E"/>
<rect x="420" y="948" width="60" height="60" rx="12" fill="#1A237E" stroke="#1A237E"/>
<rect x="356" y="948" width="60" height="60" rx="12" fill="#1A237E" stroke="#1A237E"/>
<rect x="292" y="948" width="60" height="60" rx="12" fill="#1A237E" stroke="#1A237E"/>
<rect x="228" y="948" width="60" height="60" rx="12" fill="#0043E6"/>
<rect x="164" y="948" width="60" height="60" rx="12" fill="#1A237E" stroke="#1A237E"/>
<rect x="100" y="948" width="60" height="60" rx="12" fill="#1A237E" stroke="#1A237E"/>
<rect x="36" y="948" width="60" height="60" rx="12" fill="#1A237E" stroke="#1A237E"/>
<rect x="-28" y="948" width="60" height="60" rx="12" fill="#1A237E" stroke="#1A237E"/>
<rect x="1380" y="884" width="60" height="60" rx="12" fill="#1A237E" stroke="#1A237E"/>
<rect x="1316" y="884" width="60" height="60" rx="12" fill="#1A237E" stroke="#1A237E"/>
<rect x="1252" y="884" width="60" height="60" rx="12" fill="#1A237E" stroke="#1A237E"/>
<rect x="1188" y="884" width="60" height="60" rx="12" fill="#1A237E" stroke="#1A237E"/>
<rect x="1124" y="884" width="60" height="60" rx="12" fill="#1A237E" stroke="#1A237E"/>
<rect x="1060" y="884" width="60" height="60" rx="12" fill="#1A237E" stroke="#1A237E"/>
<rect x="996" y="884" width="60" height="60" rx="12" fill="#1A237E" stroke="#1A237E"/>
<rect x="932" y="884" width="60" height="60" rx="12" fill="#1A237E" stroke="#1A237E"/>
<rect x="868" y="884" width="60" height="60" rx="12" fill="#1A237E" stroke="#1A237E"/>
<rect x="804" y="884" width="60" height="60" rx="12" fill="#1A237E" stroke="#1A237E"/>
<rect x="740" y="884" width="60" height="60" rx="12" fill="#1A237E" stroke="#1A237E"/>
<rect x="676" y="884" width="60" height="60" rx="12" fill="#1A237E" stroke="#1A237E"/>
<rect x="612" y="884" width="60" height="60" rx="12" fill="#1A237E" stroke="#1A237E"/>
<rect x="548" y="884" width="60" height="60" rx="12" fill="#1A237E" stroke="#1A237E"/>
<rect x="484" y="884" width="60" height="60" rx="12" fill="#1A237E" stroke="#1A237E"/>
<rect x="420" y="884" width="60" height="60" rx="12" fill="#1A237E" stroke="#1A237E"/>
<rect x="356" y="884" width="60" height="60" rx="12" fill="#1A237E" stroke="#1A237E"/>
<rect x="292" y="884" width="60" height="60" rx="12" fill="#1A237E" stroke="#1A237E"/>
<rect x="228" y="884" width="60" height="60" rx="12" fill="#1A237E" stroke="#1A237E"/>
<rect x="164" y="884" width="60" height="60" rx="12" fill="#1A237E" stroke="#1A237E"/>
<rect x="100" y="884" width="60" height="60" rx="12" fill="#1A237E" stroke="#1A237E"/>
<rect x="36" y="884" width="60" height="60" rx="12" fill="#1A237E" stroke="#1A237E"/>
<rect x="-28" y="884" width="60" height="60" rx="12" fill="#1A237E" stroke="#1A237E"/>
<rect x="1380" y="820" width="60" height="60" rx="12" fill="#1A237E" stroke="#1A237E"/>
<rect x="1316" y="820" width="60" height="60" rx="12" fill="#1A237E" stroke="#1A237E"/>
<rect x="1252" y="820" width="60" height="60" rx="12" fill="#1A237E" stroke="#1A237E"/>
<rect x="1188" y="820" width="60" height="60" rx="12" fill="#1A237E" stroke="#1A237E"/>
<rect x="1124" y="820" width="60" height="60" rx="12" fill="#1A237E" stroke="#1A237E"/>
<rect x="1060" y="820" width="60" height="60" rx="12" fill="#1A237E" stroke="#1A237E"/>
<rect x="996" y="820" width="60" height="60" rx="12" fill="#1A237E" stroke="#1A237E"/>
<rect x="932" y="820" width="60" height="60" rx="12" fill="#1A237E" stroke="#1A237E"/>
<rect x="868" y="820" width="60" height="60" rx="12" fill="#1A237E" stroke="#1A237E"/>
<rect x="804" y="820" width="60" height="60" rx="12" fill="#1A237E" stroke="#1A237E"/>
<rect x="740" y="820" width="60" height="60" rx="12" fill="#1A237E" stroke="#1A237E"/>
<rect x="676" y="820" width="60" height="60" rx="12" fill="#1A237E" stroke="#1A237E"/>
<rect x="612" y="820" width="60" height="60" rx="12" fill="#1A237E" stroke="#1A237E"/>
<rect x="548" y="820" width="60" height="60" rx="12" fill="#1A237E" stroke="#1A237E"/>
<rect x="484" y="820" width="60" height="60" rx="12" fill="#1A237E" stroke="#1A237E"/>
<rect x="420" y="820" width="60" height="60" rx="12" fill="#1A237E" stroke="#1A237E"/>
<rect x="356" y="820" width="60" height="60" rx="12" fill="#1A237E" stroke="#1A237E"/>
<rect x="292" y="820" width="60" height="60" rx="12" fill="#1A237E" stroke="#1A237E"/>
<rect x="228" y="820" width="60" height="60" rx="12" fill="#1A237E" stroke="#1A237E"/>
<rect x="164" y="820" width="60" height="60" rx="12" fill="#1A237E"/>
<rect x="100" y="820" width="60" height="60" rx="12" fill="#1A237E" stroke="#1A237E"/>
<rect x="36" y="820" width="60" height="60" rx="12" fill="#1A237E" stroke="#1A237E"/>
<rect x="-28" y="820" width="60" height="60" rx="12" fill="#1A237E" stroke="#1A237E"/>
<rect x="1380" y="756" width="60" height="60" rx="12" fill="#1A237E" stroke="#1A237E"/>
<rect x="1316" y="756" width="60" height="60" rx="12" fill="#1A25B9" stroke="#1A237E"/>
<rect x="1252" y="756" width="60" height="60" rx="12" fill="#1A237E" stroke="#1A237E"/>
<rect x="1188" y="756" width="60" height="60" rx="12" fill="#1A237E" stroke="#1A237E"/>
<rect x="1124" y="756" width="60" height="60" rx="12" fill="#1A25B9" stroke="#1A237E"/>
<rect x="1060" y="756" width="60" height="60" rx="12" fill="#1A237E" stroke="#1A237E"/>
<rect x="996" y="756" width="60" height="60" rx="12" fill="#1A237E" stroke="#1A237E"/>
<rect x="932" y="756" width="60" height="60" rx="12" fill="#1A237E" stroke="#1A237E"/>
<rect x="868" y="756" width="60" height="60" rx="12" fill="#1A237E" stroke="#1A237E"/>
<rect x="804" y="756" width="60" height="60" rx="12" fill="#1A237E" stroke="#1A237E"/>
<rect x="740" y="756" width="60" height="60" rx="12" fill="#1A237E" stroke="#1A237E"/>
<rect x="676" y="756" width="60" height="60" rx="12" fill="#1A237E" stroke="#1A237E"/>
<rect x="612" y="756" width="60" height="60" rx="12" fill="#1A237E" stroke="#1A237E"/>
<rect x="548" y="756" width="60" height="60" rx="12" fill="#1A237E" stroke="#1A237E"/>
<rect x="484" y="756" width="60" height="60" rx="12" fill="#1A237E"/>
<rect x="420" y="756" width="60" height="60" rx="12" fill="#1A237E" stroke="#1A237E"/>
<rect x="356" y="756" width="60" height="60" rx="12" fill="#1A237E" stroke="#1A237E"/>
<rect x="292" y="756" width="60" height="60" rx="12" fill="#1A237E" stroke="#1A237E"/>
<rect x="228" y="756" width="60" height="60" rx="12" fill="#1A237E" stroke="#1A237E"/>
<rect x="164" y="756" width="60" height="60" rx="12" fill="#1A237E" stroke="#1A237E"/>
<rect x="100" y="756" width="60" height="60" rx="12" fill="#1A237E" stroke="#1A237E"/>
<rect x="36" y="756" width="60" height="60" rx="12" fill="#1A237E" stroke="#1A237E"/>
<rect x="-28" y="756" width="60" height="60" rx="12" fill="#1A237E" stroke="#1A237E"/>
<rect x="1380" y="692" width="60" height="60" rx="12" fill="#1A237E" stroke="#1A237E"/>
<rect x="1316" y="692" width="60" height="60" rx="12" fill="#1A237E" stroke="#1A237E"/>
<rect x="1252" y="692" width="60" height="60" rx="12" fill="#1A237E" stroke="#1A237E"/>
<rect x="1188" y="692" width="60" height="60" rx="12" fill="#1A237E" stroke="#1A237E"/>
<rect x="1124" y="692" width="60" height="60" rx="12" fill="#1A237E" stroke="#1A237E"/>
<rect x="1060" y="692" width="60" height="60" rx="12" fill="#1A237E" stroke="#1A237E"/>
<rect x="996" y="692" width="60" height="60" rx="12" fill="#1A237E" stroke="#1A237E"/>
<rect x="932" y="692" width="60" height="60" rx="12" fill="#1A237E" stroke="#1A237E"/>
<rect x="868" y="692" width="60" height="60" rx="12" fill="#1A237E" stroke="#1A237E"/>
<rect x="804" y="692" width="60" height="60" rx="12" fill="#1A237E" stroke="#1A237E"/>
<rect x="740" y="692" width="60" height="60" rx="12" fill="#1A237E" stroke="#1A237E"/>
<rect x="676" y="692" width="60" height="60" rx="12" fill="#1A237E" stroke="#1A237E"/>
<rect x="612" y="692" width="60" height="60" rx="12" fill="#1A237E" stroke="#1A237E"/>
<rect x="548" y="692" width="60" height="60" rx="12" fill="#1A237E" stroke="#1A237E"/>
<rect x="484" y="692" width="60" height="60" rx="12" fill="#1A237E" stroke="#1A237E"/>
<rect x="420" y="692" width="60" height="60" rx="12" fill="#1A237E" stroke="#1A237E"/>
<rect x="356" y="692" width="60" height="60" rx="12" fill="#1A237E" stroke="#1A237E"/>
<rect x="292" y="692" width="60" height="60" rx="12" fill="#1A237E" stroke="#1A237E"/>
<rect x="228" y="692" width="60" height="60" rx="12" fill="#1A237E" stroke="#1A237E"/>
<rect x="164" y="692" width="60" height="60" rx="12" fill="#1A237E" stroke="#1A237E"/>
<rect x="100" y="692" width="60" height="60" rx="12" fill="#1A25B9" stroke="#1A237E"/>
<rect x="36" y="692" width="60" height="60" rx="12" fill="#1A237E" stroke="#1A237E"/>
<rect x="-28" y="692" width="60" height="60" rx="12" fill="#1A237E" stroke="#1A237E"/>
<rect x="1380" y="628" width="60" height="60" rx="12" fill="#1A237E" stroke="#1A237E"/>
<rect x="1316" y="628" width="60" height="60" rx="12" fill="#1A237E" stroke="#1A237E"/>
<rect x="1252" y="628" width="60" height="60" rx="12" fill="#1A237E" stroke="#1A237E"/>
<rect x="1188" y="628" width="60" height="60" rx="12" fill="#0043E6"/>
<rect x="1124" y="628" width="60" height="60" rx="12" fill="#1A25B9" stroke="#1A237E"/>
<rect x="1060" y="628" width="60" height="60" rx="12" fill="#1A237E" stroke="#1A237E"/>
<rect x="996" y="628" width="60" height="60" rx="12" fill="#1A237E" stroke="#1A237E"/>
<rect x="932" y="628" width="60" height="60" rx="12" fill="#1A237E" stroke="#1A237E"/>
<rect x="868" y="628" width="60" height="60" rx="12" fill="#1A237E" stroke="#1A237E"/>
<rect x="804" y="628" width="60" height="60" rx="12" fill="#1A237E" stroke="#1A237E"/>
<rect x="740" y="628" width="60" height="60" rx="12" fill="#1A237E" stroke="#1A237E"/>
<rect x="676" y="628" width="60" height="60" rx="12" fill="#1A237E" stroke="#1A237E"/>
<rect x="612" y="628" width="60" height="60" rx="12" fill="#1A237E" stroke="#1A237E"/>
<rect x="548" y="628" width="60" height="60" rx="12" fill="#1A237E" stroke="#1A237E"/>
<rect x="484" y="628" width="60" height="60" rx="12" fill="#1A237E" stroke="#1A237E"/>
<rect x="420" y="628" width="60" height="60" rx="12" fill="#1A237E" stroke="#1A237E"/>
<rect x="356" y="628" width="60" height="60" rx="12" fill="#1A237E" stroke="#1A237E"/>
<rect x="292" y="628" width="60" height="60" rx="12" fill="#1A237E" stroke="#1A237E"/>
<rect x="228" y="628" width="60" height="60" rx="12" fill="#1A237E" stroke="#1A237E"/>
<rect x="164" y="628" width="60" height="60" rx="12" fill="#1A237E" stroke="#1A237E"/>
<rect x="100" y="628" width="60" height="60" rx="12" fill="#1A237E" stroke="#1A237E"/>
<rect x="36" y="628" width="60" height="60" rx="12" fill="#1A237E" stroke="#1A237E"/>
<rect x="-28" y="628" width="60" height="60" rx="12" fill="#1A237E" stroke="#1A237E"/>
<rect x="1380" y="564" width="60" height="60" rx="12" fill="#1A237E" stroke="#1A237E"/>
<rect x="1316" y="564" width="60" height="60" rx="12" fill="#1A237E"/>
<rect x="1252" y="564" width="60" height="60" rx="12" fill="#1A237E" stroke="#1A237E"/>
<rect x="1188" y="564" width="60" height="60" rx="12" fill="#1A237E" stroke="#1A237E"/>
<rect x="1124" y="564" width="60" height="60" rx="12" fill="#1A237E" stroke="#1A237E"/>
<rect x="1060" y="564" width="60" height="60" rx="12" fill="#1A237E" stroke="#1A237E"/>
<rect x="996" y="564" width="60" height="60" rx="12" fill="#1A237E" stroke="#1A237E"/>
<rect x="932" y="564" width="60" height="60" rx="12" fill="#1A237E" stroke="#1A237E"/>
<rect x="868" y="564" width="60" height="60" rx="12" fill="#1A237E" stroke="#1A237E"/>
<rect x="804" y="564" width="60" height="60" rx="12" fill="#1A237E" stroke="#1A237E"/>
<rect x="740" y="564" width="60" height="60" rx="12" fill="#1A237E" stroke="#1A237E"/>
<rect x="676" y="564" width="60" height="60" rx="12" fill="#1A237E" stroke="#1A237E"/>
<rect x="612" y="564" width="60" height="60" rx="12" fill="#1A237E" stroke="#1A237E"/>
<rect x="548" y="564" width="60" height="60" rx="12" fill="#1A237E" stroke="#1A237E"/>
<rect x="484" y="564" width="60" height="60" rx="12" fill="#1A237E" stroke="#1A237E"/>
<rect x="420" y="564" width="60" height="60" rx="12" fill="#1A237E" stroke="#1A237E"/>
<rect x="356" y="564" width="60" height="60" rx="12" fill="#1A237E"/>
<rect x="292" y="564" width="60" height="60" rx="12" fill="#1A237E" stroke="#1A237E"/>
<rect x="228" y="564" width="60" height="60" rx="12" fill="#1A237E" stroke="#1A237E"/>
<rect x="164" y="564" width="60" height="60" rx="12" fill="#1A237E" stroke="#1A237E"/>
<rect x="100" y="564" width="60" height="60" rx="12" fill="#0043E6"/>
<rect x="36" y="564" width="60" height="60" rx="12" fill="#1A237E" stroke="#1A237E"/>
<rect x="-28" y="564" width="60" height="60" rx="12" fill="#1A237E" stroke="#1A237E"/>
<rect x="1380" y="500" width="60" height="60" rx="12" fill="#1A237E" stroke="#1A237E"/>
<rect x="1316" y="500" width="60" height="60" rx="12" fill="#1A237E" stroke="#1A237E"/>
<rect x="1252" y="500" width="60" height="60" rx="12" fill="#1A237E" stroke="#1A237E"/>
<rect x="1188" y="500" width="60" height="60" rx="12" fill="#1A237E" stroke="#1A237E"/>
<rect x="1124" y="500" width="60" height="60" rx="12" fill="#1A237E" stroke="#1A237E"/>
<rect x="1060" y="500" width="60" height="60" rx="12" fill="#1A237E" stroke="#1A237E"/>
<rect x="996" y="500" width="60" height="60" rx="12" fill="#1A237E" stroke="#1A237E"/>
<rect x="932" y="500" width="60" height="60" rx="12" fill="#1A237E" stroke="#1A237E"/>
<rect x="868" y="500" width="60" height="60" rx="12" fill="#1A237E" stroke="#1A237E"/>
<rect x="804" y="500" width="60" height="60" rx="12" fill="#1A237E" stroke="#1A237E"/>
<rect x="740" y="500" width="60" height="60" rx="12" fill="#1A237E" stroke="#1A237E"/>
<rect x="676" y="500" width="60" height="60" rx="12" fill="#1A237E" stroke="#1A237E"/>
<rect x="612" y="500" width="60" height="60" rx="12" fill="#1A237E"/>
<rect x="548" y="500" width="60" height="60" rx="12" fill="#1A237E" stroke="#1A237E"/>
<rect x="484" y="500" width="60" height="60" rx="12" fill="#1A237E" stroke="#1A237E"/>
<rect x="420" y="500" width="60" height="60" rx="12" fill="#1A237E" stroke="#1A237E"/>
<rect x="356" y="500" width="60" height="60" rx="12" fill="#1A237E" stroke="#1A237E"/>
<rect x="292" y="500" width="60" height="60" rx="12" fill="#1A237E" stroke="#1A237E"/>
<rect x="228" y="500" width="60" height="60" rx="12" fill="#1A237E" stroke="#1A237E"/>
<rect x="164" y="500" width="60" height="60" rx="12" fill="#1A237E" stroke="#1A237E"/>
<rect x="100" y="500" width="60" height="60" rx="12" fill="#1A237E" stroke="#1A237E"/>
<rect x="36" y="500" width="60" height="60" rx="12" fill="#1A237E" stroke="#1A237E"/>
<rect x="-28" y="500" width="60" height="60" rx="12" fill="#1A237E" stroke="#1A237E"/>
<rect x="1380" y="436" width="60" height="60" rx="12" fill="#1A237E" stroke="#1A237E"/>
<rect x="1316" y="436" width="60" height="60" rx="12" fill="#1A237E" stroke="#1A237E"/>
<rect x="1252" y="436" width="60" height="60" rx="12" fill="#1A237E" stroke="#1A237E"/>
<rect x="1188" y="436" width="60" height="60" rx="12" fill="#1A25B9"/>
<rect x="1124" y="436" width="60" height="60" rx="12" fill="#1A237E" stroke="#1A237E"/>
<rect x="1060" y="436" width="60" height="60" rx="12" fill="#1A237E" stroke="#1A237E"/>
<rect x="996" y="436" width="60" height="60" rx="12" fill="#1A237E" stroke="#1A237E"/>
<rect x="932" y="436" width="60" height="60" rx="12" fill="#1A237E" stroke="#1A237E"/>
<rect x="868" y="436" width="60" height="60" rx="12" fill="#1A237E" stroke="#1A237E"/>
<rect x="804" y="436" width="60" height="60" rx="12" fill="#1A237E" stroke="#1A237E"/>
<rect x="740" y="436" width="60" height="60" rx="12" fill="#1A237E" stroke="#1A237E"/>
<rect x="676" y="436" width="60" height="60" rx="12" fill="#1A237E" stroke="#1A237E"/>
<rect x="612" y="436" width="60" height="60" rx="12" fill="#1A237E" stroke="#1A237E"/>
<rect x="548" y="436" width="60" height="60" rx="12" fill="#1A237E" stroke="#1A237E"/>
<rect x="484" y="436" width="60" height="60" rx="12" fill="#1A237E" stroke="#1A237E"/>
<rect x="420" y="436" width="60" height="60" rx="12" fill="#1A237E" stroke="#1A237E"/>
<rect x="356" y="436" width="60" height="60" rx="12" fill="#1A237E" stroke="#1A237E"/>
<rect x="292" y="436" width="60" height="60" rx="12" fill="#1A237E"/>
<rect x="228" y="436" width="60" height="60" rx="12" fill="#1A237E" stroke="#1A237E"/>
<rect x="164" y="436" width="60" height="60" rx="12" fill="#1A237E" stroke="#1A237E"/>
<rect x="100" y="436" width="60" height="60" rx="12" fill="#1A237E" stroke="#1A237E"/>
<rect x="36" y="436" width="60" height="60" rx="12" fill="#1A237E" stroke="#1A237E"/>
<rect x="-28" y="436" width="60" height="60" rx="12" fill="#1A237E" stroke="#1A237E"/>
<rect x="1380" y="372" width="60" height="60" rx="12" fill="#1A237E" stroke="#1A237E"/>
<rect x="1316" y="372" width="60" height="60" rx="12" fill="#1A237E" stroke="#1A237E"/>
<rect x="1252" y="372" width="60" height="60" rx="12" fill="#1A237E" stroke="#1A237E"/>
<rect x="1188" y="372" width="60" height="60" rx="12" fill="#1A237E" stroke="#1A237E"/>
<rect x="1124" y="372" width="60" height="60" rx="12" fill="#1A237E" stroke="#1A237E"/>
<rect x="1060" y="372" width="60" height="60" rx="12" fill="#0043E6"/>
<rect x="996" y="372" width="60" height="60" rx="12" fill="#1A25B9" stroke="#1A237E"/>
<rect x="932" y="372" width="60" height="60" rx="12" fill="#1A237E" stroke="#1A237E"/>
<rect x="868" y="372" width="60" height="60" rx="12" fill="#1A237E"/>
<rect x="804" y="372" width="60" height="60" rx="12" fill="#1A237E" stroke="#1A237E"/>
<rect x="740" y="372" width="60" height="60" rx="12" fill="#1A237E" stroke="#1A237E"/>
<rect x="676" y="372" width="60" height="60" rx="12" fill="#1A237E" stroke="#1A237E"/>
<rect x="612" y="372" width="60" height="60" rx="12" fill="#1A237E" stroke="#1A237E"/>
<rect x="548" y="372" width="60" height="60" rx="12" fill="#1A237E" stroke="#1A237E"/>
<rect x="484" y="372" width="60" height="60" rx="12" fill="#0043E6"/>
<rect x="420" y="372" width="60" height="60" rx="12" fill="#1A237E" stroke="#1A237E"/>
<rect x="356" y="372" width="60" height="60" rx="12" fill="#1A237E" stroke="#1A237E"/>
<rect x="292" y="372" width="60" height="60" rx="12" fill="#1A237E" stroke="#1A237E"/>
<rect x="228" y="372" width="60" height="60" rx="12" fill="#1A25B9" stroke="#1A237E"/>
<rect x="164" y="372" width="60" height="60" rx="12" fill="#1A237E" stroke="#1A237E"/>
<rect x="100" y="372" width="60" height="60" rx="12" fill="#1A237E" stroke="#1A237E"/>
<rect x="36" y="372" width="60" height="60" rx="12" fill="#1A25B9" stroke="#1A237E"/>
<rect x="-28" y="372" width="60" height="60" rx="12" fill="#1A237E"/>
<rect x="1380" y="308" width="60" height="60" rx="12" fill="#1A237E" stroke="#1A237E"/>
<rect x="1316" y="308" width="60" height="60" rx="12" fill="#1A237E" stroke="#1A237E"/>
<rect x="1252" y="308" width="60" height="60" rx="12" fill="#1A237E" stroke="#1A237E"/>
<rect x="1188" y="308" width="60" height="60" rx="12" fill="#1A237E" stroke="#1A237E"/>
<rect x="1124" y="308" width="60" height="60" rx="12" fill="#1A237E" stroke="#1A237E"/>
<rect x="1060" y="308" width="60" height="60" rx="12" fill="#1A237E" stroke="#1A237E"/>
<rect x="996" y="308" width="60" height="60" rx="12" fill="#1A237E" stroke="#1A237E"/>
<rect x="932" y="308" width="60" height="60" rx="12" fill="#1A237E" stroke="#1A237E"/>
<rect x="868" y="308" width="60" height="60" rx="12" fill="#1A237E" stroke="#1A237E"/>
<rect x="804" y="308" width="60" height="60" rx="12" fill="#1A237E" stroke="#1A237E"/>
<rect x="740" y="308" width="60" height="60" rx="12" fill="#1A237E" stroke="#1A237E"/>
<rect x="676" y="308" width="60" height="60" rx="12" fill="#1A237E" stroke="#1A237E"/>
<rect x="612" y="308" width="60" height="60" rx="12" fill="#1A237E" stroke="#1A237E"/>
<rect x="548" y="308" width="60" height="60" rx="12" fill="#1A237E"/>
<rect x="484" y="308" width="60" height="60" rx="12" fill="#1A237E" stroke="#1A237E"/>
<rect x="420" y="308" width="60" height="60" rx="12" fill="#1A237E" stroke="#1A237E"/>
<rect x="356" y="308" width="60" height="60" rx="12" fill="#1A237E" stroke="#1A237E"/>
<rect x="292" y="308" width="60" height="60" rx="12" fill="#1A237E" stroke="#1A237E"/>
<rect x="228" y="308" width="60" height="60" rx="12" fill="#1A237E" stroke="#1A237E"/>
<rect x="164" y="308" width="60" height="60" rx="12" fill="#1A237E" stroke="#1A237E"/>
<rect x="100" y="308" width="60" height="60" rx="12" fill="#1A237E" stroke="#1A237E"/>
<rect x="36" y="308" width="60" height="60" rx="12" fill="#1A237E" stroke="#1A237E"/>
<rect x="-28" y="308" width="60" height="60" rx="12" fill="#1A237E" stroke="#1A237E"/>
<rect x="1380" y="244" width="60" height="60" rx="12" fill="#1A25B9" stroke="#1A237E"/>
<rect x="1316" y="244" width="60" height="60" rx="12" fill="#1A237E" stroke="#1A237E"/>
<rect x="1252" y="244" width="60" height="60" rx="12" fill="#1A237E" stroke="#1A237E"/>
<rect x="1188" y="244" width="60" height="60" rx="12" fill="#1A25B9" stroke="#1A237E"/>
<rect x="1124" y="244" width="60" height="60" rx="12" fill="#1A237E"/>
<rect x="1060" y="244" width="60" height="60" rx="12" fill="#1A237E" stroke="#1A237E"/>
<rect x="996" y="244" width="60" height="60" rx="12" fill="#1A237E" stroke="#1A237E"/>
<rect x="932" y="244" width="60" height="60" rx="12" fill="#1A237E" stroke="#1A237E"/>
<rect x="868" y="244" width="60" height="60" rx="12" fill="#1A25B9" stroke="#1A237E"/>
<rect x="804" y="244" width="60" height="60" rx="12" fill="#1A237E" stroke="#1A237E"/>
<rect x="740" y="244" width="60" height="60" rx="12" fill="#1A237E" stroke="#1A237E"/>
<rect x="676" y="244" width="60" height="60" rx="12" fill="#1A237E" stroke="#1A237E"/>
<rect x="612" y="244" width="60" height="60" rx="12" fill="#1A237E" stroke="#1A237E"/>
<rect x="548" y="244" width="60" height="60" rx="12" fill="#1A237E" stroke="#1A237E"/>
<rect x="484" y="244" width="60" height="60" rx="12" fill="#1A237E" stroke="#1A237E"/>
<rect x="420" y="244" width="60" height="60" rx="12" fill="#1A237E" stroke="#1A237E"/>
<rect x="356" y="244" width="60" height="60" rx="12" fill="#1A237E" stroke="#1A237E"/>
<rect x="292" y="244" width="60" height="60" rx="12" fill="#1A237E" stroke="#1A237E"/>
<rect x="228" y="244" width="60" height="60" rx="12" fill="#1A25B9"/>
<rect x="164" y="244" width="60" height="60" rx="12" fill="#0043E6"/>
<rect x="100" y="244" width="60" height="60" rx="12" fill="#1A237E" stroke="#1A237E"/>
<rect x="36" y="244" width="60" height="60" rx="12" fill="#1A237E" stroke="#1A237E"/>
<rect x="-28" y="244" width="60" height="60" rx="12" fill="#1A237E" stroke="#1A237E"/>
<rect x="1380" y="180" width="60" height="60" rx="12" fill="#1A237E" stroke="#1A237E"/>
<rect x="1316" y="180" width="60" height="60" rx="12" fill="#1A237E" stroke="#1A237E"/>
<rect x="1252" y="180" width="60" height="60" rx="12" fill="#1A237E" stroke="#1A237E"/>
<rect x="1188" y="180" width="60" height="60" rx="12" fill="#1A237E" stroke="#1A237E"/>
<rect x="1124" y="180" width="60" height="60" rx="12" fill="#1A237E" stroke="#1A237E"/>
<rect x="1060" y="180" width="60" height="60" rx="12" fill="#1A237E" stroke="#1A237E"/>
<rect x="996" y="180" width="60" height="60" rx="12" fill="#1A237E" stroke="#1A237E"/>
<rect x="932" y="180" width="60" height="60" rx="12" fill="#1A237E" stroke="#1A237E"/>
<rect x="868" y="180" width="60" height="60" rx="12" fill="#1A237E" stroke="#1A237E"/>
<rect x="804" y="180" width="60" height="60" rx="12" fill="#1A237E"/>
<rect x="740" y="180" width="60" height="60" rx="12" fill="#1A237E" stroke="#1A237E"/>
<rect x="676" y="180" width="60" height="60" rx="12" fill="#1A237E" stroke="#1A237E"/>
<rect x="612" y="180" width="60" height="60" rx="12" fill="#1A237E" stroke="#1A237E"/>
<rect x="548" y="180" width="60" height="60" rx="12" fill="#1A237E" stroke="#1A237E"/>
<rect x="484" y="180" width="60" height="60" rx="12" fill="#1A237E" stroke="#1A237E"/>
<rect x="420" y="180" width="60" height="60" rx="12" fill="#1A237E" stroke="#1A237E"/>
<rect x="356" y="180" width="60" height="60" rx="12" fill="#1A237E" stroke="#1A237E"/>
<rect x="292" y="180" width="60" height="60" rx="12" fill="#1A237E" stroke="#1A237E"/>
<rect x="228" y="180" width="60" height="60" rx="12" fill="#1A237E" stroke="#1A237E"/>
<rect x="164" y="180" width="60" height="60" rx="12" fill="#1A237E" stroke="#1A237E"/>
<rect x="100" y="180" width="60" height="60" rx="12" fill="#1A25B9" stroke="#1A237E"/>
<rect x="36" y="180" width="60" height="60" rx="12" fill="#1A237E" stroke="#1A237E"/>
<rect x="-28" y="180" width="60" height="60" rx="12" fill="#1A237E" stroke="#1A237E"/>
<rect x="1380" y="116" width="60" height="60" rx="12" fill="#1A237E" stroke="#1A237E"/>
<rect x="1316" y="116" width="60" height="60" rx="12" fill="#1A237E" stroke="#1A237E"/>
<rect x="1252" y="116" width="60" height="60" rx="12" fill="#1A237E" stroke="#1A237E"/>
<rect x="1188" y="116" width="60" height="60" rx="12" fill="#1A237E" stroke="#1A237E"/>
<rect x="1124" y="116" width="60" height="60" rx="12" fill="#1A25B9" stroke="#1A237E"/>
<rect x="1060" y="116" width="60" height="60" rx="12" fill="#1A237E"/>
<rect x="996" y="116" width="60" height="60" rx="12" fill="#1A237E" stroke="#1A237E"/>
<rect x="932" y="116" width="60" height="60" rx="12" fill="#1A237E" stroke="#1A237E"/>
<rect x="868" y="116" width="60" height="60" rx="12" fill="#1A237E" stroke="#1A237E"/>
<rect x="804" y="116" width="60" height="60" rx="12" fill="#1A237E" stroke="#1A237E"/>
<rect x="740" y="116" width="60" height="60" rx="12" fill="#1A237E" stroke="#1A237E"/>
<rect x="676" y="116" width="60" height="60" rx="12" fill="#1A237E" stroke="#1A237E"/>
<rect x="612" y="116" width="60" height="60" rx="12" fill="#1A237E" stroke="#1A237E"/>
<rect x="548" y="116" width="60" height="60" rx="12" fill="#1A237E" stroke="#1A237E"/>
<rect x="484" y="116" width="60" height="60" rx="12" fill="#1A237E" stroke="#1A237E"/>
<rect x="420" y="116" width="60" height="60" rx="12" fill="#1A237E" stroke="#1A237E"/>
<rect x="356" y="116" width="60" height="60" rx="12" fill="#1A237E" stroke="#1A237E"/>
<rect x="292" y="116" width="60" height="60" rx="12" fill="#1A237E" stroke="#1A237E"/>
<rect x="228" y="116" width="60" height="60" rx="12" fill="#1A237E" stroke="#1A237E"/>
<rect x="164" y="116" width="60" height="60" rx="12" fill="#1A237E" stroke="#1A237E"/>
<rect x="100" y="116" width="60" height="60" rx="12" fill="#1A237E" stroke="#1A237E"/>
<rect x="36" y="116" width="60" height="60" rx="12" fill="#1A25B9" stroke="#1A237E"/>
<rect x="-28" y="116" width="60" height="60" rx="12" fill="#1A237E" stroke="#1A237E"/>
<rect x="1380" y="52" width="60" height="60" rx="12" fill="#1A237E" stroke="#1A237E"/>
<rect x="1316" y="52" width="60" height="60" rx="12" fill="#1A237E" stroke="#1A237E"/>
<rect x="1252" y="52" width="60" height="60" rx="12" fill="#1A237E" stroke="#1A237E"/>
<rect x="1188" y="52" width="60" height="60" rx="12" fill="#1A237E" stroke="#1A237E"/>
<rect x="1124" y="52" width="60" height="60" rx="12" fill="#1A237E" stroke="#1A237E"/>
<rect x="1060" y="52" width="60" height="60" rx="12" fill="#1A237E" stroke="#1A237E"/>
<rect x="996" y="52" width="60" height="60" rx="12" fill="#1A237E"/>
<rect x="932" y="52" width="60" height="60" rx="12" fill="#1A237E" stroke="#1A237E"/>
<rect x="868" y="52" width="60" height="60" rx="12" fill="#1A237E" stroke="#1A237E"/>
<rect x="804" y="52" width="60" height="60" rx="12" fill="#1A237E" stroke="#1A237E"/>
<rect x="740" y="52" width="60" height="60" rx="12" fill="#1A237E" stroke="#1A237E"/>
<rect x="676" y="52" width="60" height="60" rx="12" fill="#1A237E" stroke="#1A237E"/>
<rect x="612" y="52" width="60" height="60" rx="12" fill="#1A237E" stroke="#1A237E"/>
<rect x="548" y="52" width="60" height="60" rx="12" fill="#1A237E" stroke="#1A237E"/>
<rect x="484" y="52" width="60" height="60" rx="12" fill="#1A237E" stroke="#1A237E"/>
<rect x="420" y="52" width="60" height="60" rx="12" fill="#1A237E" stroke="#1A237E"/>
<rect x="356" y="52" width="60" height="60" rx="12" fill="#1A237E" stroke="#1A237E"/>
<rect x="292" y="52" width="60" height="60" rx="12" fill="#1A237E" stroke="#1A237E"/>
<rect x="228" y="52" width="60" height="60" rx="12" fill="#1A237E" stroke="#1A237E"/>
<rect x="164" y="52" width="60" height="60" rx="12" fill="#1A237E" stroke="#1A237E"/>
<rect x="100" y="52" width="60" height="60" rx="12" fill="#1A237E" stroke="#1A237E"/>
<rect x="36" y="52" width="60" height="60" rx="12" fill="#1A237E" stroke="#1A237E"/>
<rect x="-28" y="52" width="60" height="60" rx="12" fill="#1A237E" stroke="#1A237E"/>
<rect x="1380" y="-12" width="60" height="60" rx="12" fill="#1A237E" stroke="#1A237E"/>
<rect x="1316" y="-12" width="60" height="60" rx="12" fill="#1A237E" stroke="#1A237E"/>
<rect x="1252" y="-12" width="60" height="60" rx="12" fill="#1A237E" stroke="#1A237E"/>
<rect x="1188" y="-12" width="60" height="60" rx="12" fill="#1A237E" stroke="#1A237E"/>
<rect x="1124" y="-12" width="60" height="60" rx="12" fill="#1A237E" stroke="#1A237E"/>
<rect x="1060" y="-12" width="60" height="60" rx="12" fill="#1A237E" stroke="#1A237E"/>
<rect x="996" y="-12" width="60" height="60" rx="12" fill="#1A237E" stroke="#1A237E"/>
<rect x="932" y="-12" width="60" height="60" rx="12" fill="#1A237E"/>
<rect x="868" y="-12" width="60" height="60" rx="12" fill="#1A237E" stroke="#1A237E"/>
<rect x="804" y="-12" width="60" height="60" rx="12" fill="#1A237E" stroke="#1A237E"/>
<rect x="740" y="-12" width="60" height="60" rx="12" fill="#1A237E" stroke="#1A237E"/>
<rect x="676" y="-12" width="60" height="60" rx="12" fill="#1A237E" stroke="#1A237E"/>
<rect x="612" y="-12" width="60" height="60" rx="12" fill="#1A237E" stroke="#1A237E"/>
<rect x="548" y="-12" width="60" height="60" rx="12" fill="#1A237E" stroke="#1A237E"/>
<rect x="484" y="-12" width="60" height="60" rx="12" fill="#1A237E" stroke="#1A237E"/>
<rect x="420" y="-12" width="60" height="60" rx="12" fill="#1A237E" stroke="#1A237E"/>
<rect x="356" y="-12" width="60" height="60" rx="12" fill="#1A237E" stroke="#1A237E"/>
<rect x="292" y="-12" width="60" height="60" rx="12" fill="#1A237E" stroke="#1A237E"/>
<rect x="228" y="-12" width="60" height="60" rx="12" fill="#1A237E" stroke="#1A237E"/>
<rect x="164" y="-12" width="60" height="60" rx="12" fill="#1A237E" stroke="#1A237E"/>
<rect x="100" y="-12" width="60" height="60" rx="12" fill="#1A237E" stroke="#1A237E"/>
<rect x="36" y="-12" width="60" height="60" rx="12" fill="#1A237E" stroke="#1A237E"/>
<rect x="-28" y="-12" width="60" height="60" rx="12" fill="#1A237E" stroke="#1A237E"/>
</svg>
