<svg width="570" height="428" viewBox="0 0 570 428" fill="none" xmlns="http://www.w3.org/2000/svg">
<rect x="539" y="387" width="68" height="68" rx="12" stroke="#1A237E"/>
<rect x="471" y="387" width="68" height="68" rx="12" stroke="#1A237E"/>
<rect x="403" y="387" width="68" height="68" rx="12" stroke="#1A237E"/>
<rect x="335" y="387" width="68" height="68" rx="12" stroke="#1A237E"/>
<rect x="267" y="387" width="68" height="68" rx="12" stroke="#1A237E"/>
<rect x="199" y="387" width="68" height="68" rx="12" stroke="#1A237E"/>
<rect x="131" y="387" width="68" height="68" rx="12" stroke="#1A237E"/>
<rect x="63" y="387" width="68" height="68" rx="12" stroke="#1A237E"/>
<rect x="-5" y="387" width="68" height="68" rx="12" stroke="#1A237E"/>
<rect x="539" y="319" width="68" height="68" rx="12" stroke="#1A237E"/>
<rect x="471" y="319" width="68" height="68" rx="12" stroke="#1A237E"/>
<rect x="403" y="319" width="68" height="68" rx="12" fill="#1A237E"/>
<rect x="403" y="319" width="68" height="68" rx="12" stroke="#1A237E"/>
<g filter="url(#filter0_d_892_6589)">
<rect x="415.5" y="331.5" width="43" height="43" rx="6" fill="#121654"/>
<rect x="416" y="332" width="42" height="42" rx="5.5" stroke="#1A237E"/>
<path fill-rule="evenodd" clip-rule="evenodd" d="M429.743 348.217H431.548C431.904 349.528 433.255 350.301 434.566 349.945C435.407 349.717 436.065 349.059 436.294 348.217H444.254C444.619 348.217 444.914 347.922 444.914 347.558C444.914 347.193 444.619 346.898 444.254 346.898H436.294C435.937 345.587 434.586 344.814 433.276 345.17C432.434 345.399 431.776 346.056 431.548 346.898H429.743C429.379 346.898 429.083 347.193 429.083 347.558C429.083 347.922 429.379 348.217 429.743 348.217ZM444.254 352.341H442.45C442.094 351.031 440.744 350.257 439.433 350.612C438.591 350.841 437.933 351.499 437.704 352.341H429.743C429.379 352.341 429.083 352.636 429.083 353.001C429.083 353.365 429.379 353.66 429.743 353.66H437.704C438.06 354.971 439.41 355.745 440.721 355.389C441.563 355.161 442.221 354.503 442.45 353.66H444.254C444.619 353.66 444.914 353.365 444.914 353.001C444.914 352.636 444.619 352.341 444.254 352.341ZM436.294 357.783H444.254C444.619 357.783 444.914 358.078 444.914 358.442C444.914 358.807 444.619 359.102 444.254 359.102H436.294C436.065 359.944 435.407 360.601 434.566 360.83C433.255 361.186 431.904 360.412 431.548 359.102H429.743C429.379 359.102 429.083 358.807 429.083 358.442C429.083 358.078 429.379 357.783 429.743 357.783H431.548C431.776 356.941 432.434 356.283 433.276 356.055C434.586 355.699 435.937 356.472 436.294 357.783Z" fill="white"/>
</g>
<rect x="335" y="319" width="68" height="68" rx="12" stroke="#1A237E"/>
<rect x="267" y="319" width="68" height="68" rx="12" fill="#1A237E"/>
<rect x="267" y="319" width="68" height="68" rx="12" stroke="#1A237E"/>
<g filter="url(#filter1_d_892_6589)">
<rect x="279.5" y="331.5" width="43" height="43" rx="6" fill="#121654"/>
<rect x="280" y="332" width="42" height="42" rx="5.5" stroke="#1A237E"/>
<path d="M307.972 351.172C307.664 351.127 307.37 351.013 307.112 350.839C306.854 350.665 306.639 350.435 306.482 350.166C306.325 349.897 306.231 349.597 306.207 349.286C306.182 348.976 306.228 348.664 306.341 348.374C306.413 348.185 306.423 347.978 306.371 347.782C306.319 347.586 306.207 347.411 306.051 347.282C305.361 346.702 304.575 346.247 303.729 345.936C303.536 345.865 303.326 345.856 303.128 345.911C302.929 345.966 302.754 346.082 302.626 346.242C302.433 346.489 302.186 346.689 301.904 346.826C301.623 346.963 301.313 347.035 301 347.035C300.687 347.035 300.377 346.963 300.096 346.826C299.814 346.689 299.567 346.489 299.374 346.242C299.246 346.082 299.071 345.966 298.872 345.911C298.674 345.856 298.464 345.865 298.271 345.936C297.49 346.223 296.76 346.633 296.108 347.15C295.943 347.28 295.825 347.459 295.77 347.662C295.715 347.864 295.726 348.079 295.801 348.274C295.923 348.572 295.973 348.894 295.948 349.215C295.923 349.535 295.823 349.846 295.656 350.121C295.49 350.396 295.261 350.628 294.988 350.798C294.715 350.969 294.406 351.073 294.086 351.103C293.878 351.125 293.683 351.214 293.529 351.355C293.375 351.497 293.271 351.684 293.231 351.889C293.133 352.376 293.083 352.871 293.083 353.367C293.083 353.783 293.116 354.198 293.184 354.607C293.217 354.819 293.32 355.014 293.475 355.162C293.631 355.31 293.831 355.403 294.044 355.426C294.371 355.456 294.686 355.565 294.963 355.742C295.24 355.92 295.47 356.161 295.634 356.446C295.799 356.731 295.892 357.051 295.908 357.379C295.923 357.708 295.859 358.035 295.722 358.334C295.632 358.528 295.61 358.747 295.659 358.955C295.708 359.164 295.825 359.35 295.991 359.484C296.678 360.053 297.456 360.501 298.293 360.809C298.4 360.846 298.512 360.866 298.625 360.867C298.78 360.867 298.933 360.829 299.071 360.757C299.209 360.686 299.327 360.582 299.417 360.455C299.605 360.181 299.857 359.957 300.151 359.803C300.446 359.648 300.773 359.568 301.106 359.569C301.428 359.569 301.745 359.645 302.033 359.789C302.321 359.934 302.571 360.144 302.763 360.402C302.891 360.574 303.072 360.699 303.278 360.757C303.484 360.816 303.704 360.804 303.903 360.724C304.668 360.417 305.38 359.991 306.014 359.463C306.173 359.331 306.286 359.153 306.338 358.953C306.389 358.753 306.375 358.541 306.299 358.349C306.175 358.056 306.121 357.737 306.141 357.418C306.161 357.1 306.255 356.791 306.415 356.515C306.575 356.239 306.797 356.004 307.064 355.829C307.33 355.654 307.634 355.543 307.951 355.505C308.156 355.476 308.347 355.383 308.496 355.239C308.645 355.095 308.744 354.907 308.779 354.702C308.864 354.262 308.91 353.815 308.917 353.367C308.917 352.894 308.873 352.423 308.785 351.958C308.749 351.758 308.651 351.575 308.505 351.433C308.36 351.292 308.173 351.201 307.972 351.172ZM303.639 353.367C303.639 353.889 303.484 354.399 303.194 354.833C302.904 355.267 302.492 355.605 302.01 355.805C301.528 356.005 300.997 356.057 300.485 355.955C299.973 355.854 299.503 355.602 299.134 355.233C298.765 354.864 298.514 354.394 298.412 353.882C298.31 353.37 298.362 352.84 298.562 352.357C298.762 351.875 299.1 351.463 299.534 351.173C299.968 350.883 300.478 350.728 301 350.728C301.7 350.728 302.371 351.006 302.866 351.501C303.361 351.996 303.639 352.667 303.639 353.367Z" fill="white"/>
</g>
<rect x="199" y="319" width="68" height="68" rx="12" stroke="#1A237E"/>
<rect x="131" y="319" width="68" height="68" rx="12" stroke="#1A237E"/>
<rect x="63" y="319" width="68" height="68" rx="12" stroke="#1A237E"/>
<rect x="-5" y="319" width="68" height="68" rx="12" stroke="#1A237E"/>
<rect x="539" y="251" width="68" height="68" rx="12" stroke="#1A237E"/>
<rect x="471" y="251" width="68" height="68" rx="12" fill="#1A237E"/>
<rect x="471" y="251" width="68" height="68" rx="12" stroke="#1A237E"/>
<g filter="url(#filter2_d_892_6589)">
<rect x="483.5" y="263.5" width="43" height="43" rx="6" fill="#121654"/>
<rect x="484" y="264" width="42" height="42" rx="5.5" stroke="#1A237E"/>
<path fill-rule="evenodd" clip-rule="evenodd" d="M505 277.083C507.115 277.083 509.103 277.907 510.598 279.402C512.093 280.897 512.917 282.885 512.917 285C512.917 287.115 512.093 289.103 510.598 290.598C509.103 292.093 507.115 292.917 505 292.917C502.885 292.917 500.897 292.093 499.402 290.598C497.907 289.103 497.083 287.115 497.083 285C497.083 282.885 497.907 280.897 499.402 279.402C500.897 277.907 502.885 277.083 505 277.083ZM498.947 285C498.947 288.338 501.662 291.053 505 291.053C508.338 291.053 511.053 288.338 511.053 285C511.053 281.662 508.338 278.947 505 278.947C501.662 278.947 498.947 281.662 498.947 285ZM499.874 285C499.874 282.174 502.174 279.874 505 279.874C507.826 279.874 510.126 282.174 510.126 285C510.126 287.826 507.826 290.126 505 290.126C502.174 290.126 499.874 287.826 499.874 285ZM505 287.313L507.313 285L505 282.687L502.687 285L505 287.313Z" fill="white"/>
</g>
<rect x="403" y="251" width="68" height="68" rx="12" stroke="#1A237E"/>
<rect x="335" y="251" width="68" height="68" rx="12" fill="#1A237E"/>
<rect x="335" y="251" width="68" height="68" rx="12" stroke="#1A237E"/>
<g filter="url(#filter3_d_892_6589)">
<rect x="347.5" y="263.5" width="43" height="43" rx="6" fill="#121654"/>
<rect x="348" y="264" width="42" height="42" rx="5.5" stroke="#1A237E"/>
<path fill-rule="evenodd" clip-rule="evenodd" d="M374.937 277.083C374.413 277.083 373.909 277.292 373.538 277.663C373.167 278.034 372.958 278.538 372.958 279.062V290.937C372.958 291.462 373.167 291.966 373.538 292.337C373.909 292.708 374.413 292.917 374.937 292.917C375.462 292.917 375.966 292.708 376.337 292.337C376.708 291.966 376.917 291.462 376.917 290.937V279.062C376.917 278.538 376.708 278.034 376.337 277.663C375.966 277.292 375.462 277.083 374.937 277.083ZM369 281.042C368.475 281.042 367.972 281.25 367.601 281.621C367.229 281.992 367.021 282.496 367.021 283.021V290.937C367.021 291.462 367.229 291.966 367.601 292.337C367.972 292.708 368.475 292.917 369 292.917C369.525 292.917 370.028 292.708 370.399 292.337C370.771 291.966 370.979 291.462 370.979 290.937V283.021C370.979 282.496 370.771 281.992 370.399 281.621C370.028 281.25 369.525 281.042 369 281.042ZM361.663 285.58C362.034 285.208 362.538 285 363.062 285C363.587 285 364.091 285.208 364.462 285.58C364.833 285.951 365.042 286.454 365.042 286.979V290.937C365.042 291.462 364.833 291.966 364.462 292.337C364.091 292.708 363.587 292.917 363.062 292.917C362.538 292.917 362.034 292.708 361.663 292.337C361.292 291.966 361.083 291.462 361.083 290.937V286.979C361.083 286.454 361.292 285.951 361.663 285.58Z" fill="white"/>
</g>
<rect x="267" y="251" width="68" height="68" rx="12" stroke="#1A237E"/>
<rect x="199" y="251" width="68" height="68" rx="12" fill="#1A237E"/>
<rect x="199" y="251" width="68" height="68" rx="12" stroke="#1A237E"/>
<g filter="url(#filter4_d_892_6589)">
<rect x="211.5" y="263.5" width="43" height="43" rx="6" fill="#121654"/>
<rect x="212" y="264" width="42" height="42" rx="5.5" stroke="#1A237E"/>
<path fill-rule="evenodd" clip-rule="evenodd" d="M238.597 279.867H234.886C234.63 279.867 234.423 279.659 234.423 279.403C234.423 279.146 234.63 278.939 234.886 278.939H238.597C238.854 278.939 239.061 279.146 239.061 279.403C239.061 279.659 238.854 279.867 238.597 279.867ZM231.114 279.867C230.857 279.867 230.65 279.659 230.65 279.403C230.65 279.146 230.857 278.939 231.114 278.939C231.37 278.939 231.577 279.146 231.577 279.403C231.577 279.659 231.37 279.867 231.114 279.867ZM229.258 279.867C229.002 279.867 228.794 279.659 228.794 279.403C228.794 279.146 229.002 278.939 229.258 278.939C229.514 278.939 229.722 279.146 229.722 279.403C229.722 279.659 229.514 279.867 229.258 279.867ZM227.403 279.867C227.147 279.867 226.939 279.659 226.939 279.403C226.939 279.146 227.147 278.939 227.403 278.939C227.659 278.939 227.867 279.146 227.867 279.403C227.867 279.659 227.659 279.867 227.403 279.867ZM239.525 277.083H226.475C225.708 277.083 225.083 277.708 225.083 278.475V280.33C225.083 281.098 225.708 281.722 226.475 281.722H239.525C240.292 281.722 240.917 281.098 240.917 280.33V278.475C240.917 277.708 240.292 277.083 239.525 277.083ZM238.597 285.464H234.886C234.63 285.464 234.423 285.256 234.423 285C234.423 284.744 234.63 284.536 234.886 284.536H238.597C238.854 284.536 239.061 284.744 239.061 285C239.061 285.256 238.854 285.464 238.597 285.464ZM231.114 285.464C230.857 285.464 230.65 285.256 230.65 285C230.65 284.744 230.857 284.536 231.114 284.536C231.37 284.536 231.577 284.744 231.577 285C231.577 285.256 231.37 285.464 231.114 285.464ZM229.258 285.464C229.002 285.464 228.794 285.256 228.794 285C228.794 284.744 229.002 284.536 229.258 284.536C229.514 284.536 229.722 284.744 229.722 285C229.722 285.256 229.514 285.464 229.258 285.464ZM227.403 285.464C227.147 285.464 226.939 285.256 226.939 285C226.939 284.744 227.147 284.536 227.403 284.536C227.659 284.536 227.867 284.744 227.867 285C227.867 285.256 227.659 285.464 227.403 285.464ZM239.525 282.681H226.475C225.708 282.681 225.083 283.305 225.083 284.072V285.928C225.083 286.695 225.708 287.319 226.475 287.319H239.525C240.292 287.319 240.917 286.695 240.917 285.928V284.072C240.917 283.305 240.292 282.681 239.525 282.681ZM234.886 291.061H238.597C238.854 291.061 239.061 290.854 239.061 290.597C239.061 290.341 238.854 290.133 238.597 290.133H234.886C234.63 290.133 234.423 290.341 234.423 290.597C234.423 290.854 234.63 291.061 234.886 291.061ZM230.65 290.597C230.65 290.853 230.857 291.061 231.114 291.061C231.37 291.061 231.577 290.853 231.577 290.597C231.577 290.341 231.37 290.133 231.114 290.133C230.857 290.133 230.65 290.341 230.65 290.597ZM228.794 290.597C228.794 290.853 229.002 291.061 229.258 291.061C229.514 291.061 229.722 290.853 229.722 290.597C229.722 290.341 229.514 290.133 229.258 290.133C229.002 290.133 228.794 290.341 228.794 290.597ZM226.939 290.597C226.939 290.853 227.147 291.061 227.403 291.061C227.659 291.061 227.867 290.853 227.867 290.597C227.867 290.341 227.659 290.133 227.403 290.133C227.147 290.133 226.939 290.341 226.939 290.597ZM226.475 288.278H239.525C240.292 288.278 240.917 288.902 240.917 289.67V291.525C240.917 292.292 240.292 292.917 239.525 292.917H226.475C225.708 292.917 225.083 292.292 225.083 291.525V289.67C225.083 288.902 225.708 288.278 226.475 288.278Z" fill="white"/>
</g>
<rect x="131" y="251" width="68" height="68" rx="12" stroke="#1A237E"/>
<rect x="63" y="251" width="68" height="68" rx="12" fill="#1A237E"/>
<rect x="63" y="251" width="68" height="68" rx="12" stroke="#1A237E"/>
<g filter="url(#filter5_d_892_6589)">
<rect x="75.5" y="263.5" width="43" height="43" rx="6" fill="#121654"/>
<rect x="76" y="264" width="42" height="42" rx="5.5" stroke="#1A237E"/>
<path d="M97.5987 287.1L92.3749 292.324C92.1993 292.509 91.9886 292.656 91.7552 292.758C91.5218 292.859 91.2704 292.913 91.0157 292.917C90.7611 292.92 90.5085 292.872 90.2726 292.776C90.0368 292.68 89.8226 292.538 89.6425 292.357C89.4625 292.177 89.3203 291.963 89.2242 291.727C89.1282 291.492 89.0804 291.239 89.0835 290.984C89.0866 290.73 89.1406 290.478 89.2423 290.245C89.3441 290.011 89.4914 289.801 89.6758 289.625L94.8996 284.401L97.5987 287.1ZM100.375 281.626C100.011 281.278 99.528 281.085 99.0253 281.085C98.5225 281.085 98.0391 281.278 97.6757 281.626L95.8324 283.469L98.5315 286.168L100.375 284.325C100.733 283.967 100.934 283.482 100.934 282.975C100.934 282.469 100.733 281.984 100.375 281.626ZM92.319 280.47L93.3394 280.761L93.6303 281.782C93.6772 281.946 93.7761 282.09 93.9121 282.192C94.0481 282.295 94.2138 282.35 94.3841 282.35C94.5544 282.35 94.7201 282.295 94.8561 282.192C94.9921 282.09 95.091 281.946 95.1379 281.782L95.4289 280.761L96.4493 280.47C96.613 280.424 96.757 280.325 96.8595 280.189C96.9621 280.053 97.0175 279.887 97.0175 279.717C97.0175 279.546 96.9621 279.381 96.8595 279.245C96.757 279.109 96.613 279.01 96.4493 278.963L95.4289 278.672L95.1379 277.652C95.091 277.488 94.9921 277.344 94.8561 277.241C94.7201 277.139 94.5544 277.083 94.3841 277.083C94.2138 277.083 94.0481 277.139 93.9121 277.241C93.7761 277.344 93.6772 277.488 93.6303 277.652L93.3394 278.672L92.319 278.963C92.1552 279.01 92.0112 279.109 91.9087 279.245C91.8062 279.381 91.7507 279.546 91.7507 279.717C91.7507 279.887 91.8062 280.053 91.9087 280.189C92.0112 280.325 92.1552 280.424 92.319 280.47ZM100.219 288.37L101.239 288.661L101.53 289.682C101.577 289.845 101.676 289.989 101.812 290.092C101.948 290.194 102.114 290.25 102.284 290.25C102.454 290.25 102.62 290.194 102.756 290.092C102.892 289.989 102.991 289.845 103.038 289.682L103.329 288.661L104.349 288.37C104.513 288.323 104.657 288.225 104.759 288.089C104.862 287.953 104.917 287.787 104.917 287.617C104.917 287.446 104.862 287.281 104.759 287.145C104.657 287.009 104.513 286.91 104.349 286.863L103.329 286.572L103.038 285.551C102.991 285.388 102.892 285.244 102.756 285.141C102.62 285.039 102.454 284.983 102.284 284.983C102.114 284.983 101.948 285.039 101.812 285.141C101.676 285.244 101.577 285.388 101.53 285.551L101.239 286.572L100.219 286.863C100.055 286.91 99.911 287.009 99.8085 287.145C99.706 287.281 99.6505 287.446 99.6505 287.617C99.6505 287.787 99.706 287.953 99.8085 288.089C99.911 288.225 100.055 288.323 100.219 288.37ZM100.807 280.046L101.699 280.301L101.955 281.194C101.996 281.336 102.083 281.461 102.202 281.55C102.32 281.639 102.465 281.687 102.613 281.687C102.761 281.687 102.906 281.639 103.024 281.55C103.143 281.461 103.23 281.336 103.271 281.194L103.526 280.302L104.42 280.046C104.562 280.004 104.687 279.918 104.776 279.799C104.865 279.68 104.913 279.536 104.913 279.388C104.913 279.239 104.865 279.095 104.776 278.976C104.687 278.858 104.562 278.771 104.42 278.729L103.527 278.474L103.271 277.581C103.23 277.439 103.143 277.314 103.024 277.225C102.906 277.136 102.761 277.088 102.613 277.088C102.465 277.088 102.32 277.136 102.202 277.225C102.083 277.314 101.996 277.439 101.955 277.581L101.7 278.473L100.807 278.729C100.664 278.771 100.539 278.858 100.45 278.976C100.362 279.095 100.313 279.239 100.313 279.388C100.313 279.536 100.362 279.68 100.45 279.799C100.539 279.918 100.664 280.004 100.807 280.046Z" fill="white"/>
</g>
<rect x="-5" y="251" width="68" height="68" rx="12" stroke="#1A237E"/>
<rect x="539" y="183" width="68" height="68" rx="12" stroke="#1A237E"/>
<rect x="471" y="183" width="68" height="68" rx="12" stroke="#1A237E"/>
<rect x="403" y="183" width="68" height="68" rx="12" fill="#1A237E"/>
<rect x="403" y="183" width="68" height="68" rx="12" stroke="#1A237E"/>
<g filter="url(#filter6_d_892_6589)">
<rect x="415.5" y="195.5" width="43" height="43" rx="6" fill="#121654"/>
<rect x="416" y="196" width="42" height="42" rx="5.5" stroke="#1A237E"/>
<path fill-rule="evenodd" clip-rule="evenodd" d="M438.4 212.335C439.284 212.633 439.988 213.337 440.288 214.221C440.352 214.435 440.551 214.591 440.786 214.591C441.02 214.591 441.218 214.436 441.284 214.224C441.583 213.339 442.287 212.635 443.17 212.336C443.384 212.271 443.54 212.072 443.54 211.837C443.54 211.603 443.385 211.405 443.173 211.339C442.289 211.041 441.584 210.337 441.285 209.453C441.22 209.239 441.021 209.083 440.786 209.083C440.552 209.083 440.354 209.238 440.288 209.45C439.99 210.335 439.286 211.039 438.402 211.338C438.188 211.403 438.033 211.602 438.033 211.837C438.033 212.071 438.187 212.269 438.4 212.335ZM444.55 221.665C443.665 221.367 442.961 220.663 442.662 219.779C442.597 219.565 442.398 219.409 442.163 219.409C441.929 219.409 441.731 219.564 441.665 219.777C441.367 220.661 440.663 221.365 439.779 221.664C439.565 221.729 439.409 221.928 439.409 222.163C439.409 222.397 439.564 222.595 439.776 222.661C440.661 222.96 441.365 223.663 441.664 224.547C441.729 224.761 441.928 224.917 442.163 224.917C442.397 224.917 442.595 224.762 442.661 224.55C442.959 223.665 443.663 222.961 444.547 222.662C444.761 222.597 444.917 222.398 444.917 222.163C444.917 221.929 444.762 221.731 444.55 221.665ZM438.912 216.577C439.396 216.738 439.744 216.854 439.744 216.854C439.955 216.925 440.098 217.123 440.098 217.345C440.098 217.568 439.955 217.766 439.744 217.836C439.744 217.836 439.396 217.953 438.912 218.114C437.243 218.67 435.915 219.998 435.359 221.667C435.198 222.15 435.082 222.499 435.082 222.499C435.011 222.71 434.813 222.853 434.591 222.853H434.59C434.368 222.853 434.17 222.71 434.1 222.499C434.1 222.499 433.983 222.15 433.822 221.667C433.266 219.998 431.938 218.67 430.269 218.114C429.785 217.953 429.437 217.836 429.437 217.836C429.226 217.766 429.083 217.568 429.083 217.345C429.083 217.123 429.226 216.925 429.437 216.854C429.437 216.854 429.785 216.738 430.269 216.577C431.938 216.021 433.266 214.693 433.822 213.024C433.983 212.54 434.1 212.192 434.1 212.192C434.17 211.981 434.368 211.838 434.59 211.838C434.813 211.838 435.011 211.981 435.081 212.192C435.081 212.192 435.198 212.54 435.359 213.024C435.915 214.693 437.243 216.021 438.912 216.577Z" fill="white"/>
</g>
<rect x="335" y="183" width="68" height="68" rx="12" stroke="#1A237E"/>
<rect x="267" y="183" width="68" height="68" rx="12" fill="#1A237E"/>
<rect x="267" y="183" width="68" height="68" rx="12" stroke="#1A237E"/>
<g filter="url(#filter7_d_892_6589)">
<rect x="279.5" y="195.5" width="43" height="43" rx="6" fill="#121654"/>
<rect x="280" y="196" width="42" height="42" rx="5.5" stroke="#1A237E"/>
<path d="M296.562 219.365C295.866 218.722 295.336 217.921 295.015 217.03C294.694 216.139 294.593 215.184 294.72 214.245C294.845 213.294 295.199 212.387 295.752 211.602C296.304 210.817 297.039 210.178 297.893 209.739C298.747 209.301 299.694 209.076 300.654 209.084C301.614 209.091 302.557 209.332 303.404 209.784C304.25 210.237 304.975 210.888 305.514 211.681C306.054 212.475 306.393 213.388 306.503 214.341C306.613 215.295 306.49 216.261 306.144 217.157C305.799 218.052 305.241 218.851 304.52 219.483C304.055 219.883 303.694 220.389 303.468 220.959H301.266V216.22C301.651 216.084 301.984 215.833 302.22 215.5C302.456 215.168 302.584 214.771 302.586 214.363C302.586 214.188 302.516 214.02 302.392 213.896C302.269 213.773 302.101 213.703 301.926 213.703C301.751 213.703 301.583 213.773 301.46 213.896C301.336 214.02 301.266 214.188 301.266 214.363C301.266 214.538 301.197 214.705 301.073 214.829C300.949 214.953 300.782 215.022 300.607 215.022C300.432 215.022 300.264 214.953 300.14 214.829C300.017 214.705 299.947 214.538 299.947 214.363C299.947 214.188 299.878 214.02 299.754 213.896C299.63 213.773 299.462 213.703 299.288 213.703C299.113 213.703 298.945 213.773 298.821 213.896C298.697 214.02 298.628 214.188 298.628 214.363C298.63 214.771 298.757 215.168 298.993 215.5C299.23 215.833 299.563 216.084 299.947 216.22V220.959H297.68C297.428 220.352 297.046 219.808 296.562 219.365ZM297.968 222.278V222.483C297.969 223.128 298.226 223.747 298.682 224.203C299.138 224.659 299.757 224.916 300.402 224.917H300.811C301.457 224.916 302.075 224.659 302.532 224.203C302.988 223.747 303.245 223.128 303.245 222.483V222.278H297.968Z" fill="white"/>
</g>
<rect x="199" y="183" width="68" height="68" rx="12" stroke="#1A237E"/>
<rect x="131" y="183" width="68" height="68" rx="12" fill="#1A237E"/>
<rect x="131" y="183" width="68" height="68" rx="12" stroke="#1A237E"/>
<g filter="url(#filter8_d_892_6589)">
<rect x="143.5" y="195.5" width="43" height="43" rx="6" fill="#121654"/>
<rect x="144" y="196" width="42" height="42" rx="5.5" stroke="#1A237E"/>
<path fill-rule="evenodd" clip-rule="evenodd" d="M172.145 212.59C172.297 212.638 172.436 212.719 172.555 212.825C172.671 212.933 172.762 213.063 172.825 213.208C172.887 213.353 172.918 213.509 172.917 213.667V221.012C172.916 221.288 172.816 221.554 172.633 221.761C172.451 221.968 172.2 222.101 171.926 222.136L170.128 222.334C168.616 222.502 167.085 222.364 165.626 221.928L164.388 221.557C162.931 221.117 161.399 220.977 159.886 221.145L158.341 221.319C158.183 221.336 158.023 221.32 157.872 221.272C157.72 221.223 157.58 221.143 157.462 221.037C157.343 220.931 157.248 220.801 157.183 220.656C157.118 220.511 157.084 220.354 157.083 220.195V212.85C157.084 212.574 157.184 212.308 157.367 212.101C157.549 211.894 157.8 211.761 158.074 211.726L159.886 211.528C161.399 211.36 162.93 211.498 164.388 211.934L165.626 212.305C167.084 212.745 168.615 212.885 170.128 212.716L171.674 212.543C171.832 212.525 171.993 212.541 172.145 212.59ZM159.946 214.356L160.511 214.311C160.589 214.312 160.667 214.298 160.739 214.267C160.811 214.237 160.877 214.193 160.931 214.136C160.985 214.08 161.027 214.013 161.055 213.939C161.082 213.866 161.093 213.787 161.089 213.709C161.085 213.631 161.064 213.555 161.029 213.485C160.993 213.415 160.944 213.353 160.884 213.303C160.823 213.253 160.753 213.216 160.678 213.194C160.603 213.173 160.524 213.167 160.446 213.177C160.366 213.183 160.286 213.192 160.206 213.201C160.078 213.216 159.95 213.231 159.822 213.231L159.287 213.291C159.138 213.307 159.002 213.382 158.908 213.499C158.814 213.616 158.771 213.766 158.787 213.915C158.803 214.064 158.878 214.2 158.995 214.294C159.112 214.388 159.262 214.431 159.411 214.415L159.946 214.356ZM163.436 219.282C163.901 219.593 164.448 219.759 165.007 219.759C165.757 219.759 166.477 219.461 167.007 218.93C167.537 218.4 167.835 217.681 167.835 216.931C167.835 216.372 167.669 215.825 167.359 215.36C167.048 214.895 166.606 214.532 166.09 214.318C165.573 214.104 165.004 214.048 164.456 214.157C163.907 214.266 163.403 214.536 163.008 214.931C162.612 215.327 162.343 215.831 162.234 216.379C162.125 216.928 162.181 217.496 162.395 218.013C162.609 218.53 162.971 218.971 163.436 219.282ZM170.193 220.635L170.728 220.576C170.877 220.56 171.013 220.485 171.107 220.368C171.201 220.25 171.244 220.101 171.228 219.952C171.211 219.803 171.136 219.666 171.019 219.573C170.902 219.479 170.753 219.435 170.604 219.452L170.069 219.511C169.881 219.541 169.693 219.556 169.504 219.556C169.426 219.554 169.348 219.569 169.276 219.599C169.204 219.629 169.138 219.674 169.084 219.73C169.03 219.787 168.987 219.854 168.96 219.927C168.933 220.001 168.921 220.079 168.926 220.157C168.93 220.236 168.951 220.312 168.986 220.382C169.021 220.452 169.071 220.514 169.131 220.564C169.191 220.614 169.261 220.651 169.337 220.672C169.412 220.694 169.491 220.7 169.569 220.69C169.777 220.675 169.985 220.66 170.193 220.635ZM166.706 216.932C166.706 217.871 165.946 218.631 165.007 218.631C164.069 218.631 163.309 217.871 163.309 216.932C163.309 215.994 164.069 215.234 165.007 215.234C165.946 215.234 166.706 215.994 166.706 216.932Z" fill="white"/>
</g>
<rect x="63" y="183" width="68" height="68" rx="12" stroke="#1A237E"/>
<rect x="-5" y="183" width="68" height="68" rx="12" fill="#1A237E"/>
<rect x="-5" y="183" width="68" height="68" rx="12" stroke="#1A237E"/>
<g filter="url(#filter9_d_892_6589)">
<rect x="7.39999" y="195.4" width="43.2" height="43.2" rx="6" fill="#121654"/>
<rect x="7.89999" y="195.9" width="42.2" height="42.2" rx="5.5" stroke="#1A237E"/>
<path d="M35.4008 207.4C33.633 207.4 32.1999 208.833 32.1999 210.6C32.1999 212.089 33.2218 213.33 34.5999 213.687V215.4C34.5999 215.842 34.2414 216.2 33.8 216.2H25.8001C24.8953 216.2 24.0704 216.512 23.4001 217.019V213.688C24.7782 213.33 25.8001 212.089 25.8001 210.6C25.8001 208.833 24.3673 207.4 22.5999 207.4C20.8326 207.4 19.4 208.833 19.4 210.6C19.4 212.089 20.4219 213.33 21.8 213.686V220.314C20.4219 220.67 19.4 221.911 19.4 223.4C19.4 225.167 20.8328 226.6 22.5999 226.6C24.367 226.6 25.7998 225.167 25.7998 223.4C25.7998 221.911 24.7779 220.67 23.3998 220.314V220.2C23.3998 218.874 24.4748 217.8 25.7998 217.8H33.8C35.125 217.8 36.2 216.726 36.2 215.4V213.687C37.5774 213.33 38.6 212.089 38.6 210.6C38.6 208.833 37.1672 207.4 35.4008 207.4Z" fill="white"/>
</g>
<rect x="539" y="115" width="68" height="68" rx="12" stroke="#1A237E"/>
<rect x="471" y="115" width="68" height="68" rx="12" fill="#1A237E"/>
<rect x="471" y="115" width="68" height="68" rx="12" stroke="#1A237E"/>
<g filter="url(#filter10_d_892_6589)">
<rect x="483.5" y="127.5" width="43" height="43" rx="6" fill="#121654"/>
<rect x="484" y="128" width="42" height="42" rx="5.5" stroke="#1A237E"/>
<path fill-rule="evenodd" clip-rule="evenodd" d="M512.917 145.19V146.025C512.917 146.11 512.847 146.18 512.762 146.18H497.238C497.153 146.18 497.083 146.11 497.083 146.025V145.19C497.083 144.234 497.859 143.458 498.815 143.458H511.185C512.141 143.458 512.917 144.234 512.917 145.19ZM497.083 152.612V147.324C497.083 147.239 497.153 147.169 497.238 147.169H512.762C512.847 147.169 512.917 147.239 512.917 147.324V152.612C512.917 153.568 512.141 154.344 511.185 154.344H498.815C497.859 154.344 497.083 153.568 497.083 152.612ZM500.547 151.87C500.82 151.87 501.042 151.648 501.042 151.375V150.88C501.042 150.607 500.82 150.385 500.547 150.385H500.052C499.779 150.385 499.557 150.607 499.557 150.88V151.375C499.557 151.648 499.779 151.87 500.052 151.87H500.547Z" fill="white"/>
</g>
<rect x="403" y="115" width="68" height="68" rx="12" stroke="#1A237E"/>
<rect x="335" y="115" width="68" height="68" rx="12" fill="#1A237E"/>
<rect x="335" y="115" width="68" height="68" rx="12" stroke="#1A237E"/>
<g filter="url(#filter11_d_892_6589)">
<rect x="347.5" y="127.5" width="43" height="43" rx="6" fill="#121654"/>
<rect x="348" y="128" width="42" height="42" rx="5.5" stroke="#1A237E"/>
<path d="M376.453 153.206H375.37V152.031C375.37 151.774 375.163 151.567 374.907 151.567H372.417V150.855H373.5C373.756 150.855 373.963 150.648 373.963 150.392V147.608C373.963 147.352 373.756 147.145 373.5 147.145H372.417V145.969C372.417 145.713 372.209 145.506 371.953 145.506H369.464V144.794H370.546C370.802 144.794 371.01 144.587 371.01 144.33V141.547C371.01 141.291 370.802 141.083 370.546 141.083H367.454C367.198 141.083 366.99 141.291 366.99 141.547V144.33C366.99 144.587 367.198 144.794 367.454 144.794H368.536V145.506H366.047C365.791 145.506 365.583 145.713 365.583 145.969V147.145H364.5C364.244 147.145 364.037 147.352 364.037 147.608V150.392C364.037 150.648 364.244 150.855 364.5 150.855H365.583V151.567H363.093C362.837 151.567 362.63 151.774 362.63 152.031V153.206H361.547C361.291 153.206 361.083 153.413 361.083 153.67V156.453C361.083 156.709 361.291 156.917 361.547 156.917H364.64C364.896 156.917 365.104 156.709 365.104 156.453V153.67C365.104 153.413 364.896 153.206 364.64 153.206H363.557V152.494H368.536V153.206H367.454C367.198 153.206 366.99 153.413 366.99 153.67V156.453C366.99 156.709 367.198 156.917 367.454 156.917H370.546C370.802 156.917 371.01 156.709 371.01 156.453V153.67C371.01 153.413 370.802 153.206 370.546 153.206H369.464V152.494H374.443V153.206H373.36C373.104 153.206 372.896 153.413 372.896 153.67V156.453C372.896 156.709 373.104 156.917 373.36 156.917H376.453C376.709 156.917 376.917 156.709 376.917 156.453V153.67C376.917 153.413 376.709 153.206 376.453 153.206ZM366.511 150.855H367.593C367.849 150.855 368.057 150.648 368.057 150.392V147.608C368.057 147.352 367.849 147.145 367.593 147.145H366.511V146.433H371.489V147.145H370.407C370.151 147.145 369.943 147.352 369.943 147.608V150.392C369.943 150.648 370.151 150.855 370.407 150.855H371.489V151.567H366.511V150.855Z" fill="white"/>
</g>
<rect x="267" y="115" width="68" height="68" rx="12" stroke="#1A237E"/>
<rect x="199" y="115" width="68" height="68" rx="12" fill="#1A237E"/>
<rect x="199" y="115" width="68" height="68" rx="12" stroke="#1A237E"/>
<g filter="url(#filter12_d_892_6589)">
<rect x="211.5" y="127.5" width="43" height="43" rx="6" fill="#121654"/>
<rect x="212" y="128" width="42" height="42" rx="5.5" stroke="#1A237E"/>
<path d="M239.975 145.159C239.957 144.742 239.957 144.345 239.957 143.947C239.957 143.625 239.71 143.379 239.389 143.379C237.022 143.379 235.223 142.697 233.727 141.24C233.5 141.031 233.159 141.031 232.932 141.24C231.436 142.697 229.638 143.379 227.271 143.379C226.949 143.379 226.703 143.625 226.703 143.947C226.703 144.345 226.703 144.742 226.684 145.159C226.608 149.135 226.495 154.588 233.14 156.879L233.33 156.917L233.519 156.879C240.146 154.588 240.051 149.154 239.975 145.159ZM232.875 150.669C232.762 150.763 232.629 150.82 232.478 150.82H232.459C232.307 150.82 232.156 150.744 232.061 150.631L230.3 148.681L231.152 147.923L232.535 149.457L235.602 146.541L236.378 147.374L232.875 150.669Z" fill="white"/>
</g>
<rect x="131" y="115" width="68" height="68" rx="12" stroke="#1A237E"/>
<rect x="63" y="115" width="68" height="68" rx="12" fill="#1A237E"/>
<rect x="63" y="115" width="68" height="68" rx="12" stroke="#1A237E"/>
<g filter="url(#filter13_d_892_6589)">
<rect x="75.5" y="127.5" width="43" height="43" rx="6" fill="#121654"/>
<rect x="76" y="128" width="42" height="42" rx="5.5" stroke="#1A237E"/>
<path d="M95.03 156.917C94.9685 156.917 94.9061 156.904 94.8465 156.879C94.6381 156.789 94.5253 156.561 94.5801 156.341L96.1487 150.027H91.9222C91.7693 150.027 91.6261 149.951 91.5396 149.825C91.4531 149.699 91.4344 149.538 91.4896 149.396L94.5901 141.38C94.6593 141.201 94.8311 141.083 95.0228 141.083H99.2892C99.4459 141.083 99.5921 141.163 99.6777 141.294C99.7633 141.425 99.7769 141.591 99.7137 141.734L97.8777 145.902H101.509C101.678 145.902 101.835 145.994 101.916 146.143C101.997 146.292 101.991 146.473 101.899 146.616L95.4206 156.703C95.3329 156.84 95.184 156.917 95.03 156.917Z" fill="white"/>
</g>
<rect x="-5" y="115" width="68" height="68" rx="12" stroke="#1A237E"/>
<rect x="539" y="47" width="68" height="68" rx="12" fill="#1A237E"/>
<rect x="539" y="47" width="68" height="68" rx="12" stroke="#1A237E"/>
<g filter="url(#filter14_d_892_6589)">
<rect x="551.5" y="59.5" width="43" height="43" rx="6" fill="#121654"/>
<rect x="552" y="60" width="42" height="42" rx="5.5" stroke="#1A237E"/>
<path fill-rule="evenodd" clip-rule="evenodd" d="M581.028 74.8185L574.455 81.3926C574.049 81.7966 573.5 82.0234 572.928 82.0234C572.355 82.0234 571.806 81.7966 571.401 81.3926L564.827 74.8185C565.146 74.2905 565.595 73.8534 566.131 73.5495C566.668 73.2456 567.274 73.085 567.89 73.0833H577.965C578.582 73.085 579.188 73.2456 579.724 73.5495C580.261 73.8534 580.71 74.2905 581.028 74.8185ZM575.472 82.4109L581.531 76.3528C581.534 76.395 581.54 76.4357 581.545 76.4761C581.555 76.5443 581.564 76.6114 581.564 76.6824V85.3184C581.562 86.2723 581.183 87.1869 580.508 87.8615C579.834 88.5361 578.919 88.9155 577.965 88.9167H567.89C566.936 88.9155 566.021 88.5361 565.347 87.8615C564.672 87.1869 564.293 86.2723 564.292 85.3184V76.6824C564.292 76.6114 564.301 76.5443 564.31 76.4761C564.315 76.4357 564.321 76.395 564.325 76.3528L570.383 82.4109C571.058 83.0847 571.974 83.4631 572.928 83.4631C573.882 83.4631 574.797 83.0847 575.472 82.4109Z" fill="white"/>
</g>
<rect x="471" y="47" width="68" height="68" rx="12" stroke="#1A237E"/>
<rect x="403" y="47" width="68" height="68" rx="12" fill="#1A237E"/>
<rect x="403" y="47" width="68" height="68" rx="12" stroke="#1A237E"/>
<g filter="url(#filter15_d_892_6589)">
<rect x="415.5" y="59.5" width="43" height="43" rx="6" fill="#121654"/>
<rect x="416" y="60" width="42" height="42" rx="5.5" stroke="#1A237E"/>
<path d="M443.617 80.7437C444.075 78.5529 442.147 76.5783 440.013 76.9228C437.524 72.8322 431.304 74.6993 431.304 79.3597C427.449 81.4215 428.937 87.2685 433.281 87.2685H441.209C443.256 87.2685 444.917 85.6077 444.917 83.5612C444.917 82.4589 444.442 81.4408 443.617 80.7437ZM439.499 82.8248L437.522 84.802C437.243 85.0914 436.756 85.0934 436.474 84.802L434.497 82.8248C434.205 82.5381 434.205 82.0684 434.497 81.7769C434.789 81.4901 435.253 81.4901 435.545 81.7769L436.256 82.4886V79.335C436.256 78.9247 436.588 78.5935 436.998 78.5935C437.408 78.5935 437.739 78.9247 437.739 79.335V82.4886L438.451 81.7769C438.743 81.4901 439.208 81.4901 439.499 81.7769C439.791 82.0684 439.791 82.5381 439.499 82.8248Z" fill="white"/>
</g>
<rect x="335" y="47" width="68" height="68" rx="12" stroke="#1A237E"/>
<rect x="267" y="47" width="68" height="68" rx="12" fill="#1A237E"/>
<rect x="267" y="47" width="68" height="68" rx="12" stroke="#1A237E"/>
<g filter="url(#filter16_d_892_6589)">
<rect x="279.5" y="59.5" width="43" height="43" rx="6" fill="#121654"/>
<rect x="280" y="60" width="42" height="42" rx="5.5" stroke="#1A237E"/>
<path fill-rule="evenodd" clip-rule="evenodd" d="M301.316 73.0833C298.012 73.0833 294.667 73.8446 294.667 75.2999V75.3328C295.674 76.3302 297.973 76.8831 301.316 76.8831C304.659 76.8831 306.958 76.3302 307.966 75.3328V75.2999C307.966 73.8446 304.621 73.0833 301.316 73.0833ZM294.667 82.9322V79.9842C295.762 80.7296 297.75 81.316 301.316 81.316C304.883 81.316 306.871 80.7296 307.966 79.9842V82.9322C306.958 83.9296 304.659 84.4825 301.316 84.4825C297.973 84.4825 295.674 83.9296 294.667 82.9322ZM294.667 86.7001V83.7851C295.762 84.5305 297.75 85.1169 301.316 85.1169C304.883 85.1169 306.871 84.5305 307.966 83.7851V86.7001C307.966 88.1555 304.621 88.9167 301.316 88.9167C298.012 88.9167 294.667 88.1555 294.667 86.7001ZM294.667 79.1313V76.1833C295.762 76.9287 297.75 77.5151 301.316 77.5151C304.883 77.5151 306.871 76.9287 307.966 76.1833V79.1313C306.958 80.1287 304.659 80.6816 301.316 80.6816C297.973 80.6816 295.674 80.1287 294.667 79.1313Z" fill="white"/>
</g>
<rect x="199" y="47" width="68" height="68" rx="12" stroke="#1A237E"/>
<rect x="131" y="47" width="68" height="68" rx="12" fill="#1A237E"/>
<rect x="131" y="47" width="68" height="68" rx="12" stroke="#1A237E"/>
<g filter="url(#filter17_d_892_6589)">
<rect x="143.5" y="59.5" width="43" height="43" rx="6" fill="#121654"/>
<rect x="144" y="60" width="42" height="42" rx="5.5" stroke="#1A237E"/>
<path d="M170.278 73.0833C168.821 73.0833 167.639 74.2649 167.639 75.7222C167.639 76.95 168.482 77.9733 169.618 78.2676V79.6805C169.618 80.0449 169.322 80.3402 168.958 80.3402H162.361C161.615 80.3402 160.935 80.5972 160.382 81.0154V78.2684C161.518 77.9733 162.361 76.9502 162.361 75.7224C162.361 74.2649 161.18 73.0833 159.722 73.0833C158.265 73.0833 157.083 74.2649 157.083 75.7222C157.083 76.95 157.926 77.9733 159.063 78.267V83.7328C157.926 84.0266 157.083 85.0496 157.083 86.2777C157.083 87.7351 158.265 88.9167 159.722 88.9167C161.179 88.9167 162.361 87.7351 162.361 86.2779C162.361 85.0498 161.518 84.0267 160.382 83.733V83.6388C160.382 82.5457 161.268 81.6597 162.361 81.6597H168.958C170.051 81.6597 170.938 80.7738 170.938 79.6805V78.268C172.073 77.9735 172.917 76.9504 172.917 75.7222C172.917 74.2649 171.735 73.0833 170.278 73.0833Z" fill="white"/>
</g>
<rect x="63" y="47" width="68" height="68" rx="12" stroke="#1A237E"/>
<rect x="-5" y="47" width="68" height="68" rx="12" fill="#1A237E"/>
<rect x="-5" y="47" width="68" height="68" rx="12" stroke="#1A237E"/>
<g filter="url(#filter18_d_892_6589)">
<rect x="7.5" y="59.5" width="43" height="43" rx="6" fill="#121654"/>
<rect x="8" y="60" width="42" height="42" rx="5.5" stroke="#1A237E"/>
<path fill-rule="evenodd" clip-rule="evenodd" d="M29.833 73.4279L36.5721 80.167C36.7927 80.3881 36.9167 80.6876 36.9167 81C36.9167 81.3123 36.7927 81.6119 36.5721 81.833L29.833 88.5721C29.6119 88.7927 29.3123 88.9167 29 88.9167C28.6876 88.9167 28.3881 88.7927 28.167 88.5721L21.4279 81.833C21.2073 81.6119 21.0833 81.3123 21.0833 81C21.0833 80.6876 21.2073 80.3881 21.4279 80.167L28.167 73.4279C28.3881 73.2073 28.6876 73.0833 29 73.0833C29.3123 73.0833 29.6119 73.2073 29.833 73.4279ZM22.1943 81L29 87.8059L35.8059 81L29 74.1942L22.1943 81ZM24.4762 81L29 76.4762L33.5238 81L29 85.5238L24.4762 81Z" fill="white"/>
</g>
<rect x="539" y="-21" width="68" height="68" rx="12" stroke="#1A237E"/>
<rect x="471" y="-21" width="68" height="68" rx="12" fill="#1A237E"/>
<rect x="471" y="-21" width="68" height="68" rx="12" stroke="#1A237E"/>
<g filter="url(#filter19_d_892_6589)">
<rect x="483.5" y="-8.5" width="43" height="43" rx="6" fill="#121654"/>
<rect x="484" y="-8" width="42" height="42" rx="5.5" stroke="#1A237E"/>
<path d="M505 5.08333C500.635 5.08333 497.083 8.63482 497.083 13C497.083 17.3652 500.635 20.9167 505 20.9167C509.365 20.9167 512.917 17.3652 512.917 13C512.917 8.63482 509.365 5.08333 505 5.08333ZM505 19.5972C503.203 19.5972 501.573 18.873 500.382 17.7035V16.6285C500.382 16.3147 500.522 16.1127 500.685 15.8788C500.852 15.6383 501.042 15.3654 501.042 14.9792C501.042 14.35 500.474 14.2863 500.168 14.2521C499.95 14.2276 499.744 14.2044 499.626 14.0862C499.536 13.9967 499.446 13.834 499.352 13.662C499.164 13.3198 498.909 12.8674 498.424 12.5902C498.637 9.14359 501.5 6.40278 505 6.40278C505.181 6.40278 505.359 6.41559 505.537 6.42997C505.5 6.45368 505.456 6.4698 505.427 6.49942C505.362 6.56353 505.327 6.65148 505.33 6.7423C505.333 6.83282 505.373 6.91851 505.44 6.97906C505.559 7.08439 505.582 7.13755 505.586 7.13755C505.579 7.15332 505.518 7.25673 505.181 7.42811C504.623 7.71061 503.98 8.28884 503.884 8.8906C503.84 9.16375 503.92 9.41727 504.107 9.60477C504.169 9.66661 504.253 9.7014 504.34 9.7014C504.798 9.7014 505.152 9.53197 505.495 9.36832C505.846 9.20046 506.178 9.04166 506.649 9.04166C507.944 9.04166 508.958 9.33158 508.958 9.70137C508.958 9.83698 508.916 9.87854 508.9 9.894C508.738 10.0534 508.186 10.0432 507.701 10.0357C507.573 10.0335 507.441 10.0312 507.309 10.0312C506.861 10.0312 506.722 9.96581 506.562 9.8898C506.375 9.80154 506.163 9.70134 505.66 9.70134C505.116 9.70134 504.105 9.79959 503.447 10.4577C502.909 10.9957 502.966 11.6393 503.003 12.0648C503.012 12.1627 503.021 12.2555 503.021 12.3402C503.021 12.9899 503.685 13.3298 504.34 13.3298C505.349 13.3298 506.22 13.5179 506.319 13.6597C506.319 14.0289 506.429 14.2811 506.518 14.4833C506.591 14.6525 506.649 14.7858 506.649 14.9791C506.649 15.1286 506.625 15.1605 506.559 15.2455C506.433 15.4092 506.319 15.5873 506.319 15.9687C506.319 16.6629 506.988 17.4244 507.064 17.5091C507.127 17.5794 507.217 17.618 507.309 17.618C507.336 17.618 507.364 17.6148 507.391 17.6077C507.585 17.5578 509.288 17.0891 509.288 15.9687C509.288 15.6176 509.397 15.5229 509.563 15.3792C509.725 15.2381 509.948 15.0452 509.948 14.6493C509.948 14.3848 510.417 13.7022 510.852 13.2213C510.914 13.1533 510.944 13.0625 510.936 12.971C510.928 12.8795 510.882 12.7954 510.81 12.7393C510.554 12.5406 509.845 11.8934 509.608 11.2656C509.743 11.3358 509.911 11.4502 510.045 11.5839C510.154 11.6944 510.302 11.7472 510.469 11.7404C510.736 11.7252 511.054 11.5141 511.354 11.2508C511.508 11.8089 511.597 12.3937 511.597 13C511.597 16.6378 508.638 19.5972 505 19.5972Z" fill="white"/>
</g>
<rect x="403" y="-21" width="68" height="68" rx="12" stroke="#1A237E"/>
<rect x="335" y="-21" width="68" height="68" rx="12" fill="#1A237E"/>
<rect x="335" y="-21" width="68" height="68" rx="12" stroke="#1A237E"/>
<g filter="url(#filter20_d_892_6589)">
<rect x="347.5" y="-8.5" width="43" height="43" rx="6" fill="#121654"/>
<rect x="348" y="-8" width="42" height="42" rx="5.5" stroke="#1A237E"/>
<path d="M375.032 12.623H373.901V9.60714C373.901 8.77401 373.226 8.09919 372.393 8.09919H369.377V6.96824C369.377 5.92776 368.533 5.08333 367.492 5.08333C366.452 5.08333 365.607 5.92776 365.607 6.96824V8.09919H362.591C361.758 8.09919 361.091 8.77398 361.091 9.60714L361.087 12.4722H362.214C363.338 12.4722 364.25 13.3845 364.25 14.5079C364.25 15.6314 363.338 16.5437 362.214 16.5437H361.087L361.083 19.4087C361.083 20.2419 361.758 20.9167 362.591 20.9167H365.456V19.7857C365.456 18.6623 366.369 17.75 367.492 17.75C368.616 17.75 369.528 18.6623 369.528 19.7857V20.9167H372.393C373.226 20.9167 373.901 20.2419 373.901 19.4087V16.3929H375.032C376.072 16.3929 376.917 15.5484 376.917 14.5079C376.917 13.4675 376.072 12.623 375.032 12.623Z" fill="white"/>
</g>
<rect x="267" y="-21" width="68" height="68" rx="12" stroke="#1A237E"/>
<rect x="199" y="-21" width="68" height="68" rx="12" fill="#1A237E"/>
<rect x="199" y="-21" width="68" height="68" rx="12" stroke="#1A237E"/>
<g filter="url(#filter21_d_892_6589)">
<rect x="211.5" y="-8.5" width="43" height="43" rx="6" fill="#121654"/>
<rect x="212" y="-8" width="42" height="42" rx="5.5" stroke="#1A237E"/>
<path fill-rule="evenodd" clip-rule="evenodd" d="M237.354 9.04166C237.354 11.2278 235.582 13 233.396 13C231.21 13 229.438 11.2278 229.438 9.04166C229.438 6.85554 231.21 5.08333 233.396 5.08333C235.582 5.08333 237.354 6.85554 237.354 9.04166ZM227.458 20.2569C227.462 16.9793 230.118 14.3231 233.396 14.3194C236.674 14.3231 239.33 16.9793 239.333 20.2569C239.333 20.6213 239.038 20.9167 238.674 20.9167H228.118C227.754 20.9167 227.458 20.6213 227.458 20.2569Z" fill="white"/>
</g>
<rect x="131" y="-21" width="68" height="68" rx="12" stroke="#1A237E"/>
<rect x="63" y="-21" width="68" height="68" rx="12" fill="#1A237E"/>
<rect x="63" y="-21" width="68" height="68" rx="12" stroke="#1A237E"/>
<g filter="url(#filter22_d_892_6589)">
<rect x="75.5" y="-8.5" width="43" height="43" rx="6" fill="#121654"/>
<rect x="76" y="-8" width="42" height="42" rx="5.5" stroke="#1A237E"/>
<path d="M99.6389 6.89756C99.6389 8.32454 97.7785 10.0979 96.8516 10.8414C96.7065 10.9577 96.5262 11.021 96.3403 11.021C96.1544 11.021 95.974 10.9577 95.829 10.8414C94.9021 10.0972 93.0417 8.32454 93.0417 6.89756C93.0209 6.43854 93.1827 5.98996 93.4918 5.64997C93.8009 5.30997 94.2321 5.10623 94.691 5.08333C95.1499 5.10623 95.5811 5.30997 95.8902 5.64997C96.1992 5.98996 96.3611 6.43854 96.3403 6.89756C96.3195 6.43854 96.4813 5.98996 96.7904 5.64997C97.0995 5.30997 97.5307 5.10623 97.9896 5.08333C98.4485 5.10623 98.8797 5.30997 99.1888 5.64997C99.4979 5.98996 99.6597 6.43854 99.6389 6.89756ZM104.48 13.2309L99.4001 18.7785C98.7816 19.4529 98.0296 19.9912 97.1919 20.3593C96.3541 20.7274 95.449 20.9172 94.534 20.9167H91.7222C91.0224 20.9167 90.3511 20.6386 89.8563 20.1437C89.3614 19.6489 89.0833 18.9776 89.0833 18.2778V14.9792C89.0833 14.2793 89.3614 13.6081 89.8563 13.1132C90.3511 12.6183 91.0224 12.3403 91.7222 12.3403H96.8595C97.0776 12.3407 97.2928 12.3899 97.4894 12.4842C97.686 12.5785 97.8591 12.7155 97.996 12.8853C98.1328 13.0551 98.23 13.2533 98.2804 13.4655C98.3307 13.6777 98.333 13.8984 98.2871 14.1116C98.2157 14.4098 98.0548 14.6791 97.8261 14.8833C97.5973 15.0875 97.3116 15.217 97.0073 15.2543L94.2608 15.6389C94.0877 15.6637 93.9316 15.7563 93.8267 15.8962C93.7218 16.0361 93.6767 16.2119 93.7014 16.385C93.7261 16.5582 93.8185 16.7146 93.9585 16.8196C94.0984 16.9246 94.2743 16.9698 94.4475 16.9451L97.2527 16.5493C97.9134 16.452 98.5173 16.1212 98.9551 15.6169C99.3929 15.1125 99.6355 14.4681 99.6389 13.8002C99.6357 13.659 99.6213 13.5183 99.596 13.3793L101.933 10.914C102.241 10.5803 102.669 10.3821 103.122 10.3627C103.576 10.3433 104.019 10.5042 104.355 10.8104C104.688 11.1163 104.889 11.5412 104.912 11.9933C104.936 12.4455 104.78 12.8888 104.48 13.2276V13.2309Z" fill="white"/>
</g>
<rect x="-5" y="-21" width="68" height="68" rx="12" stroke="#1A237E"/>
<defs>
<filter id="filter0_d_892_6589" x="413.5" y="330.5" width="47" height="47" filterUnits="userSpaceOnUse" color-interpolation-filters="sRGB">
<feFlood flood-opacity="0" result="BackgroundImageFix"/>
<feColorMatrix in="SourceAlpha" type="matrix" values="0 0 0 0 0 0 0 0 0 0 0 0 0 0 0 0 0 0 127 0" result="hardAlpha"/>
<feOffset dy="1"/>
<feGaussianBlur stdDeviation="1"/>
<feComposite in2="hardAlpha" operator="out"/>
<feColorMatrix type="matrix" values="0 0 0 0 0 0 0 0 0 0 0 0 0 0 0 0 0 0 0.05 0"/>
<feBlend mode="normal" in2="BackgroundImageFix" result="effect1_dropShadow_892_6589"/>
<feBlend mode="normal" in="SourceGraphic" in2="effect1_dropShadow_892_6589" result="shape"/>
</filter>
<filter id="filter1_d_892_6589" x="277.5" y="330.5" width="47" height="47" filterUnits="userSpaceOnUse" color-interpolation-filters="sRGB">
<feFlood flood-opacity="0" result="BackgroundImageFix"/>
<feColorMatrix in="SourceAlpha" type="matrix" values="0 0 0 0 0 0 0 0 0 0 0 0 0 0 0 0 0 0 127 0" result="hardAlpha"/>
<feOffset dy="1"/>
<feGaussianBlur stdDeviation="1"/>
<feComposite in2="hardAlpha" operator="out"/>
<feColorMatrix type="matrix" values="0 0 0 0 0 0 0 0 0 0 0 0 0 0 0 0 0 0 0.05 0"/>
<feBlend mode="normal" in2="BackgroundImageFix" result="effect1_dropShadow_892_6589"/>
<feBlend mode="normal" in="SourceGraphic" in2="effect1_dropShadow_892_6589" result="shape"/>
</filter>
<filter id="filter2_d_892_6589" x="481.5" y="262.5" width="47" height="47" filterUnits="userSpaceOnUse" color-interpolation-filters="sRGB">
<feFlood flood-opacity="0" result="BackgroundImageFix"/>
<feColorMatrix in="SourceAlpha" type="matrix" values="0 0 0 0 0 0 0 0 0 0 0 0 0 0 0 0 0 0 127 0" result="hardAlpha"/>
<feOffset dy="1"/>
<feGaussianBlur stdDeviation="1"/>
<feComposite in2="hardAlpha" operator="out"/>
<feColorMatrix type="matrix" values="0 0 0 0 0 0 0 0 0 0 0 0 0 0 0 0 0 0 0.05 0"/>
<feBlend mode="normal" in2="BackgroundImageFix" result="effect1_dropShadow_892_6589"/>
<feBlend mode="normal" in="SourceGraphic" in2="effect1_dropShadow_892_6589" result="shape"/>
</filter>
<filter id="filter3_d_892_6589" x="345.5" y="262.5" width="47" height="47" filterUnits="userSpaceOnUse" color-interpolation-filters="sRGB">
<feFlood flood-opacity="0" result="BackgroundImageFix"/>
<feColorMatrix in="SourceAlpha" type="matrix" values="0 0 0 0 0 0 0 0 0 0 0 0 0 0 0 0 0 0 127 0" result="hardAlpha"/>
<feOffset dy="1"/>
<feGaussianBlur stdDeviation="1"/>
<feComposite in2="hardAlpha" operator="out"/>
<feColorMatrix type="matrix" values="0 0 0 0 0 0 0 0 0 0 0 0 0 0 0 0 0 0 0.05 0"/>
<feBlend mode="normal" in2="BackgroundImageFix" result="effect1_dropShadow_892_6589"/>
<feBlend mode="normal" in="SourceGraphic" in2="effect1_dropShadow_892_6589" result="shape"/>
</filter>
<filter id="filter4_d_892_6589" x="209.5" y="262.5" width="47" height="47" filterUnits="userSpaceOnUse" color-interpolation-filters="sRGB">
<feFlood flood-opacity="0" result="BackgroundImageFix"/>
<feColorMatrix in="SourceAlpha" type="matrix" values="0 0 0 0 0 0 0 0 0 0 0 0 0 0 0 0 0 0 127 0" result="hardAlpha"/>
<feOffset dy="1"/>
<feGaussianBlur stdDeviation="1"/>
<feComposite in2="hardAlpha" operator="out"/>
<feColorMatrix type="matrix" values="0 0 0 0 0 0 0 0 0 0 0 0 0 0 0 0 0 0 0.05 0"/>
<feBlend mode="normal" in2="BackgroundImageFix" result="effect1_dropShadow_892_6589"/>
<feBlend mode="normal" in="SourceGraphic" in2="effect1_dropShadow_892_6589" result="shape"/>
</filter>
<filter id="filter5_d_892_6589" x="73.5" y="262.5" width="47" height="47" filterUnits="userSpaceOnUse" color-interpolation-filters="sRGB">
<feFlood flood-opacity="0" result="BackgroundImageFix"/>
<feColorMatrix in="SourceAlpha" type="matrix" values="0 0 0 0 0 0 0 0 0 0 0 0 0 0 0 0 0 0 127 0" result="hardAlpha"/>
<feOffset dy="1"/>
<feGaussianBlur stdDeviation="1"/>
<feComposite in2="hardAlpha" operator="out"/>
<feColorMatrix type="matrix" values="0 0 0 0 0 0 0 0 0 0 0 0 0 0 0 0 0 0 0.05 0"/>
<feBlend mode="normal" in2="BackgroundImageFix" result="effect1_dropShadow_892_6589"/>
<feBlend mode="normal" in="SourceGraphic" in2="effect1_dropShadow_892_6589" result="shape"/>
</filter>
<filter id="filter6_d_892_6589" x="413.5" y="194.5" width="47" height="47" filterUnits="userSpaceOnUse" color-interpolation-filters="sRGB">
<feFlood flood-opacity="0" result="BackgroundImageFix"/>
<feColorMatrix in="SourceAlpha" type="matrix" values="0 0 0 0 0 0 0 0 0 0 0 0 0 0 0 0 0 0 127 0" result="hardAlpha"/>
<feOffset dy="1"/>
<feGaussianBlur stdDeviation="1"/>
<feComposite in2="hardAlpha" operator="out"/>
<feColorMatrix type="matrix" values="0 0 0 0 0 0 0 0 0 0 0 0 0 0 0 0 0 0 0.05 0"/>
<feBlend mode="normal" in2="BackgroundImageFix" result="effect1_dropShadow_892_6589"/>
<feBlend mode="normal" in="SourceGraphic" in2="effect1_dropShadow_892_6589" result="shape"/>
</filter>
<filter id="filter7_d_892_6589" x="277.5" y="194.5" width="47" height="47" filterUnits="userSpaceOnUse" color-interpolation-filters="sRGB">
<feFlood flood-opacity="0" result="BackgroundImageFix"/>
<feColorMatrix in="SourceAlpha" type="matrix" values="0 0 0 0 0 0 0 0 0 0 0 0 0 0 0 0 0 0 127 0" result="hardAlpha"/>
<feOffset dy="1"/>
<feGaussianBlur stdDeviation="1"/>
<feComposite in2="hardAlpha" operator="out"/>
<feColorMatrix type="matrix" values="0 0 0 0 0 0 0 0 0 0 0 0 0 0 0 0 0 0 0.05 0"/>
<feBlend mode="normal" in2="BackgroundImageFix" result="effect1_dropShadow_892_6589"/>
<feBlend mode="normal" in="SourceGraphic" in2="effect1_dropShadow_892_6589" result="shape"/>
</filter>
<filter id="filter8_d_892_6589" x="141.5" y="194.5" width="47" height="47" filterUnits="userSpaceOnUse" color-interpolation-filters="sRGB">
<feFlood flood-opacity="0" result="BackgroundImageFix"/>
<feColorMatrix in="SourceAlpha" type="matrix" values="0 0 0 0 0 0 0 0 0 0 0 0 0 0 0 0 0 0 127 0" result="hardAlpha"/>
<feOffset dy="1"/>
<feGaussianBlur stdDeviation="1"/>
<feComposite in2="hardAlpha" operator="out"/>
<feColorMatrix type="matrix" values="0 0 0 0 0 0 0 0 0 0 0 0 0 0 0 0 0 0 0.05 0"/>
<feBlend mode="normal" in2="BackgroundImageFix" result="effect1_dropShadow_892_6589"/>
<feBlend mode="normal" in="SourceGraphic" in2="effect1_dropShadow_892_6589" result="shape"/>
</filter>
<filter id="filter9_d_892_6589" x="5.39999" y="194.4" width="47.2" height="47.2" filterUnits="userSpaceOnUse" color-interpolation-filters="sRGB">
<feFlood flood-opacity="0" result="BackgroundImageFix"/>
<feColorMatrix in="SourceAlpha" type="matrix" values="0 0 0 0 0 0 0 0 0 0 0 0 0 0 0 0 0 0 127 0" result="hardAlpha"/>
<feOffset dy="1"/>
<feGaussianBlur stdDeviation="1"/>
<feComposite in2="hardAlpha" operator="out"/>
<feColorMatrix type="matrix" values="0 0 0 0 0 0 0 0 0 0 0 0 0 0 0 0 0 0 0.05 0"/>
<feBlend mode="normal" in2="BackgroundImageFix" result="effect1_dropShadow_892_6589"/>
<feBlend mode="normal" in="SourceGraphic" in2="effect1_dropShadow_892_6589" result="shape"/>
</filter>
<filter id="filter10_d_892_6589" x="481.5" y="126.5" width="47" height="47" filterUnits="userSpaceOnUse" color-interpolation-filters="sRGB">
<feFlood flood-opacity="0" result="BackgroundImageFix"/>
<feColorMatrix in="SourceAlpha" type="matrix" values="0 0 0 0 0 0 0 0 0 0 0 0 0 0 0 0 0 0 127 0" result="hardAlpha"/>
<feOffset dy="1"/>
<feGaussianBlur stdDeviation="1"/>
<feComposite in2="hardAlpha" operator="out"/>
<feColorMatrix type="matrix" values="0 0 0 0 0 0 0 0 0 0 0 0 0 0 0 0 0 0 0.05 0"/>
<feBlend mode="normal" in2="BackgroundImageFix" result="effect1_dropShadow_892_6589"/>
<feBlend mode="normal" in="SourceGraphic" in2="effect1_dropShadow_892_6589" result="shape"/>
</filter>
<filter id="filter11_d_892_6589" x="345.5" y="126.5" width="47" height="47" filterUnits="userSpaceOnUse" color-interpolation-filters="sRGB">
<feFlood flood-opacity="0" result="BackgroundImageFix"/>
<feColorMatrix in="SourceAlpha" type="matrix" values="0 0 0 0 0 0 0 0 0 0 0 0 0 0 0 0 0 0 127 0" result="hardAlpha"/>
<feOffset dy="1"/>
<feGaussianBlur stdDeviation="1"/>
<feComposite in2="hardAlpha" operator="out"/>
<feColorMatrix type="matrix" values="0 0 0 0 0 0 0 0 0 0 0 0 0 0 0 0 0 0 0.05 0"/>
<feBlend mode="normal" in2="BackgroundImageFix" result="effect1_dropShadow_892_6589"/>
<feBlend mode="normal" in="SourceGraphic" in2="effect1_dropShadow_892_6589" result="shape"/>
</filter>
<filter id="filter12_d_892_6589" x="209.5" y="126.5" width="47" height="47" filterUnits="userSpaceOnUse" color-interpolation-filters="sRGB">
<feFlood flood-opacity="0" result="BackgroundImageFix"/>
<feColorMatrix in="SourceAlpha" type="matrix" values="0 0 0 0 0 0 0 0 0 0 0 0 0 0 0 0 0 0 127 0" result="hardAlpha"/>
<feOffset dy="1"/>
<feGaussianBlur stdDeviation="1"/>
<feComposite in2="hardAlpha" operator="out"/>
<feColorMatrix type="matrix" values="0 0 0 0 0 0 0 0 0 0 0 0 0 0 0 0 0 0 0.05 0"/>
<feBlend mode="normal" in2="BackgroundImageFix" result="effect1_dropShadow_892_6589"/>
<feBlend mode="normal" in="SourceGraphic" in2="effect1_dropShadow_892_6589" result="shape"/>
</filter>
<filter id="filter13_d_892_6589" x="73.5" y="126.5" width="47" height="47" filterUnits="userSpaceOnUse" color-interpolation-filters="sRGB">
<feFlood flood-opacity="0" result="BackgroundImageFix"/>
<feColorMatrix in="SourceAlpha" type="matrix" values="0 0 0 0 0 0 0 0 0 0 0 0 0 0 0 0 0 0 127 0" result="hardAlpha"/>
<feOffset dy="1"/>
<feGaussianBlur stdDeviation="1"/>
<feComposite in2="hardAlpha" operator="out"/>
<feColorMatrix type="matrix" values="0 0 0 0 0 0 0 0 0 0 0 0 0 0 0 0 0 0 0.05 0"/>
<feBlend mode="normal" in2="BackgroundImageFix" result="effect1_dropShadow_892_6589"/>
<feBlend mode="normal" in="SourceGraphic" in2="effect1_dropShadow_892_6589" result="shape"/>
</filter>
<filter id="filter14_d_892_6589" x="549.5" y="58.5" width="47" height="47" filterUnits="userSpaceOnUse" color-interpolation-filters="sRGB">
<feFlood flood-opacity="0" result="BackgroundImageFix"/>
<feColorMatrix in="SourceAlpha" type="matrix" values="0 0 0 0 0 0 0 0 0 0 0 0 0 0 0 0 0 0 127 0" result="hardAlpha"/>
<feOffset dy="1"/>
<feGaussianBlur stdDeviation="1"/>
<feComposite in2="hardAlpha" operator="out"/>
<feColorMatrix type="matrix" values="0 0 0 0 0 0 0 0 0 0 0 0 0 0 0 0 0 0 0.05 0"/>
<feBlend mode="normal" in2="BackgroundImageFix" result="effect1_dropShadow_892_6589"/>
<feBlend mode="normal" in="SourceGraphic" in2="effect1_dropShadow_892_6589" result="shape"/>
</filter>
<filter id="filter15_d_892_6589" x="413.5" y="58.5" width="47" height="47" filterUnits="userSpaceOnUse" color-interpolation-filters="sRGB">
<feFlood flood-opacity="0" result="BackgroundImageFix"/>
<feColorMatrix in="SourceAlpha" type="matrix" values="0 0 0 0 0 0 0 0 0 0 0 0 0 0 0 0 0 0 127 0" result="hardAlpha"/>
<feOffset dy="1"/>
<feGaussianBlur stdDeviation="1"/>
<feComposite in2="hardAlpha" operator="out"/>
<feColorMatrix type="matrix" values="0 0 0 0 0 0 0 0 0 0 0 0 0 0 0 0 0 0 0.05 0"/>
<feBlend mode="normal" in2="BackgroundImageFix" result="effect1_dropShadow_892_6589"/>
<feBlend mode="normal" in="SourceGraphic" in2="effect1_dropShadow_892_6589" result="shape"/>
</filter>
<filter id="filter16_d_892_6589" x="277.5" y="58.5" width="47" height="47" filterUnits="userSpaceOnUse" color-interpolation-filters="sRGB">
<feFlood flood-opacity="0" result="BackgroundImageFix"/>
<feColorMatrix in="SourceAlpha" type="matrix" values="0 0 0 0 0 0 0 0 0 0 0 0 0 0 0 0 0 0 127 0" result="hardAlpha"/>
<feOffset dy="1"/>
<feGaussianBlur stdDeviation="1"/>
<feComposite in2="hardAlpha" operator="out"/>
<feColorMatrix type="matrix" values="0 0 0 0 0 0 0 0 0 0 0 0 0 0 0 0 0 0 0.05 0"/>
<feBlend mode="normal" in2="BackgroundImageFix" result="effect1_dropShadow_892_6589"/>
<feBlend mode="normal" in="SourceGraphic" in2="effect1_dropShadow_892_6589" result="shape"/>
</filter>
<filter id="filter17_d_892_6589" x="141.5" y="58.5" width="47" height="47" filterUnits="userSpaceOnUse" color-interpolation-filters="sRGB">
<feFlood flood-opacity="0" result="BackgroundImageFix"/>
<feColorMatrix in="SourceAlpha" type="matrix" values="0 0 0 0 0 0 0 0 0 0 0 0 0 0 0 0 0 0 127 0" result="hardAlpha"/>
<feOffset dy="1"/>
<feGaussianBlur stdDeviation="1"/>
<feComposite in2="hardAlpha" operator="out"/>
<feColorMatrix type="matrix" values="0 0 0 0 0 0 0 0 0 0 0 0 0 0 0 0 0 0 0.05 0"/>
<feBlend mode="normal" in2="BackgroundImageFix" result="effect1_dropShadow_892_6589"/>
<feBlend mode="normal" in="SourceGraphic" in2="effect1_dropShadow_892_6589" result="shape"/>
</filter>
<filter id="filter18_d_892_6589" x="5.5" y="58.5" width="47" height="47" filterUnits="userSpaceOnUse" color-interpolation-filters="sRGB">
<feFlood flood-opacity="0" result="BackgroundImageFix"/>
<feColorMatrix in="SourceAlpha" type="matrix" values="0 0 0 0 0 0 0 0 0 0 0 0 0 0 0 0 0 0 127 0" result="hardAlpha"/>
<feOffset dy="1"/>
<feGaussianBlur stdDeviation="1"/>
<feComposite in2="hardAlpha" operator="out"/>
<feColorMatrix type="matrix" values="0 0 0 0 0 0 0 0 0 0 0 0 0 0 0 0 0 0 0.05 0"/>
<feBlend mode="normal" in2="BackgroundImageFix" result="effect1_dropShadow_892_6589"/>
<feBlend mode="normal" in="SourceGraphic" in2="effect1_dropShadow_892_6589" result="shape"/>
</filter>
<filter id="filter19_d_892_6589" x="481.5" y="-9.5" width="47" height="47" filterUnits="userSpaceOnUse" color-interpolation-filters="sRGB">
<feFlood flood-opacity="0" result="BackgroundImageFix"/>
<feColorMatrix in="SourceAlpha" type="matrix" values="0 0 0 0 0 0 0 0 0 0 0 0 0 0 0 0 0 0 127 0" result="hardAlpha"/>
<feOffset dy="1"/>
<feGaussianBlur stdDeviation="1"/>
<feComposite in2="hardAlpha" operator="out"/>
<feColorMatrix type="matrix" values="0 0 0 0 0 0 0 0 0 0 0 0 0 0 0 0 0 0 0.05 0"/>
<feBlend mode="normal" in2="BackgroundImageFix" result="effect1_dropShadow_892_6589"/>
<feBlend mode="normal" in="SourceGraphic" in2="effect1_dropShadow_892_6589" result="shape"/>
</filter>
<filter id="filter20_d_892_6589" x="345.5" y="-9.5" width="47" height="47" filterUnits="userSpaceOnUse" color-interpolation-filters="sRGB">
<feFlood flood-opacity="0" result="BackgroundImageFix"/>
<feColorMatrix in="SourceAlpha" type="matrix" values="0 0 0 0 0 0 0 0 0 0 0 0 0 0 0 0 0 0 127 0" result="hardAlpha"/>
<feOffset dy="1"/>
<feGaussianBlur stdDeviation="1"/>
<feComposite in2="hardAlpha" operator="out"/>
<feColorMatrix type="matrix" values="0 0 0 0 0 0 0 0 0 0 0 0 0 0 0 0 0 0 0.05 0"/>
<feBlend mode="normal" in2="BackgroundImageFix" result="effect1_dropShadow_892_6589"/>
<feBlend mode="normal" in="SourceGraphic" in2="effect1_dropShadow_892_6589" result="shape"/>
</filter>
<filter id="filter21_d_892_6589" x="209.5" y="-9.5" width="47" height="47" filterUnits="userSpaceOnUse" color-interpolation-filters="sRGB">
<feFlood flood-opacity="0" result="BackgroundImageFix"/>
<feColorMatrix in="SourceAlpha" type="matrix" values="0 0 0 0 0 0 0 0 0 0 0 0 0 0 0 0 0 0 127 0" result="hardAlpha"/>
<feOffset dy="1"/>
<feGaussianBlur stdDeviation="1"/>
<feComposite in2="hardAlpha" operator="out"/>
<feColorMatrix type="matrix" values="0 0 0 0 0 0 0 0 0 0 0 0 0 0 0 0 0 0 0.05 0"/>
<feBlend mode="normal" in2="BackgroundImageFix" result="effect1_dropShadow_892_6589"/>
<feBlend mode="normal" in="SourceGraphic" in2="effect1_dropShadow_892_6589" result="shape"/>
</filter>
<filter id="filter22_d_892_6589" x="73.5" y="-9.5" width="47" height="47" filterUnits="userSpaceOnUse" color-interpolation-filters="sRGB">
<feFlood flood-opacity="0" result="BackgroundImageFix"/>
<feColorMatrix in="SourceAlpha" type="matrix" values="0 0 0 0 0 0 0 0 0 0 0 0 0 0 0 0 0 0 127 0" result="hardAlpha"/>
<feOffset dy="1"/>
<feGaussianBlur stdDeviation="1"/>
<feComposite in2="hardAlpha" operator="out"/>
<feColorMatrix type="matrix" values="0 0 0 0 0 0 0 0 0 0 0 0 0 0 0 0 0 0 0.05 0"/>
<feBlend mode="normal" in2="BackgroundImageFix" result="effect1_dropShadow_892_6589"/>
<feBlend mode="normal" in="SourceGraphic" in2="effect1_dropShadow_892_6589" result="shape"/>
</filter>
</defs>
</svg>
