<svg width="1440" height="860" viewBox="0 0 1440 860" fill="none" xmlns="http://www.w3.org/2000/svg">
<rect x="1380" y="826" width="60" height="60" rx="12" stroke="#1A237E"/>
<rect x="1320" y="826" width="60" height="60" rx="12" stroke="#1A237E"/>
<rect x="1260" y="826" width="60" height="60" rx="12" stroke="#1A237E"/>
<rect x="1200" y="826" width="60" height="60" rx="12" stroke="#1A237E"/>
<rect x="1140" y="826" width="60" height="60" rx="12" stroke="#1A237E"/>
<rect x="1080" y="826" width="60" height="60" rx="12" stroke="#1A237E"/>
<rect x="1020" y="826" width="60" height="60" rx="12" stroke="#1A237E"/>
<rect x="960" y="826" width="60" height="60" rx="12" stroke="#1A237E"/>
<rect x="900" y="826" width="60" height="60" rx="12" stroke="#1A237E"/>
<rect x="840" y="826" width="60" height="60" rx="12" stroke="#1A237E"/>
<rect x="780" y="826" width="60" height="60" rx="12" stroke="#1A237E"/>
<rect x="720" y="826" width="60" height="60" rx="12" stroke="#1A237E"/>
<rect x="660" y="826" width="60" height="60" rx="12" stroke="#1A237E"/>
<rect x="600" y="826" width="60" height="60" rx="12" stroke="#1A237E"/>
<rect x="540" y="826" width="60" height="60" rx="12" stroke="#1A237E"/>
<rect x="480" y="826" width="60" height="60" rx="12" stroke="#1A237E"/>
<rect x="420" y="826" width="60" height="60" rx="12" stroke="#1A237E"/>
<rect x="360" y="826" width="60" height="60" rx="12" stroke="#1A237E"/>
<rect x="300" y="826" width="60" height="60" rx="12" stroke="#1A237E"/>
<rect x="240" y="826" width="60" height="60" rx="12" stroke="#1A237E"/>
<rect x="180" y="826" width="60" height="60" rx="12" stroke="#1A237E"/>
<rect x="120" y="826" width="60" height="60" rx="12" stroke="#1A237E"/>
<rect x="60" y="826" width="60" height="60" rx="12" stroke="#1A237E"/>
<rect y="826" width="60" height="60" rx="12" stroke="#1A237E"/>
<rect x="1380" y="766" width="60" height="60" rx="12" stroke="#1A237E"/>
<rect x="1320" y="766" width="60" height="60" rx="12" stroke="#1A237E"/>
<rect x="1260" y="766" width="60" height="60" rx="12" stroke="#1A237E"/>
<rect x="1200" y="766" width="60" height="60" rx="12" stroke="#1A237E"/>
<rect x="1140" y="766" width="60" height="60" rx="12" stroke="#1A237E"/>
<rect x="1080" y="766" width="60" height="60" rx="12" stroke="#1A237E"/>
<rect x="1020" y="766" width="60" height="60" rx="12" stroke="#1A237E"/>
<rect x="960" y="766" width="60" height="60" rx="12" stroke="#1A237E"/>
<rect x="900" y="766" width="60" height="60" rx="12" stroke="#1A237E"/>
<rect x="840" y="766" width="60" height="60" rx="12" stroke="#1A237E"/>
<rect x="780" y="766" width="60" height="60" rx="12" stroke="#1A237E"/>
<rect x="720" y="766" width="60" height="60" rx="12" stroke="#1A237E"/>
<rect x="660" y="766" width="60" height="60" rx="12" stroke="#1A237E"/>
<rect x="600" y="766" width="60" height="60" rx="12" stroke="#1A237E"/>
<rect x="540" y="766" width="60" height="60" rx="12" stroke="#1A237E"/>
<rect x="480" y="766" width="60" height="60" rx="12" stroke="#1A237E"/>
<rect x="420" y="766" width="60" height="60" rx="12" stroke="#1A237E"/>
<rect x="360" y="766" width="60" height="60" rx="12" stroke="#1A237E"/>
<rect x="300" y="766" width="60" height="60" rx="12" stroke="#1A237E"/>
<rect x="240" y="766" width="60" height="60" rx="12" stroke="#1A237E"/>
<rect x="180" y="766" width="60" height="60" rx="12" stroke="#1A237E"/>
<rect x="120" y="766" width="60" height="60" rx="12" stroke="#1A237E"/>
<rect x="60" y="766" width="60" height="60" rx="12" stroke="#1A237E"/>
<rect y="766" width="60" height="60" rx="12" stroke="#1A237E"/>
<rect x="1380" y="706" width="60" height="60" rx="12" stroke="#1A237E"/>
<rect x="1320" y="706" width="60" height="60" rx="12" stroke="#1A237E"/>
<rect x="1260" y="706" width="60" height="60" rx="12" stroke="#1A237E"/>
<rect x="1200" y="706" width="60" height="60" rx="12" fill="#1A25B9" stroke="#1A237E"/>
<rect x="1140" y="706" width="60" height="60" rx="12" stroke="#1A237E"/>
<rect x="1080" y="706" width="60" height="60" rx="12" stroke="#1A237E"/>
<rect x="1020" y="706" width="60" height="60" rx="12" stroke="#1A237E"/>
<rect x="960" y="706" width="60" height="60" rx="12" stroke="#1A237E"/>
<rect x="900" y="706" width="60" height="60" rx="12" stroke="#1A237E"/>
<rect x="840" y="706" width="60" height="60" rx="12" stroke="#1A237E"/>
<rect x="780" y="706" width="60" height="60" rx="12" fill="#1A25B9"/>
<rect x="720" y="706" width="60" height="60" rx="12" stroke="#1A237E"/>
<rect x="660" y="706" width="60" height="60" rx="12" stroke="#1A237E"/>
<rect x="600" y="706" width="60" height="60" rx="12" stroke="#1A237E"/>
<rect x="540" y="706" width="60" height="60" rx="12" stroke="#1A237E"/>
<rect x="482" y="708" width="56" height="56" rx="10" stroke="#1A237E" stroke-width="4"/>
<g clip-path="url(#clip0_856_4600)">
<path d="M510 724C503.383 724 498 729.383 498 736C498 742.617 503.383 748 510 748C516.617 748 522 742.617 522 736C522 729.383 516.617 724 510 724ZM510 746C507.276 746 504.805 744.902 503 743.129V741.5C503 741.024 503.213 740.718 503.459 740.364C503.712 739.999 504 739.585 504 739C504 738.046 503.139 737.95 502.676 737.898C502.345 737.861 502.033 737.826 501.853 737.646C501.718 737.511 501.582 737.264 501.438 737.003C501.153 736.485 500.767 735.799 500.031 735.379C500.355 730.155 504.695 726 510 726C510.274 726 510.544 726.019 510.813 726.041C510.758 726.077 510.691 726.102 510.646 726.147C510.549 726.244 510.496 726.377 510.5 726.515C510.504 726.652 510.565 726.782 510.667 726.874C510.847 727.033 510.882 727.114 510.889 727.114C510.877 727.138 510.786 727.294 510.274 727.554C509.429 727.982 508.454 728.859 508.309 729.771C508.242 730.185 508.362 730.569 508.646 730.854C508.74 730.947 508.867 731 509 731C509.694 731 510.231 730.743 510.75 730.495C511.283 730.241 511.786 730 512.5 730C514.462 730 516 730.439 516 731C516 731.206 515.936 731.269 515.912 731.292C515.666 731.534 514.83 731.518 514.094 731.507C513.899 731.503 513.7 731.5 513.5 731.5C512.821 731.5 512.611 731.401 512.367 731.286C512.083 731.152 511.762 731 511 731C510.176 731 508.644 731.149 507.646 732.146C506.831 732.962 506.917 733.937 506.974 734.582C506.987 734.731 507 734.872 507 735C507 735.985 508.006 736.5 509 736.5C510.528 736.5 511.85 736.785 512 737C512 737.56 512.167 737.942 512.3 738.248C512.412 738.505 512.5 738.707 512.5 739C512.5 739.226 512.463 739.275 512.363 739.404C512.172 739.652 512 739.922 512 740.5C512 741.552 513.013 742.706 513.128 742.835C513.225 742.941 513.36 743 513.5 743C513.541 743 513.583 742.995 513.624 742.984C513.918 742.909 516.5 742.198 516.5 740.5C516.5 739.968 516.665 739.824 516.916 739.606C517.163 739.392 517.5 739.1 517.5 738.5C517.5 738.099 518.211 737.064 518.871 736.335C518.964 736.232 519.01 736.095 518.998 735.956C518.986 735.817 518.916 735.69 518.807 735.605C518.418 735.304 517.345 734.323 516.985 733.371C517.189 733.477 517.444 733.651 517.646 733.853C517.813 734.021 518.036 734.101 518.29 734.091C518.695 734.068 519.176 733.748 519.632 733.349C519.865 734.195 520 735.081 520 736C520 741.514 515.514 746 510 746Z" fill="white"/>
</g>
<rect x="420" y="706" width="60" height="60" rx="12" stroke="#1A237E"/>
<rect x="360" y="706" width="60" height="60" rx="12" stroke="#1A237E"/>
<rect x="300" y="706" width="60" height="60" rx="12" stroke="#1A237E"/>
<rect x="240" y="706" width="60" height="60" rx="12" stroke="#1A237E"/>
<rect x="180" y="706" width="60" height="60" rx="12" stroke="#1A237E"/>
<rect x="120" y="706" width="60" height="60" rx="12" stroke="#1A237E"/>
<rect x="60" y="706" width="60" height="60" rx="12" stroke="#1A237E"/>
<rect y="706" width="60" height="60" rx="12" stroke="#1A237E"/>
<rect x="1380" y="646" width="60" height="60" rx="12" stroke="#1A237E"/>
<rect x="1320" y="646" width="60" height="60" rx="12" stroke="#1A237E"/>
<rect x="1260" y="646" width="60" height="60" rx="12" stroke="#1A237E"/>
<rect x="1200" y="646" width="60" height="60" rx="12" stroke="#1A237E"/>
<rect x="1140" y="646" width="60" height="60" rx="12" stroke="#1A237E"/>
<rect x="1080" y="646" width="60" height="60" rx="12" stroke="#1A237E"/>
<rect x="1020" y="646" width="60" height="60" rx="12" stroke="#1A237E"/>
<rect x="960" y="646" width="60" height="60" rx="12" stroke="#1A237E"/>
<rect x="900" y="646" width="60" height="60" rx="12" stroke="#1A237E"/>
<rect x="842" y="648" width="56" height="56" rx="10" stroke="#1A237E" stroke-width="4"/>
<g clip-path="url(#clip1_856_4600)">
<path d="M879.143 675.429H877.429V670.857C877.429 669.594 876.406 668.571 875.143 668.571H870.571V666.857C870.571 665.28 869.291 664 867.714 664C866.137 664 864.857 665.28 864.857 666.857V668.571H860.286C859.023 668.571 858.011 669.594 858.011 670.857L858.006 675.2H859.714C861.417 675.2 862.8 676.583 862.8 678.286C862.8 679.989 861.417 681.371 859.714 681.371H858.006L858 685.714C858 686.977 859.023 688 860.286 688H864.629V686.286C864.629 684.583 866.011 683.2 867.714 683.2C869.417 683.2 870.8 684.583 870.8 686.286V688H875.143C876.406 688 877.429 686.977 877.429 685.714V681.143H879.143C880.72 681.143 882 679.863 882 678.286C882 676.709 880.72 675.429 879.143 675.429Z" fill="white"/>
</g>
<rect x="780" y="646" width="60" height="60" rx="12" stroke="#1A237E"/>
<rect x="720" y="646" width="60" height="60" rx="12" stroke="#1A237E"/>
<rect x="660" y="646" width="60" height="60" rx="12" stroke="#1A237E"/>
<rect x="602" y="648" width="56" height="56" rx="10" stroke="#1A237E" stroke-width="4"/>
<g clip-path="url(#clip2_856_4600)">
<path d="M641.297 682.375H639.656V680.594C639.656 680.205 639.341 679.891 638.953 679.891H635.18V678.812H636.82C637.209 678.812 637.523 678.498 637.523 678.109V673.891C637.523 673.502 637.209 673.188 636.82 673.188H635.18V671.406C635.18 671.018 634.865 670.703 634.477 670.703H630.703V669.625H632.344C632.732 669.625 633.047 669.31 633.047 668.922V664.703C633.047 664.315 632.732 664 632.344 664H627.656C627.268 664 626.953 664.315 626.953 664.703V668.922C626.953 669.31 627.268 669.625 627.656 669.625H629.297V670.703H625.523C625.135 670.703 624.82 671.018 624.82 671.406V673.188H623.18C622.791 673.188 622.477 673.502 622.477 673.891V678.109C622.477 678.498 622.791 678.812 623.18 678.812H624.82V679.891H621.047C620.659 679.891 620.344 680.205 620.344 680.594V682.375H618.703C618.315 682.375 618 682.69 618 683.078V687.297C618 687.685 618.315 688 618.703 688H623.391C623.779 688 624.094 687.685 624.094 687.297V683.078C624.094 682.69 623.779 682.375 623.391 682.375H621.75V681.297H629.297V682.375H627.656C627.268 682.375 626.953 682.69 626.953 683.078V687.297C626.953 687.685 627.268 688 627.656 688H632.344C632.732 688 633.047 687.685 633.047 687.297V683.078C633.047 682.69 632.732 682.375 632.344 682.375H630.703V681.297H638.25V682.375H636.609C636.221 682.375 635.906 682.69 635.906 683.078V687.297C635.906 687.685 636.221 688 636.609 688H641.297C641.685 688 642 687.685 642 687.297V683.078C642 682.69 641.685 682.375 641.297 682.375ZM626.227 678.812H627.867C628.255 678.812 628.57 678.498 628.57 678.109V673.891C628.57 673.502 628.255 673.188 627.867 673.188H626.227V672.109H633.773V673.188H632.133C631.745 673.188 631.43 673.502 631.43 673.891V678.109C631.43 678.498 631.745 678.812 632.133 678.812H633.773V679.891H626.227V678.812Z" fill="white"/>
</g>
<rect x="540" y="646" width="60" height="60" rx="12" stroke="#1A237E"/>
<rect x="480" y="646" width="60" height="60" rx="12" stroke="#1A237E"/>
<rect x="420" y="646" width="60" height="60" rx="12" stroke="#1A237E"/>
<rect x="360" y="646" width="60" height="60" rx="12" stroke="#1A237E"/>
<rect x="300" y="646" width="60" height="60" rx="12" stroke="#1A237E"/>
<rect x="240" y="646" width="60" height="60" rx="12" stroke="#1A237E"/>
<rect x="180" y="646" width="60" height="60" rx="12" stroke="#1A237E"/>
<rect x="120" y="646" width="60" height="60" rx="12" stroke="#1A237E"/>
<rect x="60" y="646" width="60" height="60" rx="12" stroke="#1A237E"/>
<rect y="646" width="60" height="60" rx="12" stroke="#1A237E"/>
<rect x="1380" y="586" width="60" height="60" rx="12" stroke="#1A237E"/>
<rect x="1320" y="586" width="60" height="60" rx="12" stroke="#1A237E"/>
<rect x="1260" y="586" width="60" height="60" rx="12" stroke="#1A237E"/>
<rect x="1202" y="588" width="56" height="56" rx="10" stroke="#1A237E" stroke-width="4"/>
<g clip-path="url(#clip3_856_4600)">
<path d="M1227.45 628C1227.35 628 1227.26 627.981 1227.17 627.942C1226.85 627.806 1226.68 627.461 1226.76 627.127L1229.14 617.556H1222.73C1222.5 617.556 1222.29 617.442 1222.15 617.251C1222.02 617.06 1221.99 616.816 1222.08 616.6L1226.78 604.449C1226.88 604.179 1227.14 604 1227.43 604H1233.9C1234.14 604 1234.36 604.12 1234.49 604.319C1234.62 604.518 1234.64 604.769 1234.54 604.987L1231.76 611.303H1237.27C1237.52 611.303 1237.76 611.444 1237.88 611.67C1238.01 611.895 1238 612.17 1237.86 612.387L1228.04 627.677C1227.9 627.884 1227.68 628 1227.45 628Z" fill="white"/>
</g>
<rect x="1140" y="586" width="60" height="60" rx="12" stroke="#1A237E"/>
<rect x="1082" y="588" width="56" height="56" rx="10" stroke="#1A237E" stroke-width="4"/>
<path d="M1105 617V626C1105 626.265 1104.89 626.52 1104.71 626.707C1104.52 626.895 1104.27 627 1104 627H1100C1099.73 627 1099.48 626.895 1099.29 626.707C1099.11 626.52 1099 626.265 1099 626V617C1099 616.735 1099.11 616.48 1099.29 616.293C1099.48 616.105 1099.73 616 1100 616H1104C1104.27 616 1104.52 616.105 1104.71 616.293C1104.89 616.48 1105 616.735 1105 617ZM1112 605H1108C1107.73 605 1107.48 605.105 1107.29 605.293C1107.11 605.48 1107 605.735 1107 606V626C1107 626.265 1107.11 626.52 1107.29 626.707C1107.48 626.895 1107.73 627 1108 627H1112C1112.27 627 1112.52 626.895 1112.71 626.707C1112.89 626.52 1113 626.265 1113 626V606C1113 605.735 1112.89 605.48 1112.71 605.293C1112.52 605.105 1112.27 605 1112 605ZM1120 610H1116C1115.73 610 1115.48 610.105 1115.29 610.293C1115.11 610.48 1115 610.735 1115 611V626C1115 626.265 1115.11 626.52 1115.29 626.707C1115.48 626.895 1115.73 627 1116 627H1120C1120.27 627 1120.52 626.895 1120.71 626.707C1120.89 626.52 1121 626.265 1121 626V611C1121 610.735 1120.89 610.48 1120.71 610.293C1120.52 610.105 1120.27 610 1120 610Z" fill="white"/>
<rect x="1020" y="586" width="60" height="60" rx="12" stroke="#1A237E"/>
<rect x="962" y="588" width="56" height="56" rx="10" stroke="#1A237E" stroke-width="4"/>
<g clip-path="url(#clip4_856_4600)">
<mask id="mask0_856_4600" style="mask-type:luminance" maskUnits="userSpaceOnUse" x="978" y="604" width="24" height="24">
<path d="M978 604H1002V628H978V604Z" fill="white"/>
</mask>
<g mask="url(#mask0_856_4600)">
<path d="M998.484 608.219H992.859C992.471 608.219 992.156 607.904 992.156 607.516C992.156 607.127 992.471 606.812 992.859 606.812H998.484C998.873 606.812 999.187 607.127 999.187 607.516C999.187 607.904 998.873 608.219 998.484 608.219ZM987.141 608.219C986.752 608.219 986.437 607.904 986.437 607.516C986.437 607.127 986.752 606.812 987.141 606.812C987.529 606.812 987.844 607.127 987.844 607.516C987.844 607.904 987.529 608.219 987.141 608.219ZM984.328 608.219C983.94 608.219 983.625 607.904 983.625 607.516C983.625 607.127 983.94 606.812 984.328 606.812C984.716 606.812 985.031 607.127 985.031 607.516C985.031 607.904 984.716 608.219 984.328 608.219ZM981.516 608.219C981.127 608.219 980.812 607.904 980.812 607.516C980.812 607.127 981.127 606.812 981.516 606.812C981.904 606.812 982.219 607.127 982.219 607.516C982.219 607.904 981.904 608.219 981.516 608.219ZM999.891 604H980.109C978.946 604 978 604.946 978 606.109V608.922C978 610.085 978.946 611.031 980.109 611.031H999.891C1001.05 611.031 1002 610.085 1002 608.922V606.109C1002 604.946 1001.05 604 999.891 604Z" fill="white"/>
<path d="M998.484 616.703H992.859C992.471 616.703 992.156 616.389 992.156 616C992.156 615.611 992.471 615.297 992.859 615.297H998.484C998.873 615.297 999.187 615.611 999.187 616C999.187 616.389 998.873 616.703 998.484 616.703ZM987.141 616.703C986.752 616.703 986.437 616.388 986.437 616C986.437 615.612 986.752 615.297 987.141 615.297C987.529 615.297 987.844 615.612 987.844 616C987.844 616.388 987.529 616.703 987.141 616.703ZM984.328 616.703C983.94 616.703 983.625 616.388 983.625 616C983.625 615.612 983.94 615.297 984.328 615.297C984.716 615.297 985.031 615.612 985.031 616C985.031 616.388 984.716 616.703 984.328 616.703ZM981.516 616.703C981.127 616.703 980.812 616.388 980.812 616C980.812 615.612 981.127 615.297 981.516 615.297C981.904 615.297 982.219 615.612 982.219 616C982.219 616.388 981.904 616.703 981.516 616.703ZM999.891 612.484H980.109C978.946 612.484 978 613.431 978 614.594V617.406C978 618.569 978.946 619.516 980.109 619.516H999.891C1001.05 619.516 1002 618.569 1002 617.406V614.594C1002 613.431 1001.05 612.484 999.891 612.484Z" fill="white"/>
<path d="M998.484 625.188H992.859C992.471 625.188 992.156 624.873 992.156 624.484C992.156 624.096 992.471 623.781 992.859 623.781H998.484C998.873 623.781 999.187 624.096 999.187 624.484C999.187 624.873 998.873 625.188 998.484 625.188ZM987.141 625.188C986.752 625.188 986.437 624.873 986.437 624.484C986.437 624.096 986.752 623.781 987.141 623.781C987.529 623.781 987.844 624.096 987.844 624.484C987.844 624.873 987.529 625.188 987.141 625.188ZM984.328 625.188C983.94 625.188 983.625 624.873 983.625 624.484C983.625 624.096 983.94 623.781 984.328 623.781C984.716 623.781 985.031 624.096 985.031 624.484C985.031 624.873 984.716 625.188 984.328 625.188ZM981.516 625.188C981.127 625.188 980.812 624.873 980.812 624.484C980.812 624.096 981.127 623.781 981.516 623.781C981.904 623.781 982.219 624.096 982.219 624.484C982.219 624.873 981.904 625.188 981.516 625.188ZM999.891 620.969H980.109C978.946 620.969 978 621.915 978 623.078V625.891C978 627.054 978.946 628 980.109 628H999.891C1001.05 628 1002 627.054 1002 625.891V623.078C1002 621.915 1001.05 620.969 999.891 620.969Z" fill="white"/>
</g>
</g>
<rect x="900" y="586" width="60" height="60" rx="12" stroke="#1A237E"/>
<rect x="840" y="586" width="60" height="60" rx="12" stroke="#1A237E"/>
<rect x="780" y="586" width="60" height="60" rx="12" stroke="#1A237E"/>
<rect x="720" y="586" width="60" height="60" rx="12" stroke="#1A237E"/>
<rect x="662" y="588" width="56" height="56" rx="10" stroke="#1A237E" stroke-width="4"/>
<path d="M699.179 615.689C699.814 612.65 697.14 609.911 694.18 610.389C690.727 604.714 682.098 607.304 682.098 613.769C676.75 616.63 678.815 624.741 684.84 624.741H695.839C698.678 624.741 700.982 622.437 700.982 619.598C700.982 618.069 700.324 616.656 699.179 615.689ZM693.467 618.576L690.724 621.319C690.336 621.721 689.661 621.723 689.27 621.319L686.527 618.576C686.123 618.179 686.123 617.527 686.527 617.123C686.932 616.725 687.577 616.725 687.981 617.123L688.968 618.11V613.735C688.968 613.166 689.428 612.707 689.997 612.707C690.566 612.707 691.026 613.166 691.026 613.735V618.11L692.013 617.123C692.418 616.725 693.062 616.725 693.467 617.123C693.871 617.527 693.871 618.179 693.467 618.576Z" fill="white"/>
<rect x="600" y="586" width="60" height="60" rx="12" stroke="#1A237E"/>
<rect x="540" y="586" width="60" height="60" rx="12" stroke="#1A237E"/>
<rect x="480" y="586" width="60" height="60" rx="12" fill="#1A25B9"/>
<rect x="420" y="586" width="60" height="60" rx="12" stroke="#1A237E"/>
<rect x="360" y="586" width="60" height="60" rx="12" stroke="#1A237E"/>
<rect x="300.5" y="586.5" width="59" height="59" rx="11.5" fill="#1A25B9"/>
<rect x="300.5" y="586.5" width="59" height="59" rx="11.5" stroke="#1A25B9"/>
<path d="M330 618.287C331.263 618.287 332.287 617.263 332.287 616C332.287 614.737 331.263 613.713 330 613.713C328.737 613.713 327.713 614.737 327.713 616C327.713 617.263 328.737 618.287 330 618.287Z" fill="white"/>
<path fill-rule="evenodd" clip-rule="evenodd" d="M340.16 610.473C340 610.33 339.812 610.222 339.607 610.156C339.403 610.091 339.187 610.069 338.973 610.093L336.893 610.327C334.857 610.554 332.795 610.365 330.833 609.773L329.167 609.273C327.204 608.686 325.143 608.501 323.107 608.727L320.667 608.993C320.298 609.04 319.96 609.22 319.714 609.498C319.469 609.777 319.334 610.135 319.333 610.507V620.393C319.334 620.607 319.379 620.819 319.467 621.014C319.555 621.21 319.683 621.385 319.843 621.527C320.002 621.67 320.19 621.778 320.394 621.843C320.598 621.908 320.814 621.93 321.027 621.907L323.107 621.673C325.143 621.446 327.205 621.634 329.167 622.227L330.833 622.727C332.796 623.313 334.857 623.499 336.893 623.273L339.313 623.007C339.681 622.96 340.02 622.78 340.265 622.501C340.511 622.223 340.646 621.864 340.647 621.493V611.607C340.649 611.394 340.607 611.184 340.523 610.989C340.439 610.793 340.315 610.618 340.16 610.473ZM323.947 612.473L323.187 612.533L322.467 612.613C322.266 612.635 322.065 612.577 321.907 612.451C321.75 612.324 321.649 612.141 321.627 611.94C321.604 611.739 321.663 611.538 321.789 611.38C321.916 611.223 322.099 611.122 322.3 611.1L323.02 611.02C323.3 611.02 323.58 610.967 323.86 610.947C323.964 610.933 324.071 610.941 324.172 610.97C324.273 610.999 324.368 611.049 324.449 611.116C324.53 611.183 324.597 611.267 324.644 611.361C324.692 611.455 324.719 611.558 324.725 611.663C324.731 611.769 324.716 611.874 324.679 611.973C324.642 612.072 324.586 612.162 324.513 612.238C324.439 612.314 324.352 612.374 324.254 612.415C324.157 612.455 324.052 612.475 323.947 612.473ZM330 619.807C329.247 619.807 328.511 619.583 327.885 619.165C327.259 618.747 326.771 618.152 326.483 617.457C326.195 616.761 326.12 615.996 326.266 615.257C326.413 614.519 326.776 613.841 327.308 613.308C327.841 612.776 328.519 612.413 329.257 612.266C329.996 612.119 330.761 612.195 331.457 612.483C332.152 612.771 332.747 613.259 333.165 613.885C333.583 614.511 333.807 615.247 333.807 616C333.807 617.009 333.406 617.978 332.692 618.692C331.978 619.406 331.01 619.807 330 619.807ZM337.7 620.907L336.98 620.987C336.7 621.02 336.42 621.04 336.14 621.06C336.035 621.074 335.929 621.066 335.828 621.037C335.726 621.007 335.632 620.958 335.551 620.89C335.47 620.823 335.403 620.74 335.356 620.646C335.308 620.551 335.28 620.449 335.274 620.343C335.268 620.238 335.284 620.133 335.321 620.034C335.358 619.935 335.414 619.844 335.487 619.768C335.56 619.692 335.648 619.632 335.746 619.592C335.843 619.551 335.948 619.531 336.053 619.533C336.307 619.533 336.56 619.513 336.813 619.473L337.533 619.393C337.734 619.371 337.935 619.43 338.093 619.556C338.25 619.682 338.351 619.866 338.373 620.067C338.395 620.267 338.337 620.468 338.211 620.626C338.084 620.784 337.901 620.884 337.7 620.907Z" fill="white"/>
<rect x="240" y="586" width="60" height="60" rx="12" stroke="#1A237E"/>
<rect x="180" y="586" width="60" height="60" rx="12" stroke="#1A237E"/>
<rect x="120" y="586" width="60" height="60" rx="12" stroke="#1A237E"/>
<rect x="60" y="586" width="60" height="60" rx="12" stroke="#1A237E"/>
<rect y="586" width="60" height="60" rx="12" stroke="#1A237E"/>
<rect x="1380" y="526" width="60" height="60" rx="12" stroke="#1A237E"/>
<rect x="1320" y="526" width="60" height="60" rx="12" stroke="#1A237E"/>
<rect x="1260" y="526" width="60" height="60" rx="12" stroke="#1A237E"/>
<rect x="1200" y="526" width="60" height="60" rx="12" stroke="#1A237E"/>
<rect x="1140" y="526" width="60" height="60" rx="12" stroke="#1A237E"/>
<rect x="1080" y="526" width="60" height="60" rx="12" fill="#1A25B9"/>
<rect x="1020" y="526" width="60" height="60" rx="12" stroke="#1A237E"/>
<rect x="960" y="526" width="60" height="60" rx="12" stroke="#1A237E"/>
<rect x="900.5" y="526.5" width="59" height="59" rx="11.5" fill="#1A25B9"/>
<rect x="900.5" y="526.5" width="59" height="59" rx="11.5" stroke="#1A25B9"/>
<path d="M942 551.641V550.375C942 548.925 940.825 547.75 939.375 547.75H920.625C919.175 547.75 918 548.925 918 550.375V551.641C918 551.77 918.105 551.875 918.234 551.875H941.766C941.895 551.875 942 551.77 942 551.641Z" fill="white"/>
<path d="M918 553.609V561.625C918 563.075 919.175 564.25 920.625 564.25H939.375C940.825 564.25 942 563.075 942 561.625V553.609C942 553.48 941.895 553.375 941.766 553.375H918.234C918.105 553.375 918 553.48 918 553.609ZM924 559.75C924 560.164 923.664 560.5 923.25 560.5H922.5C922.086 560.5 921.75 560.164 921.75 559.75V559C921.75 558.586 922.086 558.25 922.5 558.25H923.25C923.664 558.25 924 558.586 924 559V559.75Z" fill="white"/>
<rect x="840" y="526" width="60" height="60" rx="12" stroke="#1A237E"/>
<rect x="780" y="526" width="60" height="60" rx="12" stroke="#1A237E"/>
<rect x="720" y="526" width="60" height="60" rx="12" stroke="#1A237E"/>
<rect x="660" y="526" width="60" height="60" rx="12" stroke="#1A237E"/>
<rect x="600" y="526" width="60" height="60" rx="12" stroke="#1A237E"/>
<rect x="542" y="528" width="56" height="56" rx="10" stroke="#1A237E" stroke-width="4"/>
<path d="M559.92 554.461V558.93C561.447 560.442 564.932 561.28 570 561.28C575.068 561.28 578.553 560.442 580.08 558.93V554.461C578.42 555.591 575.407 556.48 570 556.48C564.593 556.48 561.58 555.591 559.92 554.461Z" fill="white"/>
<path d="M559.92 560.221V564.64C559.92 566.846 564.991 568 570 568C575.009 568 580.08 566.846 580.08 564.64V560.221C578.42 561.351 575.407 562.24 570 562.24C564.593 562.24 561.58 561.351 559.92 560.221Z" fill="white"/>
<path d="M570 544C564.991 544 559.92 545.154 559.92 547.36V547.41C561.447 548.922 564.932 549.76 570 549.76C575.068 549.76 578.553 548.922 580.08 547.41V547.36C580.08 545.154 575.009 544 570 544Z" fill="white"/>
<path d="M559.92 548.701V553.17C561.447 554.682 564.932 555.52 570 555.52C575.068 555.52 578.553 554.682 580.08 553.17V548.701C578.42 549.831 575.407 550.72 570 550.72C564.593 550.72 561.58 549.831 559.92 548.701Z" fill="white"/>
<rect x="480" y="526" width="60" height="60" rx="12" stroke="#1A237E"/>
<rect x="420.5" y="526.5" width="59" height="59" rx="11.5" fill="#1A25B9"/>
<rect x="420.5" y="526.5" width="59" height="59" rx="11.5" stroke="#1A25B9"/>
<path d="M452.122 548.929C453.462 549.381 454.53 550.448 454.983 551.788C455.082 552.112 455.383 552.348 455.739 552.348C456.094 552.348 456.394 552.114 456.494 551.792C456.946 550.451 458.013 549.384 459.353 548.93C459.677 548.832 459.913 548.53 459.913 548.174C459.913 547.819 459.679 547.519 459.357 547.419C458.016 546.967 456.949 545.9 456.495 544.56C456.397 544.236 456.095 544 455.739 544C455.384 544 455.084 544.234 454.984 544.556C454.532 545.897 453.465 546.964 452.125 547.418C451.801 547.516 451.565 547.818 451.565 548.174C451.565 548.529 451.799 548.829 452.122 548.929Z" fill="white"/>
<path d="M461.444 563.071C460.103 562.619 459.036 561.552 458.582 560.212C458.484 559.888 458.182 559.652 457.826 559.652C457.471 559.652 457.171 559.886 457.071 560.208C456.619 561.549 455.552 562.616 454.212 563.07C453.888 563.168 453.652 563.47 453.652 563.826C453.652 564.181 453.886 564.481 454.208 564.581C455.549 565.033 456.616 566.1 457.07 567.44C457.168 567.764 457.47 568 457.826 568C458.181 568 458.481 567.766 458.581 567.444C459.033 566.103 460.1 565.036 461.44 564.582C461.764 564.484 462 564.182 462 563.826C462 563.471 461.766 563.171 461.444 563.071Z" fill="white"/>
<path d="M454.159 555.777C454.159 555.777 453.631 555.601 452.898 555.357C450.369 554.514 448.355 552.501 447.512 549.971C447.268 549.238 447.092 548.71 447.092 548.71C446.985 548.39 446.685 548.174 446.348 548.174C446.01 548.174 445.71 548.39 445.604 548.71C445.604 548.71 445.427 549.238 445.183 549.971C444.34 552.501 442.327 554.514 439.798 555.357C439.064 555.601 438.536 555.777 438.536 555.777C438.216 555.884 438 556.184 438 556.522C438 556.859 438.216 557.159 438.536 557.266C438.536 557.266 439.064 557.442 439.797 557.686C442.327 558.529 444.34 560.543 445.183 563.072C445.427 563.805 445.604 564.333 445.604 564.333C445.71 564.653 446.01 564.869 446.348 564.869H446.348C446.685 564.869 446.985 564.653 447.092 564.333C447.092 564.333 447.268 563.805 447.512 563.072C448.355 560.543 450.369 558.529 452.898 557.686C453.631 557.442 454.159 557.266 454.159 557.266C454.48 557.159 454.696 556.859 454.696 556.522C454.696 556.184 454.48 555.884 454.159 555.777Z" fill="white"/>
<rect x="360" y="526" width="60" height="60" rx="12" stroke="#1A237E"/>
<rect x="300" y="526" width="60" height="60" rx="12" stroke="#1A237E"/>
<rect x="242" y="528" width="56" height="56" rx="10" stroke="#1A237E" stroke-width="4"/>
<path d="M280.074 550.178C280.045 549.546 280.045 548.943 280.045 548.341C280.045 547.853 279.672 547.48 279.184 547.48C275.597 547.48 272.87 546.447 270.603 544.237C270.259 543.921 269.742 543.921 269.398 544.237C267.13 546.447 264.404 547.48 260.817 547.48C260.329 547.48 259.956 547.853 259.956 548.341C259.956 548.943 259.956 549.546 259.927 550.178C259.812 556.204 259.64 564.47 269.713 567.943L270 568L270.287 567.943C280.332 564.47 280.189 556.233 280.074 550.178ZM269.312 558.529C269.139 558.673 268.939 558.759 268.709 558.759H268.68C268.451 558.759 268.221 558.644 268.078 558.472L265.409 555.516L266.7 554.368L268.795 556.692L273.444 552.273L274.621 553.535L269.312 558.529Z" fill="white"/>
<rect x="180" y="526" width="60" height="60" rx="12" stroke="#1A237E"/>
<rect x="120" y="526" width="60" height="60" rx="12" stroke="#1A237E"/>
<rect x="60" y="526" width="60" height="60" rx="12" stroke="#1A237E"/>
<rect y="526" width="60" height="60" rx="12" stroke="#1A237E"/>
<rect x="1380" y="466" width="60" height="60" rx="12" stroke="#1A237E"/>
<rect x="1320" y="466" width="60" height="60" rx="12" stroke="#1A237E"/>
<rect x="1260" y="466" width="60" height="60" rx="12" stroke="#1A237E"/>
<rect x="1200" y="466" width="60" height="60" rx="12" stroke="#1A237E"/>
<rect x="1142" y="468" width="56" height="56" rx="10" stroke="#1A237E" stroke-width="4"/>
<g clip-path="url(#clip5_856_4600)">
<path d="M1170 488.23C1165.72 488.23 1162.23 491.716 1162.23 496C1162.23 500.284 1165.72 503.77 1170 503.77C1174.28 503.77 1177.77 500.284 1177.77 496C1177.77 491.716 1174.28 488.23 1170 488.23ZM1173.51 496L1170 499.506L1166.49 496L1170 492.494L1173.51 496Z" fill="white"/>
<path d="M1178.49 487.515C1176.22 485.248 1173.21 484 1170 484C1166.79 484 1163.78 485.248 1161.51 487.515C1159.25 489.781 1158 492.795 1158 496C1158 499.205 1159.25 502.219 1161.51 504.485C1163.78 506.752 1166.79 508 1170 508C1173.21 508 1176.22 506.752 1178.49 504.485C1180.75 502.219 1182 499.205 1182 496C1182 492.795 1180.75 489.781 1178.49 487.515ZM1170 505.176C1164.94 505.176 1160.82 501.06 1160.82 496C1160.82 490.94 1164.94 486.824 1170 486.824C1175.06 486.824 1179.18 490.94 1179.18 496C1179.18 501.06 1175.06 505.176 1170 505.176Z" fill="white"/>
</g>
<rect x="1080" y="466" width="60" height="60" rx="12" stroke="#1A237E"/>
<rect x="1020" y="466" width="60" height="60" rx="12" stroke="#1A237E"/>
<rect x="962" y="468" width="56" height="56" rx="10" stroke="#1A237E" stroke-width="4"/>
<path d="M999.908 492.88C999.47 492.817 999.052 492.655 998.686 492.408C998.319 492.16 998.013 491.833 997.79 491.451C997.568 491.069 997.434 490.642 997.399 490.201C997.365 489.76 997.43 489.317 997.59 488.905C997.692 488.636 997.707 488.341 997.633 488.063C997.559 487.784 997.4 487.536 997.178 487.353C996.197 486.529 995.08 485.882 993.878 485.44C993.604 485.338 993.305 485.326 993.023 485.404C992.742 485.482 992.492 485.647 992.31 485.875C992.036 486.226 991.685 486.51 991.285 486.705C990.885 486.9 990.445 487.001 990 487.001C989.555 487.001 989.115 486.9 988.715 486.705C988.315 486.51 987.964 486.226 987.69 485.875C987.508 485.647 987.258 485.482 986.977 485.404C986.695 485.326 986.396 485.338 986.123 485.44C985.012 485.848 983.974 486.43 983.048 487.165C982.814 487.35 982.646 487.605 982.567 487.892C982.489 488.18 982.505 488.485 982.613 488.763C982.786 489.186 982.857 489.643 982.821 490.099C982.786 490.555 982.643 490.996 982.406 491.387C982.169 491.777 981.844 492.107 981.457 492.35C981.069 492.592 980.63 492.74 980.175 492.783C979.88 492.814 979.602 492.94 979.383 493.141C979.165 493.342 979.016 493.608 978.96 493.9C978.82 494.591 978.75 495.295 978.75 496C978.749 496.591 978.797 497.18 978.893 497.763C978.94 498.064 979.086 498.341 979.307 498.551C979.528 498.761 979.812 498.893 980.115 498.925C980.58 498.969 981.028 499.123 981.421 499.375C981.815 499.628 982.142 499.971 982.375 500.375C982.609 500.78 982.742 501.235 982.764 501.701C982.785 502.168 982.695 502.633 982.5 503.058C982.372 503.334 982.341 503.645 982.41 503.941C982.479 504.237 982.646 504.502 982.883 504.693C983.858 505.501 984.963 506.138 986.153 506.575C986.305 506.628 986.464 506.656 986.625 506.658C986.846 506.657 987.063 506.604 987.259 506.502C987.454 506.4 987.623 506.253 987.75 506.073C988.017 505.683 988.376 505.365 988.794 505.145C989.212 504.926 989.678 504.811 990.15 504.813C990.608 504.813 991.059 504.921 991.468 505.126C991.877 505.332 992.232 505.63 992.505 505.998C992.687 506.242 992.944 506.419 993.237 506.502C993.53 506.585 993.842 506.568 994.125 506.455C995.212 506.018 996.224 505.413 997.125 504.663C997.351 504.476 997.512 504.222 997.585 503.937C997.658 503.653 997.639 503.353 997.53 503.08C997.354 502.662 997.277 502.21 997.305 501.757C997.334 501.305 997.467 500.865 997.695 500.473C997.923 500.081 998.238 499.747 998.617 499.498C998.996 499.249 999.427 499.091 999.878 499.038C1000.17 498.997 1000.44 498.865 1000.65 498.66C1000.86 498.455 1001.01 498.188 1001.06 497.898C1001.18 497.272 1001.24 496.637 1001.25 496C1001.25 495.328 1001.19 494.658 1001.06 493.998C1001.01 493.714 1000.87 493.453 1000.67 493.252C1000.46 493.052 1000.19 492.921 999.908 492.88ZM993.75 496C993.75 496.742 993.53 497.467 993.118 498.084C992.706 498.7 992.12 499.181 991.435 499.465C990.75 499.748 989.996 499.823 989.268 499.678C988.541 499.533 987.873 499.176 987.348 498.652C986.824 498.127 986.467 497.459 986.322 496.732C986.177 496.004 986.252 495.25 986.535 494.565C986.819 493.88 987.3 493.294 987.917 492.882C988.533 492.47 989.258 492.25 990 492.25C990.995 492.25 991.948 492.645 992.652 493.348C993.355 494.052 993.75 495.006 993.75 496Z" fill="white"/>
<rect x="900" y="466" width="60" height="60" rx="12" stroke="#1A237E"/>
<rect x="840" y="466" width="60" height="60" rx="12" stroke="#1A237E"/>
<rect x="780" y="466" width="60" height="60" rx="12" stroke="#1A237E"/>
<rect x="720" y="466" width="60" height="60" rx="12" stroke="#1A237E"/>
<rect x="660" y="466" width="60" height="60" rx="12" stroke="#1A237E"/>
<rect x="600" y="466" width="60" height="60" rx="12" stroke="#1A237E"/>
<rect x="540" y="466" width="60" height="60" rx="12" stroke="#1A237E"/>
<rect x="480" y="466" width="60" height="60" rx="12" stroke="#1A237E"/>
<rect x="420" y="466" width="60" height="60" rx="12" stroke="#1A237E"/>
<rect x="362" y="468" width="56" height="56" rx="10" stroke="#1A237E" stroke-width="4"/>
<path d="M396.401 486.4C394.633 486.4 393.2 487.833 393.2 489.6C393.2 491.089 394.222 492.33 395.6 492.686V494.4C395.6 494.842 395.241 495.2 394.8 495.2H386.8C385.895 495.2 385.07 495.512 384.4 496.019V492.687C385.778 492.33 386.8 491.089 386.8 489.6C386.8 487.833 385.367 486.4 383.6 486.4C381.832 486.4 380.4 487.833 380.4 489.6C380.4 491.089 381.422 492.33 382.8 492.686V499.314C381.422 499.67 380.4 500.911 380.4 502.4C380.4 504.167 381.833 505.6 383.6 505.6C385.367 505.6 386.8 504.167 386.8 502.4C386.8 500.911 385.778 499.67 384.4 499.314V499.2C384.4 497.874 385.475 496.8 386.8 496.8H394.8C396.125 496.8 397.2 495.726 397.2 494.4V492.687C398.577 492.33 399.6 491.089 399.6 489.6C399.6 487.833 398.167 486.4 396.401 486.4Z" fill="white"/>
<rect x="300" y="466" width="60" height="60" rx="12" stroke="#1A237E"/>
<rect x="240" y="466" width="60" height="60" rx="12" stroke="#1A237E"/>
<rect x="180" y="466" width="60" height="60" rx="12" stroke="#1A237E"/>
<rect x="120" y="466" width="60" height="60" rx="12" fill="#1A25B9"/>
<rect x="60" y="466" width="60" height="60" rx="12" stroke="#1A237E"/>
<rect y="466" width="60" height="60" rx="12" stroke="#1A237E"/>
<rect x="1380" y="406" width="60" height="60" rx="12" stroke="#1A237E"/>
<rect x="1320" y="406" width="60" height="60" rx="12" stroke="#1A237E"/>
<rect x="1260" y="406" width="60" height="60" rx="12" stroke="#1A237E"/>
<rect x="1200" y="406" width="60" height="60" rx="12" fill="#1A25B9"/>
<rect x="1140" y="406" width="60" height="60" rx="12" stroke="#1A237E"/>
<rect x="1080" y="406" width="60" height="60" rx="12" stroke="#1A237E"/>
<rect x="1020" y="406" width="60" height="60" rx="12" stroke="#1A237E"/>
<rect x="960" y="406" width="60" height="60" rx="12" stroke="#1A237E"/>
<rect x="900" y="406" width="60" height="60" rx="12" stroke="#1A237E"/>
<rect x="840" y="406" width="60" height="60" rx="12" stroke="#1A237E"/>
<rect x="780" y="406" width="60" height="60" rx="12" stroke="#1A237E"/>
<rect x="720" y="406" width="60" height="60" rx="12" stroke="#1A237E"/>
<rect x="660" y="406" width="60" height="60" rx="12" stroke="#1A237E"/>
<rect x="600" y="406" width="60" height="60" rx="12" stroke="#1A237E"/>
<rect x="540" y="406" width="60" height="60" rx="12" stroke="#1A237E"/>
<rect x="480" y="406" width="60" height="60" rx="12" stroke="#1A237E"/>
<rect x="420" y="406" width="60" height="60" rx="12" stroke="#1A237E"/>
<rect x="360" y="406" width="60" height="60" rx="12" stroke="#1A237E"/>
<rect x="300" y="406" width="60" height="60" rx="12" stroke="#1A237E"/>
<rect x="240" y="406" width="60" height="60" rx="12" stroke="#1A237E"/>
<rect x="180" y="406" width="60" height="60" rx="12" stroke="#1A237E"/>
<rect x="120" y="406" width="60" height="60" rx="12" stroke="#1A237E"/>
<rect x="60" y="406" width="60" height="60" rx="12" stroke="#1A237E"/>
<rect y="406" width="60" height="60" rx="12" stroke="#1A237E"/>
<rect x="1380" y="346" width="60" height="60" rx="12" stroke="#1A237E"/>
<rect x="1320" y="346" width="60" height="60" rx="12" stroke="#1A237E"/>
<rect x="1260" y="346" width="60" height="60" rx="12" stroke="#1A237E"/>
<rect x="1200" y="346" width="60" height="60" rx="12" stroke="#1A237E"/>
<rect x="1140" y="346" width="60" height="60" rx="12" stroke="#1A237E"/>
<rect x="1080" y="346" width="60" height="60" rx="12" stroke="#1A237E"/>
<rect x="1020" y="346" width="60" height="60" rx="12" stroke="#1A237E"/>
<rect x="960" y="346" width="60" height="60" rx="12" stroke="#1A237E"/>
<rect x="900" y="346" width="60" height="60" rx="12" stroke="#1A237E"/>
<rect x="840" y="346" width="60" height="60" rx="12" stroke="#1A237E"/>
<rect x="780" y="346" width="60" height="60" rx="12" stroke="#1A237E"/>
<rect x="720" y="346" width="60" height="60" rx="12" stroke="#1A237E"/>
<rect x="660" y="346" width="60" height="60" rx="12" stroke="#1A237E"/>
<rect x="600" y="346" width="60" height="60" rx="12" stroke="#1A237E"/>
<rect x="540" y="346" width="60" height="60" rx="12" stroke="#1A237E"/>
<rect x="480" y="346" width="60" height="60" rx="12" stroke="#1A237E"/>
<rect x="420" y="346" width="60" height="60" rx="12" stroke="#1A237E"/>
<rect x="360" y="346" width="60" height="60" rx="12" stroke="#1A237E"/>
<rect x="300" y="346" width="60" height="60" rx="12" stroke="#1A237E"/>
<rect x="240" y="346" width="60" height="60" rx="12" stroke="#1A237E"/>
<rect x="180" y="346" width="60" height="60" rx="12" stroke="#1A237E"/>
<rect x="120" y="346" width="60" height="60" rx="12" stroke="#1A237E"/>
<rect x="60" y="346" width="60" height="60" rx="12" stroke="#1A237E"/>
<rect y="346" width="60" height="60" rx="12" stroke="#1A237E"/>
<rect x="1380" y="286" width="60" height="60" rx="12" stroke="#1A237E"/>
<rect x="1320" y="286" width="60" height="60" rx="12" stroke="#1A237E"/>
<rect x="1260" y="286" width="60" height="60" rx="12" fill="#1A25B9"/>
<rect x="1200" y="286" width="60" height="60" rx="12" stroke="#1A237E"/>
<rect x="1140" y="286" width="60" height="60" rx="12" stroke="#1A237E"/>
<rect x="1080" y="286" width="60" height="60" rx="12" stroke="#1A237E"/>
<rect x="1020" y="286" width="60" height="60" rx="12" stroke="#1A237E"/>
<rect x="960" y="286" width="60" height="60" rx="12" stroke="#1A237E"/>
<rect x="900" y="286" width="60" height="60" rx="12" stroke="#1A237E"/>
<rect x="840" y="286" width="60" height="60" rx="12" stroke="#1A237E"/>
<rect x="780" y="286" width="60" height="60" rx="12" stroke="#1A237E"/>
<rect x="720" y="286" width="60" height="60" rx="12" stroke="#1A237E"/>
<rect x="660" y="286" width="60" height="60" rx="12" stroke="#1A237E"/>
<rect x="600" y="286" width="60" height="60" rx="12" stroke="#1A237E"/>
<rect x="540" y="286" width="60" height="60" rx="12" stroke="#1A237E"/>
<rect x="480" y="286" width="60" height="60" rx="12" stroke="#1A237E"/>
<rect x="420" y="286" width="60" height="60" rx="12" stroke="#1A237E"/>
<rect x="360" y="286" width="60" height="60" rx="12" stroke="#1A237E"/>
<rect x="300" y="286" width="60" height="60" rx="12" stroke="#1A237E"/>
<rect x="240" y="286" width="60" height="60" rx="12" stroke="#1A237E"/>
<rect x="180" y="286" width="60" height="60" rx="12" fill="#1A25B9"/>
<rect x="120" y="286" width="60" height="60" rx="12" stroke="#1A237E"/>
<rect x="60" y="286" width="60" height="60" rx="12" stroke="#1A237E"/>
<rect y="286" width="60" height="60" rx="12" stroke="#1A237E"/>
<rect x="1380" y="226" width="60" height="60" rx="12" stroke="#1A237E"/>
<rect x="1320" y="226" width="60" height="60" rx="12" stroke="#1A237E"/>
<rect x="1260" y="226" width="60" height="60" rx="12" stroke="#1A237E"/>
<rect x="1200" y="226" width="60" height="60" rx="12" stroke="#1A237E"/>
<rect x="1140" y="226" width="60" height="60" rx="12" stroke="#1A237E"/>
<rect x="1080" y="226" width="60" height="60" rx="12" stroke="#1A237E"/>
<rect x="1020" y="226" width="60" height="60" rx="12" stroke="#1A237E"/>
<rect x="960" y="226" width="60" height="60" rx="12" stroke="#1A237E"/>
<rect x="900" y="226" width="60" height="60" rx="12" stroke="#1A237E"/>
<rect x="840" y="226" width="60" height="60" rx="12" stroke="#1A237E"/>
<rect x="780" y="226" width="60" height="60" rx="12" stroke="#1A237E"/>
<rect x="720" y="226" width="60" height="60" rx="12" stroke="#1A237E"/>
<rect x="660" y="226" width="60" height="60" rx="12" stroke="#1A237E"/>
<rect x="600" y="226" width="60" height="60" rx="12" stroke="#1A237E"/>
<rect x="540" y="226" width="60" height="60" rx="12" stroke="#1A237E"/>
<rect x="480" y="226" width="60" height="60" rx="12" stroke="#1A237E"/>
<rect x="420" y="226" width="60" height="60" rx="12" stroke="#1A237E"/>
<rect x="360" y="226" width="60" height="60" rx="12" stroke="#1A237E"/>
<rect x="300" y="226" width="60" height="60" rx="12" stroke="#1A237E"/>
<rect x="240" y="226" width="60" height="60" rx="12" stroke="#1A237E"/>
<rect x="180" y="226" width="60" height="60" rx="12" stroke="#1A237E"/>
<rect x="120" y="226" width="60" height="60" rx="12" stroke="#1A237E"/>
<rect x="60" y="226" width="60" height="60" rx="12" stroke="#1A237E"/>
<rect y="226" width="60" height="60" rx="12" stroke="#1A237E"/>
<rect x="1380" y="166" width="60" height="60" rx="12" stroke="#1A237E"/>
<rect x="1320" y="166" width="60" height="60" rx="12" stroke="#1A237E"/>
<rect x="1260" y="166" width="60" height="60" rx="12" stroke="#1A237E"/>
<rect x="1200" y="166" width="60" height="60" rx="12" stroke="#1A237E"/>
<rect x="1140" y="166" width="60" height="60" rx="12" stroke="#1A237E"/>
<rect x="1080" y="166" width="60" height="60" rx="12" stroke="#1A237E"/>
<rect x="1020" y="166" width="60" height="60" rx="12" stroke="#1A237E"/>
<rect x="960" y="166" width="60" height="60" rx="12" stroke="#1A237E"/>
<rect x="900" y="166" width="60" height="60" rx="12" stroke="#1A237E"/>
<rect x="840" y="166" width="60" height="60" rx="12" stroke="#1A237E"/>
<rect x="780" y="166" width="60" height="60" rx="12" stroke="#1A237E"/>
<rect x="720" y="166" width="60" height="60" rx="12" stroke="#1A237E"/>
<rect x="660" y="166" width="60" height="60" rx="12" stroke="#1A237E"/>
<rect x="600" y="166" width="60" height="60" rx="12" stroke="#1A237E"/>
<rect x="540" y="166" width="60" height="60" rx="12" stroke="#1A237E"/>
<rect x="480" y="166" width="60" height="60" rx="12" stroke="#1A237E"/>
<rect x="420" y="166" width="60" height="60" rx="12" stroke="#1A237E"/>
<rect x="360" y="166" width="60" height="60" rx="12" stroke="#1A237E"/>
<rect x="300" y="166" width="60" height="60" rx="12" stroke="#1A237E"/>
<rect x="240" y="166" width="60" height="60" rx="12" stroke="#1A237E"/>
<rect x="180" y="166" width="60" height="60" rx="12" stroke="#1A237E"/>
<rect x="120" y="166" width="60" height="60" rx="12" stroke="#1A237E"/>
<rect x="60" y="166" width="60" height="60" rx="12" stroke="#1A237E"/>
<rect y="166" width="60" height="60" rx="12" stroke="#1A237E"/>
<rect x="1380" y="106" width="60" height="60" rx="12" stroke="#1A237E"/>
<rect x="1320" y="106" width="60" height="60" rx="12" stroke="#1A237E"/>
<rect x="1260" y="106" width="60" height="60" rx="12" stroke="#1A237E"/>
<rect x="1200" y="106" width="60" height="60" rx="12" stroke="#1A237E"/>
<rect x="1140" y="106" width="60" height="60" rx="12" fill="#1A237E"/>
<rect x="1080" y="106" width="60" height="60" rx="12" stroke="#1A237E"/>
<rect x="1020" y="106" width="60" height="60" rx="12" stroke="#1A237E"/>
<rect x="960" y="106" width="60" height="60" rx="12" stroke="#1A237E"/>
<rect x="900" y="106" width="60" height="60" rx="12" stroke="#1A237E"/>
<rect x="840" y="106" width="60" height="60" rx="12" stroke="#1A237E"/>
<rect x="780" y="106" width="60" height="60" rx="12" stroke="#1A237E"/>
<rect x="720" y="106" width="60" height="60" rx="12" stroke="#1A237E"/>
<rect x="660" y="106" width="60" height="60" rx="12" stroke="#1A237E"/>
<rect x="600" y="106" width="60" height="60" rx="12" stroke="#1A237E"/>
<rect x="540" y="106" width="60" height="60" rx="12" stroke="#1A237E"/>
<rect x="480" y="106" width="60" height="60" rx="12" stroke="#1A237E"/>
<rect x="420" y="106" width="60" height="60" rx="12" stroke="#1A237E"/>
<rect x="360" y="106" width="60" height="60" rx="12" stroke="#1A237E"/>
<rect x="300" y="106" width="60" height="60" rx="12" stroke="#1A237E"/>
<rect x="240" y="106" width="60" height="60" rx="12" fill="#1A25B9"/>
<rect x="180" y="106" width="60" height="60" rx="12" stroke="#1A237E"/>
<rect x="120" y="106" width="60" height="60" rx="12" stroke="#1A237E"/>
<rect x="60" y="106" width="60" height="60" rx="12" stroke="#1A237E"/>
<rect y="106" width="60" height="60" rx="12" stroke="#1A237E"/>
<rect x="1380" y="46" width="60" height="60" rx="12" stroke="#1A237E"/>
<rect x="1320" y="46" width="60" height="60" rx="12" stroke="#1A237E"/>
<rect x="1260" y="46" width="60" height="60" rx="12" stroke="#1A237E"/>
<rect x="1200" y="46" width="60" height="60" rx="12" stroke="#1A237E"/>
<rect x="1140" y="46" width="60" height="60" rx="12" stroke="#1A237E"/>
<rect x="1080" y="46" width="60" height="60" rx="12" stroke="#1A237E"/>
<rect x="1020" y="46" width="60" height="60" rx="12" stroke="#1A237E"/>
<rect x="960" y="46" width="60" height="60" rx="12" stroke="#1A237E"/>
<rect x="900" y="46" width="60" height="60" rx="12" stroke="#1A237E"/>
<rect x="840" y="46" width="60" height="60" rx="12" stroke="#1A237E"/>
<rect x="780" y="46" width="60" height="60" rx="12" stroke="#1A237E"/>
<rect x="720" y="46" width="60" height="60" rx="12" stroke="#1A237E"/>
<rect x="660" y="46" width="60" height="60" rx="12" stroke="#1A237E"/>
<rect x="600" y="46" width="60" height="60" rx="12" stroke="#1A237E"/>
<rect x="540" y="46" width="60" height="60" rx="12" fill="#1A25B9"/>
<rect x="480" y="46" width="60" height="60" rx="12" stroke="#1A237E"/>
<rect x="420" y="46" width="60" height="60" rx="12" stroke="#1A237E"/>
<rect x="360" y="46" width="60" height="60" rx="12" stroke="#1A237E"/>
<rect x="300" y="46" width="60" height="60" rx="12" stroke="#1A237E"/>
<rect x="240" y="46" width="60" height="60" rx="12" stroke="#1A237E"/>
<rect x="180" y="46" width="60" height="60" rx="12" stroke="#1A237E"/>
<rect x="120" y="46" width="60" height="60" rx="12" stroke="#1A237E"/>
<rect x="60" y="46" width="60" height="60" rx="12" stroke="#1A237E"/>
<rect y="46" width="60" height="60" rx="12" stroke="#1A237E"/>
<rect x="1380" y="-14" width="60" height="60" rx="12" stroke="#1A237E"/>
<rect x="1320" y="-14" width="60" height="60" rx="12" stroke="#1A237E"/>
<rect x="1260" y="-14" width="60" height="60" rx="12" stroke="#1A237E"/>
<rect x="1200" y="-14" width="60" height="60" rx="12" stroke="#1A237E"/>
<rect x="1140" y="-14" width="60" height="60" rx="12" stroke="#1A237E"/>
<rect x="1080" y="-14" width="60" height="60" rx="12" stroke="#1A237E"/>
<rect x="1020" y="-14" width="60" height="60" rx="12" stroke="#1A237E"/>
<rect x="960" y="-14" width="60" height="60" rx="12" stroke="#1A237E"/>
<rect x="900" y="-14" width="60" height="60" rx="12" stroke="#1A237E"/>
<rect x="840" y="-14" width="60" height="60" rx="12" fill="#1A237E"/>
<rect x="780" y="-14" width="60" height="60" rx="12" stroke="#1A237E"/>
<rect x="720" y="-14" width="60" height="60" rx="12" stroke="#1A237E"/>
<rect x="660" y="-14" width="60" height="60" rx="12" stroke="#1A237E"/>
<rect x="600" y="-14" width="60" height="60" rx="12" stroke="#1A237E"/>
<rect x="540" y="-14" width="60" height="60" rx="12" stroke="#1A237E"/>
<rect x="480" y="-14" width="60" height="60" rx="12" stroke="#1A237E"/>
<rect x="420" y="-14" width="60" height="60" rx="12" stroke="#1A237E"/>
<rect x="360" y="-14" width="60" height="60" rx="12" stroke="#1A237E"/>
<rect x="300" y="-14" width="60" height="60" rx="12" stroke="#1A237E"/>
<rect x="240" y="-14" width="60" height="60" rx="12" stroke="#1A237E"/>
<rect x="180" y="-14" width="60" height="60" rx="12" stroke="#1A237E"/>
<rect x="120" y="-14" width="60" height="60" rx="12" stroke="#1A237E"/>
<rect x="60" y="-14" width="60" height="60" rx="12" stroke="#1A237E"/>
<rect y="-14" width="60" height="60" rx="12" stroke="#1A237E"/>
<defs>
<clipPath id="clip0_856_4600">
<rect width="24" height="24" fill="white" transform="translate(498 724)"/>
</clipPath>
<clipPath id="clip1_856_4600">
<rect width="24" height="24" fill="white" transform="translate(858 664)"/>
</clipPath>
<clipPath id="clip2_856_4600">
<rect width="24" height="24" fill="white" transform="translate(618 664)"/>
</clipPath>
<clipPath id="clip3_856_4600">
<rect width="24" height="24" fill="white" transform="translate(1218 604)"/>
</clipPath>
<clipPath id="clip4_856_4600">
<rect width="24" height="24" fill="white" transform="translate(978 604)"/>
</clipPath>
<clipPath id="clip5_856_4600">
<rect width="24" height="24" fill="white" transform="translate(1158 484)"/>
</clipPath>
</defs>
</svg>
