<svg width="424" height="390" viewBox="0 0 424 390" fill="none" xmlns="http://www.w3.org/2000/svg">
<path d="M422.284 129.724L411.865 131.112C411.606 132.51 411.262 133.908 410.84 135.307C410.419 136.695 409.921 138.055 409.356 139.357L417.218 146.329C416.002 148.694 414.604 150.935 413.043 153.023L403.332 149.02C401.446 151.223 399.329 153.186 397.022 154.9L400.345 164.859C398.123 166.286 395.796 167.522 393.373 168.565L386.966 160.243C384.266 161.201 381.45 161.862 378.568 162.197L376.461 172.492C373.856 172.616 371.223 172.53 368.57 172.214L367.182 161.795C365.783 161.536 364.385 161.192 362.987 160.77C361.599 160.349 360.239 159.851 358.936 159.286L351.965 167.148C349.599 165.932 347.358 164.534 345.271 162.973L349.274 153.262C347.071 151.376 345.108 149.259 343.394 146.951L333.434 150.274C332.008 148.053 330.772 145.726 329.728 143.303L338.05 136.896C337.093 134.196 336.432 131.38 336.097 128.498L325.802 126.391C325.678 123.786 325.764 121.153 326.08 118.5L336.499 117.111C336.757 115.713 337.102 114.315 337.524 112.917C337.945 111.528 338.443 110.169 339.008 108.866L331.146 101.895C332.362 99.5292 333.76 97.2884 335.321 95.2007L345.031 99.2036C346.918 97.0011 349.034 95.0379 351.342 93.3237L348.019 83.3643C350.241 81.9374 352.568 80.7021 354.991 79.6582L361.397 87.9801C364.098 87.0225 366.913 86.3617 369.796 86.0265L371.903 75.7319C374.507 75.6074 377.141 75.6936 379.794 76.0097L381.182 86.4287C382.58 86.6873 383.979 87.0321 385.377 87.4534C386.765 87.8748 388.125 88.3728 389.427 88.9378L396.399 81.0755C398.764 82.2917 401.005 83.6899 403.093 85.2509L399.09 94.9613C401.293 96.8478 403.256 98.9642 404.97 101.272L414.929 97.9491C416.356 100.171 417.592 102.498 418.635 104.921L410.314 111.327C411.271 114.028 411.932 116.843 412.267 119.726L422.562 121.833C422.686 124.437 422.6 127.08 422.284 129.724ZM379.286 107.42C370.064 104.605 360.315 109.795 357.5 119.017C354.684 128.239 359.875 137.988 369.097 140.803C378.319 143.619 388.068 138.428 390.883 129.206C393.699 119.994 388.508 110.236 379.286 107.42Z" fill="#C1C7D7" stroke="#C1C7D7" stroke-width="0.957638" stroke-miterlimit="10" stroke-linecap="round" stroke-linejoin="round"/>
<path d="M343.509 114.746C348.68 97.8055 366.617 88.2579 383.557 93.4291" stroke="#C1C7D7" stroke-width="0.957638" stroke-miterlimit="10" stroke-linecap="round" stroke-linejoin="round"/>
<path d="M382.685 90.5547L383.556 93.4276L381.249 95.4865" stroke="#C1C7D7" stroke-width="0.957638" stroke-miterlimit="10" stroke-linecap="round" stroke-linejoin="round"/>
<path d="M226.724 0.718506H317.996C324.786 0.718506 330.283 6.22492 330.283 13.005V37.578C330.283 44.3676 324.776 49.8645 317.996 49.8645H240.82L226.082 64.6025V49.8549C219.599 49.5197 214.437 44.157 214.437 37.578V13.005C214.437 6.21535 219.934 0.718506 226.724 0.718506Z" fill="#C1C7D7" stroke="#C1C7D7" stroke-width="0.957638" stroke-miterlimit="10" stroke-linecap="round" stroke-linejoin="round"/>
<path d="M314.501 14.8054H231.004" stroke="white" stroke-width="0.957638" stroke-miterlimit="10" stroke-linecap="round" stroke-linejoin="round"/>
<path d="M294.046 25.3875H231.004" stroke="white" stroke-width="0.957638" stroke-miterlimit="10" stroke-linecap="round" stroke-linejoin="round"/>
<path d="M279.959 35.9595H231.704" stroke="white" stroke-width="0.957638" stroke-miterlimit="10" stroke-linecap="round" stroke-linejoin="round"/>
<path d="M61.2039 51.4905H40.5859C36.7937 51.4905 33.7292 48.4165 33.7292 44.6339V24.1787C33.7292 20.3865 36.8033 17.322 40.5859 17.322H61.2039C64.9961 17.322 68.0606 20.396 68.0606 24.1787V44.6243C68.0701 48.4165 64.9961 51.4905 61.2039 51.4905Z" fill="#C1C7D7"/>
<path d="M57.7183 48.0049H37.1003C33.3081 48.0049 30.2437 44.9309 30.2437 41.1483V20.6931C30.2437 16.9009 33.3177 13.8364 37.1003 13.8364H57.7183C61.5105 13.8364 64.575 16.9104 64.575 20.6931V41.1387C64.575 44.9309 61.501 48.0049 57.7183 48.0049Z" fill="white" stroke="#C1C7D7" stroke-width="0.957638" stroke-miterlimit="10" stroke-linecap="round" stroke-linejoin="round"/>
<path d="M52.7473 37.9135C56.4759 34.1849 56.4759 28.1398 52.7473 24.4112C49.0188 20.6827 42.9736 20.6827 39.245 24.4112C35.5165 28.1398 35.5165 34.1849 39.245 37.9135C42.9736 41.642 49.0188 41.6421 52.7473 37.9135Z" fill="#2239FF"/>
<path d="M45.9984 36.4365C45.5866 36.4365 45.1652 36.2833 44.8492 35.9672L39.5439 30.8535C38.8831 30.2214 38.864 29.168 39.5056 28.5072C40.1377 27.8465 41.1911 27.8273 41.8518 28.4689L45.9792 32.4527L54.8853 23.4701C55.5269 22.8189 56.5803 22.8189 57.2315 23.4605C57.8827 24.1021 57.8827 25.1555 57.2411 25.8067L47.1859 35.9481C46.8507 36.2641 46.4293 36.4365 45.9984 36.4365Z" fill="white" stroke="#C1C7D7" stroke-width="0.957638" stroke-miterlimit="10" stroke-linecap="round" stroke-linejoin="round"/>
<path d="M176.687 250.852L171.793 248.363L174.245 252.298" stroke="#31323A" stroke-width="0.957638" stroke-miterlimit="10" stroke-linecap="round" stroke-linejoin="round"/>
<path d="M145.736 273.903L154.048 287.501L153.043 278.509" stroke="#31323A" stroke-width="0.957638" stroke-miterlimit="10" stroke-linecap="round" stroke-linejoin="round"/>
<path d="M369.239 158.967H273.236C262.961 158.967 254.639 150.635 254.639 140.369V47.153C254.639 36.8775 262.97 28.5557 273.236 28.5557H369.239C379.515 28.5557 387.837 36.8871 387.837 47.153V140.369C387.837 150.645 379.515 158.967 369.239 158.967Z" fill="white" stroke="#C1C7D7" stroke-width="0.957638" stroke-miterlimit="10" stroke-linecap="round" stroke-linejoin="round"/>
<path d="M304.197 158.967H273.227C268.276 158.967 263.765 157.033 260.433 153.872" stroke="#31323A" stroke-width="0.957638" stroke-miterlimit="10" stroke-linecap="round" stroke-linejoin="round"/>
<path d="M387.836 82.5952V140.37C387.836 150.645 379.515 158.967 369.239 158.967H351.379" stroke="#31323A" stroke-width="0.957638" stroke-miterlimit="10" stroke-linecap="round" stroke-linejoin="round"/>
<path d="M363.531 28.5557H369.239C379.514 28.5557 387.836 36.8871 387.836 47.153V51.9699" stroke="#31323A" stroke-width="0.957638" stroke-miterlimit="10" stroke-linecap="round" stroke-linejoin="round"/>
<path d="M174.215 116.466H64.6322C56.09 116.466 49.1567 109.532 49.1567 100.99V51.9112C49.1567 43.3691 56.09 36.4358 64.6322 36.4358H174.215C182.757 36.4358 189.69 43.3691 189.69 51.9112V100.99C189.69 109.542 182.757 116.466 174.215 116.466Z" fill="white"/>
<mask id="mask0_856_14439" style="mask-type:luminance" maskUnits="userSpaceOnUse" x="49" y="36" width="141" height="81">
<path d="M174.212 116.462H64.6295C56.0874 116.462 49.1541 109.529 49.1541 100.987V51.908C49.1541 43.3659 56.0874 36.4326 64.6295 36.4326H174.212C182.754 36.4326 189.687 43.3659 189.687 51.908V100.987C189.687 109.539 182.754 116.462 174.212 116.462Z" fill="white"/>
</mask>
<g mask="url(#mask0_856_14439)">
<path d="M156.197 57.434C154.569 55.2218 151.16 49.7729 148.545 50.3762C145.921 50.9795 148.603 54.3791 152.338 59.694C150.307 56.3231 144.131 49.1313 141.497 50.357C138.864 51.5732 144.504 54.925 148.363 61.9445C145.749 57.8745 139.381 49.9261 135.378 52.6458C133.156 54.1589 140.721 58.9662 144.456 64.2715C142.426 60.9006 134.028 55.0207 131.672 56.7158C128.665 58.8704 136.441 60.4697 140.53 66.4454C144.734 72.7658 148.383 87.8007 155.68 88.787C162.967 89.7734 165.285 82.39 163.063 73.4648C160.822 64.5397 156.197 57.434 156.197 57.434Z" fill="white" stroke="#31323A" stroke-width="0.957638" stroke-miterlimit="10" stroke-linecap="round" stroke-linejoin="round"/>
<path d="M97.6556 119.347C95.7404 110.173 97.4067 101.956 105.661 96.9955C118.705 89.1621 132.562 105.068 142.262 119.347H97.6556Z" fill="#2239FF"/>
<path d="M162.133 119.347C162.248 117.843 162.354 116.34 162.449 114.827C162.861 108.612 163.168 102.378 163.359 96.1243C163.532 89.8709 163.618 83.5984 163.407 77.2779C163.302 73.9549 160.515 71.3502 157.192 71.4651C154.721 71.5513 152.653 73.1026 151.8 75.2669C149.473 81.1468 147.434 87.0842 145.49 93.0311C143.555 98.978 141.745 104.954 140.041 110.939C139.236 113.735 138.461 116.541 137.714 119.357H162.133V119.347Z" fill="white" stroke="#31323A" stroke-width="0.957638" stroke-miterlimit="10" stroke-linecap="round" stroke-linejoin="round"/>
<path d="M78.7049 42.3511C70.2202 47.4936 67.3186 50.1367 69.2243 58.0851C71.1204 66.0335 74.6445 79.2584 77.6227 82.3325C80.601 85.3873 78.7049 42.3511 78.7049 42.3511Z" fill="#31323A"/>
<path d="M130.312 119.345C130.053 111.933 129.421 106.484 128.282 104.071C121.444 89.6007 42.1517 88.3845 41.06 102.864C40.7919 106.436 40.8589 112.287 41.1366 119.345H130.312Z" fill="#2239FF"/>
<path d="M63.287 93.4409C69.3776 92.761 77.3834 91.0276 84.2784 91.1521C91.7001 91.2862 98.0109 93.3355 104.714 94.3794C112.519 113.494 54.946 105.296 63.287 93.4409Z" fill="white"/>
<path d="M104.724 94.3793C112.529 113.494 54.9459 105.306 63.2965 93.4504" stroke="#31323A" stroke-width="0.957638" stroke-miterlimit="10" stroke-linecap="round" stroke-linejoin="round"/>
<path d="M97.248 71.3456L97.6981 98.3127C97.4778 106.52 74.6382 105.926 74.6382 97.4125C74.6382 88.8991 74.6382 57.1822 74.6382 57.1822C74.6382 57.1822 95.2274 48.7837 97.248 71.3456Z" fill="white"/>
<path d="M88.907 35.6929C56.108 35.6929 79.3211 87.0797 93.0919 87.0797C104.478 87.0797 103.626 73.2993 103.865 60.7638C104.105 48.0081 103.348 35.6929 88.907 35.6929Z" fill="white"/>
<path d="M81.3418 78.1258C85.1053 83.4503 89.4243 87.0701 93.0824 87.0701C104.469 87.0701 103.616 73.2897 103.856 60.7542C104.105 48.0081 103.348 35.6929 88.8976 35.6929" stroke="#31323A" stroke-width="0.957638" stroke-miterlimit="10" stroke-linecap="round" stroke-linejoin="round"/>
<path d="M103.534 50.1913C102.806 43.756 99.4545 43.2101 97.0317 44.6945C94.6089 46.1788 90.6251 49.6072 76.2127 49.1092C76.2127 49.1092 76.4808 62.8992 74.5655 64.8144C72.6502 66.7297 70.17 64.6421 68.1781 58.5323C61.1011 36.8323 73.311 38.5464 82.9736 36.1332C85.3868 35.5299 90.1463 34.5531 89.4089 30.7991C99.1577 28.3763 111.76 42.3483 103.534 50.1913Z" fill="#31323A"/>
<path d="M77.6661 69.7961C81.8031 64.2801 72.4279 56.303 69.8231 61.1487C67.2087 66.0039 73.7973 74.9578 77.6661 69.7961Z" fill="white"/>
<path d="M74.3625 67.5553C74.3625 67.5553 71.6046 65.7933 73.2134 63.9067" stroke="#31323A" stroke-width="0.957638" stroke-miterlimit="10" stroke-linecap="round" stroke-linejoin="round"/>
<path d="M76.2681 61.5798C74.1135 59.5113 71.1256 58.7356 69.8232 61.1585C67.5824 65.3146 72.0928 72.4777 75.8659 71.2041" stroke="#31323A" stroke-width="0.957638" stroke-miterlimit="10" stroke-linecap="round" stroke-linejoin="round"/>
<path d="M98.5237 75.9717C98.5237 75.9717 94.9039 76.8048 91.8298 75.5024" stroke="#31323A" stroke-width="0.957638" stroke-miterlimit="10" stroke-linecap="round" stroke-linejoin="round"/>
<path d="M109.445 98.6792C105.71 116.472 71.7524 109.644 64.3977 104.042" stroke="#31323A" stroke-width="0.957638" stroke-miterlimit="10" stroke-linecap="round" stroke-linejoin="round"/>
<path d="M139.819 54.4092C142.136 54.39 160.858 54.2368 163.176 54.2176C166.403 54.1889 169.065 60.0592 169.132 67.3373C169.189 74.6057 166.623 80.524 163.396 80.5527C161.078 80.5718 142.356 80.7251 140.039 80.7442C136.812 80.7729 134.15 74.9026 134.082 67.6246C134.025 60.3465 136.592 54.4379 139.819 54.4092Z" fill="#31323A"/>
<path d="M158.665 67.4235C158.713 72.8533 160.37 77.4116 162.582 78.8002C164.439 76.9711 165.713 72.7575 165.675 67.8736C165.627 62.4438 163.97 57.8854 161.758 56.4968C159.9 58.3259 158.627 62.5299 158.665 67.4235Z" fill="#2239FF"/>
<path d="M103.782 57.0518C104.672 57.0997 112.506 57.5976 113.397 57.6359C114.641 57.6934 115.532 60.0204 115.398 62.8167C115.254 65.6226 114.134 67.8443 112.899 67.7773C112.008 67.7294 104.174 67.2315 103.284 67.1932C102.039 67.1357 101.148 64.8086 101.282 62.0123C101.416 59.2065 102.537 56.9847 103.782 57.0518Z" fill="#31323A"/>
<path d="M164.211 72.9482C164.45 71.5501 164.584 70.0274 164.574 68.4282C164.546 64.5306 163.684 61.0831 162.372 58.938C162.085 59.3498 161.807 59.8286 161.558 60.3649C163.157 62.3951 164.249 66.2352 164.287 70.6307C164.297 71.416 164.268 72.1917 164.211 72.9482Z" fill="white"/>
<path d="M34.0884 119.345C32.3072 110.41 34.0118 102.96 42.1804 99.455C54.2467 94.2838 66.6672 107.202 75.1423 119.345H34.0884Z" fill="#2239FF"/>
<path d="M103.517 119.345C104.446 115.199 105.327 111.042 106.16 106.858C107.405 100.518 108.574 94.1401 109.455 87.6761C109.905 84.3914 107.597 81.3557 104.312 80.9152C101.841 80.58 99.5143 81.7962 98.3268 83.8168C95.0134 89.4381 91.9777 95.1648 89.0282 100.92C86.0978 106.676 83.2824 112.479 80.5531 118.301C80.3903 118.646 80.2275 119 80.0647 119.345H103.517Z" fill="white"/>
<path d="M86.155 55.9781C92.3222 52.8754 96.0283 56.8687 96.0283 56.8687" stroke="#31323A" stroke-width="0.957638" stroke-miterlimit="10" stroke-linecap="round" stroke-linejoin="round"/>
<path d="M122.928 105.057C124.403 109.788 125.572 114.595 126.491 119.345" stroke="#31323A" stroke-width="0.957638" stroke-miterlimit="10" stroke-linecap="round" stroke-linejoin="round"/>
<path d="M46.5376 99.072C57.0237 102.041 67.0694 114.164 70.9861 119.345" stroke="#31323A" stroke-width="0.957638" stroke-miterlimit="10" stroke-linecap="round" stroke-linejoin="round"/>
<path d="M149.503 84.5544C138.979 81.4708 133.769 69.6439 138.49 71.3581C143.211 73.0627 154.329 78.119 154.827 80.743C155.325 83.3573 149.503 84.5544 149.503 84.5544Z" fill="white"/>
<path d="M113.269 54.7452C115.222 54.8409 149.037 55.157 150.99 55.2527C153.719 55.3868 144.718 60.175 144.459 65.2983C144.2 70.4313 141.519 78.2552 138.79 78.1211C136.836 78.0254 114.293 73.4095 112.34 73.3138C109.611 73.1797 107.609 68.9086 107.868 63.7757C108.136 58.6619 110.549 54.6111 113.269 54.7452Z" fill="#31323A"/>
<path d="M117.253 54.8024C119.57 54.9174 138.263 55.8463 140.581 55.9612C143.808 56.124 146.125 62.1379 145.771 69.3968C145.407 76.6557 142.506 82.4207 139.278 82.2579C136.961 82.143 118.268 81.2141 115.95 81.0992C112.723 80.9364 110.406 74.9224 110.76 67.6635C111.124 60.395 114.025 54.6396 117.253 54.8024Z" fill="#31323A"/>
<path d="M135.314 68.8798C135.045 74.3001 136.434 78.9542 138.57 80.4673C140.533 78.7435 142.046 74.6161 142.295 69.7417C142.563 64.3215 141.174 59.6674 139.039 58.1543C137.066 59.8685 135.553 63.9959 135.314 68.8798Z" fill="#2239FF"/>
<path d="M94.0477 58.3929C94.9383 58.4408 102.772 58.9388 103.662 58.9771C104.907 59.0346 105.798 61.3616 105.664 64.1579C105.53 66.9542 104.4 69.1855 103.164 69.1185C102.274 69.0706 94.4403 68.5726 93.5497 68.5343C92.3048 68.4769 91.4142 66.1498 91.5483 63.3535C91.6823 60.5476 92.8028 58.3355 94.0477 58.3929Z" fill="#31323A"/>
<path d="M140.521 74.7102C140.847 73.3312 141.057 71.8181 141.143 70.2189C141.335 66.3309 140.674 62.8355 139.496 60.6138C139.18 61.0064 138.883 61.4756 138.606 61.9928C140.08 64.1091 140.962 68.0067 140.741 72.4023C140.703 73.1971 140.626 73.9728 140.521 74.7102Z" fill="white"/>
<path d="M109.964 78.6741C105.291 71.013 99.7364 70.6587 99.7364 70.6587C99.7364 70.6587 96.4996 77.7452 99.4108 84.9562C102.322 92.1672 109.964 78.6741 109.964 78.6741Z" fill="white"/>
<path d="M106.258 62.3849C107.886 60.1728 111.295 54.7238 113.91 55.3271C116.534 55.9304 113.852 59.33 110.117 64.6449C112.148 61.274 118.324 54.0822 120.958 55.308C123.591 56.5242 117.951 59.8759 114.092 66.8954C116.706 62.8254 123.074 54.877 127.077 57.5967C129.299 59.1098 121.734 63.9171 117.999 69.2224C120.029 65.8516 128.428 59.9717 130.783 61.6667C133.79 63.8214 126.014 65.4206 121.925 71.3963C117.721 77.7167 114.073 92.7516 106.775 93.738C99.4781 94.7243 97.1702 87.3409 99.3919 78.4158C101.614 69.4906 106.258 62.3849 106.258 62.3849Z" fill="white"/>
<path d="M100.347 56.4954C102.751 55.308 104.082 55.6623 104.082 55.6623" stroke="#31323A" stroke-width="0.957638" stroke-miterlimit="10" stroke-linecap="round" stroke-linejoin="round"/>
<path d="M88.1948 59.6555C91.0965 62.04 94.8217 60.2493 94.8217 60.2493" stroke="#31323A" stroke-width="0.957638" stroke-miterlimit="10" stroke-linecap="round" stroke-linejoin="round"/>
<path d="M153.23 83.1759C149.006 87.0735 141.489 79.9104 141.489 79.9104L153.23 83.1759Z" fill="white"/>
<path d="M153.23 83.1759C149.006 87.0735 141.489 79.9104 141.489 79.9104" stroke="#31323A" stroke-width="0.957638" stroke-miterlimit="10" stroke-linecap="round" stroke-linejoin="round"/>
<path d="M100.158 67.9495C97.1984 72.6993 98.2806 80.2647 98.2806 80.2647L97.4761 85.2636L80.2578 118.934" stroke="#31323A" stroke-width="0.957638" stroke-miterlimit="10" stroke-linecap="round" stroke-linejoin="round"/>
<path d="M118.563 78.7324C115.911 86.3839 110.94 91.8904 108.642 93.1544" stroke="#31323A" stroke-width="0.957638" stroke-miterlimit="10" stroke-linecap="round" stroke-linejoin="round"/>
</g>
<mask id="mask1_856_14439" style="mask-type:luminance" maskUnits="userSpaceOnUse" x="49" y="36" width="141" height="81">
<path d="M174.212 116.462H64.6295C56.0874 116.462 49.1541 109.529 49.1541 100.987V51.908C49.1541 43.3659 56.0874 36.4326 64.6295 36.4326H174.212C182.754 36.4326 189.687 43.3659 189.687 51.908V100.987C189.687 109.539 182.754 116.462 174.212 116.462Z" fill="white"/>
</mask>
<g mask="url(#mask1_856_14439)">
<path d="M74.5998 71.3303L73.5464 97.3398" stroke="#31323A" stroke-width="0.957638" stroke-miterlimit="10" stroke-linecap="round" stroke-linejoin="round"/>
</g>
<mask id="mask2_856_14439" style="mask-type:luminance" maskUnits="userSpaceOnUse" x="49" y="36" width="141" height="81">
<path d="M174.212 116.462H64.6295C56.0874 116.462 49.1541 109.529 49.1541 100.987V51.908C49.1541 43.3659 56.0874 36.4326 64.6295 36.4326H174.212C182.754 36.4326 189.687 43.3659 189.687 51.908V100.987C189.687 109.539 182.754 116.462 174.212 116.462Z" fill="white"/>
</mask>
<g mask="url(#mask2_856_14439)">
<path d="M62.7827 94.3329L73.786 91.3738" stroke="#31323A" stroke-width="0.957638" stroke-miterlimit="10" stroke-linecap="round" stroke-linejoin="round"/>
</g>
<path d="M174.215 116.466H64.6322C56.09 116.466 49.1567 109.532 49.1567 100.99V51.9112C49.1567 43.3691 56.09 36.4358 64.6322 36.4358H174.215C182.757 36.4358 189.69 43.3691 189.69 51.9112V100.99C189.69 109.542 182.757 116.466 174.215 116.466Z" stroke="#C1C7D7" stroke-width="0.957638" stroke-miterlimit="10" stroke-linecap="round" stroke-linejoin="round"/>
<path d="M174.216 116.467H64.6336C56.0915 116.467 49.1582 109.534 49.1582 100.992V51.9127C49.1582 43.3706 56.0915 36.4373 64.6336 36.4373" stroke="#31323A" stroke-width="0.957638" stroke-miterlimit="10" stroke-linecap="round" stroke-linejoin="round"/>
<mask id="mask3_856_14439" style="mask-type:luminance" maskUnits="userSpaceOnUse" x="21" y="150" width="215" height="181">
<path d="M216.166 330.506H40.6117C30.2022 330.506 21.7559 322.069 21.7559 311.65V169.393C21.7559 158.984 30.1926 150.537 40.6117 150.537H216.166C226.575 150.537 235.022 158.974 235.022 169.393V311.65C235.012 322.069 226.575 330.506 216.166 330.506Z" fill="white"/>
</mask>
<g mask="url(#mask3_856_14439)">
<path d="M77.343 332.51C78.5017 322.177 79.469 313.606 79.469 313.606L24.3952 306.156C24.3952 306.156 21.7713 311.672 18.6973 318.116C18.6973 318.116 18.6973 325.797 18.6973 332.51H77.343Z" fill="#2239FF"/>
<path d="M76.5456 208.075L71.2594 234.238C69.3058 242.129 47.3568 236.709 49.1571 228.483C50.9575 220.256 57.6801 189.593 57.6801 189.593C57.6801 189.593 79.3802 185.829 76.5456 208.075Z" fill="white"/>
<path d="M68.2237 170.699C35.98 174.386 60.237 219.864 73.8546 219.988C81.8509 220.065 86.9168 206.016 85.7389 193.663C84.5514 181.108 82.4255 169.08 68.2237 170.699Z" fill="white"/>
<path d="M60.5049 209.933C64.6993 215.803 69.7557 219.95 73.8544 219.988C80.7685 220.055 85.4897 209.56 85.8823 198.738" stroke="#31323A" stroke-width="0.957638" stroke-miterlimit="10" stroke-linecap="round" stroke-linejoin="round"/>
<path d="M72.0351 193.979C71.4701 191.93 68.5685 194.046 69.7655 195.664C70.9626 197.273 72.265 194.831 72.0351 193.979Z" fill="#31323A"/>
<path d="M84.1204 193.203C83.7565 191.106 80.6729 192.926 81.6975 194.659C82.7222 196.383 84.2736 194.084 84.1204 193.203Z" fill="#31323A"/>
<path d="M84.9347 186.959C82.0139 185.14 79.1697 186.586 79.1697 186.586" stroke="#31323A" stroke-width="0.957638" stroke-miterlimit="10" stroke-linecap="round" stroke-linejoin="round"/>
<path d="M72.035 187.486C68.5013 186.749 65.4177 188.549 65.4177 188.549" stroke="#31323A" stroke-width="0.957638" stroke-miterlimit="10" stroke-linecap="round" stroke-linejoin="round"/>
<path d="M75.4919 192.006C77.1678 198.346 78.5564 201.573 78.5564 201.573C78.5564 201.573 78.566 202.981 76.5645 203.517" stroke="#31323A" stroke-width="0.957638" stroke-miterlimit="10" stroke-linecap="round" stroke-linejoin="round"/>
<path d="M84.9351 186.961C84.485 175.172 75.1481 175.029 64.8535 179.989C65.8303 185.926 58.9448 191.893 58.9448 191.893C58.9448 191.893 55.7368 202.235 53.5533 208.479C50.9965 204.754 47.6447 200.358 46.0167 193.358C43.7376 183.513 46.0359 171.667 59.711 170.959C65.6483 161.986 81.162 167.731 83.7189 170.518C89.2924 176.589 88.6125 181.406 84.9351 186.961Z" fill="#31323A"/>
<path d="M60.8108 201.304C64.2583 195.414 54.1456 188.625 52.125 193.69C50.0948 198.747 57.5835 206.81 60.8108 201.304Z" fill="white"/>
<path d="M58.7423 198.948L54.9692 195.232" stroke="#31323A" stroke-width="0.957638" stroke-miterlimit="10" stroke-linecap="round" stroke-linejoin="round"/>
<path d="M59.7859 194.572C57.4205 191.862 53.3314 190.664 52.1248 193.681C50.3915 198.019 55.6298 204.56 59.2017 202.884" stroke="#31323A" stroke-width="0.957638" stroke-miterlimit="10" stroke-linecap="round" stroke-linejoin="round"/>
<path d="M46.9839 221.856L52.3754 213.227C52.3754 213.227 57.1923 220.745 64.0682 222.679C64.0682 222.679 69.1245 233.558 68.0041 242.933C66.8836 252.308 65.1695 256.474 65.1695 256.474C65.1695 256.474 44.8484 236.46 46.9839 221.856Z" fill="white"/>
<path d="M72.7824 226.835L58.3987 262.105L67.7931 272.515C67.7931 272.515 75.1861 250.834 76.5268 245.462C77.8579 240.089 72.7824 226.835 72.7824 226.835Z" fill="white"/>
<path d="M35.6742 332.511C28.4919 331.007 22.1811 329.686 18.6953 328.948V321.833C26.8927 302.891 37.3884 276.68 37.7427 265.993C38.3269 248.382 38.5567 226.74 38.5567 226.74L49.0907 218.513C50.2591 226.213 68.5404 263.053 68.5404 263.053C68.5404 263.053 77.1016 249.397 74.8991 232.725C74.8991 232.725 84.7627 252.701 86.0843 257.145C87.176 260.793 79.9554 311.548 76.4983 332.511H35.6742Z" fill="white"/>
<path d="M26.5573 332.511C30.6943 328.154 34.3046 322.714 36.5072 315.973C44.9823 290.049 48.7171 271.165 50.1823 261.176C53.0935 241.382 44.7141 226.031 49.0714 218.504C49.0714 218.504 31.7094 221.358 18.6855 227.707C18.6855 227.707 18.6855 308.359 18.6855 332.501H26.5573V332.511Z" fill="#2239FF"/>
<path d="M26.5571 332.511C30.6941 328.154 34.3044 322.714 36.507 315.973C44.9821 290.049 48.7169 271.165 50.1821 261.176C53.0933 241.382 44.7139 226.031 49.0712 218.504" stroke="#31323A" stroke-width="0.957638" stroke-miterlimit="10" stroke-linecap="round" stroke-linejoin="round"/>
<path d="M80.8648 332.51C81.2479 330.729 81.6309 329.101 82.014 327.674C85.9211 313.013 96.4935 272.763 91.169 250.134C88.5259 238.911 72.2078 227.438 72.2078 227.438C81.9374 252.385 87.4725 264.786 77.5993 312.879C76.1436 319.965 75.0136 326.506 74.1422 332.51H80.8648Z" fill="#2239FF"/>
<path d="M72.5239 228.023C82.2535 252.969 87.4918 264.777 77.609 312.87C76.1534 319.956 75.0234 326.497 74.1519 332.501" stroke="#31323A" stroke-width="0.957638" stroke-miterlimit="10" stroke-linecap="round" stroke-linejoin="round"/>
<path d="M23.6954 231.001C41.6032 239.696 28.3495 262.919 18.6965 276.163" stroke="#31323A" stroke-width="0.957638" stroke-miterlimit="10" stroke-linecap="round" stroke-linejoin="round"/>
<path d="M26.6914 318.663C23.8281 317.093 20.9264 314.028 18.6855 311.29" stroke="#31323A" stroke-width="0.957638" stroke-miterlimit="10" stroke-linecap="round" stroke-linejoin="round"/>
<path d="M41.6211 222.478L35.7891 250.307L44.7047 254.09L36.8233 258.485C36.8233 258.485 43.0288 296.121 39.0163 308.024" stroke="#31323A" stroke-width="0.957638" stroke-miterlimit="10" stroke-linecap="round" stroke-linejoin="round"/>
<path d="M56.5984 233.079C59.9405 227.314 63.8286 223.426 63.8286 223.426C63.8286 223.426 69.9096 235.674 68.1188 247.511" stroke="#31323A" stroke-width="0.957638" stroke-miterlimit="10" stroke-linecap="round" stroke-linejoin="round"/>
<path d="M69.833 238.25C69.833 238.25 74.219 237.618 77.4271 241.171C78.2986 235.061 76.2205 229.737 76.2205 229.737L73.0794 221.549L68.2529 236.249L69.833 238.25Z" fill="white"/>
<path d="M68.0615 237.139L76.211 229.737C79.4574 233.606 77.4176 241.171 77.4176 241.171" stroke="#31323A" stroke-width="0.957638" stroke-miterlimit="10" stroke-linecap="round" stroke-linejoin="round"/>
<path d="M77.9634 234.41C87.2046 244.992 88.3154 254.932 88.3154 254.932L83.9295 259.261L88.2293 264.174C88.2293 264.174 81.0661 299.089 78.5858 307.976" stroke="#31323A" stroke-width="0.957638" stroke-miterlimit="10" stroke-linecap="round" stroke-linejoin="round"/>
<path d="M28.0146 330.901C28.0146 330.901 31.2227 331.552 35.9343 332.51" stroke="#31323A" stroke-width="0.957638" stroke-miterlimit="10" stroke-linecap="round" stroke-linejoin="round"/>
<path d="M91.1716 250.124C94.7245 264.958 91.4589 282.282 91.4589 282.282" stroke="#31323A" stroke-width="0.957638" stroke-miterlimit="10" stroke-linecap="round" stroke-linejoin="round"/>
<path d="M71.0996 207.586C74.2119 210.248 78.8278 210.104 78.8278 210.104" stroke="#31323A" stroke-width="0.957638" stroke-miterlimit="10" stroke-linecap="round" stroke-linejoin="round"/>
<path d="M73.6603 196.105C75.0837 193.544 74.761 190.647 72.9395 189.635C71.118 188.623 68.4876 189.878 67.0641 192.44C65.6407 195.001 65.9634 197.898 67.7849 198.91C69.6063 199.922 72.2368 198.667 73.6603 196.105Z" stroke="#31323A" stroke-width="0.957638" stroke-miterlimit="10" stroke-linecap="round" stroke-linejoin="round"/>
<path d="M85.6834 194.629C87.1069 192.068 86.7842 189.171 84.9627 188.159C83.1412 187.146 80.5107 188.402 79.0873 190.963C77.6639 193.524 77.9866 196.421 79.8081 197.433C81.6295 198.446 84.26 197.19 85.6834 194.629Z" stroke="#31323A" stroke-width="0.957638" stroke-miterlimit="10" stroke-linecap="round" stroke-linejoin="round"/>
<path d="M57.5681 192.752L66.6944 193.192" stroke="#31323A" stroke-width="0.957638" stroke-miterlimit="10" stroke-linecap="round" stroke-linejoin="round"/>
<path d="M74.4128 191.775L78.5786 191.076" stroke="#31323A" stroke-width="0.957638" stroke-miterlimit="10" stroke-linecap="round" stroke-linejoin="round"/>
<path d="M55.6626 202.386C55.6435 202.376 52.3779 213.217 52.3779 213.217C56.0361 222.027 63.8217 223.415 63.8217 223.415" stroke="#31323A" stroke-width="0.957638" stroke-miterlimit="10" stroke-linecap="round" stroke-linejoin="round"/>
<path d="M73.8575 219.987L70.8984 228.165" stroke="#31323A" stroke-width="0.957638" stroke-miterlimit="10" stroke-linecap="round" stroke-linejoin="round"/>
<path d="M109.044 326.007C108.039 329.195 110.49 332.423 113.928 332.423H156.419L136.653 331.925C134.086 331.858 132.162 329.646 132.516 327.184L138.645 285.087H121.982L109.044 326.007Z" fill="white" stroke="#C1C7D7" stroke-width="0.957638" stroke-miterlimit="10" stroke-linecap="round" stroke-linejoin="round"/>
<path d="M72.5676 317.704H188.49C189.945 317.704 190.932 316.564 190.692 315.147L177.812 238.862C177.573 237.454 176.203 236.305 174.748 236.305H58.8255C57.3699 236.305 56.3836 237.444 56.623 238.862L69.5032 315.147C69.7426 316.564 71.112 317.704 72.5676 317.704Z" fill="white" stroke="#C1C7D7" stroke-width="0.957638" stroke-miterlimit="10" stroke-linecap="round" stroke-linejoin="round"/>
<path d="M67.8943 305.647C68.9094 311.681 69.5701 315.578 69.5701 315.578C69.7713 316.756 70.9108 317.704 72.127 317.704H188.921C190.137 317.704 190.96 316.746 190.759 315.578C190.759 315.578 190.098 311.681 189.083 305.647H67.8943Z" fill="white" stroke="#C1C7D7" stroke-width="0.957638" stroke-miterlimit="10" stroke-linecap="round" stroke-linejoin="round"/>
<path d="M186.182 303.253L175.284 238.728H59.0938L69.9917 303.253H186.182Z" fill="white" stroke="#C1C7D7" stroke-width="0.957638" stroke-miterlimit="10" stroke-linecap="round" stroke-linejoin="round"/>
<path d="M80.433 289.757H112.313L107.132 257.935H75.2522L80.433 289.757Z" fill="white" stroke="#C1C7D7" stroke-width="0.957638" stroke-miterlimit="10" stroke-linecap="round" stroke-linejoin="round"/>
<path d="M77.675 272.835C77.675 272.835 82.0706 283.264 90.7468 282.038C99.4134 280.822 101.989 267.415 108.76 267.961L112.313 289.757H80.433L77.675 272.835Z" fill="#C1C7D7" stroke="#C1C7D7" stroke-width="0.957638" stroke-miterlimit="10" stroke-linecap="round" stroke-linejoin="round"/>
<path d="M78.4509 266.17C77.4358 264.37 76.5931 262.503 75.6929 260.645" stroke="#C1C7D7" stroke-width="0.957638" stroke-miterlimit="10" stroke-linecap="round" stroke-linejoin="round"/>
<path d="M83.1337 271.897C82.2335 271.236 81.4291 270.432 80.7205 269.56" stroke="#C1C7D7" stroke-width="0.957638" stroke-miterlimit="10" stroke-linecap="round" stroke-linejoin="round"/>
<path d="M90.3734 274.54C89.1188 275.086 87.6058 274.684 86.2747 273.985" stroke="#C1C7D7" stroke-width="0.957638" stroke-miterlimit="10" stroke-linecap="round" stroke-linejoin="round"/>
<path d="M95.1807 271.744C94.4816 272.146 93.8304 272.625 93.1697 273.084" stroke="#C1C7D7" stroke-width="0.957638" stroke-miterlimit="10" stroke-linecap="round" stroke-linejoin="round"/>
<path d="M101.549 271.236C100.457 270.834 99.337 270.69 98.2644 270.796" stroke="#C1C7D7" stroke-width="0.957638" stroke-miterlimit="10" stroke-linecap="round" stroke-linejoin="round"/>
<path d="M107.295 275.967C106.529 275.067 105.743 274.176 104.862 273.381" stroke="white" stroke-width="0.957638" stroke-miterlimit="10" stroke-linecap="round" stroke-linejoin="round"/>
<path d="M111.298 283.532C110.809 282.115 110.215 280.726 109.507 279.386" stroke="white" stroke-width="0.957638" stroke-miterlimit="10" stroke-linecap="round" stroke-linejoin="round"/>
<path d="M92.3071 296.259C88.6776 296.288 85.1823 296.288 81.4954 296.259" stroke="#C1C7D7" stroke-width="0.957638" stroke-miterlimit="10" stroke-linecap="round" stroke-linejoin="round"/>
<path d="M101.577 296.259C100.15 296.259 98.7233 296.259 97.2964 296.259" stroke="#C1C7D7" stroke-width="0.957638" stroke-miterlimit="10" stroke-linecap="round" stroke-linejoin="round"/>
<path d="M113.375 296.259C110.972 296.288 108.826 296.288 106.308 296.259" stroke="#C1C7D7" stroke-width="0.957638" stroke-miterlimit="10" stroke-linecap="round" stroke-linejoin="round"/>
<path d="M74.2344 251.709H106.114L105.08 245.35H73.2002L74.2344 251.709Z" stroke="#C1C7D7" stroke-width="0.957638" stroke-miterlimit="10" stroke-linecap="round" stroke-linejoin="round"/>
<path d="M118.825 257.129H167.588L165.663 245.35H116.91L118.825 257.129Z" stroke="#C1C7D7" stroke-width="0.957638" stroke-miterlimit="10" stroke-linecap="round" stroke-linejoin="round"/>
<path d="M125.336 297.073H174.089L168.774 264.437H120.021L125.336 297.073Z" fill="#C1C7D7" stroke="#C1C7D7" stroke-width="0.957638" stroke-miterlimit="10" stroke-linecap="round" stroke-linejoin="round"/>
<path d="M134.399 270.106C131.593 270.25 128.835 270.25 126.096 270.106" stroke="white" stroke-width="0.957638" stroke-miterlimit="10" stroke-linecap="round" stroke-linejoin="round"/>
<path d="M147.394 270.106C144.684 270.106 141.984 270.106 139.273 270.106" stroke="white" stroke-width="0.957638" stroke-miterlimit="10" stroke-linecap="round" stroke-linejoin="round"/>
<path d="M158.56 270.106C158.57 270.144 158.589 270.173 158.598 270.211C155.898 270.221 153.178 270.183 150.506 270.106H158.56Z" stroke="white" stroke-width="0.957638" stroke-miterlimit="10" stroke-linecap="round" stroke-linejoin="round"/>
<path d="M130.185 276.81C134.159 276.762 138.153 276.781 142.146 276.848H130.233C130.224 276.838 130.204 276.819 130.185 276.81Z" stroke="white" stroke-width="0.957638" stroke-miterlimit="10" stroke-linecap="round" stroke-linejoin="round"/>
<path d="M150.659 276.848C149.443 276.848 148.227 276.848 147.011 276.848" stroke="white" stroke-width="0.957638" stroke-miterlimit="10" stroke-linecap="round" stroke-linejoin="round"/>
<path d="M166.221 276.848C162.438 276.752 158.426 276.752 154.672 276.848" stroke="white" stroke-width="0.957638" stroke-miterlimit="10" stroke-linecap="round" stroke-linejoin="round"/>
<path d="M133.585 283.59H128.289C130.032 283.58 131.794 283.57 133.566 283.561C133.575 283.58 133.585 283.58 133.585 283.59Z" stroke="white" stroke-width="0.957638" stroke-miterlimit="10" stroke-linecap="round" stroke-linejoin="round"/>
<path d="M136.898 283.561C141.112 283.551 145.354 283.57 149.501 283.589H136.927C136.918 283.58 136.908 283.57 136.898 283.561Z" stroke="white" stroke-width="0.957638" stroke-miterlimit="10" stroke-linecap="round" stroke-linejoin="round"/>
<path d="M155.611 283.59C155.142 283.59 154.682 283.59 154.213 283.59" stroke="white" stroke-width="0.957638" stroke-miterlimit="10" stroke-linecap="round" stroke-linejoin="round"/>
<path d="M167.313 283.59C164.785 283.542 162.036 283.542 159.518 283.59" stroke="white" stroke-width="0.957638" stroke-miterlimit="10" stroke-linecap="round" stroke-linejoin="round"/>
<path d="M142.681 290.341C142.671 290.341 142.671 290.341 142.681 290.341ZM142.681 290.341H156.547C151.979 290.341 147.335 290.341 142.681 290.341Z" stroke="white" stroke-width="0.957638" stroke-miterlimit="10" stroke-linecap="round" stroke-linejoin="round"/>
<path d="M134.081 290.331H139.511C137.691 290.341 135.881 290.341 134.081 290.331ZM134.081 290.331C134.081 290.341 134.081 290.341 134.081 290.331Z" stroke="white" stroke-width="0.957638" stroke-miterlimit="10" stroke-linecap="round" stroke-linejoin="round"/>
<path d="M168.412 290.331C167.148 290.341 165.894 290.341 164.562 290.331" stroke="white" stroke-width="0.957638" stroke-miterlimit="10" stroke-linecap="round" stroke-linejoin="round"/>
<path d="M83.9429 331.044C83.7131 329.751 83.5886 328.755 83.5981 328.458C83.6077 327.338 84.6324 325.892 84.6324 325.892C84.6324 325.892 73.2269 328.075 71.4266 326.006C69.6358 323.948 85.0538 322.435 95.0898 317.895C99.3896 315.951 106.62 313.212 109.493 317.072C113.122 321.965 106.495 324.695 106.495 324.695L94.5152 330.22C94.5152 330.22 94.6972 330.594 94.927 331.034H87.3712C87.2372 330.766 87.1606 330.613 87.1606 330.613C87.1606 330.613 87.2084 330.766 87.2946 331.034H83.9429V331.044Z" fill="white"/>
<path d="M108.075 314.802L105.719 315.166C102.358 314.85 98.0296 316.564 95.0705 317.905C85.0345 322.444 69.6165 323.957 71.4073 326.016C73.1981 328.075 84.6131 325.901 84.6131 325.901C84.6131 325.901 83.5884 327.338 83.5789 328.468C83.5789 328.764 83.7033 329.76 83.9236 331.053M94.9173 331.044C94.697 330.603 94.5055 330.23 94.5055 330.23L106.486 324.704M87.2849 331.044C87.1987 330.775 87.1509 330.622 87.1509 330.622C87.1509 330.622 87.2275 330.775 87.3615 331.044" stroke="#31323A" stroke-width="0.957638" stroke-miterlimit="10" stroke-linecap="round" stroke-linejoin="round"/>
<path d="M91.7379 326.38L90.8856 329.157C90.6941 329.78 90.6558 330.421 90.7707 331.044" stroke="#31323A" stroke-width="0.957638" stroke-miterlimit="10" stroke-linecap="round" stroke-linejoin="round"/>
<path d="M88.8938 324.599L87.1509 330.613" stroke="#31323A" stroke-width="0.957638" stroke-miterlimit="10" stroke-linecap="round" stroke-linejoin="round"/>
<path d="M87.4957 322.406C85.5613 324.905 84.6228 325.892 84.6228 325.892" stroke="#31323A" stroke-width="0.957638" stroke-miterlimit="10" stroke-linecap="round" stroke-linejoin="round"/>
</g>
<mask id="mask4_856_14439" style="mask-type:luminance" maskUnits="userSpaceOnUse" x="21" y="150" width="215" height="181">
<path d="M216.166 330.506H40.6117C30.2022 330.506 21.7559 322.069 21.7559 311.65V169.393C21.7559 158.984 30.1926 150.537 40.6117 150.537H216.166C226.575 150.537 235.022 158.974 235.022 169.393V311.65C235.012 322.069 226.575 330.506 216.166 330.506Z" fill="white"/>
</mask>
<g mask="url(#mask4_856_14439)">
<path d="M172.126 172.677C160.299 169.508 143.828 171.825 143.358 179.726C142.889 187.626 153.873 195.527 162.904 193.726C171.934 191.935 172.126 172.677 172.126 172.677Z" fill="#31323A"/>
<path d="M201.065 330.994C201.918 327.968 202.866 324.625 203.086 323.821C203.172 323.313 203.278 322.71 203.354 322.26C203.661 320.421 203.029 319.368 202.282 318.774C201.238 320.785 199.533 322.815 197.809 324.127C196 325.497 193.797 324.539 194.247 323.754C194.247 323.754 197.886 317.405 199.571 314.436C199.686 314.235 199.801 314.063 199.926 313.909C200.223 313.124 200.74 312.415 201.477 311.889L206.055 308.614C207.242 307.761 208.726 307.417 210.173 307.656L210.307 307.675C212.538 301.355 216.119 291.089 216.1 290.486L231.844 289.25L219.548 313.9C220.381 319.033 218.782 325.918 218.782 325.918C218.791 326.024 218.801 326.138 218.801 326.244C218.782 326.617 218.686 328.724 218.59 330.994H214.626C214.673 330.026 214.712 329.078 214.75 328.274L214.511 328.236C214.415 329.05 214.3 329.998 214.185 330.994H210.201C210.345 329.749 210.489 328.561 210.603 327.584L210.489 327.565C210.326 328.533 210.134 329.72 209.924 330.994H205.911C206.16 329.481 206.399 328.054 206.581 326.924L206.332 326.885C206.007 328.035 205.595 329.519 205.174 330.994H201.065Z" fill="white" stroke="#31323A" stroke-width="0.957638" stroke-miterlimit="10" stroke-linecap="round" stroke-linejoin="round"/>
<path d="M175.899 330.994C173.342 312.828 171.685 301.039 171.685 301.039L207.683 297.85C217.767 309.83 221.961 316.878 220.994 330.984H175.899V330.994Z" fill="#2239FF"/>
<path d="M147.802 330.994C154.889 317.453 160.002 307.838 160.002 307.838L185.677 296.797C199.802 307.302 201.573 320.029 198.461 330.994H147.802Z" fill="#2239FF"/>
<path d="M151.546 224.026C136.377 231.151 127.002 280.967 127.002 280.967L94.3081 313L104.737 330.065C104.737 330.065 139.47 305.1 145.015 296.069C150.531 287.096 164.915 252.19 165.288 243.581C165.662 234.972 151.546 224.026 151.546 224.026Z" fill="#C1C7D7"/>
<path d="M196.804 224.026C219.328 233.89 238.442 253.272 239.649 269.954C240.855 286.646 225.447 312.761 225.447 312.761L212.279 300.599L218.044 274.359C218.044 274.359 198.844 256.059 192.811 242.891C186.787 229.724 196.804 224.026 196.804 224.026Z" fill="#C1C7D7"/>
<path d="M157.732 192.979L163.277 225.73L183.876 228.086L176.789 192.548L157.732 192.979Z" fill="white" stroke="#31323A" stroke-width="0.957638" stroke-miterlimit="10" stroke-linecap="round" stroke-linejoin="round"/>
<path d="M204.159 224.026C187.266 214.555 154.879 217.906 150.138 225.079C145.398 232.252 146.624 247.746 146.624 247.746L161.41 297.85L156.057 315.375L218.045 306.976C212.873 293.129 205.892 275.642 205.892 275.642C205.892 275.642 216.235 230.796 204.159 224.026Z" fill="#C1C7D7"/>
<path d="M156.057 315.375L218.045 306.976C212.873 293.129 205.892 275.643 205.892 275.643C205.892 275.643 216.235 230.796 204.159 224.026" stroke="#31323A" stroke-width="0.957638" stroke-miterlimit="10" stroke-linecap="round" stroke-linejoin="round"/>
<path d="M157.562 177.648C150.629 177.916 148.752 186.497 146.971 193.143C145.63 198.142 142.949 200.182 143.313 200.967C144.165 202.796 146.473 203.399 146.473 203.399C146.473 203.399 148.675 212.832 151.864 215.418C155.053 218.003 173.066 209.222 173.019 195.633C172.98 184.764 171.113 175.513 157.562 177.648Z" fill="white"/>
<path d="M157.562 177.649C150.629 177.917 148.752 186.497 146.971 193.143C145.63 198.142 142.949 200.182 143.313 200.967C144.165 202.796 146.473 203.4 146.473 203.4C146.473 203.4 148.675 212.832 151.864 215.418C153.559 216.797 159.478 214.949 164.62 210.86" stroke="#31323A" stroke-width="0.957638" stroke-miterlimit="10" stroke-linecap="round" stroke-linejoin="round"/>
<path d="M150.178 190.107C154.008 191.946 154.487 194.34 154.487 194.34" stroke="#31323A" stroke-width="0.957638" stroke-miterlimit="10" stroke-linecap="round" stroke-linejoin="round"/>
<path d="M149.019 194.425C149.268 197.212 151.049 193.736 150.417 192.903C149.785 192.06 148.847 192.472 149.019 194.425Z" fill="#31323A"/>
<path d="M148.004 208.12C150.637 208.551 152.026 205.984 152.026 205.984" stroke="#31323A" stroke-width="0.957638" stroke-miterlimit="10" stroke-linecap="round" stroke-linejoin="round"/>
<path d="M159.82 265.176L150.004 286.856" stroke="#31323A" stroke-width="0.957638" stroke-miterlimit="10" stroke-linecap="round" stroke-linejoin="round"/>
<path d="M154.917 275.853L161.41 297.85" stroke="#31323A" stroke-width="0.957638" stroke-miterlimit="10" stroke-linecap="round" stroke-linejoin="round"/>
<path d="M225.447 312.761L217.479 305.502" stroke="#31323A" stroke-width="0.957638" stroke-miterlimit="10" stroke-linecap="round" stroke-linejoin="round"/>
<path d="M205.892 275.643L205.021 287.623" stroke="#31323A" stroke-width="0.957638" stroke-miterlimit="10" stroke-linecap="round" stroke-linejoin="round"/>
<path d="M156.057 315.375L218.045 306.976" stroke="#31323A" stroke-width="0.957638" stroke-miterlimit="10" stroke-linecap="round" stroke-linejoin="round"/>
<path d="M156.057 315.375L161.41 297.85L172.384 296.414" stroke="#31323A" stroke-width="0.957638" stroke-miterlimit="10" stroke-linecap="round" stroke-linejoin="round"/>
<path d="M179.423 207.612C194.276 196.771 192.839 177.647 176.809 171.078C167.156 167.123 157.321 169.431 153.241 173.855C150.713 176.594 150.157 183.355 150.157 183.355C150.157 183.355 154.227 182.024 157.732 186.611C160.845 190.681 155.702 194.157 165.729 192.788L166.495 198.993C166.495 198.993 172.882 206.769 179.423 207.612Z" fill="#31323A"/>
<path d="M164.378 201.867C159.312 199.032 163.804 189.705 167.471 192.539C171.13 195.384 169.109 204.519 164.378 201.867Z" fill="white"/>
<path d="M164.876 199.252L166.035 194.895" stroke="#31323A" stroke-width="0.957638" stroke-miterlimit="10" stroke-linecap="round" stroke-linejoin="round"/>
<path d="M162.233 196.485C162.798 193.478 165.278 190.844 167.471 192.539C170.612 194.972 169.578 202.02 166.246 202.326" stroke="#31323A" stroke-width="0.957638" stroke-miterlimit="10" stroke-linecap="round" stroke-linejoin="round"/>
<path d="M157.732 183.776C154.055 212.343 165.058 238.773 156.478 245.917C157.78 248.369 195.272 250.179 202.358 227.444C189.775 225.989 194.4 183.776 183.876 178.691C173.351 173.606 157.732 183.776 157.732 183.776Z" fill="#31323A"/>
</g>
<mask id="mask5_856_14439" style="mask-type:luminance" maskUnits="userSpaceOnUse" x="21" y="150" width="215" height="181">
<path d="M216.166 330.506H40.6117C30.2022 330.506 21.7559 322.069 21.7559 311.65V169.393C21.7559 158.984 30.1926 150.537 40.6117 150.537H216.166C226.575 150.537 235.022 158.974 235.022 169.393V311.65C235.012 322.069 226.575 330.506 216.166 330.506Z" fill="white"/>
</mask>
<g mask="url(#mask5_856_14439)">
<path d="M96.3833 311.22L107.243 328.993" stroke="#31323A" stroke-width="0.957638" stroke-miterlimit="10" stroke-linecap="round" stroke-linejoin="round"/>
</g>
<path d="M216.163 330.507H40.6091C30.1995 330.507 21.7532 322.071 21.7532 311.652V169.394C21.7532 158.985 30.19 150.539 40.6091 150.539H216.163C226.573 150.539 235.019 158.975 235.019 169.394V311.652C235.01 322.071 226.573 330.507 216.163 330.507Z" stroke="#C1C7D7" stroke-width="0.957638" stroke-miterlimit="10" stroke-linecap="round" stroke-linejoin="round"/>
<path d="M159.652 150.539H216.162C226.572 150.539 235.018 158.976 235.018 169.395V205.929" stroke="#31323A" stroke-width="0.957638" stroke-miterlimit="10" stroke-linecap="round" stroke-linejoin="round"/>
<path d="M100.278 330.508H40.6078C30.1983 330.508 21.752 322.071 21.752 311.652V195.807" stroke="#31323A" stroke-width="0.957638" stroke-miterlimit="10" stroke-linecap="round" stroke-linejoin="round"/>
<path d="M322.43 158.603C322.64 157.377 323.713 156.448 324.996 156.448C326.279 156.448 327.352 157.377 327.563 158.603H322.43Z" fill="#2239FF"/>
<path d="M312.145 198.412C313.583 198.412 314.749 197.246 314.749 195.807C314.749 194.369 313.583 193.202 312.145 193.202C310.706 193.202 309.54 194.369 309.54 195.807C309.54 197.246 310.706 198.412 312.145 198.412Z" fill="#C1C7D7"/>
<path d="M338.489 17.9062C346.6 21.6027 350.239 25.4141 349.377 32.7018C348.515 39.9894 345.987 50.4276 343.65 53.4729C341.323 56.5278 338.489 17.9062 338.489 17.9062Z" fill="#31323A"/>
<path d="M302.376 80.9573C300.92 80.8519 287.073 115.442 277.535 127.412C267.997 139.383 312.987 148.078 312.987 148.078L302.376 80.9573Z" fill="#C1C7D7"/>
<path d="M323.984 46.3054L323.792 71.8648C324.08 79.6408 345.703 78.8747 345.636 70.821C345.588 66.0519 344.841 53.6697 344.755 44.2848C344.698 37.8016 345.291 32.707 345.291 32.707C345.291 32.707 325.698 24.9022 323.984 46.3054Z" fill="white"/>
<path d="M348.965 65.4438L345.604 56.2983C345.604 56.2983 339.427 60.2917 332.609 60.7609C332.609 60.7609 325.733 69.9638 324.938 78.9656C324.143 87.9674 324.938 92.2098 324.938 92.2098C324.938 92.2098 347.921 77.443 348.965 65.4438Z" fill="white"/>
<path d="M323.617 62.9348L330.167 98.8079L319.326 106.718C319.326 106.718 316.655 84.9509 316.463 79.6552C316.262 74.3499 323.617 62.9348 323.617 62.9348Z" fill="white"/>
<path d="M354.845 158.555C351.091 139.689 347.136 115.921 348.783 106.517C351.694 89.9018 355.736 69.5808 355.736 69.5808L347.481 59.7937C344.876 66.7845 320.504 97.7066 320.504 97.7066C320.504 97.7066 315.17 83.2271 320.504 68.039C320.504 68.039 307.346 84.8168 305.22 88.7239C303.554 91.798 300.547 136.903 299.522 158.545H354.845V158.555Z" fill="white"/>
<path d="M340.95 158.545C340.567 156.879 340.279 155.222 340.097 153.575C337.253 127.623 337.454 109.198 338.048 99.5451C339.216 80.421 350.076 67.6844 347.471 59.7839C347.471 59.7839 383.45 73.7176 384.493 88.9153C384.695 91.8648 368.357 134.374 365.245 140.197C365.159 143.884 365.647 150.664 366.404 158.555H340.95V158.545Z" fill="#C1C7D7"/>
<path d="M345.623 56.3555L347.471 59.7838C350.076 67.6939 339.207 80.4305 338.048 99.5449C337.464 109.198 337.253 127.623 340.098 153.575" stroke="#31323A" stroke-width="0.957638" stroke-miterlimit="10" stroke-linecap="round" stroke-linejoin="round"/>
<path d="M297.301 158.555C297.32 157.31 297.301 156.151 297.243 155.098C296.467 140.59 292.378 101.307 301.811 81.1492C306.484 71.1514 324.038 63.6052 324.038 63.6052C310.028 85.0659 302.395 95.5999 302.194 142.61C302.175 148.318 301.983 153.623 301.658 158.565H297.301V158.555Z" fill="#C1C7D7"/>
<path d="M323.636 64.0933C309.625 85.5539 302.395 95.5995 302.204 142.6C302.185 148.298 301.993 153.613 301.667 158.555" stroke="#31323A" stroke-width="0.957638" stroke-miterlimit="10" stroke-linecap="round" stroke-linejoin="round"/>
<path d="M353.677 64.9744V92.2L344.579 93.9908L351.101 99.66C351.101 99.66 337.895 133.704 339.312 145.655" stroke="#31323A" stroke-width="0.957638" stroke-miterlimit="10" stroke-linecap="round" stroke-linejoin="round"/>
<path d="M337.56 71.9653C335.558 65.9034 332.685 61.4983 332.685 61.4983C332.685 61.4983 324.584 71.7737 323.933 83.2175" stroke="#31323A" stroke-width="0.957638" stroke-miterlimit="10" stroke-linecap="round" stroke-linejoin="round"/>
<path d="M324.143 74.2061C324.143 74.2061 320.925 77.8069 316.453 75.4511C316.166 67.2441 319.834 64.9745 319.834 64.9745L324.871 59.0276L326.02 72.6356L324.143 74.2061Z" fill="white"/>
<path d="M326.02 73.5165L319.834 64.9744C316.032 67.9622 316.453 75.4509 316.453 75.4509" stroke="#31323A" stroke-width="0.957638" stroke-miterlimit="10" stroke-linecap="round" stroke-linejoin="round"/>
<path d="M317.277 69.0061C306.542 77.0981 303.554 86.1957 303.554 86.1957L306.81 91.1084L301.821 94.8719C301.821 94.8719 301.677 128.993 302.252 137.812" stroke="#31323A" stroke-width="0.957638" stroke-miterlimit="10" stroke-linecap="round" stroke-linejoin="round"/>
<path d="M279.65 126.384C284.783 126.317 310.534 129.995 313.359 130.138C316.194 130.272 316.481 144.388 310.161 147.194L277.409 137.196C277.409 137.196 274.527 126.442 279.65 126.384Z" fill="#D9E9FF"/>
<path d="M297.213 149.693H263.514C261.695 149.693 259.99 148.841 258.898 147.386L225.017 102.137C224.059 100.854 224.969 99.0344 226.568 99.0344H260.268C262.087 99.0344 263.792 99.8867 264.884 101.342L298.765 146.591C299.732 147.864 298.813 149.693 297.213 149.693Z" fill="#2239FF"/>
<path d="M241.661 124.364C233.291 113.188 225.017 102.137 225.017 102.137C224.059 100.854 224.969 99.0344 226.568 99.0344C226.568 99.0344 231.979 99.0344 238.472 99.0344" stroke="#31323A" stroke-width="0.957638" stroke-miterlimit="10" stroke-linecap="round" stroke-linejoin="round"/>
<path d="M260.277 99.0247C262.097 99.0247 263.801 99.877 264.893 101.333L298.774 146.581C299.732 147.864 298.822 149.684 297.223 149.684H263.514C261.694 149.684 259.99 148.831 258.898 147.376" stroke="#31323A" stroke-width="0.957638" stroke-miterlimit="10" stroke-linecap="round" stroke-linejoin="round"/>
<path d="M278.084 122.25C278.084 122.25 261.248 121.13 258.711 121.149C256.163 121.168 256.01 124.261 259.467 124.903C257.207 125.688 256.891 128.8 263.24 129.758C261.21 130.984 262.608 132.248 266.611 133.062C265.5 133.761 273.899 136.481 276.283 137.678C278.668 138.875 285.448 141.087 287.114 139.823C288.78 138.559 290.351 133.33 288.953 129.002C287.555 124.673 284.117 122.643 278.084 122.25Z" fill="white"/>
<path d="M274.512 110.816C272.261 113.919 274.253 117.309 276.207 119.196C278.151 121.082 277.863 125.545 277.863 125.545C277.863 125.545 285.601 130.209 287.842 129.05C290.073 127.891 286.31 121.034 281.043 117.137C275.766 113.23 274.512 110.816 274.512 110.816Z" fill="white"/>
<path d="M288.474 127.326C288.167 124.74 285.036 120.086 281.043 117.127C275.776 113.22 274.512 110.807 274.512 110.807C272.261 113.909 274.253 117.299 276.207 119.186" stroke="#31323A" stroke-width="0.957638" stroke-miterlimit="10" stroke-linecap="round" stroke-linejoin="round"/>
<path d="M259.465 124.892L270.67 127.411" stroke="#31323A" stroke-width="0.957638" stroke-miterlimit="10" stroke-linecap="round" stroke-linejoin="round"/>
<path d="M263.238 129.747L272.355 132.812" stroke="#31323A" stroke-width="0.957638" stroke-miterlimit="10" stroke-linecap="round" stroke-linejoin="round"/>
<path d="M296.983 126.641L289.073 125.492L283.844 145.305L294.522 146.445L296.983 126.641Z" fill="white"/>
<path d="M378.526 80.1959C363.404 68.5893 359.229 81.3259 356.663 86.2961C354.096 91.2662 337.299 130.271 337.299 130.271L294.522 125.885C294.522 125.885 289.82 146.436 290.298 148.064C290.298 148.064 341.139 161.145 348.714 157.563C354.594 154.786 394.03 92.0898 378.526 80.1959Z" fill="#C1C7D7"/>
<path d="M362.611 77.8049C352.996 92.0067 337.301 130.274 337.301 130.274L316.922 128.186" stroke="#31323A" stroke-width="0.957638" stroke-miterlimit="10" stroke-linecap="round" stroke-linejoin="round"/>
<path d="M367.945 135.397C359.518 151.151 352.671 155.958 347.978 157.825C341.744 160.296 318.569 154.55 318.569 154.55" stroke="#31323A" stroke-width="0.957638" stroke-miterlimit="10" stroke-linecap="round" stroke-linejoin="round"/>
<path d="M343.88 135.924L337.301 130.274V135.924" stroke="#31323A" stroke-width="0.957638" stroke-miterlimit="10" stroke-linecap="round" stroke-linejoin="round"/>
<path d="M304.195 151.428L290.3 148.067C290.319 147.837 290.348 147.54 290.396 147.195C291.066 142.13 294.523 125.878 294.523 125.878" stroke="#31323A" stroke-width="0.957638" stroke-miterlimit="10" stroke-linecap="round" stroke-linejoin="round"/>
<path d="M324.871 59.0276L325.877 69.0062" stroke="#31323A" stroke-width="0.957638" stroke-miterlimit="10" stroke-linecap="round" stroke-linejoin="round"/>
<path d="M345.633 56.3652C345.633 56.3652 343.871 59.7936 337.569 61.1247" stroke="#31323A" stroke-width="0.957638" stroke-miterlimit="10" stroke-linecap="round" stroke-linejoin="round"/>
<path d="M289.074 125.497L283.846 145.311" stroke="#31323A" stroke-width="0.957638" stroke-miterlimit="10" stroke-linecap="round" stroke-linejoin="round"/>
<path d="M267.345 133.924L284.985 140.992" stroke="#31323A" stroke-width="0.957638" stroke-miterlimit="10" stroke-linecap="round" stroke-linejoin="round"/>
<path d="M296.985 97.5149C295.222 111.305 296.985 121.877 296.985 121.877" stroke="#31323A" stroke-width="0.957638" stroke-miterlimit="10" stroke-linecap="round" stroke-linejoin="round"/>
<path d="M327.668 13.1662C356.981 10.0444 345.221 56.4706 332.935 57.9167C322.774 59.1137 319.461 48.1679 317.967 36.9923C316.406 25.1846 314.768 14.5357 327.668 13.1662Z" fill="white"/>
<path d="M333.959 57.7924C321.079 59.3055 319.508 48.149 317.976 36.9925C316.415 25.6445 315.793 14.5646 328.692 13.042" stroke="#31323A" stroke-width="0.957638" stroke-miterlimit="10" stroke-linecap="round" stroke-linejoin="round"/>
<path d="M328.922 34.0235C330.167 32.5392 331.756 35.393 330.157 36.274C328.558 37.155 328.405 34.646 328.922 34.0235Z" fill="#31323A"/>
<path d="M319.364 34.732C320.609 33.2477 322.199 36.1015 320.6 36.9825C319.01 37.8635 318.847 35.3449 319.364 34.732Z" fill="#31323A"/>
<path d="M318.014 31.7348C318.685 31.639 319.393 31.6773 320.054 31.8689" stroke="#31323A" stroke-width="0.957638" stroke-miterlimit="10" stroke-linecap="round" stroke-linejoin="round"/>
<path d="M328.453 31.6965C329.056 31.0262 329.899 30.6431 330.761 30.4612" stroke="#31323A" stroke-width="0.957638" stroke-miterlimit="10" stroke-linecap="round" stroke-linejoin="round"/>
<path d="M325.11 34.1384C324.948 40.0949 324.258 42.0772 324.258 42.0772C324.258 42.0772 324.785 42.8817 326.509 42.6806" stroke="#31323A" stroke-width="0.957638" stroke-miterlimit="10" stroke-linecap="round" stroke-linejoin="round"/>
<path d="M317.162 27.5206C317.133 21.7077 320.073 20.8554 322.391 21.928C324.708 23.0005 328.625 25.6341 341.438 23.6805C341.438 23.6805 342.645 36.0244 344.56 37.5279C346.466 39.0314 348.975 36.9916 349.607 31.2458C351.723 11.8824 343.162 11.3269 334.208 10.963C331.967 10.8673 327.562 10.7811 327.744 8.72217C320.974 9.07649 312.747 18.3847 317.162 27.5206Z" fill="#31323A"/>
<path d="M342.299 42.3077C338.028 37.8163 345.555 29.7147 348.399 33.7655C351.244 37.8163 346.302 46.5117 342.299 42.3077Z" fill="white"/>
<path d="M345.019 39.9517C345.019 39.9517 347.298 38.0844 345.66 36.5713" stroke="#31323A" stroke-width="0.957638" stroke-miterlimit="10" stroke-linecap="round" stroke-linejoin="round"/>
<path d="M342.692 34.8189C344.397 32.7409 346.982 31.7353 348.4 33.7655C350.832 37.2418 347.557 44.108 344.062 43.3706" stroke="#31323A" stroke-width="0.957638" stroke-miterlimit="10" stroke-linecap="round" stroke-linejoin="round"/>
<path d="M324.402 43.3033C328.864 41.9627 333.25 43.9833 334.524 47.6223C338.479 47.2488 341.448 36.9351 341.448 36.9351C341.448 36.9351 342.712 43.1789 343.784 44.8068C344.857 46.4348 340.423 56.8827 336.19 60.0237C331.613 63.4233 324.095 64.5342 321.27 59.7939C318.177 54.6035 319.585 46.3774 319.585 46.3774C319.585 46.3774 320.6 48.4459 321.644 48.2256C321.232 45.3623 322.18 43.9737 324.402 43.3033Z" fill="#31323A"/>
<path d="M322.161 48.6945C321.739 45.0938 330.023 47.0952 330.933 49.6808C331.517 51.328 330.004 53.0613 326.815 52.9368C323.626 52.8123 322.429 51.0311 322.161 48.6945Z" fill="white"/>
<path d="M324.258 49.7863C324.258 49.7863 328.117 50.3417 330.167 48.6562" stroke="#31323A" stroke-width="0.957638" stroke-miterlimit="10" stroke-linecap="round" stroke-linejoin="round"/>
<path d="M330.479 38.719C332.496 38.4815 333.877 36.1346 333.564 33.4769C333.251 30.8192 331.363 28.8571 329.346 29.0945C327.329 29.332 325.947 31.6789 326.26 34.3366C326.573 36.9943 328.462 38.9564 330.479 38.719Z" stroke="#31323A" stroke-width="0.957638" stroke-miterlimit="10" stroke-linecap="round" stroke-linejoin="round"/>
<path d="M320.653 39.8679C322.67 39.6305 324.051 37.2835 323.738 34.6258C323.425 31.9681 321.537 30.006 319.52 30.2435C317.503 30.4809 316.122 32.8278 316.434 35.4856C316.747 38.1433 318.636 40.1053 320.653 39.8679Z" stroke="#31323A" stroke-width="0.957638" stroke-miterlimit="10" stroke-linecap="round" stroke-linejoin="round"/>
<path d="M345.259 32.8743L332.743 32.8264" stroke="#31323A" stroke-width="0.957638" stroke-miterlimit="10" stroke-linecap="round" stroke-linejoin="round"/>
<path d="M326.47 31.9265L323.004 32.3383" stroke="#31323A" stroke-width="0.957638" stroke-miterlimit="10" stroke-linecap="round" stroke-linejoin="round"/>
<path d="M312.145 161.572C313.583 161.572 314.749 160.406 314.749 158.967C314.749 157.528 313.583 156.362 312.145 156.362C310.706 156.362 309.54 157.528 309.54 158.967C309.54 160.406 310.706 161.572 312.145 161.572Z" fill="#C1C7D7"/>
<path d="M312.145 195.807V158.603" stroke="#C1C7D7" stroke-width="0.957638" stroke-miterlimit="10" stroke-linecap="round" stroke-linejoin="round"/>
<path d="M201.604 51.1262C208.616 44.1141 208.616 32.7453 201.604 25.7332C194.592 18.7211 183.223 18.7211 176.211 25.7332C169.199 32.7453 169.199 44.1141 176.211 51.1262C183.223 58.1382 194.592 58.1382 201.604 51.1262Z" fill="white" stroke="#C1C7D7" stroke-width="0.957638" stroke-miterlimit="10" stroke-linecap="round" stroke-linejoin="round"/>
<path d="M192.622 45.7361C192.622 44.1272 193.264 42.6142 194.307 41.3884C195.37 40.153 196.012 38.5442 196.012 36.7917C196.012 32.6164 192.402 29.2839 188.131 29.7627C184.932 30.117 182.327 32.6739 181.916 35.8724C181.638 38.0367 182.346 40.0381 183.649 41.4937C184.721 42.6908 185.248 44.2805 185.248 45.8797" stroke="#C1C7D7" stroke-width="0.957638" stroke-miterlimit="10" stroke-linecap="round" stroke-linejoin="round"/>
<path d="M191.559 48.3599H186.321C185.727 48.3599 185.248 47.8811 185.248 47.2873V45.8892H192.632V47.2873C192.632 47.8811 192.153 48.3599 191.559 48.3599Z" stroke="#C1C7D7" stroke-width="0.957638" stroke-miterlimit="10" stroke-linecap="round" stroke-linejoin="round"/>
<path d="M185.832 50.2178H192.047" stroke="#C1C7D7" stroke-width="0.957638" stroke-miterlimit="10" stroke-linecap="round" stroke-linejoin="round"/>
<path d="M185.832 51.98H192.047" stroke="#C1C7D7" stroke-width="0.957638" stroke-miterlimit="10" stroke-linecap="round" stroke-linejoin="round"/>
<path d="M190.764 53.1194C189.749 54.1345 188.111 54.1345 187.106 53.1194" stroke="#C1C7D7" stroke-width="0.957638" stroke-miterlimit="10" stroke-linecap="round" stroke-linejoin="round"/>
<path d="M184.97 35.6905C187.163 34.6754 190.716 34.6754 192.909 35.6905" stroke="#C1C7D7" stroke-width="0.957638" stroke-miterlimit="10" stroke-linecap="round" stroke-linejoin="round"/>
<path d="M188.935 38.1802V45.8892" stroke="#C1C7D7" stroke-width="0.957638" stroke-miterlimit="10" stroke-linecap="round" stroke-linejoin="round"/>
<path d="M188.13 38.1802H189.739" stroke="#C1C7D7" stroke-width="0.957638" stroke-miterlimit="10" stroke-linecap="round" stroke-linejoin="round"/>
<path d="M187.267 45.8907C187.191 40.9493 186.386 37.0326 184.969 35.6919" stroke="#C1C7D7" stroke-width="0.957638" stroke-miterlimit="10" stroke-linecap="round" stroke-linejoin="round"/>
<path d="M190.6 45.8907C190.677 40.9493 191.481 37.0326 192.898 35.6919" stroke="#C1C7D7" stroke-width="0.957638" stroke-miterlimit="10" stroke-linecap="round" stroke-linejoin="round"/>
<path d="M196.882 41.2449L199.975 43.0261" stroke="#C1C7D7" stroke-width="0.957638" stroke-miterlimit="10" stroke-linecap="round" stroke-linejoin="round"/>
<path d="M177.901 30.28L180.985 32.0612" stroke="#C1C7D7" stroke-width="0.957638" stroke-miterlimit="10" stroke-linecap="round" stroke-linejoin="round"/>
<path d="M182.565 25.6169L184.347 28.7005" stroke="#C1C7D7" stroke-width="0.957638" stroke-miterlimit="10" stroke-linecap="round" stroke-linejoin="round"/>
<path d="M188.931 23.9106V27.4731" stroke="#C1C7D7" stroke-width="0.957638" stroke-miterlimit="10" stroke-linecap="round" stroke-linejoin="round"/>
<path d="M195.31 25.6169L193.519 28.7005" stroke="#C1C7D7" stroke-width="0.957638" stroke-miterlimit="10" stroke-linecap="round" stroke-linejoin="round"/>
<path d="M180.985 41.2449L177.901 43.0261" stroke="#C1C7D7" stroke-width="0.957638" stroke-miterlimit="10" stroke-linecap="round" stroke-linejoin="round"/>
<path d="M199.975 30.28L196.882 32.0612" stroke="#C1C7D7" stroke-width="0.957638" stroke-miterlimit="10" stroke-linecap="round" stroke-linejoin="round"/>
<path d="M179.756 36.6455H176.184" stroke="#C1C7D7" stroke-width="0.957638" stroke-miterlimit="10" stroke-linecap="round" stroke-linejoin="round"/>
<path d="M201.677 36.6455H198.114" stroke="#C1C7D7" stroke-width="0.957638" stroke-miterlimit="10" stroke-linecap="round" stroke-linejoin="round"/>
<path d="M26.6626 182.219C40.9426 182.219 52.5188 170.643 52.5188 156.363C52.5188 142.083 40.9426 130.507 26.6626 130.507C12.3826 130.507 0.806396 142.083 0.806396 156.363C0.806396 170.643 12.3826 182.219 26.6626 182.219Z" fill="white" stroke="#C1C7D7" stroke-width="0.957638" stroke-miterlimit="10" stroke-linecap="round" stroke-linejoin="round"/>
<path d="M19.9981 150.541H12.9978V170.728H19.9981V150.541Z" fill="#C1C7D7"/>
<path d="M30.2259 154.583H23.2256V170.728H30.2259V154.583Z" fill="#31323A"/>
<path d="M40.463 138.437H33.4626V170.728H40.463V138.437Z" fill="#2239FF"/>
<path d="M7.55835 170.728H43.2782" stroke="#C1C7D7" stroke-width="0.957638" stroke-miterlimit="10" stroke-linecap="round" stroke-linejoin="round"/>
<path d="M7.55835 166.4L15.2578 164.858L26.194 157.858L35.1575 158.48L43.2782 151.614" stroke="#C1C7D7" stroke-width="0.957638" stroke-miterlimit="10" stroke-linecap="round" stroke-linejoin="round"/>
<path d="M6.26562 156.45L13.9555 155.655L24.8917 152.016L33.8552 152.341L41.9759 148.779" stroke="#C1C7D7" stroke-width="0.957638" stroke-miterlimit="10" stroke-linecap="round" stroke-linejoin="round"/>
<path d="M189.443 92.21H193.876C203.07 92.21 210.52 99.6604 210.52 108.854V112.158C210.52 116.572 212.273 120.805 215.395 123.927L258.565 167.097C261.687 170.219 263.439 174.452 263.439 178.867V242.846C263.439 252.04 270.89 259.49 280.083 259.49" stroke="#C1C7D7" stroke-width="0.957638" stroke-miterlimit="10" stroke-linecap="round" stroke-linejoin="round"/>
<path d="M189.691 100.992H192.88C197.362 100.992 201.001 104.631 201.001 109.112V121.792C201.001 128.035 195.935 133.101 189.691 133.101H125.855C119.612 133.101 114.546 138.167 114.546 144.411V150.549" stroke="#C1C7D7" stroke-width="0.957638" stroke-miterlimit="10" stroke-linecap="round" stroke-linejoin="round"/>
<path d="M190.869 83.4285H254.629" stroke="#C1C7D7" stroke-width="0.957638" stroke-miterlimit="10" stroke-linecap="round" stroke-linejoin="round"/>
<path d="M124.314 330.949V334.368C124.314 345.199 133.095 353.98 143.926 353.98H203.051" stroke="#C1C7D7" stroke-width="0.957638" stroke-miterlimit="10" stroke-linecap="round" stroke-linejoin="round"/>
<path d="M192.263 83.8439C192.493 82.4239 191.529 81.086 190.109 80.8555C188.689 80.625 187.351 81.5894 187.12 83.0094C186.89 84.4294 187.854 85.7674 189.274 85.9979C190.694 86.2283 192.032 85.264 192.263 83.8439Z" fill="#C1C7D7"/>
<path d="M257.208 83.851C257.439 82.431 256.474 81.0931 255.054 80.8626C253.634 80.6321 252.296 81.5965 252.066 83.0165C251.835 84.4365 252.8 85.7745 254.22 86.0049C255.64 86.2354 256.978 85.2711 257.208 83.851Z" fill="#C1C7D7"/>
<path d="M189.692 94.8148C191.13 94.8148 192.296 93.6486 192.296 92.21C192.296 90.7714 191.13 89.6052 189.692 89.6052C188.253 89.6052 187.087 90.7714 187.087 92.21C187.087 93.6486 188.253 94.8148 189.692 94.8148Z" fill="#C1C7D7"/>
<path d="M114.546 153.145C115.984 153.145 117.15 151.978 117.15 150.54C117.15 149.101 115.984 147.935 114.546 147.935C113.107 147.935 111.941 149.101 111.941 150.54C111.941 151.978 113.107 153.145 114.546 153.145Z" fill="#C1C7D7"/>
<path d="M282.665 259.916C282.895 258.496 281.931 257.158 280.511 256.927C279.091 256.697 277.753 257.661 277.523 259.081C277.292 260.501 278.256 261.839 279.676 262.07C281.096 262.3 282.434 261.336 282.665 259.916Z" fill="#C1C7D7"/>
<path d="M124.314 333.114C125.752 333.114 126.919 331.947 126.919 330.509C126.919 329.07 125.752 327.904 124.314 327.904C122.875 327.904 121.709 329.07 121.709 330.509C121.709 331.947 122.875 333.114 124.314 333.114Z" fill="#C1C7D7"/>
<path d="M189.692 103.596C191.13 103.596 192.296 102.43 192.296 100.991C192.296 99.5529 191.13 98.3867 189.692 98.3867C188.253 98.3867 187.087 99.5529 187.087 100.991C187.087 102.43 188.253 103.596 189.692 103.596Z" fill="#C1C7D7"/>
<path d="M347.127 266.94L358.944 281.774" stroke="#31323A" stroke-width="0.957638" stroke-miterlimit="10" stroke-linecap="round" stroke-linejoin="round"/>
<path d="M348.967 210.374H402.029" stroke="#C1C7D7" stroke-width="0.957638" stroke-miterlimit="10" stroke-linecap="round" stroke-linejoin="round"/>
<path d="M348.967 225.063H402.029" stroke="#C1C7D7" stroke-width="0.957638" stroke-miterlimit="10" stroke-linecap="round" stroke-linejoin="round"/>
<path d="M348.967 239.754H402.029" stroke="#C1C7D7" stroke-width="0.957638" stroke-miterlimit="10" stroke-linecap="round" stroke-linejoin="round"/>
<path d="M348.967 254.444H402.029" stroke="#C1C7D7" stroke-width="0.957638" stroke-miterlimit="10" stroke-linecap="round" stroke-linejoin="round"/>
<path d="M348.967 269.134H402.029" stroke="#C1C7D7" stroke-width="0.957638" stroke-miterlimit="10" stroke-linecap="round" stroke-linejoin="round"/>
<path d="M348.967 283.815H402.029" stroke="#C1C7D7" stroke-width="0.957638" stroke-miterlimit="10" stroke-linecap="round" stroke-linejoin="round"/>
<path d="M348.967 298.505H402.029" stroke="#C1C7D7" stroke-width="0.957638" stroke-miterlimit="10" stroke-linecap="round" stroke-linejoin="round"/>
<path d="M348.967 313.195H402.029" stroke="#C1C7D7" stroke-width="0.957638" stroke-miterlimit="10" stroke-linecap="round" stroke-linejoin="round"/>
<path d="M381.937 389.039H301.897C289.85 389.039 280.082 379.271 280.082 367.224V217.622C280.082 205.575 289.85 195.807 301.897 195.807H381.937C393.984 195.807 403.752 205.575 403.752 217.622V367.224C403.742 379.271 393.984 389.039 381.937 389.039Z" stroke="#C1C7D7" stroke-width="0.957638" stroke-miterlimit="10" stroke-linecap="round" stroke-linejoin="round"/>
<path d="M403.742 217.622V367.224C403.742 379.271 393.974 389.039 381.927 389.039H301.888C298.508 389.039 295.309 388.273 292.455 386.894C285.129 383.379 280.073 375.891 280.073 367.224V217.622C280.073 205.575 289.841 195.807 301.888 195.807H381.927C393.984 195.807 403.742 205.575 403.742 217.622Z" stroke="#C1C7D7" stroke-width="0.957638" stroke-miterlimit="10" stroke-linecap="round" stroke-linejoin="round"/>
<path d="M280.082 247.653V217.622C280.082 205.575 289.85 195.807 301.897 195.807" stroke="#31323A" stroke-width="0.957638" stroke-miterlimit="10" stroke-linecap="round" stroke-linejoin="round"/>
<path d="M403.742 355.99V367.223C403.742 379.27 393.974 389.038 381.927 389.038H301.888C298.507 389.038 295.309 388.272 292.455 386.893C289.084 379.5 287.14 373.237 287.523 369.119C289.439 348.367 374.946 356.996 374.946 356.996L372.265 348.588H393.295C393.304 348.588 398.255 351.106 403.742 355.99Z" fill="#31323A"/>
<path d="M403.74 357.119V358.383C403.616 357.79 403.596 357.34 403.74 357.119Z" fill="#2239FF"/>
<path d="M403.74 364.417V367.223C403.74 379.27 393.972 389.038 381.925 389.038H343.965C343.323 381.683 344.3 375.592 347.757 371.905C362.112 356.612 394.432 362.367 403.74 364.417Z" fill="#31323A"/>
<path d="M353.246 295.629L311.378 289.05L311.387 244.098C311.387 241.695 309.673 239.559 307.231 239.119C304.483 238.621 301.849 240.44 301.351 243.189L291.66 296.625C290.817 301.317 293.805 305.904 298.498 306.967L299.656 307.235L348.869 318.449C349.118 318.507 349.396 318.555 349.645 318.603C355.985 319.599 361.941 315.26 362.937 308.921C363.923 302.581 359.585 296.625 353.246 295.629Z" fill="white" stroke="#31323A" stroke-width="0.957638" stroke-miterlimit="10" stroke-linecap="round" stroke-linejoin="round"/>
<path d="M318.302 315.328L321.902 288.332C321.902 288.332 339.551 290.573 351.311 289.768C361.577 289.069 366.27 300.666 362.2 310.176C358.963 317.731 349.789 330.899 344.321 326.36C335.118 318.746 318.302 315.328 318.302 315.328Z" fill="#2239FF"/>
<path d="M403.742 295.294V365.316L372.188 358.843C372.188 358.843 327.332 314.188 337.023 298.512C346.715 282.835 378.633 280.154 394.568 287.987C397.766 289.558 400.831 292.086 403.742 295.294Z" fill="#2239FF"/>
<path d="M374.561 286.841C377.625 297.432 348.504 308.636 346.196 301.761C343.897 294.885 354.46 287.434 361.652 284.945C368.461 282.589 373.728 283.968 374.561 286.841Z" fill="white"/>
<path d="M339.816 278.381L353.041 296.787C357.312 302.207 372.405 290.352 368.143 284.615C363.882 278.879 347.966 257.495 347.966 257.495C347.966 257.495 329.857 262.149 339.816 278.381Z" fill="white"/>
<path d="M336.014 250.926C362.771 244.337 356.728 289.921 345.495 292.66C338.447 294.383 331.571 284.558 328.851 274.378C326.093 264.026 324.235 253.827 336.014 250.926Z" fill="white"/>
<path d="M350.733 287.852C349.239 290.419 347.449 292.19 345.495 292.659C338.447 294.383 331.571 284.558 328.851 274.378C326.093 264.026 324.235 253.827 336.014 250.926" stroke="#31323A" stroke-width="0.957638" stroke-miterlimit="10" stroke-linecap="round" stroke-linejoin="round"/>
<path d="M337.767 269.762C338.744 268.249 340.554 270.701 339.175 271.706C337.796 272.712 337.365 270.394 337.767 269.762Z" fill="#31323A"/>
<path d="M330.355 272.75C331.332 271.237 333.142 273.689 331.763 274.694C330.384 275.69 329.943 273.373 330.355 272.75Z" fill="#31323A"/>
<path d="M327.788 269.964C329.905 268.25 333.103 267.608 333.103 267.608" stroke="#31323A" stroke-width="0.957638" stroke-miterlimit="10" stroke-linecap="round" stroke-linejoin="round"/>
<path d="M335.737 264.783C341.301 263.279 343.618 265.693 343.618 265.693" stroke="#31323A" stroke-width="0.957638" stroke-miterlimit="10" stroke-linecap="round" stroke-linejoin="round"/>
<path d="M334.578 270.194C335.114 275.738 334.961 278.707 334.961 278.707C334.961 278.707 335.373 279.837 337.125 279.665" stroke="#31323A" stroke-width="0.957638" stroke-miterlimit="10" stroke-linecap="round" stroke-linejoin="round"/>
<path d="M341.617 283.629C341.617 283.629 340.257 284.788 338.485 285.391" stroke="#31323A" stroke-width="0.957638" stroke-miterlimit="10" stroke-linecap="round" stroke-linejoin="round"/>
<path d="M330.151 264.994C331.377 260.877 338.732 260.015 338.99 257.324" stroke="#31323A" stroke-width="0.957638" stroke-miterlimit="10" stroke-linecap="round" stroke-linejoin="round"/>
<path d="M327.508 268.806C326.704 259.67 337.487 261.901 338.99 257.333C343.194 263.663 350.961 265.004 350.961 265.004C350.961 265.004 356.63 269.649 360.212 273.977C361.16 267.063 360.365 258.253 358.019 252.536C354.581 244.156 343.721 244.262 342.869 248.628C336.864 245.305 326.78 248.13 324.233 252.536C320.728 258.588 324.013 264.583 327.508 268.806Z" fill="#31323A"/>
<path d="M350.952 273.093C346.47 269.426 352.513 261.037 355.616 264.465C358.728 267.903 355.146 276.531 350.952 273.093Z" fill="#E17847"/>
<path d="M351.9 270.613L353.806 266.543" stroke="#31323A" stroke-width="0.957638" stroke-miterlimit="10" stroke-linecap="round" stroke-linejoin="round"/>
<path d="M349.784 267.434C350.866 264.58 353.768 262.416 355.616 264.465C358.278 267.405 356.037 274.156 352.705 273.879" stroke="#31323A" stroke-width="0.957638" stroke-miterlimit="10" stroke-linecap="round" stroke-linejoin="round"/>
<path d="M389.293 289.778C382.877 289.797 377.686 295.026 377.706 301.442L377.878 350.3L340.808 360.787C338.548 361.428 336.968 363.573 337.13 366.006C337.322 368.792 339.745 370.899 342.532 370.708L389.494 367.48C393.823 367.184 397.366 363.707 397.624 359.264L397.701 357.99L400.938 302.064C400.947 301.844 400.957 301.576 400.957 301.346C400.938 294.939 395.719 289.749 389.293 289.778Z" fill="white"/>
<path d="M402.029 331.071H374.794C374.794 331.071 368.828 283.122 391.122 288.245C409.298 292.421 402.029 331.071 402.029 331.071Z" fill="#2239FF"/>
<path d="M385.719 288.245C369.162 290.074 374.792 331.071 374.792 331.071H402.028" stroke="#31323A" stroke-width="0.957638" stroke-miterlimit="10" stroke-linecap="round" stroke-linejoin="round"/>
<path d="M337.033 298.511C330.415 317.425 362.276 348.577 362.276 348.577" stroke="#31323A" stroke-width="0.957638" stroke-miterlimit="10" stroke-linecap="round" stroke-linejoin="round"/>
<path d="M370.014 299.364C345.24 314.533 342.338 301.586 343.622 298.579" stroke="#31323A" stroke-width="0.957638" stroke-miterlimit="10" stroke-linecap="round" stroke-linejoin="round"/>
<path d="M318.302 315.328L321.902 288.332" stroke="#31323A" stroke-width="0.957638" stroke-miterlimit="10" stroke-linecap="round" stroke-linejoin="round"/>
<path d="M322.573 307.551L326.604 288.293" stroke="#31323A" stroke-width="0.957638" stroke-miterlimit="10" stroke-linecap="round" stroke-linejoin="round"/>
<path d="M402.622 327.92C402.631 327.872 373.874 325.383 373.874 325.383" stroke="#31323A" stroke-width="0.957638" stroke-miterlimit="10" stroke-linecap="round" stroke-linejoin="round"/>
<path d="M383.45 352.908L377.867 350.025L379.945 353.99" stroke="#31323A" stroke-width="0.957638" stroke-miterlimit="10" stroke-linecap="round" stroke-linejoin="round"/>
<path d="M347.353 368.634C338.581 372.752 333.908 370.491 328.938 365.1C323.978 359.708 323.547 357.496 324.188 357.496C324.82 357.496 336.609 359.373 341.876 360.494C347.143 361.614 347.353 368.634 347.353 368.634Z" fill="white"/>
<path d="M333.341 360.483C333.322 360.578 333.303 360.665 333.274 360.76L330.105 370.682C329.932 371.227 329.54 371.649 329.051 371.859C328.63 372.051 328.132 372.099 327.653 371.946C326.628 371.62 326.063 370.519 326.389 369.494C326.389 369.494 328.486 362.925 329.262 360.473H333.341V360.483Z" fill="white"/>
<path d="M320.528 370.492C320.011 370.492 319.504 370.291 319.121 369.889C318.374 369.114 318.412 367.878 319.188 367.131L327.222 359.489C327.711 359.02 328.41 358.848 329.071 359.02L334.768 360.543C335.812 360.82 336.425 361.883 336.147 362.927C335.87 363.971 334.807 364.584 333.763 364.306L329.118 363.071L321.879 369.966C321.496 370.311 321.017 370.492 320.528 370.492Z" fill="white"/>
<path d="M317.09 368.441C316.573 368.441 316.066 368.24 315.683 367.838C314.936 367.062 314.974 365.827 315.75 365.08L323.784 357.438C324.273 356.968 324.972 356.796 325.633 356.968L331.33 358.491C332.374 358.769 332.987 359.832 332.709 360.876C332.432 361.919 331.369 362.532 330.325 362.255L325.68 361.019L318.441 367.914C318.058 368.259 317.569 368.441 317.09 368.441Z" fill="white"/>
<path d="M323.47 368.442L329.12 363.06" stroke="#31323A" stroke-width="0.957638" stroke-miterlimit="10" stroke-linecap="round" stroke-linejoin="round"/>
<path d="M319.189 367.13L325.395 360.58" stroke="#31323A" stroke-width="0.957638" stroke-miterlimit="10" stroke-linecap="round" stroke-linejoin="round"/>
<path d="M353.8 274.509C356.683 274.509 359.02 270.941 359.02 266.541C359.02 262.141 356.683 258.573 353.8 258.573C350.918 258.573 348.581 262.141 348.581 266.541C348.581 270.941 350.918 274.509 353.8 274.509Z" fill="#31323A" stroke="white" stroke-width="0.957638" stroke-miterlimit="10" stroke-linecap="round" stroke-linejoin="round"/>
<path d="M329.4 248.212C345.881 242.16 353.935 261.159 353.935 261.159C353.935 261.159 357.497 261.025 357.507 260.69C357.516 260.345 346.81 238.214 329.4 248.212Z" fill="#31323A" stroke="#31323A" stroke-width="0.957638" stroke-miterlimit="10" stroke-linecap="round" stroke-linejoin="round"/>
<path d="M354.002 254.954C351.416 251.545 347.451 247.628 342.357 246.182" stroke="white" stroke-width="0.957638" stroke-miterlimit="10" stroke-linecap="round" stroke-linejoin="round"/>
<path d="M329.4 248.212C345.881 242.16 353.935 261.159 353.935 261.159C353.935 261.159 356.683 260.958 356.693 260.623" stroke="white" stroke-width="0.957638" stroke-miterlimit="10" stroke-linecap="round" stroke-linejoin="round"/>
<path d="M356.338 273.302C358.787 273.302 360.772 270.275 360.772 266.541C360.772 262.807 358.787 259.78 356.338 259.78C353.889 259.78 351.904 262.807 351.904 266.541C351.904 270.275 353.889 273.302 356.338 273.302Z" fill="#31323A"/>
<path d="M352.46 263.247C353.216 261.178 354.662 259.771 356.329 259.771C356.941 259.771 357.526 259.962 358.052 260.297" fill="#31323A"/>
<path d="M352.46 263.247C353.216 261.178 354.662 259.771 356.329 259.771C356.941 259.771 357.526 259.962 358.052 260.297" stroke="white" stroke-width="0.957638" stroke-miterlimit="10" stroke-linecap="round" stroke-linejoin="round"/>
<path d="M357.305 266.244C356.559 281.49 350.305 284.315 350.305 284.315" stroke="#31323A" stroke-width="0.957638" stroke-miterlimit="10" stroke-linecap="round" stroke-linejoin="round"/>
<path d="M351.936 284.805C352.209 283.904 351.7 282.953 350.799 282.68C349.898 282.407 348.946 282.916 348.673 283.817C348.4 284.718 348.91 285.67 349.811 285.943C350.712 286.216 351.663 285.706 351.936 284.805Z" fill="#31323A"/>
<path d="M307.229 210.387C306.367 210.483 305.716 211.221 305.735 212.082L305.946 226.074C304.95 226.361 302.632 227.012 300.401 227.654L300.19 227.29C299.673 226.418 298.61 226.045 297.662 226.399C296.695 226.773 296.149 227.797 296.369 228.793C295.728 228.975 295.287 229.1 295.153 229.138C294.176 229.416 293.602 230.431 293.87 231.408C294.128 232.336 295.057 232.901 295.986 232.72C295.325 233.15 294.99 233.964 295.211 234.759C295.488 235.736 296.503 236.311 297.48 236.043C297.547 236.023 297.662 235.995 297.806 235.947C296.973 236.311 296.513 237.24 296.762 238.13C297.04 239.107 298.055 239.682 299.031 239.413C299.089 239.394 299.175 239.375 299.28 239.346L300.937 245.332C301.004 245.59 301.1 245.83 301.225 246.05C301.924 248.032 304.164 250.426 306.731 250.139C310.772 249.698 311.787 247.151 311.691 245.619L309.077 211.891C309.01 210.972 308.167 210.292 307.229 210.387Z" fill="white"/>
<path d="M302.46 248.156C301.895 247.496 301.473 246.768 301.224 246.078C301.109 245.858 301.014 245.619 300.937 245.36L299.28 239.375C299.175 239.404 299.089 239.432 299.031 239.442C298.055 239.72 297.03 239.145 296.762 238.159C296.513 237.258 296.972 236.33 297.806 235.975C297.662 236.014 297.557 236.052 297.48 236.071C296.503 236.349 295.479 235.774 295.21 234.788C294.99 233.993 295.325 233.169 295.986 232.748C295.057 232.92 294.128 232.355 293.87 231.436C293.592 230.459 294.167 229.435 295.153 229.166C295.287 229.128 295.728 229.004 296.369 228.822C296.149 227.816 296.685 226.792 297.662 226.428C298.61 226.064 299.683 226.447 300.19 227.318L300.401 227.682C302.642 227.041 304.959 226.38 305.946 226.102L305.735 212.111C305.725 211.249 306.367 210.512 307.229 210.416C308.167 210.311 309 211 309.087 211.939L311.375 244.134V254.477" stroke="#31323A" stroke-width="0.957638" stroke-miterlimit="10" stroke-linecap="round" stroke-linejoin="round"/>
<path d="M304.27 234.156C304.701 234.031 305.132 233.916 305.553 233.792" stroke="#31323A" stroke-width="0.957638" stroke-miterlimit="10" stroke-linecap="round" stroke-linejoin="round"/>
<path d="M297.633 236.014C297.806 235.937 297.978 235.88 298.16 235.823" stroke="#31323A" stroke-width="0.957638" stroke-miterlimit="10" stroke-linecap="round" stroke-linejoin="round"/>
<path d="M302.46 230.909C303.235 230.689 304.011 230.469 304.787 230.249" stroke="#31323A" stroke-width="0.957638" stroke-miterlimit="10" stroke-linecap="round" stroke-linejoin="round"/>
<path d="M295.986 232.748C296.331 232.653 297.001 232.471 297.346 232.365" stroke="#31323A" stroke-width="0.957638" stroke-miterlimit="10" stroke-linecap="round" stroke-linejoin="round"/>
<path d="M305.946 226.083L306.223 235.334L305.237 235.88L300.181 227.309C299.663 226.437 298.6 226.064 297.652 226.418C296.647 226.801 296.101 227.883 296.388 228.918L299.213 239.097" stroke="#31323A" stroke-width="0.957638" stroke-miterlimit="10" stroke-linecap="round" stroke-linejoin="round"/>
<path d="M366.48 372.731C368.395 372.434 369.324 371.055 369.85 369.274H275.274C275.801 371.064 276.605 372.434 278.492 372.731H366.48Z" fill="white" stroke="#31323A" stroke-width="0.957638" stroke-miterlimit="10" stroke-linecap="round" stroke-linejoin="round"/>
<path d="M275.092 369.341H329.371C332.292 369.341 333.738 367.081 332.598 364.304L315.275 321.909C314.652 320.377 312.842 319.141 311.234 319.141H252.186C250.577 319.141 249.782 320.386 250.414 321.909L267.738 364.304C268.887 367.09 272.171 369.341 275.092 369.341Z" fill="white" stroke="#31323A" stroke-width="0.957638" stroke-miterlimit="10" stroke-linecap="round" stroke-linejoin="round"/>
<path d="M269.443 372.732H391.321" stroke="#31323A" stroke-width="0.957638" stroke-miterlimit="10" stroke-linecap="round" stroke-linejoin="round"/>
<path d="M391.321 230.799C405.479 230.799 416.957 219.664 416.957 205.929C416.957 192.194 405.479 181.059 391.321 181.059C377.163 181.059 365.685 192.194 365.685 205.929C365.685 219.664 377.163 230.799 391.321 230.799Z" fill="white" stroke="#C1C7D7" stroke-width="0.957638" stroke-miterlimit="10" stroke-linecap="round" stroke-linejoin="round"/>
<path d="M391.321 228.491C404.168 228.491 414.582 218.39 414.582 205.929C414.582 193.469 404.168 183.367 391.321 183.367C378.474 183.367 368.06 193.469 368.06 205.929C368.06 218.39 378.474 228.491 391.321 228.491Z" stroke="#C1C7D7" stroke-width="0.957638" stroke-miterlimit="10" stroke-linecap="round" stroke-linejoin="round"/>
<path d="M414.582 205.929C414.582 218.388 404.173 228.491 391.321 228.491" stroke="#2239FF" stroke-width="0.957638" stroke-miterlimit="10" stroke-linecap="round" stroke-linejoin="round"/>
<path d="M381.4 193.125L391.321 205.929L410.733 198.287" stroke="#2239FF" stroke-width="0.957638" stroke-miterlimit="10" stroke-linecap="round" stroke-linejoin="round"/>
<path d="M387.222 215.505H394.644" stroke="#2239FF" stroke-width="0.957638" stroke-miterlimit="10" stroke-linecap="round" stroke-linejoin="round"/>
<path d="M388.525 217.526H393.342" stroke="#2239FF" stroke-width="0.957638" stroke-miterlimit="10" stroke-linecap="round" stroke-linejoin="round"/>
<path d="M403.742 278.892V367.215C403.742 379.262 393.974 389.03 381.927 389.03H301.888C298.507 389.03 295.309 388.264 292.455 386.885C286.738 384.136 282.409 378.975 280.781 372.721" stroke="#31323A" stroke-width="0.957638" stroke-miterlimit="10" stroke-linecap="round" stroke-linejoin="round"/>
</svg>
