<svg width="479" height="432" viewBox="0 0 479 432" fill="none" xmlns="http://www.w3.org/2000/svg">
<path d="M404.679 70.9796C469.952 140.15 464.369 269.929 375.749 353.559C287.129 437.19 166.697 439.297 101.424 370.126C36.1515 300.956 -27.1292 192.628 91.1486 91.1283C183.628 11.7784 339.407 1.8094 404.679 70.9796Z" fill="#C1C7D7"/>
<path d="M30.9238 19.1331C39.0733 154.227 125.146 230.139 139.932 296.714C147.449 330.557 122.024 373.813 104.164 397.812" stroke="white" stroke-width="0.957638" stroke-miterlimit="10" stroke-linecap="round" stroke-linejoin="round"/>
<path d="M60.4191 19.4204C49.9617 112.12 36.9283 200.05 57.891 262.191C71.6618 303.006 104.011 359.19 125.031 397.802" stroke="white" stroke-width="0.957638" stroke-miterlimit="10" stroke-linecap="round" stroke-linejoin="round"/>
<path d="M78.097 19.4204C130.949 125.929 145.572 333.899 152.209 371.103C153.904 380.593 157.581 389.624 162.12 397.802" stroke="white" stroke-width="0.957638" stroke-miterlimit="10" stroke-linecap="round" stroke-linejoin="round"/>
<path d="M153.253 19.4204C117.657 137.966 234.317 309.307 209.15 397.802" stroke="white" stroke-width="0.957638" stroke-miterlimit="10" stroke-linecap="round" stroke-linejoin="round"/>
<path d="M188.398 19.4204C253.517 165.058 259.1 239.15 225.43 397.802" stroke="white" stroke-width="0.957638" stroke-miterlimit="10" stroke-linecap="round" stroke-linejoin="round"/>
<path d="M104.135 19.4204C253.096 197.254 238.98 299.769 185.707 398.147" stroke="white" stroke-width="0.957638" stroke-miterlimit="10" stroke-linecap="round" stroke-linejoin="round"/>
<path d="M263.046 19.1331C271.196 154.227 357.268 230.139 372.054 296.714C379.572 330.557 354.146 373.813 336.287 397.812" stroke="white" stroke-width="0.957638" stroke-miterlimit="10" stroke-linecap="round" stroke-linejoin="round"/>
<path d="M292.542 19.4204C282.084 112.12 269.051 200.05 290.013 262.191C303.784 303.006 336.133 359.19 357.153 397.802" stroke="white" stroke-width="0.957638" stroke-miterlimit="10" stroke-linecap="round" stroke-linejoin="round"/>
<path d="M310.22 19.4204C363.072 125.929 377.695 333.899 384.331 371.103C386.026 380.593 389.704 389.624 394.243 397.802" stroke="white" stroke-width="0.957638" stroke-miterlimit="10" stroke-linecap="round" stroke-linejoin="round"/>
<path d="M385.385 19.4204C349.78 137.966 466.449 309.307 441.282 397.802" stroke="white" stroke-width="0.957638" stroke-miterlimit="10" stroke-linecap="round" stroke-linejoin="round"/>
<path d="M336.258 19.4204C485.218 197.254 471.103 299.769 417.829 398.147" stroke="white" stroke-width="0.957638" stroke-miterlimit="10" stroke-linecap="round" stroke-linejoin="round"/>
<path d="M395.735 397.563H57.3445V419.11H395.735V397.563Z" fill="white"/>
<path d="M337.964 397.563C354.224 248.315 375.56 52.363 375.56 52.363H150.257C150.257 52.363 128.921 248.315 112.66 397.572" stroke="#31323A" stroke-width="0.957638" stroke-miterlimit="10" stroke-linecap="round" stroke-linejoin="round"/>
<path d="M350.921 397.563C359.654 317.389 388.402 53.3875 388.402 53.3875C389.063 47.2874 384.285 41.9629 378.146 41.9629H150.228C144.961 41.9629 140.547 45.9275 139.972 51.1562C139.972 51.1562 110.678 320.195 102.251 397.563H350.921Z" fill="white" stroke="#31323A" stroke-width="0.957638" stroke-miterlimit="10" stroke-linecap="round" stroke-linejoin="round"/>
<path d="M236.751 47.4404H150.228C147.758 47.4404 145.689 49.2982 145.421 51.7498L130.31 190.521" fill="white"/>
<path d="M236.751 47.4404H150.228C147.758 47.4404 145.689 49.2982 145.421 51.7498L130.31 190.521" stroke="#31323A" stroke-width="0.957638" stroke-miterlimit="10" stroke-linecap="round" stroke-linejoin="round"/>
<path d="M370.925 163.267L382.953 52.8032C383.106 51.4242 382.676 50.0835 381.747 49.0493C380.818 48.015 379.544 47.4404 378.146 47.4404H359.031" fill="white"/>
<path d="M370.925 163.267L382.953 52.8032C383.106 51.4242 382.676 50.0835 381.747 49.0493C380.818 48.015 379.544 47.4404 378.146 47.4404H359.031" stroke="#31323A" stroke-width="0.957638" stroke-miterlimit="10" stroke-linecap="round" stroke-linejoin="round"/>
<path d="M355.173 307.899L361.311 251.59" stroke="#31323A" stroke-width="0.957638" stroke-miterlimit="10" stroke-linecap="round" stroke-linejoin="round"/>
<path d="M236.102 283.438L227.904 283.467L232.654 244.405L240.861 244.386L236.102 283.438Z" stroke="#C1C7D7" stroke-width="0.957638" stroke-miterlimit="10" stroke-linecap="round" stroke-linejoin="round"/>
<path d="M251.194 283.381L242.997 283.41L246.406 254.182L254.603 254.163L251.194 283.381Z" fill="#2239FF" stroke="#C1C7D7" stroke-width="0.957638" stroke-miterlimit="10" stroke-linecap="round" stroke-linejoin="round"/>
<path d="M266.277 283.323L258.089 283.352L263.883 233.631L272.08 233.612L266.277 283.323Z" stroke="#C1C7D7" stroke-width="0.957638" stroke-miterlimit="10" stroke-linecap="round" stroke-linejoin="round"/>
<path d="M281.341 283.266L273.153 283.294L277.989 241.915L286.167 241.896L281.341 283.266Z" fill="#2239FF" stroke="#C1C7D7" stroke-width="0.957638" stroke-miterlimit="10" stroke-linecap="round" stroke-linejoin="round"/>
<path d="M296.385 283.209L288.216 283.237L294.546 229.112L302.715 229.102L296.385 283.209Z" fill="#31323A" stroke="#C1C7D7" stroke-width="0.957638" stroke-miterlimit="10" stroke-linecap="round" stroke-linejoin="round"/>
<path d="M311.42 283.151L303.251 283.18L309.84 229.102L318.008 229.092L311.42 283.151Z" fill="#2239FF" stroke="#C1C7D7" stroke-width="0.957638" stroke-miterlimit="10" stroke-linecap="round" stroke-linejoin="round"/>
<path d="M326.445 283.093L318.286 283.132L322.624 246.052L330.783 246.033L326.445 283.093Z" stroke="#C1C7D7" stroke-width="0.957638" stroke-miterlimit="10" stroke-linecap="round" stroke-linejoin="round"/>
<path d="M175.225 283.659L337.343 282.912" stroke="#C1C7D7" stroke-width="0.957638" stroke-miterlimit="10" stroke-linecap="round" stroke-linejoin="round"/>
<path d="M239.663 238.677L237.336 233.717L233.841 238.687" stroke="#C1C7D7" stroke-width="0.957638" stroke-miterlimit="10" stroke-linecap="round" stroke-linejoin="round"/>
<path d="M266.42 222.082L268.747 227.033L272.242 222.062" stroke="#C1C7D7" stroke-width="0.957638" stroke-miterlimit="10" stroke-linecap="round" stroke-linejoin="round"/>
<path d="M258.596 114.998C254.555 113.112 249.978 112.058 245.027 112.039C244.337 112.039 243.657 112.058 242.977 112.097C224.543 113.112 208.225 128.396 206.051 147.136C203.791 166.567 217.581 182.32 236.829 182.33C246.099 182.339 254.957 178.691 261.881 172.734C269.322 166.347 274.551 157.297 275.729 147.261C277.414 132.849 270.27 120.447 258.596 114.998Z" stroke="#C1C7D7" stroke-width="0.957638" stroke-miterlimit="10" stroke-linecap="round" stroke-linejoin="round"/>
<path d="M255.149 111.387C251.108 109.5 246.53 108.447 241.579 108.427C240.89 108.427 240.21 108.447 239.53 108.485L237.481 143.582L255.149 111.387Z" fill="#31323A"/>
<path d="M239.53 108.485C221.096 109.5 204.778 124.784 202.604 143.525C200.344 162.956 214.134 178.709 233.382 178.718C242.652 178.728 251.51 175.079 258.434 169.123L237.481 143.583L239.53 108.485Z" fill="#C1C7D7"/>
<path d="M215.388 118.971C208.512 125.301 203.715 133.958 202.604 143.515C200.344 162.946 214.134 178.699 233.382 178.709C238.85 178.709 244.165 177.445 249.03 175.185" stroke="#31323A" stroke-width="0.957638" stroke-miterlimit="10" stroke-linecap="round" stroke-linejoin="round"/>
<path d="M272.281 143.649C273.967 129.246 266.823 116.845 255.149 111.386L237.481 143.582L258.434 169.122C265.875 162.725 271.103 153.685 272.281 143.649Z" fill="#2239FF"/>
<path d="M272.291 135.452C270.998 124.65 264.534 115.773 255.149 111.387C251.108 109.5 246.531 108.447 241.58 108.427C240.89 108.427 240.21 108.447 239.53 108.485" stroke="#31323A" stroke-width="0.957638" stroke-miterlimit="10" stroke-linecap="round" stroke-linejoin="round"/>
<path d="M148.104 163.225L180.492 163.263L201.569 155.775" stroke="#C1C7D7" stroke-width="0.957638" stroke-miterlimit="10" stroke-linecap="round" stroke-linejoin="round"/>
<path d="M252.506 108.429L288.063 87.1023L352.943 87.3226" stroke="#C1C7D7" stroke-width="0.957638" stroke-miterlimit="10" stroke-linecap="round" stroke-linejoin="round"/>
<path d="M289.375 163.388L343.98 163.445" stroke="#C1C7D7" stroke-width="0.957638" stroke-miterlimit="10" stroke-linecap="round" stroke-linejoin="round"/>
<path d="M158.016 77.7654L207.363 77.9473" stroke="#C1C7D7" stroke-width="0.957638" stroke-miterlimit="10" stroke-linecap="round" stroke-linejoin="round"/>
<path d="M305.08 78.311L353.977 78.5026" stroke="#C1C7D7" stroke-width="0.957638" stroke-miterlimit="10" stroke-linecap="round" stroke-linejoin="round"/>
<path d="M297.821 140.203L346.709 140.29" stroke="#C1C7D7" stroke-width="0.957638" stroke-miterlimit="10" stroke-linecap="round" stroke-linejoin="round"/>
<path d="M296.998 147.242L345.876 147.328" stroke="#C1C7D7" stroke-width="0.957638" stroke-miterlimit="10" stroke-linecap="round" stroke-linejoin="round"/>
<path d="M296.174 154.29L337.084 154.348" stroke="#C1C7D7" stroke-width="0.957638" stroke-miterlimit="10" stroke-linecap="round" stroke-linejoin="round"/>
<path d="M157.279 84.105L206.626 84.2774" stroke="#C1C7D7" stroke-width="0.957638" stroke-miterlimit="10" stroke-linecap="round" stroke-linejoin="round"/>
<path d="M156.541 90.4541L205.888 90.6169" stroke="#C1C7D7" stroke-width="0.957638" stroke-miterlimit="10" stroke-linecap="round" stroke-linejoin="round"/>
<path d="M155.813 96.7935L205.151 96.9467" stroke="#C1C7D7" stroke-width="0.957638" stroke-miterlimit="10" stroke-linecap="round" stroke-linejoin="round"/>
<path d="M155.076 103.133C166.836 103.267 178.768 103.133 190.834 103.238" stroke="#C1C7D7" stroke-width="0.957638" stroke-miterlimit="10" stroke-linecap="round" stroke-linejoin="round"/>
<path d="M149.204 154.348L177.617 154.291" stroke="#C1C7D7" stroke-width="0.957638" stroke-miterlimit="10" stroke-linecap="round" stroke-linejoin="round"/>
<path d="M289.274 162.957C285.079 156.761 276.834 147.539 275.618 143.058C274.22 137.896 271.213 142.282 271.596 145.749C271.979 149.215 275.771 152.519 274.966 155.009C274.334 156.953 273.243 156.742 267.602 155.469C261.962 154.185 248.756 150.077 246.898 152.136C245.615 153.553 246.946 154.693 246.946 154.693C246.946 154.693 243.613 154.473 243.786 156.627C243.958 158.792 247.444 159.156 247.444 159.156C247.444 159.156 245.059 161.617 248.239 162.297C249.311 162.526 249.465 162.517 251.456 162.852C255.201 165.773 261.492 173.166 265.055 173.415C268.455 173.654 276.633 174.334 281.498 174.248C289.513 174.123 292.166 167.238 289.274 162.957Z" fill="white" stroke="#31323A" stroke-width="0.957638" stroke-miterlimit="10" stroke-linecap="round" stroke-linejoin="round"/>
<path d="M246.937 154.693C253.401 154.626 265.342 158.475 265.342 158.475" stroke="#31323A" stroke-width="0.957638" stroke-miterlimit="10" stroke-linecap="round" stroke-linejoin="round"/>
<path d="M247.434 159.156C254.387 158.83 265.16 162.9 265.16 162.9" stroke="#31323A" stroke-width="0.957638" stroke-miterlimit="10" stroke-linecap="round" stroke-linejoin="round"/>
<path d="M251.447 162.852C250.489 161.492 252.443 159.634 254.875 161.377C257.423 163.197 264.519 167.707 264.519 167.707" stroke="#31323A" stroke-width="0.957638" stroke-miterlimit="10" stroke-linecap="round" stroke-linejoin="round"/>
<path d="M420.481 141.144C420.921 138.529 417.608 136.451 417.876 133.818C418.173 130.964 422.434 129.604 422.338 126.741C422.243 123.935 418.153 122.977 417.225 120.325C416.152 117.279 419.82 114.167 419.025 111.036C418.125 107.492 412.58 107.234 411.096 103.901C410.138 101.766 411.153 98.8928 409.583 97.1498C407.897 95.2825 404.632 96.2401 402.554 94.8324C400.562 93.4821 400.284 90.4177 398.225 89.1727C395.122 87.3053 390.42 90.9348 387.749 88.4928C386.618 87.4586 386.379 85.6678 385.172 84.7293C383.564 83.4652 381.189 84.3462 379.532 85.5433C377.875 86.7403 376.219 88.2917 374.179 88.2917C371.172 88.2917 368.883 84.9017 365.876 85.1123C363.98 85.2464 362.496 86.8074 361.5 88.4162C360.494 90.0346 359.728 91.8445 358.311 93.1182C356.826 94.4493 354.815 94.9952 352.996 95.7996C351.176 96.6136 349.328 97.9255 348.945 99.8887C348.514 102.053 350.018 104.332 349.347 106.429C348.246 109.896 342.28 110.155 341.753 113.765C341.38 116.322 344.272 118.639 343.611 121.139C342.826 124.107 337.875 124.347 337.166 127.335C336.649 129.499 338.794 131.424 338.986 133.636C339.139 135.331 338.143 136.873 337.444 138.424C336.745 139.966 336.371 141.986 337.549 143.212C338.459 144.17 340.01 144.294 340.91 145.271C342.912 147.445 339.991 151.381 341.686 153.804C342.931 155.575 345.622 155.192 347.614 156.016C351.081 157.452 349.558 162.087 351.789 165.755C354.03 169.423 360.274 165.42 364.095 166.502C365.225 166.818 365.541 169.643 366.719 169.576C368.663 169.461 377.598 175.169 389.195 167.421C391.627 165.793 392.604 163.064 394.643 160.967C396.243 159.32 398.771 159.013 401.06 159.224C403.339 159.444 405.589 160.086 407.888 159.98C410.176 159.875 412.647 158.783 413.442 156.629C414.581 153.555 411.881 149.791 413.595 146.985C415.214 144.342 419.973 144.208 420.481 141.144Z" fill="#31323A"/>
<path d="M293.592 166.973L300.726 176.272L291.15 184.737L277.552 175.86L293.592 166.973Z" fill="white"/>
<path d="M365.175 164.426C358.472 157.061 346.789 157.761 342.144 171.436C336.542 187.936 330.088 202.205 330.088 202.205L295.402 167.586L282.866 184.134C282.866 184.134 307.133 215.755 321.967 230.589C336.207 244.829 358.491 210.22 367.905 189.305C372.157 179.882 369.341 168.984 365.175 164.426Z" fill="#2239FF"/>
<path d="M351.146 190.531L337.203 246.112L329.724 298.562H361.297L351.146 190.531Z" fill="#2239FF"/>
<path d="M401.594 397.563C406.449 356.059 410.347 315.589 409.217 300.391C407.78 281.162 404.141 262.383 399.305 249.809L342.766 255.622C335.182 280.539 333.64 281.89 312.256 397.553L351.395 397.563C361.728 361.201 368.355 331.16 368.355 331.16C368.355 331.16 367.483 361.977 366.478 397.563H401.594Z" fill="#C1C7D7" stroke="#31323A" stroke-width="0.957638" stroke-miterlimit="10" stroke-linecap="round" stroke-linejoin="round"/>
<path d="M367.732 279.285L368.498 330.7" stroke="#31323A" stroke-width="0.957638" stroke-miterlimit="10" stroke-linecap="round" stroke-linejoin="round"/>
<path d="M342.758 255.619C342.758 255.619 397.343 254.461 396.041 255.763C394.739 257.065 409.218 174.067 409.218 174.067C409.218 174.067 355.456 166.616 355.523 166.789C355.571 166.952 342.758 255.619 342.758 255.619Z" fill="white"/>
<path d="M385.621 255.161L342.758 255.62L374.264 251.857" stroke="#31323A" stroke-width="0.957638" stroke-miterlimit="10" stroke-linecap="round" stroke-linejoin="round"/>
<path d="M344.309 261.032H399.296" stroke="#31323A" stroke-width="0.957638" stroke-miterlimit="10" stroke-linecap="round" stroke-linejoin="round"/>
<path d="M350.485 176.166C367.072 154.869 390.007 152.139 393.1 166.15C396.193 180.16 409.936 159.915 404.362 157.694C390.227 152.063 373.143 151.9 352.803 159.762C340.382 164.569 350.485 176.166 350.485 176.166Z" fill="#2239FF"/>
<path d="M389.375 153.691C413.134 156.046 380.44 180.581 365.702 179.183C354.824 178.158 354.345 161.38 367.388 154.773C372.013 152.426 384.06 153.154 389.375 153.691Z" fill="white"/>
<path d="M395.188 164.186C389.068 171.704 374.292 179.987 365.702 179.183C357.007 178.359 354.957 167.48 361.144 159.771" stroke="#31323A" stroke-width="0.957638" stroke-miterlimit="10" stroke-linecap="round" stroke-linejoin="round"/>
<path d="M369.474 153.863C342.344 162.912 340.888 219.624 338.877 232.552L329.722 298.562C329.722 298.562 355.358 165.086 369.474 153.863Z" fill="#2239FF"/>
<path d="M345.054 212.796C345.246 203.487 348.597 182.266 348.597 182.266L353.817 180.475L349.431 177.813L354.497 166.781" stroke="#31323A" stroke-width="0.957638" stroke-miterlimit="10" stroke-linecap="round" stroke-linejoin="round"/>
<path d="M413.163 161.955C406.718 156.765 398.176 153.863 391.012 153.509C391.012 153.509 381.599 161.859 380.89 190.828C380.229 217.738 392.209 302.709 392.209 302.709H412.674L401.872 250.575C401.882 250.575 420.843 168.132 413.163 161.955Z" fill="#2239FF"/>
<path d="M395.982 154.62C395.982 154.62 390.074 162.137 393.675 180.533C392.851 180.275 386.167 181.558 386.167 181.558L392.516 188.367C392.516 188.367 384.366 208.027 385.266 217.287" stroke="#31323A" stroke-width="0.957638" stroke-miterlimit="10" stroke-linecap="round" stroke-linejoin="round"/>
<path d="M361.903 130.853L368.501 160.349C370.56 168.814 389.636 163.863 387.74 155.043C385.843 146.214 378.795 113.319 378.795 113.319C378.795 113.319 358.982 106.999 361.903 130.853Z" fill="white"/>
<path d="M374.725 95.5454C408.099 105.371 380.749 150.179 356.348 147.076C352.508 146.587 348.495 129.398 352 116.575C355.563 103.532 360.025 91.2169 374.725 95.5454Z" fill="white"/>
<path d="M374.514 141.493C368.97 145.544 362.563 147.861 356.348 147.076C352.508 146.587 348.495 129.398 352 116.575C355.563 103.532 360.025 91.2169 374.725 95.5454" stroke="#31323A" stroke-width="0.957638" stroke-miterlimit="10" stroke-linecap="round" stroke-linejoin="round"/>
<path d="M364.498 122.129C366.528 121.095 366.94 124.926 364.794 125.146C362.659 125.356 363.655 122.56 364.498 122.129Z" fill="#31323A"/>
<path d="M354.136 119.524C356.166 118.49 356.578 122.321 354.433 122.541C352.297 122.752 353.283 119.946 354.136 119.524Z" fill="#31323A"/>
<path d="M351.34 115.569C355.017 114.631 358.225 116.881 358.225 116.881" stroke="#31323A" stroke-width="0.957638" stroke-miterlimit="10" stroke-linecap="round" stroke-linejoin="round"/>
<path d="M363.808 117.724C366.786 117.58 369.736 118.988 371.44 121.526" stroke="#31323A" stroke-width="0.957638" stroke-miterlimit="10" stroke-linecap="round" stroke-linejoin="round"/>
<path d="M358.273 119.946C356.157 126.649 354.51 130.03 354.51 130.03C354.51 130.03 354.423 131.543 356.549 132.213" stroke="#31323A" stroke-width="0.957638" stroke-miterlimit="10" stroke-linecap="round" stroke-linejoin="round"/>
<path d="M412.684 302.709H392.219C392.219 302.709 385.219 257.001 385.219 249.818" stroke="#31323A" stroke-width="0.957638" stroke-miterlimit="10" stroke-linecap="round" stroke-linejoin="round"/>
<path d="M342.757 203.957L329.724 298.562" stroke="#31323A" stroke-width="0.957638" stroke-miterlimit="10" stroke-linecap="round" stroke-linejoin="round"/>
<path d="M408.845 260.475L425.489 243.401L413.001 235.462L400.226 256.08L408.845 260.475Z" fill="white"/>
<path d="M415.462 258.972L427.126 239.723L417.1 233.087L401.452 251.857L415.462 258.972Z" fill="white"/>
<path d="M403.014 254.738C394.615 252.976 406.04 277.932 406.653 279.781C407.266 281.629 418.863 277.75 418.48 274.801C418.097 271.851 412.188 269.888 412.188 269.888C412.188 269.888 413.328 256.912 403.014 254.738Z" fill="white"/>
<path d="M402.027 267.743C403.895 273.412 406.365 278.948 406.643 279.79C407.256 281.648 419.006 277.741 418.47 274.811C417.867 271.564 413.605 269.448 413.605 269.448" stroke="#31323A" stroke-width="0.957638" stroke-miterlimit="10" stroke-linecap="round" stroke-linejoin="round"/>
<path d="M411.039 269.438C410.589 272.043 408.406 273.939 408.406 273.939C408.406 273.939 413.299 273.575 414.87 274.092C411.882 272.742 412.179 269.879 412.179 269.879" stroke="#31323A" stroke-width="0.957638" stroke-miterlimit="10" stroke-linecap="round" stroke-linejoin="round"/>
<path d="M401.452 251.857L416.132 259.527" stroke="#31323A" stroke-width="0.957638" stroke-miterlimit="10" stroke-linecap="round" stroke-linejoin="round"/>
<path d="M402.054 249.809L419.598 255.621L448.892 224.948C455.414 218.12 455.481 207.404 449.045 200.49L413.172 161.945C406 155.232 389.289 170.832 398.798 184.364C408.308 197.895 428.523 213.562 428.523 213.562L402.054 249.809Z" fill="#2239FF"/>
<path d="M399.296 185.082C404.381 192.944 411.985 199.188 411.985 199.188" stroke="#31323A" stroke-width="0.957638" stroke-miterlimit="10" stroke-linecap="round" stroke-linejoin="round"/>
<path d="M433.666 212.174L428.513 213.572L433.666 215.918" stroke="#31323A" stroke-width="0.957638" stroke-miterlimit="10" stroke-linecap="round" stroke-linejoin="round"/>
<path d="M402.054 249.809L419.598 255.622" stroke="#31323A" stroke-width="0.957638" stroke-miterlimit="10" stroke-linecap="round" stroke-linejoin="round"/>
<path d="M330.26 209.31L330.088 202.205L332.568 205.757" stroke="#31323A" stroke-width="0.957638" stroke-miterlimit="10" stroke-linecap="round" stroke-linejoin="round"/>
<path d="M282.876 184.134L295.402 167.586L313.818 185.953" stroke="#31323A" stroke-width="0.957638" stroke-miterlimit="10" stroke-linecap="round" stroke-linejoin="round"/>
<path d="M277.552 175.86L293.592 166.973" stroke="#31323A" stroke-width="0.957638" stroke-miterlimit="10" stroke-linecap="round" stroke-linejoin="round"/>
<path d="M359.584 96.3933C355.313 105.634 364.354 105.634 366.786 105.826C370.339 106.104 368.155 108.919 370.013 111.955C371.746 114.789 375.52 113.42 377.425 115.24C380.26 117.94 375.711 121.886 378.124 124.806C380.538 127.727 382.127 127.861 382.185 130.351C382.261 133.789 378.421 134.852 378.507 138.261C378.632 142.791 386.542 142.58 387.509 146.353C388.486 150.117 397.938 142.274 397.335 130.14C396.741 118.007 391.981 97.734 383.267 93.8364C366.154 86.1561 359.584 96.3933 359.584 96.3933Z" fill="#31323A"/>
<path d="M43.0318 397.56C43.3 393.078 45.2823 360.02 45.2823 360.02C45.4068 357.933 45.1482 355.845 44.5162 353.872L28.131 302.667C25.9571 295.858 31.0326 288.906 38.1766 288.906H73.9156C82.2375 288.906 89.6688 294.135 92.4747 301.959L111.11 353.863C111.819 355.835 112.154 357.913 112.116 360.011L120.284 393.538C120.256 394.83 120.208 396.181 120.179 397.54H43.0318V397.56Z" fill="#C1C7D7"/>
<path d="M43.3382 397.56C43.6063 393.078 45.5887 360.02 45.5887 360.02C45.7132 357.933 45.4546 355.845 44.8225 353.872L33.0819 317.185" stroke="#31323A" stroke-width="0.957638" stroke-miterlimit="10" stroke-linecap="round" stroke-linejoin="round"/>
<path d="M38.1765 288.925H73.9156C82.2374 288.925 89.6687 294.154 92.4746 301.978L111.11 353.882C111.819 355.854 112.154 357.932 112.116 360.03" stroke="#31323A" stroke-width="0.957638" stroke-miterlimit="10" stroke-linecap="round" stroke-linejoin="round"/>
<path d="M75.5793 397.561C74.5355 395.301 74.095 392.419 74.2099 388.809C74.5547 377.863 83.7097 369.273 94.6459 369.617L198.846 373.438L199.909 373.467C202.687 373.563 205.473 374.386 207.973 375.995C215.222 380.659 217.425 390.207 213.058 397.552H75.5793V397.561Z" fill="#E17847"/>
<path d="M195.907 397.561C200.475 378.466 203.98 363.795 203.98 363.795C205.684 355.186 200.092 346.816 191.473 345.111C189.174 344.652 186.886 344.719 184.741 345.226L183.601 345.504L89.3791 366.543C78.7301 369.1 79.9559 383.608 82.5128 394.248C82.8097 395.474 83.4704 396.575 84.4185 397.561H137.97C160.503 388.962 192.258 376.838 192.258 376.838L171.889 358.547C171.889 358.547 169.533 375.928 166.603 397.561H195.907Z" fill="#E17847"/>
<path d="M61.2531 397.561C51.4852 378.131 76.106 341.367 76.106 341.367L126.267 347.984L123.739 357.906L177.501 346.72C167.005 349.948 166.191 370.173 166.191 370.173C166.191 370.173 163.433 372.51 162.925 389.297C162.849 391.95 162.983 394.851 163.241 397.571H61.2531V397.561Z" fill="#31323A"/>
<path d="M202.102 373.055C202.102 373.055 199.383 383.647 195.82 397.561" stroke="#31323A" stroke-width="0.957638" stroke-miterlimit="10" stroke-linecap="round" stroke-linejoin="round"/>
<path d="M166.814 397.561C168.499 381.856 169.754 370.173 169.754 370.173" stroke="#31323A" stroke-width="0.957638" stroke-miterlimit="10" stroke-linecap="round" stroke-linejoin="round"/>
<path d="M149.462 265.636C161.998 294.739 177.061 329.702 177.061 329.702C177.061 329.702 173.403 339.394 171.861 339.298C170.32 339.202 130.061 339.298 130.061 339.298L142.567 290.152L149.462 265.636Z" fill="#2239FF"/>
<path d="M126.205 355.047C126.205 355.047 69.7999 343.823 70.9107 345.078C72.0312 346.332 95.206 258.478 95.206 258.478C95.206 258.478 135.685 247.868 145.089 262.615C154.513 277.382 126.205 355.047 126.205 355.047Z" fill="white"/>
<path d="M149.457 272.335C132.584 250.663 108.758 248.7 105.607 262.95C102.456 277.209 88.5418 256.764 94.1536 254.35C99.7557 251.937 118.497 244.64 130.869 250.166C143.242 255.691 149.457 272.335 149.457 272.335Z" fill="#2239FF"/>
<path d="M116.257 249.2C104.785 250.339 103.099 257.282 107.313 265.872C111.976 275.372 146.327 271.417 142.525 262.626C138.513 253.375 126.848 248.146 116.257 249.2Z" fill="white" stroke="#31323A" stroke-width="0.957638" stroke-miterlimit="10" stroke-linecap="round" stroke-linejoin="round"/>
<path d="M135.72 229.988L131.832 258.842C130.261 267.566 105.995 263.228 107.364 254.149C108.743 245.071 113.876 211.228 113.876 211.228C113.876 211.228 137.223 205.578 135.72 229.988Z" fill="white"/>
<path d="M133.119 251.814C165.487 265.585 150.768 302.579 149.456 314.281C148.144 325.993 128.848 356.896 128.848 356.896L123.734 357.911C137.007 305.854 145.674 266.332 132.669 254.792C132.832 252.341 133.119 251.814 133.119 251.814Z" fill="#2239FF"/>
<path d="M83.8398 258.219C91.2328 253.23 100.33 250.98 107.685 250.635C107.685 250.635 106.22 256.601 107.695 259.684C110.836 266.244 113.594 273.206 112.023 285.991C108.853 311.857 83.1694 371.699 83.1694 371.699L56.3556 363.33L69.6476 327.456C69.6476 327.456 74.8284 264.3 83.8398 258.219Z" fill="#2239FF"/>
<path d="M112.036 285.978C110.676 307.467 83.1825 371.687 83.1825 371.687L65.1501 366.362" stroke="#31323A" stroke-width="0.957638" stroke-miterlimit="10" stroke-linecap="round" stroke-linejoin="round"/>
<path d="M49.5684 397.556C48.7544 389.483 47.5095 377.149 47.5095 377.149C46.9157 371.298 50.4973 365.82 56.0995 364.02C68.9606 359.902 92.3365 353.649 110.982 355.554C118.442 356.32 123.508 363.512 121.784 370.809C121.784 370.809 117.714 388.143 115.502 397.547H105.973C108.185 388.143 112.255 370.809 112.255 370.809C113.97 363.512 108.913 356.32 101.453 355.554C82.808 353.639 59.4321 359.892 46.571 364.02C40.9688 365.82 37.3873 371.288 37.981 377.149C37.981 377.149 39.2259 389.474 40.0399 397.556H49.5684Z" fill="#C1C7D7"/>
<path d="M49.5712 397.557C48.7573 389.484 47.5123 377.15 47.5123 377.15" stroke="#31323A" stroke-width="0.957638" stroke-miterlimit="10" stroke-linecap="round" stroke-linejoin="round"/>
<path d="M40.0416 397.558C39.2276 389.485 37.9827 377.151 37.9827 377.151" stroke="#31323A" stroke-width="0.957638" stroke-miterlimit="10" stroke-linecap="round" stroke-linejoin="round"/>
<path d="M57.4515 360.833C70.3988 357.376 87.3011 354.11 101.465 355.566C108.925 356.332 113.99 363.524 112.267 370.821C112.267 370.821 108.197 388.154 105.985 397.558" stroke="#31323A" stroke-width="0.957638" stroke-miterlimit="10" stroke-linecap="round" stroke-linejoin="round"/>
<path d="M111.061 228.978L107.374 254.125" stroke="#31323A" stroke-width="0.957638" stroke-miterlimit="10" stroke-linecap="round" stroke-linejoin="round"/>
<path d="M150.42 277.377C153.437 293.953 144.751 319.264 144.751 319.264" stroke="#31323A" stroke-width="0.957638" stroke-miterlimit="10" stroke-linecap="round" stroke-linejoin="round"/>
<path d="M171.855 322.418C171.769 321.144 170.668 320.186 169.394 320.273C169.394 320.273 161.695 320.857 156.121 321.278C152.348 320.617 145.827 319.593 141.364 319.267L107.684 321.632L104.773 338.717L133.751 331.563C138.625 334.685 143.423 332.789 147.857 330.72L147.972 334.905C147.991 335.585 148.298 336.189 148.776 336.6C149.198 336.964 149.744 337.175 150.337 337.156C151.611 337.117 152.617 336.064 152.578 334.781C152.578 334.781 152.482 331.381 152.396 328.154C152.435 328.135 152.463 328.106 152.502 328.087L157.577 336.782C157.884 337.319 158.382 337.673 158.927 337.836C159.512 338.008 160.163 337.941 160.737 337.615C161.839 336.974 162.212 335.557 161.57 334.455L156.562 325.865L169.701 324.888C170.381 324.841 170.965 324.505 171.358 324.017C171.712 323.567 171.903 323.011 171.855 322.418Z" fill="white" stroke="#31323A" stroke-width="0.957638" stroke-miterlimit="10" stroke-linecap="round" stroke-linejoin="round"/>
<path d="M156.284 334.532L151.63 326.545" stroke="#31323A" stroke-width="0.957638" stroke-miterlimit="10" stroke-linecap="round" stroke-linejoin="round"/>
<path d="M161.58 334.445L155.997 324.955" stroke="#31323A" stroke-width="0.957638" stroke-miterlimit="10" stroke-linecap="round" stroke-linejoin="round"/>
<path d="M147.78 326.918C147.809 328.106 147.837 329.293 147.857 330.471L147.78 326.918Z" fill="white"/>
<path d="M147.78 326.918C147.809 328.106 147.837 329.293 147.857 330.471" stroke="#31323A" stroke-width="0.957638" stroke-miterlimit="10" stroke-linecap="round" stroke-linejoin="round"/>
<path d="M122.726 341.37C120.839 341.083 119.929 339.733 119.412 337.97H220.069C219.552 339.723 218.767 341.073 216.909 341.37H122.726Z" fill="white"/>
<path d="M218.604 338.047H159.355C156.166 338.047 154.586 335.586 155.831 332.541L174.735 286.268C175.415 284.601 177.387 283.241 179.14 283.241H243.599C245.351 283.241 246.222 284.592 245.533 286.268L226.629 332.541C225.384 335.586 221.793 338.047 218.604 338.047Z" fill="white"/>
<path d="M201.501 283.241H243.598C245.351 283.241 246.222 284.592 245.533 286.268L226.629 332.541C225.384 335.576 221.793 338.047 218.604 338.047" stroke="#31323A" stroke-width="0.957638" stroke-miterlimit="10" stroke-linecap="round" stroke-linejoin="round"/>
<path d="M197.249 338.047H159.355C156.166 338.047 154.586 335.586 155.831 332.541L167.045 305.095" stroke="#31323A" stroke-width="0.957638" stroke-miterlimit="10" stroke-linecap="round" stroke-linejoin="round"/>
<path d="M91.0461 257.438C70.5622 250.745 56.5233 313.077 53.9376 338.388C51.3616 363.698 121.796 341.462 121.796 341.462L117.86 319.417L84.6586 323.726C84.6586 323.726 117.046 265.942 91.0461 257.438Z" fill="#2239FF"/>
<path d="M66.236 284.635C59.5804 302.773 55.2518 325.431 53.9303 338.397C51.3543 363.707 121.789 341.471 121.789 341.471L117.853 319.426L84.6609 323.726C84.6609 323.726 103.316 290.429 100.941 270.673" stroke="#31323A" stroke-width="0.957638" stroke-miterlimit="10" stroke-linecap="round" stroke-linejoin="round"/>
<path d="M77.5928 326.091L84.6601 323.726L80.0252 329.702" stroke="#31323A" stroke-width="0.957638" stroke-miterlimit="10" stroke-linecap="round" stroke-linejoin="round"/>
<path d="M132.75 347.125L409.852 347.125V341.082L132.75 341.082V347.125Z" fill="white"/>
<path d="M410.906 341.078H125.032" stroke="#31323A" stroke-width="0.957638" stroke-miterlimit="10" stroke-linecap="round" stroke-linejoin="round"/>
<path d="M423.729 347.121H128.527" stroke="#31323A" stroke-width="0.957638" stroke-miterlimit="10" stroke-linecap="round" stroke-linejoin="round"/>
<path d="M105.43 204.713C118.914 183.157 132.34 183.866 139.838 195.357C144.502 202.511 148.275 231.278 120.302 227.725C98.6787 224.977 105.43 204.713 105.43 204.713Z" fill="#31323A"/>
<path d="M124.985 196.984C133.144 193.939 139.474 202.988 144.75 209.826C148.725 214.978 152.814 216.041 152.766 217.123C152.67 219.661 150.285 221.471 150.285 221.471C150.285 221.471 152.297 233.46 149.855 238.009C148.16 241.169 129.84 243.889 123.692 230.865C121.604 226.451 117.745 230.099 115.772 225.301C110.544 212.68 108.245 201.054 124.985 196.984Z" fill="white"/>
<path d="M124.987 196.984C133.146 193.939 139.476 202.988 144.752 209.826C148.726 214.978 152.816 216.041 152.768 217.123C152.672 219.661 150.287 221.471 150.287 221.471C150.287 221.471 152.298 233.46 149.856 238.009C148.659 240.231 139.236 242.242 131.613 238.689" stroke="#31323A" stroke-width="0.957638" stroke-miterlimit="10" stroke-linecap="round" stroke-linejoin="round"/>
<path d="M139.57 207.852C136.017 211.836 136.62 214.843 136.62 214.843" stroke="#31323A" stroke-width="0.957638" stroke-miterlimit="10" stroke-linecap="round" stroke-linejoin="round"/>
<path d="M142.998 212.296C144.061 215.647 140.317 212.487 140.642 211.204C140.968 209.921 142.251 209.95 142.998 212.296Z" fill="#31323A"/>
<path d="M150.803 227.675C147.949 229.447 145.115 227.139 145.115 227.139" stroke="#31323A" stroke-width="0.957638" stroke-miterlimit="10" stroke-linecap="round" stroke-linejoin="round"/>
<path d="M130.396 191.802C141.945 197.663 123.166 222.475 123.166 222.475C123.166 222.475 121.595 240.623 108.533 242.346C98.334 249.002 89.1215 229.102 92.4828 210.716C95.6909 193.172 114.7 183.844 130.396 191.802Z" fill="#31323A"/>
<path d="M126.872 191.448C147.078 198.429 125.646 218.894 125.646 218.894" stroke="#31323A" stroke-width="0.957638" stroke-miterlimit="10" stroke-linecap="round" stroke-linejoin="round"/>
<path d="M129.216 228.059C133.717 222.323 123.997 213.685 121.124 218.741C118.261 223.817 125.012 233.431 129.216 228.059Z" fill="white"/>
<path d="M127.377 225.272L123.92 220.791" stroke="#31323A" stroke-width="0.957638" stroke-miterlimit="10" stroke-linecap="round" stroke-linejoin="round"/>
<path d="M129.111 220.79C126.995 217.582 122.848 215.724 121.134 218.741C118.673 223.079 123.269 230.75 127.291 229.495" stroke="#31323A" stroke-width="0.957638" stroke-miterlimit="10" stroke-linecap="round" stroke-linejoin="round"/>
<path d="M92.1752 228.242C103.121 218.033 89.4556 210.909 79.6302 216.693C69.8048 222.477 70.2549 238.785 74.909 256.77C79.5632 274.754 62.2778 266.586 59.2038 285.518C56.1202 304.46 70.3698 313.184 81.2677 305.293C118.06 278.642 81.2294 238.46 92.1752 228.242Z" fill="#31323A"/>
<path d="M81.4305 217.535C71.1646 222.496 70.2836 238.785 73.4534 257.095C76.6232 275.405 58.4663 265.906 53.8601 284.532" stroke="#31323A" stroke-width="0.957638" stroke-miterlimit="10" stroke-linecap="round" stroke-linejoin="round"/>
<path d="M274.744 327.952C289.348 327.808 318.547 327.511 318.547 327.511C322.109 327.473 325.03 330.336 325.068 333.899C325.097 337.03 316.861 340.889 316.861 340.889L272.36 340.42L274.744 327.952Z" fill="white"/>
<path d="M337.396 336.093C338.019 336.093 338.641 335.844 339.101 335.365C340.001 334.427 339.963 332.933 339.015 332.033L329.314 322.801C328.72 322.236 327.954 321.92 327.082 322.236C324.382 322.945 319.871 327.417 319.871 327.417C318.617 327.752 320.159 328.949 321.413 328.614L327.025 327.12L335.768 335.442C336.237 335.882 336.822 336.093 337.396 336.093Z" fill="white"/>
<path d="M337.396 336.093C338.019 336.093 338.641 335.844 339.101 335.365C340.001 334.427 339.963 332.933 339.015 332.033L329.314 322.801C328.72 322.236 327.954 321.92 327.082 322.236C324.382 322.945 319.871 327.417 319.871 327.417C318.617 327.752 320.159 328.949 321.413 328.614L327.025 327.12L335.768 335.442C336.237 335.882 336.822 336.093 337.396 336.093Z" stroke="#31323A" stroke-width="0.957638" stroke-miterlimit="10" stroke-linecap="round" stroke-linejoin="round"/>
<path d="M341.875 335.462C342.497 335.462 343.12 335.213 343.579 334.734C344.479 333.795 344.441 332.301 343.493 331.401L333.792 322.17C333.199 321.605 332.432 321.289 331.561 321.605C328.86 322.313 324.35 326.785 324.35 326.785C323.095 327.121 324.637 328.318 325.892 327.982L331.503 326.489L340.247 334.81C340.706 335.251 341.291 335.462 341.875 335.462Z" fill="white"/>
<path d="M331.515 326.489L340.258 334.81C340.718 335.241 341.302 335.462 341.876 335.462C342.499 335.462 343.121 335.213 343.581 334.734C344.481 333.795 344.443 332.301 343.495 331.401L333.794 322.17C333.2 321.605 332.434 321.289 331.563 321.605C330.825 321.796 329.954 322.016 329.082 322.61" stroke="#31323A" stroke-width="0.957638" stroke-miterlimit="10" stroke-linecap="round" stroke-linejoin="round"/>
<path d="M307.731 336.09C314.348 339.203 318.59 340.744 321.961 339.557C323.982 338.848 336.086 326.696 336.086 326.696C336.086 326.696 337.619 321.975 336.862 321.812C335.445 321.515 319.96 326.198 313.592 327.548C307.223 328.908 307.731 336.09 307.731 336.09Z" fill="white"/>
<path d="M346.45 335.668C347.072 335.668 347.695 335.419 348.154 334.94C349.055 334.001 349.016 332.508 348.068 331.607L338.367 322.376C337.774 321.811 336.931 321.59 336.136 321.811L329.251 323.649C327.996 323.985 327.249 325.277 327.584 326.532C327.919 327.786 329.212 328.533 330.467 328.198L336.079 326.704L344.822 335.026C345.291 335.457 345.875 335.668 346.45 335.668Z" fill="white"/>
<path d="M330.57 324.349L336.144 321.811C336.939 321.6 337.781 321.811 338.375 322.376L348.076 331.608C349.014 332.508 349.053 333.992 348.162 334.94C347.702 335.429 347.08 335.668 346.458 335.668C345.873 335.668 345.289 335.457 344.839 335.017L336.096 326.695L323.905 338.206C321.233 340.514 316.129 340.868 316.129 340.868" stroke="#31323A" stroke-width="0.957638" stroke-miterlimit="10" stroke-linecap="round" stroke-linejoin="round"/>
<path d="M295.86 327.741L313.586 327.559L322.08 325.414L324.771 323.374" stroke="#31323A" stroke-width="0.957638" stroke-miterlimit="10" stroke-linecap="round" stroke-linejoin="round"/>
<path d="M311.85 323.679L312.243 340.83L283.782 340.572C283.782 340.572 288.388 320.787 288.848 320.921C289.308 321.055 311.85 323.679 311.85 323.679Z" fill="white"/>
<path d="M311.85 323.679L312.243 340.84" stroke="#31323A" stroke-width="0.957638" stroke-miterlimit="10" stroke-linecap="round" stroke-linejoin="round"/>
<path d="M230.067 397.56C228.63 394.4 227.816 392.599 227.816 392.599C230.909 390.32 268.305 377.536 269.675 377.612C270.01 377.631 272.95 385.58 277.182 397.56H230.067Z" fill="#4366FF"/>
<path d="M191.924 216.653L179.005 262.552L203.387 265.253L212.982 241.092L191.924 216.653Z" fill="white" stroke="#31323A" stroke-width="0.957638" stroke-miterlimit="10" stroke-linecap="round" stroke-linejoin="round"/>
<path d="M188.334 397.561C178.461 382.401 175.099 363.44 175.099 363.44L215.397 357.101L335.571 377.489C345.482 379.366 349.916 387.994 349.811 397.561H188.334Z" fill="#31323A"/>
<path d="M153.246 397.56C152.432 389.516 151.226 377.545 151.226 377.545C150.641 371.713 154.204 366.255 159.787 364.474C172.6 360.365 195.89 354.141 214.458 356.047C221.89 356.813 226.937 363.976 225.222 371.244C225.222 371.244 221.258 388.127 219.036 397.56H209.536C211.758 388.127 215.723 371.244 215.723 371.244C217.437 363.928 212.333 356.793 204.853 356.037C186.304 354.17 163.091 360.375 150.297 364.474C144.704 366.265 141.132 371.713 141.726 377.555C141.726 377.555 143.191 392.073 143.747 397.57H153.246V397.56Z" fill="white"/>
<path d="M167.504 397.56C151.138 376.405 143.688 282.863 149.041 274.264C154.423 265.616 170.77 249.959 188.362 249.959C205.954 249.959 230.871 261.345 237.948 270.261C245.025 279.186 229.904 311.363 229.904 311.363C229.904 311.363 232.834 337.794 239.605 359.704C243.953 373.772 257.542 386.556 255.147 397.55H167.504V397.56Z" fill="#C1C7D7"/>
<path d="M148.773 397.56C149.108 392.053 151.004 360.48 151.004 360.48C151.129 358.392 150.87 356.324 150.248 354.361L133.92 303.357C131.746 296.577 136.812 289.653 143.927 289.653H179.532C187.826 289.653 195.218 294.853 198.024 302.658L216.593 354.361C217.302 356.324 217.637 358.392 217.589 360.48C217.589 360.48 216.928 392.053 216.804 397.56H148.773Z" fill="white"/>
<path d="M150.995 360.48C151.119 358.392 150.861 356.324 150.238 354.361L133.91 303.357C131.736 296.577 136.802 289.653 143.918 289.653" stroke="#31323A" stroke-width="0.957638" stroke-miterlimit="10" stroke-linecap="round" stroke-linejoin="round"/>
<path d="M148.773 397.56C149.108 392.054 151.004 360.48 151.004 360.48C151.128 358.393 150.87 356.324 150.247 354.361" stroke="#31323A" stroke-width="0.957638" stroke-miterlimit="10" stroke-linecap="round" stroke-linejoin="round"/>
<path d="M143.918 289.653H179.523C187.816 289.653 195.209 294.853 198.015 302.658L216.583 354.361C217.292 356.324 217.627 358.392 217.579 360.48C217.579 360.48 216.918 392.053 216.794 397.56" stroke="#31323A" stroke-width="0.957638" stroke-miterlimit="10" stroke-linecap="round" stroke-linejoin="round"/>
<path d="M227.318 262.897C221.218 261.853 213.825 263.701 210.952 269.61" stroke="#31323A" stroke-width="0.957638" stroke-miterlimit="10" stroke-linecap="round" stroke-linejoin="round"/>
<path d="M224.254 316.726L235.554 370.88" stroke="#31323A" stroke-width="0.957638" stroke-miterlimit="10" stroke-linecap="round" stroke-linejoin="round"/>
<path d="M174.438 352.714H211.364" stroke="#31323A" stroke-width="0.957638" stroke-miterlimit="10" stroke-linecap="round" stroke-linejoin="round"/>
<path d="M157.468 357.828H187.481" stroke="#31323A" stroke-width="0.957638" stroke-miterlimit="10" stroke-linecap="round" stroke-linejoin="round"/>
<path d="M325.122 394.333L252.83 385.35" stroke="#C1C7D7" stroke-width="0.957638" stroke-miterlimit="10" stroke-linecap="round" stroke-linejoin="round"/>
<path d="M223.326 397.56C222.512 389.516 221.305 377.545 221.305 377.545C220.721 371.713 224.283 366.255 229.866 364.474C242.679 360.365 265.969 354.141 284.538 356.047C291.969 356.813 297.016 363.976 295.302 371.244C295.302 371.244 291.337 388.127 289.115 397.56H279.616C281.837 388.127 285.802 371.244 285.802 371.244C287.506 363.976 282.469 356.813 275.038 356.047C256.469 354.141 233.17 360.365 220.366 364.474C214.783 366.265 211.221 371.713 211.805 377.545C211.805 377.545 213.012 389.506 213.826 397.56H223.326Z" fill="white"/>
<path d="M223.327 397.56C222.513 389.516 221.306 377.546 221.306 377.546C220.722 371.714 224.284 366.255 229.867 364.474C239.99 361.227 256.643 356.66 272.358 355.826" stroke="#31323A" stroke-width="0.957638" stroke-miterlimit="10" stroke-linecap="round" stroke-linejoin="round"/>
<path d="M213.252 391.805C213.252 391.805 213.53 394.582 213.836 397.56" stroke="#31323A" stroke-width="0.957638" stroke-miterlimit="10" stroke-linecap="round" stroke-linejoin="round"/>
<path d="M289.126 397.56C291.348 388.127 295.312 371.244 295.312 371.244C297.017 363.976 291.98 356.813 284.548 356.047C280.651 355.644 276.542 355.606 272.367 355.826C273.277 355.884 274.168 355.951 275.058 356.047" stroke="#31323A" stroke-width="0.957638" stroke-miterlimit="10" stroke-linecap="round" stroke-linejoin="round"/>
<path d="M214.151 368.955C216.248 365.776 220.031 364.579 221.237 364.196" stroke="#31323A" stroke-width="0.957638" stroke-miterlimit="10" stroke-linecap="round" stroke-linejoin="round"/>
<path d="M216.066 269.533C222.98 261.949 230.67 262.811 240.687 273.824C250.704 284.827 264.331 314.437 264.331 314.437L306.467 321.476L301.363 340.351C301.363 340.351 262.368 340.887 252.801 340.887C248.272 340.887 222.961 316.735 213.26 295.179C208.874 285.459 211.776 274.235 216.066 269.533Z" fill="#C1C7D7"/>
<path d="M265.499 320.652L264.321 314.437L261.966 320.652" stroke="#31323A" stroke-width="0.957638" stroke-miterlimit="10" stroke-linecap="round" stroke-linejoin="round"/>
<path d="M219.13 304.219C224.033 312.139 233.935 323.688 233.935 323.688" stroke="#31323A" stroke-width="0.957638" stroke-miterlimit="10" stroke-linecap="round" stroke-linejoin="round"/>
<path d="M187.195 226.573C172.869 218.089 173.252 195.326 191.074 190.279C208.896 185.232 211.826 189.474 214.977 194.99C218.137 200.506 220.291 203.13 221.613 206.472C222.915 209.776 220.77 210.858 221.45 214.105C221.747 215.503 225.29 219.525 226.066 221.737C226.478 222.905 224.055 223.815 224.055 223.815C224.055 223.815 225.022 238.266 220.483 242.154C215.944 246.042 195.24 236.858 187.195 226.573Z" fill="white"/>
<path d="M225.453 220.454C225.721 220.923 225.941 221.364 226.075 221.747C226.487 222.915 224.064 223.825 224.064 223.825C224.064 223.825 225.031 238.276 220.492 242.164C218.404 243.955 212.888 242.968 206.76 240.392" stroke="#31323A" stroke-width="0.957638" stroke-miterlimit="10" stroke-linecap="round" stroke-linejoin="round"/>
<path d="M191.074 190.279C208.895 185.232 211.826 189.474 214.976 194.99C218.137 200.506 220.291 203.13 221.613 206.472C222.915 209.776 220.77 210.858 221.45 214.105C221.507 214.402 221.718 214.804 222.005 215.283" stroke="#31323A" stroke-width="0.957638" stroke-miterlimit="10" stroke-linecap="round" stroke-linejoin="round"/>
<path d="M210.925 183.729C203.925 181.612 197.557 186.726 197.337 187.483C197.116 188.239 182.101 188.076 176.412 198.792C170.724 209.499 172.524 223.116 186.171 237.366C191.083 240.756 207.373 226.535 203.149 219.516C196.819 208.982 209.422 205.314 212.879 214.545C214.057 213.588 210.399 205.611 213.636 198.218C216.872 190.825 219.037 195.345 219.037 195.345C218.912 191.754 217.409 185.682 210.925 183.729Z" fill="#31323A"/>
<path d="M210.389 210.984C208.397 208.034 204.701 206.339 203.006 209.088C200.889 212.506 203.446 218.367 206.635 219.564C206.875 216.346 208.1 213.205 210.389 210.984Z" fill="white"/>
<path d="M208.79 215.609L205.63 211.166" stroke="#31323A" stroke-width="0.957638" stroke-miterlimit="10" stroke-linecap="round" stroke-linejoin="round"/>
<path d="M203.006 209.087C200.478 213.177 204.624 220.751 208.541 219.688" stroke="#31323A" stroke-width="0.957638" stroke-miterlimit="10" stroke-linecap="round" stroke-linejoin="round"/>
<path d="M218.299 210.887C220.224 208.225 222.953 207.918 222.953 207.918" stroke="#31323A" stroke-width="0.957638" stroke-miterlimit="10" stroke-linecap="round" stroke-linejoin="round"/>
<path d="M227.589 215.212C227.77 212.176 226.723 209.644 225.25 209.556C223.777 209.468 222.436 211.858 222.255 214.894C222.073 217.929 223.121 220.461 224.594 220.549C226.066 220.637 227.407 218.248 227.589 215.212Z" stroke="#31323A" stroke-width="0.957638" stroke-miterlimit="10" stroke-linecap="round" stroke-linejoin="round"/>
<path d="M209.939 210.37C211.337 210.456 229.159 213.53 229.159 213.53" stroke="#31323A" stroke-width="0.957638" stroke-miterlimit="10" stroke-linecap="round" stroke-linejoin="round"/>
<path d="M215.386 256.059C200.093 233.497 176.736 237.615 179.522 250.658C181.687 260.781 215.386 256.059 215.386 256.059Z" fill="white" stroke="#31323A" stroke-width="0.957638" stroke-miterlimit="10" stroke-linecap="round" stroke-linejoin="round"/>
<path d="M216.679 257.075C193.418 239.55 177.406 242.48 177.023 252.813C176.64 263.156 216.679 257.075 216.679 257.075Z" fill="#C1C7D7"/>
<path d="M216.679 257.075C193.418 239.55 177.406 242.48 177.023 252.813" stroke="#31323A" stroke-width="0.957638" stroke-miterlimit="10" stroke-linecap="round" stroke-linejoin="round"/>
<path d="M201.625 252.305C187.576 249.011 179.532 251.693 179.532 251.693" stroke="#31323A" stroke-width="0.957638" stroke-miterlimit="10" stroke-linecap="round" stroke-linejoin="round"/>
<path d="M240.888 363.267C247.63 379.557 257.58 389.056 256.737 397.57" stroke="#31323A" stroke-width="0.957638" stroke-miterlimit="10" stroke-linecap="round" stroke-linejoin="round"/>
<path d="M306.457 321.476L301.353 340.351" stroke="#31323A" stroke-width="0.957638" stroke-miterlimit="10" stroke-linecap="round" stroke-linejoin="round"/>
<path d="M39.4553 397.563H431.235" stroke="#31323A" stroke-width="0.957638" stroke-miterlimit="10" stroke-linecap="round" stroke-linejoin="round"/>
<path d="M353.972 136.425C357.899 138.991 362.696 136.425 362.696 136.425" stroke="#31323A" stroke-width="0.957638" stroke-miterlimit="10" stroke-linecap="round" stroke-linejoin="round"/>
<path d="M134.405 239.734L131.561 260.132" stroke="#31323A" stroke-width="0.957638" stroke-miterlimit="10" stroke-linecap="round" stroke-linejoin="round"/>
<path d="M411.641 257.183L409.41 259.529C409.41 259.529 411.909 261.042 412.197 267.745" stroke="#31323A" stroke-width="0.957638" stroke-miterlimit="10" stroke-linecap="round" stroke-linejoin="round"/>
<path d="M147.323 289.656C147.544 283.833 146.768 278.949 149.038 274.276C150.694 270.857 153.452 267.611 157.101 264.422" stroke="#31323A" stroke-width="0.957638" stroke-miterlimit="10" stroke-linecap="round" stroke-linejoin="round"/>
<path d="M133.122 251.81C147.027 257.173 151.576 270.197 151.576 270.197" stroke="#31323A" stroke-width="0.957638" stroke-miterlimit="10" stroke-linecap="round" stroke-linejoin="round"/>
<path d="M107.687 250.623C98.4457 250.901 93.6958 253.429 93.6958 253.429" stroke="#31323A" stroke-width="0.957638" stroke-miterlimit="10" stroke-linecap="round" stroke-linejoin="round"/>
<path d="M107.074 256.943C107.706 261.683 112.207 267.343 112.293 274.813" stroke="#31323A" stroke-width="0.957638" stroke-miterlimit="10" stroke-linecap="round" stroke-linejoin="round"/>
<path d="M346.589 229.095L342.758 255.622" stroke="#31323A" stroke-width="0.957638" stroke-miterlimit="10" stroke-linecap="round" stroke-linejoin="round"/>
</svg>
